<svg width="1007" height="1380" viewBox="0 0 1007 1380" fill="none" xmlns="http://www.w3.org/2000/svg">
<circle cx="418.5" cy="791.5" r="588.5" fill="#DFE0DF"/>
<mask id="mask0_425_2587" style="mask-type:alpha" maskUnits="userSpaceOnUse" x="0" y="0" width="230" height="621">
<path d="M230 235L0 0V621L194 512L230 235Z" fill="#FFDC34"/>
</mask>
<g mask="url(#mask0_425_2587)">
<path d="M230 235L0 0V621L194 512L230 235Z" fill="#FFDC34"/>
<g opacity="0.15">
<circle cy="210" r="16" fill="white"/>
<circle cx="52" cy="210" r="16" fill="white"/>
<circle cx="104" cy="210" r="16" fill="white"/>
</g>
<g opacity="0.15">
<circle cx="20" cy="262" r="16" fill="white"/>
<circle cx="72" cy="262" r="16" fill="white"/>
<circle cx="124" cy="262" r="16" fill="white"/>
</g>
<g opacity="0.15">
<circle cy="314" r="16" fill="white"/>
<circle cx="52" cy="314" r="16" fill="white"/>
<circle cx="104" cy="314" r="16" fill="white"/>
</g>
<g opacity="0.15">
<circle cx="20" cy="366" r="16" fill="white"/>
<circle cx="72" cy="366" r="16" fill="white"/>
<circle cx="124" cy="366" r="16" fill="white"/>
</g>
<g opacity="0.15">
<circle cy="418" r="16" fill="white"/>
<circle cx="52" cy="418" r="16" fill="white"/>
<circle cx="104" cy="418" r="16" fill="white"/>
</g>
<g opacity="0.15">
<circle cx="20" cy="470" r="16" fill="white"/>
<circle cx="72" cy="470" r="16" fill="white"/>
<circle cx="124" cy="470" r="16" fill="white"/>
</g>
<g opacity="0.15">
<circle cy="522" r="16" fill="white"/>
<circle cx="52" cy="522" r="16" fill="white"/>
<circle cx="104" cy="522" r="16" fill="white"/>
</g>
<g opacity="0.15">
<circle cx="20" cy="574" r="16" fill="white"/>
<circle cx="72" cy="574" r="16" fill="white"/>
<circle cx="124" cy="574" r="16" fill="white"/>
</g>
</g>
</svg>
