<svg width="1440" height="835" viewBox="0 0 1440 835" fill="none" xmlns="http://www.w3.org/2000/svg">
<mask id="mask0_469_1427" style="mask-type:alpha" maskUnits="userSpaceOnUse" x="0" y="0" width="1440" height="835">
<rect shape-rendering="geometricPrecision" width="1440" height="835" fill="url(#paint0_linear_469_1427)"/>
<rect shape-rendering="geometricPrecision" width="1440" height="835" fill="url(#paint1_linear_469_1427)"/>
<rect shape-rendering="geometricPrecision" width="1440" height="835" fill="#CE1F6A"/>
</mask>
<g mask="url(#mask0_469_1427)">
<rect shape-rendering="geometricPrecision" width="13.1968" height="153.962" rx="6.59839" transform="matrix(-0.207912 0.978148 0.978148 0.207912 1165.62 528.432)" fill="black" fill-opacity="0.1"/>
<rect x="0.385118" y="0.59303" width="12.1968" height="152.962" rx="6.09839" transform="matrix(-0.207912 0.978148 0.978148 0.207912 1165.51 528.525)" stroke="black" stroke-opacity="0.5"/>
<rect shape-rendering="geometricPrecision" width="13.1968" height="307.925" rx="6.59839" transform="matrix(-0.207912 0.978148 0.978148 0.207912 1115.28 553.709)" fill="black" fill-opacity="0.1"/>
<rect shape-rendering="geometricPrecision" x="0.385118" y="0.59303" width="12.1968" height="306.925" rx="6.09839" transform="matrix(-0.207912 0.978148 0.978148 0.207912 1115.17 553.802)" stroke="black" stroke-opacity="0.5"/>
<rect shape-rendering="geometricPrecision" width="13.1968" height="197.952" rx="6.59839" transform="matrix(-0.207912 0.978148 0.978148 0.207912 1129.48 592.704)" fill="black" fill-opacity="0.1"/>
<rect shape-rendering="geometricPrecision" x="0.385118" y="0.59303" width="12.1968" height="196.952" rx="6.09839" transform="matrix(-0.207912 0.978148 0.978148 0.207912 1129.36 592.797)" stroke="black" stroke-opacity="0.5"/>
<mask id="path-8-inside-1_469_1427" fill="white">
<path shape-rendering="geometricPrecision" fill-rule="evenodd" clip-rule="evenodd" d="M1068.96 501.004C1067.6 501.004 1066.42 500.094 1066.06 498.785L1048.92 435.219C1048.17 432.411 1044.26 432.215 1043.22 434.934L1018.84 499.07C1018.4 500.234 1017.28 501.004 1016.03 501.004H1013.14H942.006C939.147 501.004 937.908 504.623 940.167 506.375L997.025 550.466C998.068 551.275 998.46 552.67 997.991 553.903L974.306 616.199C973.259 618.953 976.393 621.408 978.816 619.733L1037.01 579.501C1038.08 578.761 1039.51 578.795 1040.54 579.586L1093.13 619.848C1095.41 621.59 1098.6 619.452 1097.85 616.684L1079.01 546.781C1078.67 545.549 1079.16 544.242 1080.21 543.523L1134.41 506.481C1136.85 504.816 1135.67 501.004 1132.72 501.004L1068.96 501.004Z"/>
</mask>
<path shape-rendering="geometricPrecision" fill-rule="evenodd" clip-rule="evenodd" d="M1068.96 501.004C1067.6 501.004 1066.42 500.094 1066.06 498.785L1048.92 435.219C1048.17 432.411 1044.26 432.215 1043.22 434.934L1018.84 499.07C1018.4 500.234 1017.28 501.004 1016.03 501.004H1013.14H942.006C939.147 501.004 937.908 504.623 940.167 506.375L997.025 550.466C998.068 551.275 998.46 552.67 997.991 553.903L974.306 616.199C973.259 618.953 976.393 621.408 978.816 619.733L1037.01 579.501C1038.08 578.761 1039.51 578.795 1040.54 579.586L1093.13 619.848C1095.41 621.59 1098.6 619.452 1097.85 616.684L1079.01 546.781C1078.67 545.549 1079.16 544.242 1080.21 543.523L1134.41 506.481C1136.85 504.816 1135.67 501.004 1132.72 501.004L1068.96 501.004Z" fill="black" fill-opacity="0.1"/>
<path shape-rendering="geometricPrecision" d="M1134.41 506.481L1134.97 507.306L1134.41 506.481ZM1132.72 501.004L1132.72 502.004L1132.72 501.004ZM1079.01 546.781L1079.97 546.52L1079.01 546.781ZM1080.21 543.523L1080.77 544.348L1080.21 543.523ZM1093.13 619.848L1093.74 619.053L1093.13 619.848ZM1097.85 616.684L1096.89 616.945L1097.85 616.684ZM1037.01 579.501L1037.58 580.323L1037.01 579.501ZM1040.54 579.586L1039.93 580.38L1040.54 579.586ZM974.306 616.199L973.371 615.844L974.306 616.199ZM978.816 619.733L978.248 618.91L978.816 619.733ZM940.167 506.375L940.78 505.584L940.167 506.375ZM1018.84 499.07L1017.9 498.715L1017.9 498.715L1018.84 499.07ZM1066.06 498.785L1067.03 498.525L1066.06 498.785ZM1068.96 501.004L1068.96 502.004L1068.96 501.004ZM997.025 550.466L996.413 551.256L997.025 550.466ZM997.991 553.903L997.056 553.547L997.991 553.903ZM1048.92 435.219L1047.96 435.479L1048.92 435.219ZM1047.96 435.479L1065.1 499.045L1067.03 498.525L1049.89 434.959L1047.96 435.479ZM1019.77 499.426L1044.16 435.289L1042.29 434.579L1017.9 498.715L1019.77 499.426ZM1013.14 502.004H1016.03V500.004H1013.14V502.004ZM942.006 502.004H1013.14V500.004H942.006V502.004ZM997.638 549.676L940.78 505.584L939.555 507.165L996.413 551.256L997.638 549.676ZM975.241 616.555L998.926 554.258L997.056 553.547L973.371 615.844L975.241 616.555ZM1036.44 578.678L978.248 618.91L979.385 620.555L1037.58 580.323L1036.44 578.678ZM1093.74 619.053L1041.15 578.792L1039.93 580.38L1092.53 620.642L1093.74 619.053ZM1078.04 547.041L1096.89 616.945L1098.82 616.424L1079.97 546.52L1078.04 547.041ZM1133.85 505.655L1079.64 542.697L1080.77 544.348L1134.97 507.306L1133.85 505.655ZM1068.96 502.004L1132.72 502.004L1132.72 500.004L1068.96 500.004L1068.96 502.004ZM1134.97 507.306C1138.22 505.087 1136.65 500.004 1132.72 500.004L1132.72 502.004C1134.68 502.004 1135.47 504.545 1133.85 505.655L1134.97 507.306ZM1079.97 546.52C1079.75 545.699 1080.07 544.828 1080.77 544.348L1079.64 542.697C1078.24 543.657 1077.6 545.399 1078.04 547.041L1079.97 546.52ZM1092.53 620.642C1095.56 622.965 1099.81 620.115 1098.82 616.424L1096.89 616.945C1097.39 618.79 1095.26 620.215 1093.74 619.053L1092.53 620.642ZM1037.58 580.323C1038.29 579.83 1039.24 579.853 1039.93 580.38L1041.15 578.792C1039.77 577.737 1037.87 577.691 1036.44 578.678L1037.58 580.323ZM973.371 615.844C971.976 619.515 976.154 622.789 979.385 620.555L978.248 618.91C976.632 620.027 974.543 618.39 975.241 616.555L973.371 615.844ZM942.006 500.004C938.194 500.004 936.543 504.829 939.555 507.165L940.78 505.584C939.274 504.417 940.1 502.004 942.006 502.004V500.004ZM1017.9 498.715C1017.61 499.491 1016.86 500.004 1016.03 500.004V502.004C1017.7 502.004 1019.18 500.978 1019.77 499.426L1017.9 498.715ZM1065.1 499.045C1065.57 500.791 1067.15 502.004 1068.96 502.004L1068.96 500.004C1068.06 500.004 1067.26 499.398 1067.03 498.525L1065.1 499.045ZM996.413 551.256C997.108 551.795 997.369 552.725 997.056 553.547L998.926 554.258C999.551 552.614 999.028 550.754 997.638 549.676L996.413 551.256ZM1049.89 434.959C1048.88 431.214 1043.67 430.954 1042.29 434.579L1044.16 435.289C1044.85 433.477 1047.45 433.607 1047.96 435.479L1049.89 434.959Z" fill="black" fill-opacity="0.5" mask="url(#path-8-inside-1_469_1427)"/>
<rect shape-rendering="geometricPrecision" width="13.1968" height="153.962" rx="6.59839" transform="matrix(-0.207912 0.978148 0.978148 0.207912 1441.62 105.432)" fill="black" fill-opacity="0.1"/>
<rect shape-rendering="geometricPrecision" x="0.385118" y="0.59303" width="12.1968" height="152.962" rx="6.09839" transform="matrix(-0.207912 0.978148 0.978148 0.207912 1441.51 105.525)" stroke="black" stroke-opacity="0.5"/>
<rect shape-rendering="geometricPrecision" width="13.1968" height="307.925" rx="6.59839" transform="matrix(-0.207912 0.978148 0.978148 0.207912 1391.28 130.709)" fill="black" fill-opacity="0.1"/>
<rect shape-rendering="geometricPrecision" x="0.385118" y="0.59303" width="12.1968" height="306.925" rx="6.09839" transform="matrix(-0.207912 0.978148 0.978148 0.207912 1391.17 130.802)" stroke="black" stroke-opacity="0.5"/>
<rect width="13.1968" height="197.952" rx="6.59839" transform="matrix(-0.207912 0.978148 0.978148 0.207912 1405.48 169.704)" fill="black" fill-opacity="0.1"/>
<rect shape-rendering="geometricPrecision" x="0.385118" y="0.59303" width="12.1968" height="196.952" rx="6.09839" transform="matrix(-0.207912 0.978148 0.978148 0.207912 1405.36 169.797)" stroke="black" stroke-opacity="0.5"/>
<mask id="path-16-inside-2_469_1427" fill="white">
<path shape-rendering="geometricPrecision" fill-rule="evenodd" clip-rule="evenodd" d="M1344.96 78.004C1343.6 78.004 1342.42 77.0944 1342.06 75.7851L1324.92 12.2191C1324.17 9.41079 1320.26 9.21526 1319.22 11.934L1294.84 76.0701C1294.4 77.2344 1293.28 78.004 1292.03 78.004H1289.14H1218.01C1215.15 78.004 1213.91 81.6229 1216.17 83.3747L1273.03 127.466C1274.07 128.275 1274.46 129.67 1273.99 130.903L1250.31 193.199C1249.26 195.953 1252.39 198.408 1254.82 196.733L1313.01 156.501C1314.08 155.761 1315.51 155.795 1316.54 156.586L1369.13 196.848C1371.41 198.59 1374.6 196.452 1373.85 193.684L1355.01 123.781C1354.67 122.549 1355.16 121.242 1356.21 120.523L1410.41 83.4808C1412.85 81.8161 1411.67 78.004 1408.72 78.004L1344.96 78.004Z"/>
</mask>
<path shape-rendering="geometricPrecision" fill-rule="evenodd" clip-rule="evenodd" d="M1344.96 78.004C1343.6 78.004 1342.42 77.0944 1342.06 75.7851L1324.92 12.2191C1324.17 9.41079 1320.26 9.21526 1319.22 11.934L1294.84 76.0701C1294.4 77.2344 1293.28 78.004 1292.03 78.004H1289.14H1218.01C1215.15 78.004 1213.91 81.6229 1216.17 83.3747L1273.03 127.466C1274.07 128.275 1274.46 129.67 1273.99 130.903L1250.31 193.199C1249.26 195.953 1252.39 198.408 1254.82 196.733L1313.01 156.501C1314.08 155.761 1315.51 155.795 1316.54 156.586L1369.13 196.848C1371.41 198.59 1374.6 196.452 1373.85 193.684L1355.01 123.781C1354.67 122.549 1355.16 121.242 1356.21 120.523L1410.41 83.4808C1412.85 81.8161 1411.67 78.004 1408.72 78.004L1344.96 78.004Z" fill="black" fill-opacity="0.1"/>
<path d="M1410.41 83.4808L1410.97 84.3064L1410.41 83.4808ZM1408.72 78.004L1408.72 79.004L1408.72 78.004ZM1355.01 123.781L1355.97 123.52L1355.01 123.781ZM1356.21 120.523L1356.77 121.348L1356.21 120.523ZM1369.13 196.848L1369.74 196.053L1369.13 196.848ZM1373.85 193.684L1372.89 193.945L1373.85 193.684ZM1313.01 156.501L1313.58 157.323L1313.01 156.501ZM1316.54 156.586L1315.93 157.38L1316.54 156.586ZM1250.31 193.199L1249.37 192.844L1250.31 193.199ZM1254.82 196.733L1254.25 195.91L1254.82 196.733ZM1216.17 83.3747L1216.78 82.5845L1216.17 83.3747ZM1294.84 76.0701L1293.9 75.7148L1293.9 75.7148L1294.84 76.0701ZM1342.06 75.7851L1343.03 75.5247L1342.06 75.7851ZM1344.96 78.004L1344.96 79.004L1344.96 78.004ZM1273.03 127.466L1272.41 128.256L1273.03 127.466ZM1273.99 130.903L1273.06 130.547L1273.99 130.903ZM1324.92 12.2191L1323.96 12.4795L1324.92 12.2191ZM1323.96 12.4795L1341.1 76.0454L1343.03 75.5247L1325.89 11.9588L1323.96 12.4795ZM1295.77 76.4255L1320.16 12.2894L1318.29 11.5787L1293.9 75.7148L1295.77 76.4255ZM1289.14 79.004H1292.03V77.004H1289.14V79.004ZM1218.01 79.004H1289.14V77.004H1218.01V79.004ZM1273.64 126.676L1216.78 82.5845L1215.55 84.165L1272.41 128.256L1273.64 126.676ZM1251.24 193.555L1274.93 131.258L1273.06 130.547L1249.37 192.844L1251.24 193.555ZM1312.44 155.678L1254.25 195.91L1255.39 197.555L1313.58 157.323L1312.44 155.678ZM1369.74 196.053L1317.15 155.792L1315.93 157.38L1368.53 197.642L1369.74 196.053ZM1354.04 124.041L1372.89 193.945L1374.82 193.424L1355.97 123.52L1354.04 124.041ZM1409.85 82.6552L1355.64 119.697L1356.77 121.348L1410.97 84.3064L1409.85 82.6552ZM1344.96 79.004L1408.72 79.004L1408.72 77.004L1344.96 77.004L1344.96 79.004ZM1410.97 84.3064C1414.22 82.0868 1412.65 77.004 1408.72 77.004L1408.72 79.004C1410.68 79.004 1411.47 81.5454 1409.85 82.6552L1410.97 84.3064ZM1355.97 123.52C1355.75 122.699 1356.07 121.828 1356.77 121.348L1355.64 119.697C1354.24 120.657 1353.6 122.399 1354.04 124.041L1355.97 123.52ZM1368.53 197.642C1371.56 199.965 1375.81 197.115 1374.82 193.424L1372.89 193.945C1373.39 195.79 1371.26 197.215 1369.74 196.053L1368.53 197.642ZM1313.58 157.323C1314.29 156.83 1315.24 156.853 1315.93 157.38L1317.15 155.792C1315.77 154.737 1313.87 154.691 1312.44 155.678L1313.58 157.323ZM1249.37 192.844C1247.98 196.515 1252.15 199.789 1255.39 197.555L1254.25 195.91C1252.63 197.027 1250.54 195.39 1251.24 193.555L1249.37 192.844ZM1218.01 77.004C1214.19 77.004 1212.54 81.8292 1215.55 84.165L1216.78 82.5845C1215.27 81.4166 1216.1 79.004 1218.01 79.004V77.004ZM1293.9 75.7148C1293.61 76.4909 1292.86 77.004 1292.03 77.004V79.004C1293.7 79.004 1295.18 77.9778 1295.77 76.4255L1293.9 75.7148ZM1341.1 76.0454C1341.57 77.7911 1343.15 79.004 1344.96 79.004L1344.96 77.004C1344.06 77.004 1343.26 76.3976 1343.03 75.5247L1341.1 76.0454ZM1272.41 128.256C1273.11 128.795 1273.37 129.725 1273.06 130.547L1274.93 131.258C1275.55 129.614 1275.03 127.754 1273.64 126.676L1272.41 128.256ZM1325.89 11.9588C1324.88 8.21433 1319.67 7.95362 1318.29 11.5787L1320.16 12.2894C1320.85 10.4769 1323.45 10.6073 1323.96 12.4795L1325.89 11.9588Z" fill="black" fill-opacity="0.5" mask="url(#path-16-inside-2_469_1427)"/>
<rect width="13.1968" height="153.962" rx="6.59839" transform="matrix(-0.207912 0.978148 0.978148 0.207912 224.625 524.432)" fill="black" fill-opacity="0.1"/>
<rect x="0.385118" y="0.59303" width="12.1968" height="152.962" rx="6.09839" transform="matrix(-0.207912 0.978148 0.978148 0.207912 224.51 524.525)" stroke="black" stroke-opacity="0.5"/>
<rect width="13.1968" height="307.925" rx="6.59839" transform="matrix(-0.207912 0.978148 0.978148 0.207912 174.282 549.709)" fill="black" fill-opacity="0.1"/>
<rect x="0.385118" y="0.59303" width="12.1968" height="306.925" rx="6.09839" transform="matrix(-0.207912 0.978148 0.978148 0.207912 174.167 549.802)" stroke="black" stroke-opacity="0.5"/>
<rect width="13.1968" height="197.952" rx="6.59839" transform="matrix(-0.207912 0.978148 0.978148 0.207912 188.478 588.704)" fill="black" fill-opacity="0.1"/>
<rect x="0.385118" y="0.59303" width="12.1968" height="196.952" rx="6.09839" transform="matrix(-0.207912 0.978148 0.978148 0.207912 188.363 588.797)" stroke="black" stroke-opacity="0.5"/>
<mask id="path-24-inside-3_469_1427" fill="white">
<path fill-rule="evenodd" clip-rule="evenodd" d="M127.96 497.004C126.604 497.004 125.417 496.094 125.064 494.785L107.924 431.219C107.166 428.411 103.257 428.215 102.223 430.934L77.8385 495.07C77.3958 496.234 76.2798 497.004 75.0343 497.004H72.1419H1.00589C-1.85276 497.004 -3.09153 500.623 -0.832525 502.375L56.0254 546.466C57.0681 547.275 57.4601 548.67 56.9911 549.903L33.3062 612.199C32.2594 614.953 35.3934 617.408 37.8164 615.733L96.0089 575.501C97.0794 574.761 98.5051 574.795 99.5385 575.586L152.134 615.848C154.411 617.59 157.6 615.452 156.854 612.684L138.005 542.781C137.673 541.549 138.156 540.242 139.209 539.523L193.409 502.481C195.845 500.816 194.667 497.004 191.717 497.004L127.96 497.004Z"/>
</mask>
<path fill-rule="evenodd" clip-rule="evenodd" d="M127.96 497.004C126.604 497.004 125.417 496.094 125.064 494.785L107.924 431.219C107.166 428.411 103.257 428.215 102.223 430.934L77.8385 495.07C77.3958 496.234 76.2798 497.004 75.0343 497.004H72.1419H1.00589C-1.85276 497.004 -3.09153 500.623 -0.832525 502.375L56.0254 546.466C57.0681 547.275 57.4601 548.67 56.9911 549.903L33.3062 612.199C32.2594 614.953 35.3934 617.408 37.8164 615.733L96.0089 575.501C97.0794 574.761 98.5051 574.795 99.5385 575.586L152.134 615.848C154.411 617.59 157.6 615.452 156.854 612.684L138.005 542.781C137.673 541.549 138.156 540.242 139.209 539.523L193.409 502.481C195.845 500.816 194.667 497.004 191.717 497.004L127.96 497.004Z" fill="black" fill-opacity="0.1"/>
<path d="M193.409 502.481L193.974 503.306L193.409 502.481ZM191.717 497.004L191.717 498.004L191.717 497.004ZM138.005 542.781L138.971 542.52L138.005 542.781ZM139.209 539.523L139.773 540.348L139.209 539.523ZM152.134 615.848L152.742 615.053L152.134 615.848ZM156.854 612.684L155.889 612.945L156.854 612.684ZM96.0089 575.501L96.5776 576.323L96.0089 575.501ZM99.5385 575.586L98.9307 576.38L99.5385 575.586ZM33.3062 612.199L32.3715 611.844L33.3062 612.199ZM37.8164 615.733L37.2478 614.91L37.8164 615.733ZM-0.832525 502.375L-0.219724 501.584L-0.832525 502.375ZM77.8385 495.07L76.9037 494.715L76.9037 494.715L77.8385 495.07ZM125.064 494.785L126.029 494.525L125.064 494.785ZM127.96 497.004L127.96 498.004L127.96 497.004ZM56.0254 546.466L55.4126 547.256L56.0254 546.466ZM56.9911 549.903L56.0564 549.547L56.9911 549.903ZM107.924 431.219L106.958 431.479L107.924 431.219ZM106.958 431.479L124.098 495.045L126.029 494.525L108.889 430.959L106.958 431.479ZM78.7732 495.426L103.158 431.289L101.288 430.579L76.9037 494.715L78.7732 495.426ZM72.1419 498.004H75.0343V496.004H72.1419V498.004ZM1.00589 498.004H72.1419V496.004H1.00589V498.004ZM56.6382 545.676L-0.219724 501.584L-1.44533 503.165L55.4126 547.256L56.6382 545.676ZM34.2409 612.555L57.9259 550.258L56.0564 549.547L32.3715 611.844L34.2409 612.555ZM95.4402 574.678L37.2478 614.91L38.3851 616.555L96.5776 576.323L95.4402 574.678ZM152.742 615.053L100.146 574.792L98.9307 576.38L151.526 616.642L152.742 615.053ZM137.04 543.041L155.889 612.945L157.82 612.424L138.971 542.52L137.04 543.041ZM192.845 501.655L138.645 538.697L139.773 540.348L193.974 503.306L192.845 501.655ZM127.96 498.004L191.717 498.004L191.717 496.004L127.96 496.004L127.96 498.004ZM193.974 503.306C197.221 501.087 195.65 496.004 191.717 496.004L191.717 498.004C193.684 498.004 194.469 500.545 192.845 501.655L193.974 503.306ZM138.971 542.52C138.749 541.699 139.071 540.828 139.773 540.348L138.645 538.697C137.241 539.657 136.597 541.399 137.04 543.041L138.971 542.52ZM151.526 616.642C154.562 618.965 158.815 616.115 157.82 612.424L155.889 612.945C156.386 614.79 154.26 616.215 152.742 615.053L151.526 616.642ZM96.5776 576.323C97.2913 575.83 98.2417 575.853 98.9307 576.38L100.146 574.792C98.7684 573.737 96.8676 573.691 95.4402 574.678L96.5776 576.323ZM32.3715 611.844C30.9757 615.515 35.1545 618.789 38.3851 616.555L37.2478 614.91C35.6324 616.027 33.543 614.39 34.2409 612.555L32.3715 611.844ZM1.00589 496.004C-2.80563 496.004 -4.45734 500.829 -1.44533 503.165L-0.219724 501.584C-1.72572 500.417 -0.899885 498.004 1.00589 498.004V496.004ZM76.9037 494.715C76.6086 495.491 75.8646 496.004 75.0343 496.004V498.004C76.695 498.004 78.183 496.978 78.7732 495.426L76.9037 494.715ZM124.098 495.045C124.569 496.791 126.152 498.004 127.96 498.004L127.96 496.004C127.056 496.004 126.264 495.398 126.029 494.525L124.098 495.045ZM55.4126 547.256C56.1077 547.795 56.369 548.725 56.0564 549.547L57.9259 550.258C58.5511 548.614 58.0284 546.754 56.6382 545.676L55.4126 547.256ZM108.889 430.959C107.879 427.214 102.666 426.954 101.288 430.579L103.158 431.289C103.847 429.477 106.453 429.607 106.958 431.479L108.889 430.959Z" fill="black" fill-opacity="0.5" mask="url(#path-24-inside-3_469_1427)"/>
<rect width="13.1968" height="153.962" rx="6.59839" transform="matrix(-0.207912 0.978148 0.978148 0.207912 550.625 105.432)" fill="black" fill-opacity="0.1"/>
<rect x="0.385118" y="0.59303" width="12.1968" height="152.962" rx="6.09839" transform="matrix(-0.207912 0.978148 0.978148 0.207912 550.51 105.525)" stroke="black" stroke-opacity="0.5"/>
<rect width="13.1968" height="307.925" rx="6.59839" transform="matrix(-0.207912 0.978148 0.978148 0.207912 500.282 130.709)" fill="black" fill-opacity="0.1"/>
<rect x="0.385118" y="0.59303" width="12.1968" height="306.925" rx="6.09839" transform="matrix(-0.207912 0.978148 0.978148 0.207912 500.167 130.802)" stroke="black" stroke-opacity="0.5"/>
<rect width="13.1968" height="197.952" rx="6.59839" transform="matrix(-0.207912 0.978148 0.978148 0.207912 514.478 169.704)" fill="black" fill-opacity="0.1"/>
<rect x="0.385118" y="0.59303" width="12.1968" height="196.952" rx="6.09839" transform="matrix(-0.207912 0.978148 0.978148 0.207912 514.363 169.797)" stroke="black" stroke-opacity="0.5"/>
<mask id="path-32-inside-4_469_1427" fill="white">
<path fill-rule="evenodd" clip-rule="evenodd" d="M453.96 78.004C452.604 78.004 451.417 77.0944 451.064 75.7851L433.924 12.2191C433.166 9.41079 429.257 9.21526 428.223 11.934L403.838 76.0701C403.396 77.2344 402.28 78.004 401.034 78.004H398.142H327.006C324.147 78.004 322.908 81.6229 325.167 83.3747L382.025 127.466C383.068 128.275 383.46 129.67 382.991 130.903L359.306 193.199C358.259 195.953 361.393 198.408 363.816 196.733L422.009 156.501C423.079 155.761 424.505 155.795 425.539 156.586L478.134 196.848C480.411 198.59 483.6 196.452 482.854 193.684L464.005 123.781C463.673 122.549 464.156 121.242 465.209 120.523L519.409 83.4808C521.845 81.8161 520.667 78.004 517.717 78.004L453.96 78.004Z"/>
</mask>
<path fill-rule="evenodd" clip-rule="evenodd" d="M453.96 78.004C452.604 78.004 451.417 77.0944 451.064 75.7851L433.924 12.2191C433.166 9.41079 429.257 9.21526 428.223 11.934L403.838 76.0701C403.396 77.2344 402.28 78.004 401.034 78.004H398.142H327.006C324.147 78.004 322.908 81.6229 325.167 83.3747L382.025 127.466C383.068 128.275 383.46 129.67 382.991 130.903L359.306 193.199C358.259 195.953 361.393 198.408 363.816 196.733L422.009 156.501C423.079 155.761 424.505 155.795 425.539 156.586L478.134 196.848C480.411 198.59 483.6 196.452 482.854 193.684L464.005 123.781C463.673 122.549 464.156 121.242 465.209 120.523L519.409 83.4808C521.845 81.8161 520.667 78.004 517.717 78.004L453.96 78.004Z" fill="black" fill-opacity="0.1"/>
<path d="M519.409 83.4808L519.974 84.3064L519.409 83.4808ZM517.717 78.004L517.717 79.004L517.717 78.004ZM464.005 123.781L464.971 123.52L464.005 123.781ZM465.209 120.523L465.773 121.348L465.209 120.523ZM478.134 196.848L478.742 196.053L478.134 196.848ZM482.854 193.684L481.889 193.945L482.854 193.684ZM422.009 156.501L422.578 157.323L422.009 156.501ZM425.539 156.586L424.931 157.38L425.539 156.586ZM359.306 193.199L358.371 192.844L359.306 193.199ZM363.816 196.733L363.248 195.91L363.816 196.733ZM325.167 83.3747L325.78 82.5845L325.167 83.3747ZM403.838 76.0701L402.904 75.7148L402.904 75.7148L403.838 76.0701ZM451.064 75.7851L452.029 75.5247L451.064 75.7851ZM453.96 78.004L453.96 79.004L453.96 78.004ZM382.025 127.466L381.413 128.256L382.025 127.466ZM382.991 130.903L382.056 130.547L382.991 130.903ZM433.924 12.2191L432.958 12.4795L433.924 12.2191ZM432.958 12.4795L450.098 76.0454L452.029 75.5247L434.889 11.9588L432.958 12.4795ZM404.773 76.4255L429.158 12.2894L427.288 11.5787L402.904 75.7148L404.773 76.4255ZM398.142 79.004H401.034V77.004H398.142V79.004ZM327.006 79.004H398.142V77.004H327.006V79.004ZM382.638 126.676L325.78 82.5845L324.555 84.165L381.413 128.256L382.638 126.676ZM360.241 193.555L383.926 131.258L382.056 130.547L358.371 192.844L360.241 193.555ZM421.44 155.678L363.248 195.91L364.385 197.555L422.578 157.323L421.44 155.678ZM478.742 196.053L426.146 155.792L424.931 157.38L477.526 197.642L478.742 196.053ZM463.04 124.041L481.889 193.945L483.82 193.424L464.971 123.52L463.04 124.041ZM518.845 82.6552L464.645 119.697L465.773 121.348L519.974 84.3064L518.845 82.6552ZM453.96 79.004L517.717 79.004L517.717 77.004L453.96 77.004L453.96 79.004ZM519.974 84.3064C523.221 82.0868 521.65 77.004 517.717 77.004L517.717 79.004C519.684 79.004 520.469 81.5454 518.845 82.6552L519.974 84.3064ZM464.971 123.52C464.749 122.699 465.071 121.828 465.773 121.348L464.645 119.697C463.241 120.657 462.597 122.399 463.04 124.041L464.971 123.52ZM477.526 197.642C480.562 199.965 484.815 197.115 483.82 193.424L481.889 193.945C482.386 195.79 480.26 197.215 478.742 196.053L477.526 197.642ZM422.578 157.323C423.291 156.83 424.242 156.853 424.931 157.38L426.146 155.792C424.768 154.737 422.868 154.691 421.44 155.678L422.578 157.323ZM358.371 192.844C356.976 196.515 361.154 199.789 364.385 197.555L363.248 195.91C361.632 197.027 359.543 195.39 360.241 193.555L358.371 192.844ZM327.006 77.004C323.194 77.004 321.543 81.8292 324.555 84.165L325.78 82.5845C324.274 81.4166 325.1 79.004 327.006 79.004V77.004ZM402.904 75.7148C402.609 76.4909 401.865 77.004 401.034 77.004V79.004C402.695 79.004 404.183 77.9778 404.773 76.4255L402.904 75.7148ZM450.098 76.0454C450.569 77.7911 452.152 79.004 453.96 79.004L453.96 77.004C453.056 77.004 452.264 76.3976 452.029 75.5247L450.098 76.0454ZM381.413 128.256C382.108 128.795 382.369 129.725 382.056 130.547L383.926 131.258C384.551 129.614 384.028 127.754 382.638 126.676L381.413 128.256ZM434.889 11.9588C433.879 8.21433 428.666 7.95362 427.288 11.5787L429.158 12.2894C429.847 10.4769 432.453 10.6073 432.958 12.4795L434.889 11.9588Z" fill="black" fill-opacity="0.5" mask="url(#path-32-inside-4_469_1427)"/>
</g>
<defs>
<linearGradient id="paint0_linear_469_1427" x1="611" y1="7.62298e-07" x2="742.028" y2="831.529" gradientUnits="userSpaceOnUse">
<stop stop-color="#EAE9ED" stop-opacity="0"/>
<stop offset="1" stop-color="#EAE9ED"/>
</linearGradient>
<linearGradient id="paint1_linear_469_1427" x1="412" y1="348.253" x2="-59.7104" y2="127.715" gradientUnits="userSpaceOnUse">
<stop stop-color="#D83A56"/>
<stop offset="1" stop-color="#FF0075"/>
</linearGradient>
</defs>
</svg>
