<svg width="235" height="92" viewBox="0 0 235 92" fill="none" xmlns="http://www.w3.org/2000/svg">
<g filter="url(#filter0_d_525_1285)">
<path d="M67.4349 12.6216C67.7964 12.224 68.3025 11.9886 68.8394 11.9683L222.242 6.17956C224.013 6.11273 224.989 8.21208 223.797 9.52349L167.565 71.3784C167.204 71.776 166.697 72.0114 166.161 72.0317L12.7585 77.8204C10.9874 77.8873 10.011 75.7879 11.2032 74.4765L67.4349 12.6216Z" fill="black"/>
<path d="M67.4349 12.6216C67.7964 12.224 68.3025 11.9886 68.8394 11.9683L222.242 6.17956C224.013 6.11273 224.989 8.21208 223.797 9.52349L167.565 71.3784C167.204 71.776 166.697 72.0114 166.161 72.0317L12.7585 77.8204C10.9874 77.8873 10.011 75.7879 11.2032 74.4765L67.4349 12.6216Z" fill="#B3292C"/>
</g>
<defs>
<filter id="filter0_d_525_1285" x="0.678467" y="0.178223" width="233.643" height="91.6436" filterUnits="userSpaceOnUse" color-interpolation-filters="sRGB">
<feFlood flood-opacity="0" result="BackgroundImageFix"/>
<feColorMatrix in="SourceAlpha" type="matrix" values="0 0 0 0 0 0 0 0 0 0 0 0 0 0 0 0 0 0 127 0" result="hardAlpha"/>
<feOffset dy="4"/>
<feGaussianBlur stdDeviation="5"/>
<feComposite in2="hardAlpha" operator="out"/>
<feColorMatrix type="matrix" values="0 0 0 0 0 0 0 0 0 0 0 0 0 0 0 0 0 0 0.25 0"/>
<feBlend mode="normal" in2="BackgroundImageFix" result="effect1_dropShadow_525_1285"/>
<feBlend mode="normal" in="SourceGraphic" in2="effect1_dropShadow_525_1285" result="shape"/>
</filter>
</defs>
</svg>
