<svg width="215" height="72" viewBox="0 0 215 72" fill="none" xmlns="http://www.w3.org/2000/svg">
<path d="M57.4349 6.62156C57.7964 6.22401 58.3025 5.98858 58.8394 5.96832L212.242 0.179565C214.013 0.112732 214.989 2.21208 213.797 3.52349L157.565 65.3784C157.204 65.776 156.697 66.0114 156.161 66.0317L2.75846 71.8204C0.98741 71.8873 0.0109848 69.7879 1.20317 68.4765L57.4349 6.62156Z" fill="black"/>
<path d="M57.4349 6.62156C57.7964 6.22401 58.3025 5.98858 58.8394 5.96832L212.242 0.179565C214.013 0.112732 214.989 2.21208 213.797 3.52349L157.565 65.3784C157.204 65.776 156.697 66.0114 156.161 66.0317L2.75846 71.8204C0.98741 71.8873 0.0109848 69.7879 1.20317 68.4765L57.4349 6.62156Z" fill="#B3292C"/>
</svg>
