<svg width="26" height="24" viewBox="0 0 26 24" fill="none" xmlns="http://www.w3.org/2000/svg">
<path fill-rule="evenodd" clip-rule="evenodd" d="M12.5941 1.90735e-06C19.5389 1.90735e-06 25.1884 4.58483 25.1885 10.2203C25.1885 12.4758 24.3143 14.507 22.4891 16.5085H22.4895C19.8473 19.5497 13.9384 23.254 12.5941 23.8205C11.2877 24.3712 11.4387 23.5105 11.4985 23.1696C11.5002 23.1598 11.5019 23.1505 11.5034 23.1416C11.5352 22.9522 11.683 22.0635 11.683 22.0635C11.7255 21.742 11.7694 21.2432 11.6424 20.9248C11.5012 20.5743 10.943 20.3922 10.5329 20.3038C4.48058 19.5036 0 15.2726 0 10.2203C0 4.58491 5.65035 1.90735e-06 12.5941 1.90735e-06ZM9.15218 7.49707H10.0355V7.49721C10.1005 7.49721 10.1628 7.52298 10.2088 7.56888C10.2547 7.61477 10.2806 7.67703 10.2807 7.74199V13.2297C10.2807 13.3649 10.171 13.4746 10.0355 13.4746H9.15218C9.11998 13.4746 9.08808 13.4683 9.05832 13.4561C9.02855 13.4438 9.0015 13.4257 8.9787 13.403C8.9559 13.3802 8.93781 13.3532 8.92545 13.3235C8.91309 13.2938 8.90671 13.2619 8.90667 13.2297V7.74199C8.90683 7.67698 8.93276 7.61468 8.97879 7.56877C9.02481 7.52285 9.08717 7.49707 9.15218 7.49707ZM15.2326 7.49707H16.1161V7.49721C16.181 7.49721 16.2433 7.52298 16.2893 7.56888C16.3353 7.61477 16.3612 7.67703 16.3613 7.74199V13.2297C16.3613 13.3649 16.2518 13.4746 16.1161 13.4746H15.2326C15.2108 13.4746 15.1899 13.4714 15.1699 13.4661C15.1691 13.466 15.1683 13.4657 15.1676 13.4655C15.1671 13.4654 15.1667 13.4653 15.1663 13.4653C15.1606 13.4637 15.1554 13.462 15.1496 13.4598C15.148 13.4594 15.1465 13.4588 15.145 13.4582C15.1441 13.4579 15.1432 13.4575 15.1423 13.4572L15.1303 13.4521C15.1263 13.4504 15.1224 13.4485 15.1187 13.4463C15.1162 13.4452 15.114 13.4441 15.1117 13.4427C15.1066 13.4398 15.1016 13.4366 15.0965 13.4334C15.0712 13.4168 15.0493 13.3957 15.0318 13.371L12.5139 9.97038V13.2297C12.5139 13.2619 12.5075 13.2938 12.4951 13.3235C12.4828 13.3533 12.4647 13.3803 12.4418 13.403C12.419 13.4258 12.392 13.4438 12.3622 13.4561C12.3324 13.4684 12.3005 13.4747 12.2683 13.4746H11.3852C11.353 13.4747 11.3211 13.4684 11.2913 13.4561C11.2615 13.4438 11.2345 13.4258 11.2116 13.403C11.1888 13.3803 11.1707 13.3533 11.1584 13.3235C11.146 13.2938 11.1396 13.2619 11.1396 13.2297V7.74199C11.1398 7.67698 11.1657 7.6147 11.2118 7.56881C11.2578 7.52292 11.3202 7.49717 11.3852 7.49721H12.2683C12.2699 7.49721 12.2713 7.49732 12.2727 7.49743C12.2741 7.49754 12.2755 7.49765 12.277 7.49765C12.2813 7.49794 12.2854 7.49794 12.2896 7.49837C12.2903 7.49845 12.2911 7.49852 12.2918 7.49859C12.2954 7.49893 12.299 7.49927 12.3027 7.50011C12.3061 7.50038 12.3095 7.50077 12.313 7.50127L12.327 7.50447L12.3355 7.50679C12.3404 7.50809 12.3453 7.50965 12.3501 7.51143L12.3581 7.51433C12.3629 7.51606 12.3676 7.51805 12.3722 7.52028C12.3737 7.52088 12.3752 7.52162 12.3766 7.52236C12.3777 7.52289 12.3788 7.52343 12.3798 7.52391C12.3833 7.52566 12.3868 7.52777 12.3903 7.52989C12.3912 7.53042 12.392 7.53094 12.3929 7.53146C12.3955 7.53267 12.398 7.53413 12.4003 7.53581C12.403 7.53742 12.4056 7.53926 12.4083 7.54111C12.4099 7.54226 12.4116 7.54341 12.4132 7.54451L12.4142 7.54524C12.4161 7.54657 12.4179 7.54787 12.4195 7.54959C12.424 7.55295 12.4284 7.55659 12.4325 7.56047L12.437 7.56454C12.4422 7.56937 12.4471 7.57446 12.4518 7.57977L12.4536 7.58122C12.4604 7.58912 12.4667 7.5974 12.4726 7.60603L14.9874 11.0023V7.74199C14.9875 7.677 15.0133 7.61471 15.0593 7.56878C15.1053 7.52286 15.1676 7.49707 15.2326 7.49707ZM5.50575 12.1004H7.90609V12.1005C8.04161 12.1005 8.15087 12.2102 8.15087 12.3458V13.2291C8.15094 13.2941 8.1252 13.3565 8.0793 13.4025C8.0334 13.4486 7.9711 13.4745 7.90609 13.4746H4.3769C4.31366 13.4747 4.25287 13.4501 4.20743 13.4061L4.2038 13.4026C4.18098 13.38 4.16287 13.353 4.15051 13.3233C4.13816 13.2936 4.13181 13.2617 4.13184 13.2295V7.74228C4.13184 7.67725 4.15767 7.61487 4.20366 7.56889C4.24964 7.5229 4.31202 7.49707 4.37705 7.49707H5.26069C5.3257 7.49711 5.38803 7.52296 5.43399 7.56894C5.47994 7.61492 5.50575 7.67727 5.50575 7.74228V12.1004ZM21.2393 8.62592C21.2393 8.76158 21.1299 8.87113 20.9945 8.87113L18.5943 8.87127V9.79859H20.9945C21.0595 9.7987 21.1218 9.82463 21.1677 9.87066C21.2136 9.9167 21.2394 9.97908 21.2393 10.0441V10.9276C21.2393 11.063 21.1299 11.1728 20.9945 11.1728H18.5943V12.1005H20.9945C21.0595 12.1007 21.1217 12.1265 21.1676 12.1725C21.2135 12.2185 21.2393 12.2808 21.2393 12.3458V13.2294C21.2393 13.2944 21.2135 13.3567 21.1676 13.4026C21.1217 13.4486 21.0595 13.4745 20.9945 13.4746H17.465C17.4019 13.4746 17.3412 13.45 17.2957 13.4061C17.2718 13.3833 17.2528 13.3559 17.2398 13.3256C17.2268 13.2952 17.2201 13.2626 17.2201 13.2295V7.74228C17.2202 7.67929 17.2446 7.61876 17.2883 7.57339C17.2888 7.57273 17.2894 7.57208 17.2899 7.57143C17.2906 7.57063 17.2913 7.56983 17.2921 7.56904C17.2928 7.56802 17.294 7.56729 17.295 7.56628C17.3393 7.52362 17.3989 7.49707 17.465 7.49707H20.9945C21.0595 7.49718 21.1218 7.52311 21.1677 7.56914C21.2136 7.61518 21.2394 7.67756 21.2393 7.74257V8.62592Z" fill="white"/>
</svg>
