<svg width="26" height="24" viewBox="0 0 26 24" fill="none" xmlns="http://www.w3.org/2000/svg">
<path d="M25.1885 10.2205C25.1885 4.58491 19.539 1.1214e-06 12.5941 1.1214e-06C5.65035 1.1214e-06 0 4.58491 0 10.2203C0 15.2726 4.48058 19.5036 10.5329 20.3038C10.943 20.3922 11.5012 20.5743 11.6424 20.9248C11.7694 21.2432 11.7255 21.742 11.683 22.0635C11.683 22.0635 11.5352 22.9522 11.5034 23.1416C11.4486 23.4601 11.2504 24.387 12.5941 23.8205C13.9384 23.254 19.8473 19.5497 22.4895 16.5085H22.4891C24.3143 14.507 25.1885 12.4758 25.1885 10.2203" fill="black"/>
<path d="M10.0353 7.49707H9.15193C9.08692 7.49707 9.02457 7.52285 8.97854 7.56877C8.93252 7.61468 8.90658 7.67698 8.90643 7.74199V13.2297C8.90647 13.2619 8.91285 13.2938 8.92521 13.3235C8.93757 13.3532 8.95566 13.3802 8.97846 13.403C9.00126 13.4257 9.02831 13.4438 9.05807 13.4561C9.08784 13.4683 9.11973 13.4746 9.15193 13.4746H10.0353C10.1708 13.4746 10.2805 13.3649 10.2805 13.2297V7.74199C10.2804 7.67703 10.2545 7.61477 10.2085 7.56888C10.1625 7.52298 10.1002 7.49721 10.0353 7.49721V7.49707ZM16.1158 7.49707H15.2324C15.1674 7.49707 15.105 7.52286 15.0591 7.56878C15.0131 7.61471 14.9872 7.677 14.9871 7.74199V11.0023L12.4723 7.60603C12.4665 7.5974 12.4601 7.58912 12.4533 7.58122L12.4516 7.57977C12.4469 7.57446 12.442 7.56937 12.4368 7.56454L12.4323 7.56047C12.4281 7.55659 12.4238 7.55295 12.4192 7.54959C12.4173 7.54756 12.4152 7.54611 12.413 7.54451C12.4086 7.54161 12.4044 7.53842 12.4001 7.53581C12.3977 7.53413 12.3953 7.53267 12.3927 7.53146C12.3883 7.52884 12.384 7.52609 12.3796 7.52391C12.377 7.52275 12.3745 7.5213 12.3719 7.52028C12.3673 7.51805 12.3626 7.51606 12.3578 7.51433L12.3499 7.51143C12.3451 7.50965 12.3402 7.50809 12.3352 7.50679L12.3268 7.50447L12.3127 7.50127C12.3093 7.50077 12.3059 7.50038 12.3024 7.50011C12.2981 7.4991 12.2937 7.49881 12.2894 7.49837C12.2851 7.49794 12.2811 7.49794 12.2767 7.49765C12.2737 7.49765 12.2712 7.49721 12.268 7.49721H11.385C11.32 7.49717 11.2576 7.52292 11.2115 7.56881C11.1655 7.6147 11.1395 7.67698 11.1393 7.74199V13.2297C11.1394 13.2619 11.1457 13.2938 11.1581 13.3235C11.1705 13.3533 11.1886 13.3803 11.2114 13.403C11.2342 13.4258 11.2613 13.4438 11.2911 13.4561C11.3208 13.4684 11.3528 13.4747 11.385 13.4746H12.268C12.3002 13.4747 12.3322 13.4684 12.3619 13.4561C12.3917 13.4438 12.4188 13.4258 12.4416 13.403C12.4644 13.3803 12.4825 13.3533 12.4949 13.3235C12.5073 13.2938 12.5136 13.2619 12.5137 13.2297V9.97038L15.0315 13.371C15.049 13.3957 15.071 13.4168 15.0962 13.4334C15.1013 13.4366 15.1064 13.4398 15.1115 13.4427C15.1138 13.4441 15.116 13.4452 15.1184 13.4463C15.1222 13.4485 15.1261 13.4504 15.1301 13.4521L15.1421 13.4572C15.1446 13.4581 15.1469 13.4591 15.1494 13.4598C15.1552 13.462 15.1604 13.4637 15.166 13.4653C15.1672 13.4653 15.1684 13.4659 15.1697 13.466C15.1897 13.4714 15.2106 13.4746 15.2324 13.4746H16.1158C16.2515 13.4746 16.3611 13.3649 16.3611 13.2297V7.74199C16.3609 7.67703 16.3351 7.61477 16.2891 7.56888C16.2431 7.52298 16.1808 7.49721 16.1158 7.49721V7.49707ZM7.90584 12.1004H5.50551V7.74228C5.50551 7.67727 5.4797 7.61492 5.43374 7.56894C5.38779 7.52296 5.32545 7.49711 5.26044 7.49707H4.37681C4.31177 7.49707 4.2494 7.5229 4.20341 7.56888C4.15743 7.61487 4.13159 7.67725 4.13159 7.74228V13.2295C4.13157 13.2617 4.13792 13.2936 4.15027 13.3233C4.16262 13.353 4.18073 13.38 4.20356 13.4026L4.20719 13.4061C4.25262 13.4501 4.31341 13.4747 4.37666 13.4746H7.90584C7.97085 13.4745 8.03316 13.4486 8.07906 13.4025C8.12496 13.3565 8.1507 13.2941 8.15062 13.2291V12.3458C8.15062 12.2102 8.04136 12.1005 7.90584 12.1005V12.1004ZM20.9943 8.87113C21.1297 8.87113 21.2391 8.76158 21.2391 8.62592V7.74257C21.2391 7.67756 21.2134 7.61518 21.1675 7.56914C21.1216 7.52311 21.0593 7.49718 20.9943 7.49707H17.4648C17.3986 7.49707 17.339 7.52362 17.2948 7.56628C17.2937 7.56729 17.2926 7.56802 17.2919 7.56904C17.2904 7.57049 17.2892 7.57194 17.2881 7.57339C17.2444 7.61876 17.2199 7.67929 17.2199 7.74228V13.2295C17.2199 13.2626 17.2266 13.2952 17.2396 13.3256C17.2525 13.3559 17.2716 13.3833 17.2955 13.4061C17.3409 13.45 17.4016 13.4746 17.4648 13.4746H20.9943C21.0592 13.4745 21.1215 13.4486 21.1674 13.4026C21.2133 13.3567 21.2391 13.2944 21.2391 13.2294V12.3458C21.2391 12.2808 21.2133 12.2185 21.1674 12.1725C21.1215 12.1265 21.0592 12.1007 20.9943 12.1005H18.5941V11.1728H20.9943C21.1297 11.1728 21.2391 11.063 21.2391 10.9276V10.0441C21.2391 9.97908 21.2134 9.9167 21.1675 9.87066C21.1216 9.82463 21.0593 9.7987 20.9943 9.79859H18.5941V8.87127L20.9943 8.87113Z" fill="white"/>
</svg>
