<svg width="25" height="24" viewBox="0 0 25 24" fill="none" xmlns="http://www.w3.org/2000/svg">
<path d="M12.1885 0C8.92948 0 8.52082 0.0138258 7.24088 0.0722013C5.96362 0.13047 5.09131 0.333355 4.328 0.629949C3.53889 0.936617 2.86968 1.34696 2.20258 2.01406C1.53544 2.68117 1.12509 3.35045 0.818461 4.13956C0.521796 4.90283 0.318982 5.77514 0.260642 7.0524C0.202267 8.33234 0.188477 8.74101 0.188477 12C0.188477 15.259 0.202267 15.6677 0.260642 16.9476C0.318982 18.2249 0.521796 19.0972 0.818461 19.8604C1.12513 20.6495 1.53547 21.3188 2.20258 21.9859C2.86972 22.653 3.53889 23.0634 4.328 23.3701C5.09131 23.6666 5.96362 23.8695 7.24088 23.9278C8.52082 23.9862 8.92948 24 12.1885 24C15.4475 24 15.8561 23.9862 17.1361 23.9278C18.4133 23.8695 19.2856 23.6666 20.0489 23.3701C20.838 23.0634 21.5072 22.653 22.1744 21.9859C22.8415 21.3188 23.2519 20.6495 23.5585 19.8604C23.8551 19.0972 24.058 18.2249 24.1163 16.9476C24.1747 15.6677 24.1885 15.259 24.1885 12C24.1885 8.74101 24.1747 8.33234 24.1163 7.0524C24.058 5.77514 23.8551 4.90283 23.5585 4.13956C23.2519 3.35045 22.8415 2.68117 22.1744 2.01406C21.5072 1.34696 20.838 0.936617 20.0489 0.629949C19.2856 0.333355 18.4133 0.13047 17.1361 0.0722013C15.8561 0.0138258 15.4475 0 12.1885 0ZM12.1885 2.16215C15.3926 2.16215 15.7721 2.1744 17.0375 2.23213C18.2075 2.28547 18.8429 2.48096 19.2657 2.6453C19.8259 2.86301 20.2256 3.12302 20.6455 3.54294C21.0655 3.96286 21.3255 4.36263 21.5432 4.92273C21.7075 5.34558 21.903 5.98099 21.9563 7.15097C22.0141 8.41633 22.0263 8.79588 22.0263 12C22.0263 15.2041 22.0141 15.5837 21.9563 16.849C21.903 18.019 21.7075 18.6544 21.5432 19.0772C21.3255 19.6374 21.0655 20.0371 20.6455 20.457C20.2256 20.877 19.8258 21.137 19.2657 21.3547C18.8429 21.519 18.2075 21.7145 17.0375 21.7679C15.7724 21.8256 15.3928 21.8379 12.1885 21.8379C8.98411 21.8379 8.60467 21.8256 7.33945 21.7678C6.16944 21.7145 5.53406 21.519 5.11124 21.3547C4.55107 21.137 4.15133 20.877 3.73145 20.457C3.31153 20.0371 3.05149 19.6374 2.83378 19.0773C2.66944 18.6544 2.47398 18.019 2.42061 16.849C2.36288 15.5837 2.35062 15.2041 2.35062 12C2.35062 8.79588 2.36288 8.41633 2.42061 7.15097C2.47398 5.98096 2.66944 5.34558 2.83378 4.92277C3.05149 4.36259 3.31153 3.96286 3.73142 3.54297C4.15133 3.12302 4.5511 2.86301 5.11121 2.6453C5.53406 2.48096 6.16947 2.28547 7.33945 2.23213C8.60481 2.1744 8.98436 2.16215 12.1885 2.16215" fill="white"/>
<path d="M12.1886 16C9.97936 16 8.18851 14.2091 8.18851 12C8.18851 9.79079 9.97936 7.99994 12.1886 7.99994C14.3977 7.99994 16.1885 9.79079 16.1885 12C16.1885 14.2091 14.3977 16 12.1886 16ZM12.1886 5.83779C8.78524 5.83779 6.02637 8.59666 6.02637 12C6.02637 15.4032 8.78524 18.1621 12.1886 18.1621C15.5918 18.1621 18.3507 15.4032 18.3507 12C18.3507 8.59666 15.5918 5.83779 12.1886 5.83779ZM20.0342 5.59432C20.0342 6.38964 19.3894 7.03431 18.5942 7.03431C17.7989 7.03431 17.1542 6.38964 17.1542 5.59432C17.1542 4.79904 17.7989 4.1543 18.5942 4.1543C19.3894 4.1543 20.0342 4.79904 20.0342 5.59432Z" fill="white"/>
</svg>
