<svg width="1440" height="500" viewBox="0 0 1440 500" fill="none" xmlns="http://www.w3.org/2000/svg">
<path d="M305.994 -0.00012207C155.989 -0.00012207 88.9999 199 -1.00586 208V500H1442.99V460H1426.99C1406.76 458.703 1397.26 446.568 1376.99 446C1354.46 445.368 1343.28 456.589 1320.99 460C1284.71 465.555 1262.96 461.683 1230.99 460C1212 459 1210.99 436 1194.99 436C1179 436 1172 460 1156.99 460C1106 460 1070.99 420.33 1036.99 420C1003 419.67 990.989 460 912.994 460C853 460 785.989 154 704.994 154C651 154 638 238 586.994 238C531.88 238 454 -0.00012207 305.994 -0.00012207Z" fill="url(#paint0_linear_672_2577)"/>
<defs>
<linearGradient id="paint0_linear_672_2577" x1="720.994" y1="99.9999" x2="720.994" y2="500" gradientUnits="userSpaceOnUse">
<stop stop-color="#EACFEE"/>
<stop offset="1" stop-color="#CAE3EF"/>
</linearGradient>
</defs>
</svg>
