<svg width="48" height="38" viewBox="0 0 48 38" fill="none" xmlns="http://www.w3.org/2000/svg">
<mask id="path-1-inside-1_725_1787" fill="white">
<path fill-rule="evenodd" clip-rule="evenodd" d="M-30 -335C-34.4183 -335 -38 -331.418 -38 -327V-2C-38 2.41827 -34.4183 6 -30 6H6.4L0 38L38.4 6H234C238.418 6 242 2.41827 242 -2V-327C242 -331.418 238.418 -335 234 -335H-30Z"/>
</mask>
<path fill-rule="evenodd" clip-rule="evenodd" d="M-30 -335C-34.4183 -335 -38 -331.418 -38 -327V-2C-38 2.41827 -34.4183 6 -30 6H6.4L0 38L38.4 6H234C238.418 6 242 2.41827 242 -2V-327C242 -331.418 238.418 -335 234 -335H-30Z" fill="white"/>
<path d="M6.4 6L12.2835 7.1767L13.7188 0H6.4V6ZM0 38L-5.88348 36.8233L-9.21705 53.4911L3.84111 42.6093L0 38ZM38.4 6V0H36.2277L34.5589 1.39067L38.4 6ZM-32 -327C-32 -328.105 -31.1046 -329 -30 -329V-341C-37.732 -341 -44 -334.732 -44 -327H-32ZM-32 -2V-327H-44V-2H-32ZM-30 0C-31.1046 0 -32 -0.895432 -32 -2H-44C-44 5.73198 -37.732 12 -30 12V0ZM6.4 0H-30V12H6.4V0ZM0.516518 4.8233L-5.88348 36.8233L5.88348 39.1767L12.2835 7.1767L0.516518 4.8233ZM3.84111 42.6093L42.2411 10.6093L34.5589 1.39067L-3.84111 33.3907L3.84111 42.6093ZM234 0H38.4V12H234V0ZM236 -2C236 -0.895435 235.105 0 234 0V12C241.732 12 248 5.73198 248 -2H236ZM236 -327V-2H248V-327H236ZM234 -329C235.105 -329 236 -328.105 236 -327H248C248 -334.732 241.732 -341 234 -341V-329ZM-30 -329H234V-341H-30V-329Z" fill="#5FAACE" mask="url(#path-1-inside-1_725_1787)"/>
</svg>
