<svg width="6" height="10" viewBox="0 0 6 10" fill="none" xmlns="http://www.w3.org/2000/svg">
<path d="M3 8.45139L1.02625 5.16182C1.02569 5.16054 1.01982 5.14822 1.01355 5.12247C1.0056 5.0898 1 5.04742 1 5C1 4.95259 1.0056 4.9102 1.01355 4.87753C1.01982 4.85178 1.02569 4.83946 1.02625 4.83818L3 1.54861L4.97374 4.83818C4.9743 4.83945 4.98018 4.85176 4.98645 4.87753C4.9944 4.9102 5 4.95259 5 5C5 5.04742 4.9944 5.0898 4.98645 5.12247C4.98018 5.14824 4.9743 5.16055 4.97374 5.16182L3 8.45139Z" stroke="#B3292C" stroke-width="2"/>
</svg>
