<svg width="206" height="210" viewBox="0 0 206 210" fill="none" xmlns="http://www.w3.org/2000/svg">
<g filter="url(#filter0_d_524_910)">
<path d="M101.014 104.878C101.02 104.852 101.026 104.839 101.026 104.838L103 101.549L104.974 104.838C104.974 104.839 104.98 104.852 104.986 104.878C104.994 104.91 105 104.953 105 105C105 105.047 104.994 105.09 104.986 105.122C104.98 105.148 104.974 105.161 104.974 105.162L103 108.451L101.026 105.162C101.026 105.161 101.02 105.148 101.014 105.122C101.006 105.09 101 105.047 101 105C101 104.953 101.006 104.91 101.014 104.878Z" stroke="white" stroke-width="2" shape-rendering="crispEdges"/>
</g>
<defs>
<filter id="filter0_d_524_910" x="0" y="0" width="206" height="210" filterUnits="userSpaceOnUse" color-interpolation-filters="sRGB">
<feFlood flood-opacity="0" result="BackgroundImageFix"/>
<feColorMatrix in="SourceAlpha" type="matrix" values="0 0 0 0 0 0 0 0 0 0 0 0 0 0 0 0 0 0 127 0" result="hardAlpha"/>
<feOffset/>
<feGaussianBlur stdDeviation="50"/>
<feComposite in2="hardAlpha" operator="out"/>
<feColorMatrix type="matrix" values="0 0 0 0 1 0 0 0 0 1 0 0 0 0 1 0 0 0 1 0"/>
<feBlend mode="normal" in2="BackgroundImageFix" result="effect1_dropShadow_524_910"/>
<feBlend mode="normal" in="SourceGraphic" in2="effect1_dropShadow_524_910" result="shape"/>
</filter>
</defs>
</svg>
