<svg width="145" height="240" viewBox="0 0 145 240" fill="none" xmlns="http://www.w3.org/2000/svg">
<path d="M137.079 119.539C137.079 129.173 137.462 138.949 137.822 148.138C138.072 154.512 138.31 160.603 138.402 166.168C138.637 180.369 137.99 192.351 134.927 202.103C131.959 211.553 126.747 218.849 117.499 223.981C107.969 229.27 93.6125 232.557 71.8688 232.557C54.3295 232.557 41.968 229.343 33.1339 224.08C24.4074 218.881 18.5663 211.352 14.6074 201.605C10.5913 191.717 8.55054 179.628 7.5613 165.603C6.64601 152.628 6.65148 138.423 6.65734 123.216C6.65781 121.997 6.65828 120.771 6.65828 119.539C6.65828 86.7701 10.3003 58.1534 20.3788 37.9263C25.3604 27.9286 31.8227 20.1692 40.0458 14.881C48.248 9.60617 58.6178 6.52161 71.8688 6.52161C85.1198 6.52161 95.4896 9.60617 103.692 14.881C111.915 20.1692 118.377 27.9286 123.359 37.9263C133.437 58.1534 137.079 86.7701 137.079 119.539Z" stroke="white" stroke-width="13"/>
</svg>
