<svg width="54" height="442" viewBox="0 0 54 442" fill="none" xmlns="http://www.w3.org/2000/svg">
<g filter="url(#filter0_d_469_1425)">
<path d="M11.2452 2.648H10.9852V2.492H11.2452V2.648ZM45.6172 29.532C45.6172 29.6013 45.5999 29.7573 45.5652 30C45.5652 30.2427 45.5479 30.52 45.5132 30.832C45.4786 31.144 45.4266 31.4733 45.3572 31.82C45.3226 32.132 45.2879 32.4093 45.2532 32.652C45.1839 32.964 45.0626 33.3107 44.8892 33.692C44.7506 34.0733 44.6119 34.4547 44.4732 34.836C44.2306 35.564 43.8146 36.3093 43.2252 37.072C42.6706 37.8347 42.0119 38.5627 41.2492 39.256C40.5212 39.9147 39.7412 40.504 38.9092 41.024C38.1119 41.5093 37.3839 41.856 36.7252 42.064C36.5172 42.1333 36.3786 42.2547 36.3092 42.428C36.2746 42.5667 36.2572 42.7227 36.2572 42.896C36.2919 43.0693 36.3092 43.2427 36.3092 43.416C36.3439 43.624 36.3439 43.78 36.3092 43.884H30.2252C30.2252 43.78 30.2426 43.6587 30.2772 43.52C30.3119 43.416 30.2599 43.364 30.1212 43.364C30.0519 43.364 29.8786 43.364 29.6012 43.364C29.3239 43.3987 29.0292 43.416 28.7172 43.416C28.4052 43.416 28.1106 43.416 27.8332 43.416C27.5906 43.4507 27.4346 43.468 27.3652 43.468C25.3892 43.468 23.3786 43.3293 21.3332 43.052C19.2879 42.7747 17.3812 42.168 15.6132 41.232C13.8799 40.2613 12.3719 38.8747 11.0892 37.072C9.84122 35.2347 9.00922 32.7733 8.59322 29.688V29.376L20.6052 28.648C20.5706 29.2027 20.6572 29.844 20.8652 30.572C21.1079 31.2653 21.4546 31.9413 21.9052 32.6C22.3559 33.2587 22.8759 33.8307 23.4652 34.316C24.0892 34.8013 24.7652 35.096 25.4932 35.2C25.6319 35.2347 25.8226 35.2867 26.0652 35.356C26.3079 35.4253 26.4986 35.46 26.6372 35.46H28.1452C28.2146 35.1133 28.2319 34.7493 28.1972 34.368C28.1626 33.9867 28.1452 33.588 28.1452 33.172C27.7639 33.0333 27.3306 33.0333 26.8452 33.172V30.728H22.9452C22.9106 30.0347 22.8759 29.22 22.8412 28.284C22.8066 27.3133 22.7546 26.3773 22.6852 25.476C21.6799 25.0947 20.5706 24.696 19.3572 24.28C18.1786 23.864 17.0866 23.344 16.0812 22.72L22.6332 22.616L15.9252 22.564C14.7812 22.0787 13.8452 21.472 13.1172 20.744C12.3892 19.9813 11.7999 19.184 11.3492 18.352C10.8986 17.4853 10.5866 16.6187 10.4132 15.752C10.2399 14.8853 10.1532 14.0707 10.1532 13.308C10.1532 13.204 10.1532 12.944 10.1532 12.528C10.1532 12.0773 10.1879 11.696 10.2572 11.384C10.4306 11.2107 10.3959 11.072 10.1532 10.968H11.1412V3.74H15.7692C15.9079 3.74 16.2372 3.60133 16.7572 3.324C17.3119 3.012 17.7452 2.78667 18.0572 2.648C19.6866 2.05866 21.2466 1.69466 22.7372 1.556C24.2626 1.41733 25.7879 1.348 27.3132 1.348C28.5266 1.348 29.8439 1.4 31.2652 1.504C32.6866 1.608 34.0906 1.88533 35.4772 2.336C36.8986 2.752 38.2332 3.428 39.4812 4.364C40.7292 5.26533 41.8039 6.53067 42.7052 8.16C42.7399 8.22933 42.8439 8.472 43.0172 8.888C43.1906 9.26933 43.3639 9.72 43.5372 10.24C43.7106 10.7253 43.8666 11.2453 44.0052 11.8C44.1786 12.32 44.2652 12.736 44.2652 13.048V13.516L32.4092 14.14C32.3399 13.9667 32.2879 13.776 32.2532 13.568C32.2186 13.36 32.2012 13.1867 32.2012 13.048C32.2012 12.9093 32.2359 12.632 32.3052 12.216C32.4092 11.7653 32.5132 11.3493 32.6172 10.968C32.7906 10.968 32.9466 10.968 33.0852 10.968C33.2239 10.968 33.3799 10.9333 33.5532 10.864C33.1719 10.7947 32.7386 10.7773 32.2532 10.812C31.8026 10.812 31.3866 10.812 31.0052 10.812C30.3119 10.0147 29.5666 9.512 28.7692 9.304C27.9719 9.06133 27.1226 8.94 26.2212 8.94C25.7706 8.94 25.3719 8.95733 25.0252 8.992C24.7132 8.992 24.2626 9.148 23.6732 9.46C23.7079 9.94533 23.7426 10.4307 23.7772 10.916C23.8466 11.3667 23.9332 11.8173 24.0372 12.268C24.3146 12.3027 24.5919 12.32 24.8692 12.32C25.1812 12.32 25.4932 12.32 25.8052 12.32C25.8052 12.5973 25.8226 12.892 25.8572 13.204C25.8919 13.4813 25.8746 13.7933 25.8052 14.14H31.8372C31.9066 14.4173 31.9586 14.7813 31.9932 15.232C32.0626 15.6827 32.0972 16.0987 32.0972 16.48C32.6866 16.8267 33.2932 17.0693 33.9172 17.208C34.5412 17.312 35.1652 17.4853 35.7892 17.728C36.7599 18.1093 37.6612 18.508 38.4932 18.924C39.3599 19.34 40.2439 19.86 41.1452 20.484H35.3212C35.2519 21.1427 35.2519 21.836 35.3212 22.564L22.7372 22.668H35.2692V24.748H44.6292C44.6986 24.9213 44.7679 25.1293 44.8372 25.372C44.9066 25.6147 44.9759 25.892 45.0452 26.204H26.0132C25.8746 26.204 25.4412 26.1173 24.7132 25.944C24.0199 25.736 23.3786 25.58 22.7892 25.476V25.996H24.4532C24.4532 26.3427 24.4532 26.6893 24.4532 27.036C24.4879 27.3827 24.5052 27.712 24.5052 28.024C24.8866 28.128 25.3026 28.128 25.7532 28.024V29.48H27.5212V27.4H28.2492V35.408C28.4226 35.4773 28.5959 35.4947 28.7692 35.46C28.9772 35.4253 29.1852 35.408 29.3932 35.408C29.4626 35.2347 29.5146 35.0613 29.5492 34.888C29.5839 34.68 29.6012 34.472 29.6012 34.264H30.0692C30.0692 34.4373 30.0692 34.5933 30.0692 34.732C30.0692 34.836 30.1039 34.9747 30.1732 35.148V28.96C30.9359 29.064 31.6812 29.064 32.4092 28.96C32.2706 28.7173 32.0452 28.492 31.7332 28.284C31.4559 28.0413 31.1612 27.8507 30.8492 27.712C30.5372 27.5387 30.2252 27.4 29.9132 27.296C29.6359 27.192 29.4279 27.1227 29.2892 27.088H45.5652L45.4612 27.244C45.4612 27.6253 45.4786 28.076 45.5132 28.596C45.5826 29.0813 45.6172 29.3933 45.6172 29.532ZM10.9852 9.304L10.8812 9.876H10.7252L10.8292 9.304H10.9852ZM0.897219 42.844H0.741218V42.376H0.897219V42.844ZM27.4692 15.492V15.128H25.4412C25.4412 15.1973 25.4586 15.2667 25.4932 15.336C25.5279 15.3707 25.5452 15.4227 25.5452 15.492H27.4692ZM23.6212 14.452V10.24H22.5292C22.3559 10.3787 22.2172 10.5173 22.1132 10.656C22.0092 10.76 21.8706 10.8293 21.6972 10.864C21.6972 11.1413 21.6626 11.2973 21.5932 11.332H20.9172C20.8479 11.2627 20.7959 11.176 20.7612 11.072C20.7612 10.968 20.7266 10.8813 20.6572 10.812V12.892C20.8652 12.892 21.0732 12.892 21.2812 12.892C21.4892 12.8573 21.6972 12.8747 21.9052 12.944C22.0786 13.152 22.3212 13.412 22.6332 13.724C22.9799 14.036 23.3092 14.2787 23.6212 14.452ZM23.8292 16.116C23.8292 16.012 23.8119 15.908 23.7772 15.804C23.7426 15.6653 23.7252 15.5787 23.7252 15.544H15.0412V16.116H23.8292ZM29.0609 58.712C28.9569 58.712 28.7662 58.6773 28.4889 58.608C28.2116 58.504 28.0209 58.3827 27.9169 58.244H28.5409C28.6102 58.3133 28.6796 58.4 28.7489 58.504C28.8529 58.5733 28.9569 58.6427 29.0609 58.712ZM28.0209 58.712C27.9169 58.712 27.7262 58.6773 27.4489 58.608C27.1716 58.504 26.9809 58.3827 26.8769 58.244H27.4489C27.5876 58.244 27.6916 58.296 27.7609 58.4C27.8302 58.504 27.9169 58.608 28.0209 58.712ZM26.9809 58.712C26.8769 58.712 26.6862 58.6773 26.4089 58.608C26.1316 58.504 25.9409 58.3827 25.8369 58.244H26.4609C26.5302 58.3133 26.5996 58.4 26.6689 58.504C26.7729 58.5733 26.8769 58.6427 26.9809 58.712ZM25.9409 58.712C25.8369 58.712 25.6462 58.6773 25.3689 58.608C25.0916 58.504 24.9009 58.3827 24.7969 58.244H25.4209C25.4902 58.3133 25.5596 58.4 25.6289 58.504C25.7329 58.5733 25.8369 58.6427 25.9409 58.712ZM24.9009 58.712C24.6929 58.7813 24.4849 58.764 24.2769 58.66C24.1036 58.5213 23.8956 58.3827 23.6529 58.244H24.3809C24.4502 58.3133 24.5196 58.4 24.5889 58.504C24.6929 58.5733 24.7969 58.6427 24.9009 58.712ZM23.8609 58.712C23.7569 58.7467 23.5836 58.712 23.3409 58.608C23.1329 58.4693 22.8902 58.348 22.6129 58.244H23.3409C23.4102 58.3133 23.4796 58.4 23.5489 58.504C23.6529 58.5733 23.7569 58.6427 23.8609 58.712ZM22.8209 58.712C22.7169 58.7467 22.5436 58.712 22.3009 58.608C22.0929 58.4693 21.8502 58.348 21.5729 58.244H22.3009C22.3702 58.3133 22.4396 58.4 22.5089 58.504C22.6129 58.5733 22.7169 58.6427 22.8209 58.712ZM21.7809 58.712C21.6769 58.7467 21.5036 58.712 21.2609 58.608C21.0529 58.4693 20.8102 58.348 20.5329 58.244H21.2609C21.3302 58.3133 21.3996 58.4 21.4689 58.504C21.5729 58.5733 21.6769 58.6427 21.7809 58.712ZM46.4289 69.632H42.0609C42.1302 69.84 42.2689 69.9267 42.4769 69.892C42.7196 69.8227 42.8929 69.788 42.9969 69.788C42.7889 69.9613 42.4422 70.204 41.9569 70.516C41.5062 70.7933 41.2116 70.932 41.0729 70.932C41.0382 70.932 40.9169 70.8627 40.7089 70.724C40.5356 70.5853 40.2236 70.6027 39.7729 70.776L39.6169 70.88V67.136C39.2356 66.8587 38.8022 66.564 38.3169 66.252C37.8662 65.9053 37.5716 65.732 37.4329 65.732H25.1089C24.9702 65.8013 24.8836 65.888 24.8489 65.992C24.8142 66.096 24.7622 66.2173 24.6929 66.356H21.5729C21.4342 66.356 21.2956 66.2867 21.1569 66.148C21.0182 65.9747 20.8969 65.8187 20.7929 65.68H8.10491V59.388H15.5409C15.5062 59.3533 15.4369 59.3013 15.3329 59.232C15.2289 59.1627 15.1249 59.076 15.0209 58.972H37.3289C37.4676 58.972 37.6409 59.0587 37.8489 59.232C38.0916 59.4053 38.2822 59.492 38.4209 59.492H46.4289V67.084H42.2689L42.1649 67.76H46.4289V69.632ZM20.7409 58.712C20.6369 58.7467 20.4636 58.712 20.2209 58.608C20.0129 58.4693 19.7702 58.348 19.4929 58.244H20.2209C20.2902 58.3133 20.3596 58.4 20.4289 58.504C20.5329 58.5733 20.6369 58.6427 20.7409 58.712ZM19.7009 58.712C19.5969 58.7467 19.4236 58.7293 19.1809 58.66C18.9729 58.5907 18.7302 58.452 18.4529 58.244H19.1809C19.2502 58.3133 19.3196 58.4 19.3889 58.504C19.4929 58.5733 19.5969 58.6427 19.7009 58.712ZM18.6609 58.712C18.5569 58.7467 18.3836 58.7293 18.1409 58.66C17.9329 58.5907 17.6902 58.452 17.4129 58.244H17.9849C18.0889 58.244 18.1929 58.3133 18.2969 58.452C18.4356 58.556 18.5569 58.6427 18.6609 58.712ZM17.5169 58.712C17.3436 58.712 17.1529 58.66 16.9449 58.556C16.7369 58.452 16.5462 58.348 16.3729 58.244H16.9449C17.0836 58.244 17.1876 58.296 17.2569 58.4C17.3262 58.504 17.4129 58.608 17.5169 58.712ZM39.0449 70.672H33.7409C33.6716 70.776 33.6022 70.8973 33.5329 71.036C33.4636 71.1747 33.3942 71.3133 33.3249 71.452H28.5409C28.4022 71.452 28.2289 71.5213 28.0209 71.66C27.8129 71.764 27.6049 71.8853 27.3969 72.024H32.8569V77.848H21.0009V73.324H13.4609C13.7036 73.116 13.9809 72.8907 14.2929 72.648C14.6396 72.3707 14.9689 72.128 15.2809 71.92C15.5929 71.6773 15.8702 71.4693 16.1129 71.296C16.3556 71.1227 16.5116 71.036 16.5809 71.036H19.6489C19.7529 71.036 19.9262 71.0013 20.1689 70.932C20.4116 70.8627 20.6369 70.7587 20.8449 70.62H12.8889C12.8889 70.3773 12.8716 70.2387 12.8369 70.204V70.308C12.8369 70.3773 12.7849 70.412 12.6809 70.412C12.5422 70.412 12.5076 70.3947 12.5769 70.36C12.6462 70.3253 12.6462 70.2733 12.5769 70.204L12.3689 70.36C12.3689 70.2907 12.3342 70.1867 12.2649 70.048C12.2302 69.8747 12.2129 69.736 12.2129 69.632C12.1782 69.5973 12.1262 69.58 12.0569 69.58C12.0222 69.5453 11.9009 69.528 11.6929 69.528C11.5196 69.528 11.2422 69.528 10.8609 69.528C10.5142 69.528 10.0289 69.528 9.40491 69.528C9.54357 69.424 9.71691 69.2853 9.92491 69.112C10.1329 68.904 10.3409 68.7133 10.5489 68.54C10.7569 68.3667 10.9649 68.2107 11.1729 68.072C11.4156 67.9333 11.6409 67.8813 11.8489 67.916C11.9182 67.8467 11.9356 67.8293 11.9009 67.864C11.9009 67.8987 11.9009 67.8467 11.9009 67.708C11.9009 67.3613 11.8489 67.188 11.7449 67.188C11.6409 67.188 11.4849 67.188 11.2769 67.188C11.0689 67.188 10.7916 67.292 10.4449 67.5C10.1329 67.6733 9.82091 67.8813 9.50891 68.124C9.19691 68.3667 8.90224 68.6093 8.62491 68.852C8.38224 69.0947 8.20891 69.2507 8.10491 69.32V66.044H19.5449C19.6836 66.044 19.8916 66.1827 20.1689 66.46C20.4809 66.7373 20.7062 66.876 20.8449 66.876H25.5769C25.6809 66.772 25.7849 66.6507 25.8889 66.512C25.9929 66.3733 26.1316 66.2173 26.3049 66.044H32.8569C32.9956 66.044 33.1169 66.1133 33.2209 66.252C33.3596 66.3907 33.4982 66.46 33.6369 66.46H37.4329C37.5716 66.46 37.7969 66.5987 38.1089 66.876C38.4556 67.1187 38.7676 67.3267 39.0449 67.5V70.672ZM33.5329 100.312H21.0009V95.268H22.4569C22.4222 95.164 22.3876 95.112 22.3529 95.112C22.3529 95.0773 22.3529 94.9387 22.3529 94.696C22.3529 94.4533 22.3529 94.02 22.3529 93.396C22.3529 92.772 22.3702 91.8013 22.4049 90.484C22.4742 90.4147 22.5436 90.38 22.6129 90.38C22.6822 90.38 22.7516 90.3453 22.8209 90.276C22.8209 90.1027 22.8209 89.86 22.8209 89.548C22.8556 89.236 22.8902 88.9413 22.9249 88.664C22.9596 88.352 22.9769 88.0747 22.9769 87.832C23.0116 87.5547 23.0289 87.3813 23.0289 87.312C23.0289 87.2427 23.0116 87.104 22.9769 86.896C22.9769 86.688 22.9596 86.4627 22.9249 86.22C22.8902 85.9427 22.8556 85.6827 22.8209 85.44C22.8209 85.1627 22.8209 84.92 22.8209 84.712C22.5436 84.5387 22.2662 84.4693 21.9889 84.504C21.7116 84.5387 21.3822 84.5387 21.0009 84.504V78.316H32.8049V88.352C32.8049 88.4907 32.8742 88.6467 33.0129 88.82C33.1862 88.9933 33.3596 89.1667 33.5329 89.34V100.312ZM39.5649 66.616V65.732H38.1089C38.3169 65.836 38.5596 65.992 38.8369 66.2C39.1489 66.408 39.3916 66.5467 39.5649 66.616ZM37.0689 67.76V67.188H36.7049V67.76H37.0689ZM36.7569 69.788V69.632H36.3929V69.788H36.7569ZM33.3249 67.188H32.1809C32.3196 67.2573 32.4409 67.344 32.5449 67.448C32.6836 67.552 32.8049 67.604 32.9089 67.604C33.0476 67.604 33.1342 67.552 33.1689 67.448C33.2036 67.344 33.2556 67.2573 33.3249 67.188ZM29.8929 67.5V67.344H29.6329V67.5H29.8929ZM28.5409 67.76C28.3329 67.656 28.1076 67.5347 27.8649 67.396C27.6569 67.2573 27.4836 67.188 27.3449 67.188H26.9809C27.2582 67.3267 27.5356 67.4653 27.8129 67.604C28.1249 67.708 28.3676 67.76 28.5409 67.76ZM20.9489 69.996V69.84L20.4809 69.944V70.1L20.9489 69.996ZM20.2209 70.048V69.58H12.8889V69.788C12.8889 69.9613 12.9236 70.048 12.9929 70.048H20.2209ZM15.7489 67.864C15.5756 67.76 15.4196 67.6213 15.2809 67.448C15.1422 67.2747 15.0036 67.188 14.8649 67.188H12.4729C12.4729 67.292 12.4902 67.4133 12.5249 67.552C12.5596 67.6907 12.5769 67.7947 12.5769 67.864H15.7489ZM35.4297 121.224C35.2564 121.155 35.0657 121.103 34.8577 121.068C34.6497 121.033 34.4417 120.981 34.2337 120.912C34.303 120.323 34.3377 119.872 34.3377 119.56C34.3377 119.248 34.3204 118.953 34.2857 118.676L35.4297 121.224ZM34.0777 117.792L28.7217 116.18H33.5577C33.6617 116.388 33.7484 116.648 33.8177 116.96C33.9217 117.272 34.0084 117.549 34.0777 117.792ZM39.6937 132.768H28.4097C28.3057 132.421 28.1844 132.04 28.0457 131.624C27.907 131.173 27.7857 130.74 27.6817 130.324H38.8617C38.9657 130.705 39.087 131.087 39.2257 131.468C39.3644 131.849 39.5204 132.283 39.6937 132.768ZM44.8937 146.392H40.2657L42.3457 139.684L44.8937 146.392ZM48.0137 154.712H41.7737C41.4617 154.955 41.2537 155.163 41.1497 155.336C41.0804 155.509 41.0284 155.683 40.9937 155.856C40.9937 156.029 41.011 156.203 41.0457 156.376C41.0804 156.515 41.0804 156.688 41.0457 156.896H37.0417L38.9137 150.76H42.1377V150.292H39.1217C39.2257 149.945 39.3297 149.599 39.4337 149.252C39.5377 148.871 39.6417 148.524 39.7457 148.212H42.7097C42.8137 148.524 42.9177 148.853 43.0217 149.2C43.1257 149.547 43.2297 149.911 43.3337 150.292H46.3497L48.0137 154.712ZM42.1377 139.06L39.7977 146.444H34.3377C34.2337 146.167 34.1297 145.889 34.0257 145.612C33.9217 145.3 33.8177 145.005 33.7137 144.728H29.5537V143.012H23.8857C23.8857 143.047 23.8684 143.064 23.8337 143.064C23.7644 143.133 23.7297 143.168 23.7297 143.168C23.6604 143.688 23.591 144.208 23.5217 144.728C23.487 145.248 23.4697 145.768 23.4697 146.288C23.4697 146.323 23.435 146.357 23.3657 146.392C23.2964 146.392 23.175 146.392 23.0017 146.392C22.8284 146.392 22.551 146.409 22.1697 146.444C21.823 146.444 21.3377 146.461 20.7137 146.496H32.2057C32.275 146.773 32.3444 147.068 32.4137 147.38C32.5177 147.657 32.6217 147.935 32.7257 148.212H39.2777L38.6537 150.188H19.4137L17.3337 156.896H8.33769C8.51102 156.515 8.64969 156.151 8.75369 155.804C8.89235 155.457 9.10035 155.093 9.37769 154.712C9.23902 154.539 8.97902 154.417 8.59769 154.348C8.42435 154.764 8.26835 155.197 8.12969 155.648C7.99102 156.099 7.86969 156.515 7.76569 156.896H4.48969L5.84169 153.36C5.73769 153.291 5.61635 153.239 5.47769 153.204C5.33902 153.169 5.18302 153.117 5.00969 153.048C4.94035 152.771 4.88835 152.493 4.85369 152.216C4.81902 151.939 4.76702 151.679 4.69769 151.436L6.56969 145.716H6.46569C6.29235 146.132 6.11902 146.6 5.94569 147.12C5.80702 147.64 5.65102 148.143 5.47769 148.628C5.44302 148.628 5.40835 148.611 5.37369 148.576C5.33902 148.576 5.28702 148.541 5.21769 148.472L6.62169 144.884C6.58702 144.988 6.55235 145.109 6.51769 145.248C6.51769 145.387 6.55235 145.508 6.62169 145.612C6.69102 145.508 6.72569 145.387 6.72569 145.248C6.76035 145.109 6.81235 144.953 6.88169 144.78C7.08969 144.607 7.34969 144.468 7.66169 144.364C7.97369 144.225 8.25102 144.069 8.49369 143.896C8.77102 143.723 8.99635 143.515 9.16969 143.272C9.34302 142.995 9.41235 142.631 9.37769 142.18C9.20435 142.353 8.99635 142.492 8.75369 142.596C8.54569 142.7 8.33769 142.804 8.12969 142.908C8.06035 142.527 8.23369 142.249 8.64969 142.076C9.06569 141.868 9.37769 141.712 9.58569 141.608C9.65502 141.573 9.67235 141.539 9.63769 141.504C9.63769 141.469 9.62035 141.452 9.58569 141.452C9.20435 141.66 8.82302 141.833 8.44169 141.972C8.44169 141.903 8.45902 141.816 8.49369 141.712C8.52835 141.608 8.54569 141.521 8.54569 141.452C8.71902 141.348 8.92702 141.227 9.16969 141.088C9.41235 140.915 9.60302 140.828 9.74169 140.828C9.88035 140.828 9.93235 140.828 9.89769 140.828C9.86302 140.828 9.88035 140.863 9.94969 140.932C10.019 140.863 10.0364 140.811 10.0017 140.776C10.0017 140.707 10.0017 140.585 10.0017 140.412C9.82835 140.585 9.62035 140.724 9.37769 140.828C9.16969 140.932 8.96169 141.036 8.75369 141.14C8.75369 140.897 8.82302 140.707 8.96169 140.568C9.10035 140.429 9.25635 140.325 9.42969 140.256C9.63769 140.152 9.81102 140.065 9.94969 139.996C10.123 139.927 10.2444 139.84 10.3137 139.736C10.1057 139.736 9.89769 139.788 9.68969 139.892C9.48169 139.996 9.27369 140.1 9.06569 140.204C8.99635 139.823 9.15235 139.563 9.53369 139.424C9.91502 139.285 10.279 139.129 10.6257 138.956C10.6257 138.887 10.591 138.817 10.5217 138.748C10.3137 138.817 10.1057 138.921 9.89769 139.06C9.68969 139.164 9.48169 139.268 9.27369 139.372C9.27369 139.199 9.34302 139.06 9.48169 138.956C9.62035 138.817 9.75902 138.713 9.89769 138.644C10.071 138.54 10.227 138.453 10.3657 138.384C10.5044 138.28 10.6084 138.159 10.6777 138.02C11.267 136.564 11.8044 135.073 12.2897 133.548C12.8097 132.023 13.3124 130.532 13.7977 129.076C13.867 128.799 13.9537 128.487 14.0577 128.14C14.1617 127.759 14.3004 127.377 14.4737 126.996C14.6124 126.719 14.751 126.32 14.8897 125.8C15.0284 125.245 15.2017 124.743 15.4097 124.292C15.479 124.049 15.5484 123.807 15.6177 123.564C15.687 123.287 15.7564 123.009 15.8257 122.732C15.895 122.836 15.9644 122.957 16.0337 123.096C16.1377 123.235 16.2244 123.391 16.2937 123.564C16.363 123.495 16.3804 123.477 16.3457 123.512C16.3457 123.547 16.3457 123.495 16.3457 123.356C16.3457 123.217 16.2764 123.061 16.1377 122.888C15.999 122.68 15.9297 122.507 15.9297 122.368C15.9297 122.299 15.9644 122.143 16.0337 121.9C16.1377 121.657 16.2417 121.363 16.3457 121.016C16.4497 120.669 16.5537 120.323 16.6577 119.976C16.7964 119.629 16.9004 119.317 16.9697 119.04C17.143 118.971 17.3164 118.884 17.4897 118.78C17.6977 118.641 17.871 118.572 18.0097 118.572C18.1137 118.572 18.2004 118.589 18.2697 118.624C18.3737 118.659 18.5297 118.711 18.7377 118.78C18.9457 118.364 19.119 117.931 19.2577 117.48C19.431 117.029 19.6044 116.596 19.7777 116.18H21.2857L19.5697 119.04C19.7084 119.213 19.9164 119.3 20.1937 119.3C20.5057 119.3 20.6964 119.473 20.7657 119.82C21.147 119.231 21.4937 118.641 21.8057 118.052C22.1524 117.428 22.5164 116.804 22.8977 116.18C23.2097 116.18 23.539 116.18 23.8857 116.18C24.2324 116.145 24.5444 116.163 24.8217 116.232C26.243 116.613 27.647 117.047 29.0337 117.532C30.4204 118.017 31.8244 118.468 33.2457 118.884C33.2804 119.3 33.263 119.82 33.1937 120.444C33.159 121.068 33.107 121.727 33.0377 122.42C33.4537 122.593 33.991 122.715 34.6497 122.784C35.3084 122.853 35.811 123.096 36.1577 123.512C36.8857 124.379 37.371 125.384 37.6137 126.528C37.891 127.637 38.2377 128.712 38.6537 129.752L28.7217 129.908C28.583 129.908 28.3924 129.908 28.1497 129.908C27.9417 129.908 27.751 129.891 27.5777 129.856C27.3697 129.405 27.179 128.937 27.0057 128.452C26.867 127.932 26.711 127.412 26.5377 126.892C26.2257 127.273 26.035 127.759 25.9657 128.348C25.8964 128.903 25.723 129.423 25.4457 129.908H17.8537C17.715 130.047 17.6457 130.168 17.6457 130.272H25.3417C25.2377 130.653 25.1337 131.069 25.0297 131.52C24.9257 131.936 24.8217 132.369 24.7177 132.82H16.7097C16.7097 132.959 16.7444 133.063 16.8137 133.132H24.5097L22.0137 141.348H30.9057L28.5137 133.132H39.9017L42.1377 139.06ZM29.2937 143.844C29.2244 144.121 29.1724 144.433 29.1377 144.78C29.1377 145.092 29.103 145.404 29.0337 145.716C29.103 145.404 29.1204 145.057 29.0857 144.676C29.051 144.295 29.1204 144.017 29.2937 143.844ZM28.9297 143.844L28.7217 145.664H28.5657L28.7737 143.844H28.9297ZM28.5657 143.844C28.5657 144.121 28.531 144.433 28.4617 144.78C28.427 145.092 28.375 145.404 28.3057 145.716C28.3057 145.404 28.323 145.092 28.3577 144.78C28.427 144.433 28.4964 144.121 28.5657 143.844ZM28.2537 143.844C28.1844 144.121 28.1324 144.433 28.0977 144.78C28.0977 145.092 28.063 145.404 27.9937 145.716C28.063 145.404 28.0804 145.057 28.0457 144.676C28.011 144.295 28.0804 144.017 28.2537 143.844ZM27.7857 145.664H27.6297V143.844H27.7857V145.664ZM27.5777 143.844L27.3697 145.664H27.2137L27.4217 143.844H27.5777ZM38.4457 150.812L36.5737 156.948H35.6897L33.9217 150.812H38.4457ZM27.0577 143.844C27.127 144.052 27.1444 144.347 27.1097 144.728C27.075 145.075 27.023 145.404 26.9537 145.716C26.9537 145.439 26.9537 145.144 26.9537 144.832C26.9537 144.485 26.9884 144.156 27.0577 143.844ZM26.9017 143.844C26.8324 144.156 26.763 144.485 26.6937 144.832C26.659 145.144 26.607 145.439 26.5377 145.716V145.144C26.5377 145.005 26.5724 144.797 26.6417 144.52C26.711 144.243 26.7977 144.017 26.9017 143.844ZM26.5377 143.844L26.3297 145.664H26.1737L26.3817 143.844H26.5377ZM26.1737 143.844C26.139 144.156 26.1044 144.503 26.0697 144.884C26.0697 145.265 25.983 145.491 25.8097 145.56C25.879 145.283 25.931 145.005 25.9657 144.728C26.035 144.416 26.1044 144.121 26.1737 143.844ZM25.8617 143.844C25.7924 144.121 25.7404 144.433 25.7057 144.78C25.7057 145.092 25.671 145.404 25.6017 145.716C25.671 145.369 25.671 145.023 25.6017 144.676C25.567 144.329 25.6537 144.052 25.8617 143.844ZM25.4977 143.844L25.2897 145.664H25.1337L25.3417 143.844H25.4977ZM25.1337 143.844C25.1337 144.121 25.099 144.433 25.0297 144.78C24.995 145.092 24.943 145.404 24.8737 145.716C24.8737 145.404 24.891 145.092 24.9257 144.78C24.995 144.433 25.0644 144.121 25.1337 143.844ZM24.8217 143.844C24.7524 144.087 24.7004 144.399 24.6657 144.78C24.6657 145.127 24.631 145.439 24.5617 145.716C24.631 145.404 24.6484 145.057 24.6137 144.676C24.579 144.295 24.6484 144.017 24.8217 143.844ZM24.4057 143.844C24.4057 144.121 24.371 144.433 24.3017 144.78C24.267 145.092 24.215 145.404 24.1457 145.716C24.1457 145.439 24.163 145.144 24.1977 144.832C24.267 144.485 24.3364 144.156 24.4057 143.844ZM16.2417 123.824V123.564H16.0857V123.824H16.2417ZM16.1377 124.136V123.876H15.9817V124.136H16.1377ZM16.0337 124.448V124.188H15.8777V124.448H16.0337ZM15.9297 124.76V124.5H15.7737V124.76H15.9297ZM15.8257 125.072V124.812H15.6697V125.072H15.8257ZM15.6177 125.228C15.583 125.263 15.5657 125.28 15.5657 125.28C15.531 125.28 15.5137 125.263 15.5137 125.228C15.4444 125.228 15.4097 125.315 15.4097 125.488C15.4097 125.661 15.3924 125.783 15.3577 125.852C15.115 126.545 14.8897 127.221 14.6817 127.88C14.4737 128.539 14.231 129.215 13.9537 129.908C13.8497 129.804 13.7977 129.665 13.7977 129.492C13.555 129.977 13.4337 130.359 13.4337 130.636C13.7457 130.497 13.9364 130.376 14.0057 130.272C14.283 129.44 14.5604 128.608 14.8377 127.776C15.115 126.909 15.375 126.06 15.6177 125.228ZM12.4457 137.084C12.3764 137.084 12.2897 137.067 12.1857 137.032C12.1164 136.997 12.047 136.98 11.9777 136.98L7.81769 149.096C8.19902 149.2 8.58035 149.339 8.96169 149.512C9.34302 149.651 9.74169 149.772 10.1577 149.876L11.1977 146.548C10.9897 146.479 10.7297 146.409 10.4177 146.34C10.1057 146.271 9.93235 146.149 9.89769 145.976L12.4457 137.084ZM45.2018 184.412C45.2018 184.551 45.1672 184.915 45.0978 185.504C45.0632 186.093 45.0112 186.579 44.9418 186.96C44.8725 187.376 44.7338 187.879 44.5258 188.468C44.3525 189.023 44.1445 189.543 43.9018 190.028C43.7978 190.201 43.6592 190.427 43.4858 190.704C43.3125 190.981 43.1392 191.241 42.9658 191.484C42.8272 191.657 42.6365 191.883 42.3938 192.16C42.1512 192.403 41.9085 192.645 41.6658 192.888C41.4578 193.096 41.2498 193.287 41.0418 193.46C40.8685 193.599 40.7472 193.668 40.6778 193.668H9.94583C9.8765 193.46 9.8245 193.2 9.78983 192.888C9.75516 192.541 9.68583 192.247 9.58183 192.004C9.5125 191.727 9.39116 191.519 9.21783 191.38C9.0445 191.241 8.76716 191.241 8.38583 191.38L8.28183 188.156C8.17783 188.225 8.09116 188.277 8.02183 188.312C7.95249 188.347 7.86583 188.399 7.76183 188.468V203.184C7.9005 203.323 8.09116 203.444 8.33383 203.548V198.14H21.0738V213.896H12.2858C12.2165 214.069 12.1818 214.243 12.1818 214.416C12.1818 214.624 12.1818 214.815 12.1818 214.988C12.0432 214.815 11.8698 214.641 11.6618 214.468C11.4538 214.329 11.2632 214.156 11.0898 213.948H8.38583V208.644C8.07383 208.367 7.74449 208.124 7.39783 207.916C7.05116 207.673 6.68716 207.413 6.30583 207.136C6.40983 207.032 6.54849 206.893 6.72183 206.72C6.92983 206.547 7.10316 206.46 7.24183 206.46C7.34583 206.46 7.50183 206.547 7.70983 206.72C7.95249 206.893 8.16049 207.015 8.33383 207.084L8.38583 207.032V206.72C8.07383 206.443 7.76183 206.2 7.44983 205.992C7.13783 205.784 6.82583 205.576 6.51383 205.368C6.68716 205.264 6.86049 205.143 7.03383 205.004C7.20716 204.865 7.36316 204.796 7.50183 204.796C7.60583 204.796 7.72716 204.865 7.86583 205.004C8.00449 205.108 8.16049 205.212 8.33383 205.316L8.38583 205.264V204.952C8.07383 204.779 7.76183 204.588 7.44983 204.38C7.13783 204.172 6.82583 203.964 6.51383 203.756V178.328C6.86049 178.12 7.17249 177.912 7.44983 177.704C7.76183 177.496 8.07383 177.288 8.38583 177.08V173.076H30.7978C30.9018 173.076 31.2138 173.111 31.7338 173.18C32.2885 173.215 32.7738 173.249 33.1898 173.284C35.2352 173.319 37.0032 173.631 38.4938 174.22C40.0192 174.809 41.2672 175.607 42.2378 176.612C43.2432 177.617 43.9885 178.796 44.4738 180.148C44.9592 181.465 45.2018 182.887 45.2018 184.412ZM48.4258 213.948H34.2818C33.6232 212.769 32.9298 211.539 32.2018 210.256C31.5085 208.939 30.8152 207.639 30.1218 206.356C29.4285 205.073 28.7525 203.86 28.0938 202.716C27.4698 201.572 26.9152 200.567 26.4298 199.7C26.2912 199.423 26.0832 199.145 25.8058 198.868C25.5285 198.591 25.2685 198.348 25.0258 198.14H39.2218C39.3258 198.14 39.4992 198.279 39.7418 198.556C40.0192 198.833 40.2445 199.076 40.4178 199.284C40.6952 199.631 40.9898 200.012 41.3018 200.428C41.6138 200.809 41.8912 201.208 42.1338 201.624C43.2432 203.635 44.3005 205.68 45.3058 207.76C46.3458 209.805 47.3858 211.868 48.4258 213.948ZM40.4178 193.824C39.5512 194.413 38.7192 194.847 37.9218 195.124C37.1592 195.367 36.3272 195.627 35.4258 195.904C35.9112 196.112 36.3965 196.337 36.8818 196.58C37.3672 196.788 37.8525 197.031 38.3378 197.308H8.38583V195.644L8.54183 195.748H10.1018C10.2752 195.644 10.3618 195.54 10.3618 195.436C10.3965 195.297 10.3792 195.159 10.3098 195.02C10.2752 194.847 10.2232 194.673 10.1538 194.5C10.0845 194.292 10.0498 194.067 10.0498 193.824H40.4178ZM32.5138 185.348C32.5138 184.551 32.2712 183.771 31.7858 183.008C31.3005 182.245 30.4512 181.777 29.2378 181.604C29.0645 181.569 28.9085 181.535 28.7698 181.5C28.6312 181.431 28.5098 181.396 28.4058 181.396H21.0738V184.204H15.4058C15.3018 183.927 15.1978 183.649 15.0938 183.372C15.0245 183.095 14.9552 182.817 14.8858 182.54H11.7138V184.308C12.0258 184.308 12.3205 184.308 12.5978 184.308C12.9098 184.273 13.2045 184.291 13.4818 184.36C13.6552 184.533 13.7592 184.793 13.7938 185.14C13.8632 185.487 13.8978 185.764 13.8978 185.972H20.8658C21.0045 186.145 21.0738 186.353 21.0738 186.596C21.0738 186.804 21.0738 186.977 21.0738 187.116C21.0738 187.289 21.0738 187.48 21.0738 187.688C21.0738 187.896 21.0045 188.087 20.8658 188.26H14.2098V188.832H21.0738V189.612H27.1578C27.2618 189.612 27.4525 189.577 27.7298 189.508C28.0072 189.439 28.2325 189.387 28.4058 189.352C29.7578 189.179 30.7805 188.745 31.4738 188.052C32.1672 187.359 32.5138 186.457 32.5138 185.348ZM36.3531 229.66C36.1798 229.764 35.9718 229.712 35.7291 229.504C35.4864 229.296 35.2611 229.053 35.0531 228.776H35.5211L36.3531 229.66ZM35.2091 229.66C35.0358 229.729 34.7931 229.643 34.4811 229.4C34.2038 229.157 34.0131 228.949 33.9091 228.776H34.4811C34.5851 228.845 34.7064 228.967 34.8451 229.14C34.9838 229.313 35.1051 229.487 35.2091 229.66ZM34.1691 229.66C33.9611 229.729 33.7184 229.677 33.4411 229.504C33.1984 229.296 33.0078 229.053 32.8691 228.776H33.3371L34.1691 229.66ZM33.0251 229.66C32.7131 229.764 32.4531 229.695 32.2451 229.452C32.0371 229.175 31.8638 228.949 31.7251 228.776H32.2971C32.4011 228.845 32.5051 228.967 32.6091 229.14C32.7131 229.313 32.8518 229.487 33.0251 229.66ZM31.8811 229.66H31.3091C31.2051 229.591 31.1011 229.469 30.9971 229.296C30.8931 229.123 30.7544 228.949 30.5811 228.776H31.1531C31.2571 228.845 31.3784 228.967 31.5171 229.14C31.6558 229.313 31.7771 229.487 31.8811 229.66ZM30.8411 229.66C30.5638 229.799 30.3038 229.729 30.0611 229.452C29.8531 229.175 29.6798 228.949 29.5411 228.776H30.1131C30.2171 228.845 30.3211 228.967 30.4251 229.14C30.5291 229.313 30.6678 229.487 30.8411 229.66ZM29.6971 229.66H29.1251C29.0211 229.591 28.9171 229.469 28.8131 229.296C28.7091 229.123 28.5704 228.949 28.3971 228.776H28.9691C29.0731 228.845 29.1944 228.967 29.3331 229.14C29.4718 229.313 29.5931 229.487 29.6971 229.66ZM28.6571 229.66C28.4838 229.764 28.2758 229.712 28.0331 229.504C27.7904 229.296 27.5651 229.053 27.3571 228.776H27.8251L28.6571 229.66ZM46.0251 271.052H7.38909V268.504H11.3411C11.6184 267.707 11.8611 266.909 12.0691 266.112C12.2771 265.315 12.4851 264.517 12.6931 263.72C12.8664 263.72 13.0398 263.72 13.2131 263.72C13.4211 263.72 13.6118 263.685 13.7851 263.616H7.38909V262.576L23.6651 245.52C23.5958 245.451 23.5438 245.433 23.5091 245.468C23.5091 245.468 23.4744 245.468 23.4051 245.468V244.896C23.5091 244.827 23.6304 244.792 23.7691 244.792C23.9078 244.792 24.0291 244.792 24.1331 244.792C24.2718 244.792 24.4104 244.757 24.5491 244.688C24.6878 244.619 24.8264 244.48 24.9651 244.272H30.4771C30.5464 244.099 30.5811 243.96 30.5811 243.856C30.6158 243.717 30.5464 243.561 30.3731 243.388H25.7971C26.0051 243.18 26.1958 242.972 26.3691 242.764C26.5424 242.521 26.7158 242.296 26.8891 242.088C26.8544 242.053 26.8024 242.036 26.7331 242.036C26.6638 242.036 26.5078 242.036 26.2651 242.036C26.0224 242.036 25.6411 242.036 25.1211 242.036C24.6358 242.036 23.9424 242.036 23.0411 242.036C23.0758 241.724 23.0758 241.395 23.0411 241.048C23.0064 240.701 23.0064 240.355 23.0411 240.008H14.8251C15.1024 239.939 15.4318 239.904 15.8131 239.904C16.1944 239.869 16.5411 239.887 16.8531 239.956V238.968H9.57309V230.232H16.4371C16.0904 229.885 15.7091 229.556 15.2931 229.244V225.188L19.2451 228.36H25.8491C26.1611 228.637 26.4731 228.915 26.7851 229.192C27.0971 229.469 27.4091 229.781 27.7211 230.128H45.1931V238.344H34.3771V239.852L36.1971 239.956C36.0238 239.956 35.8678 239.973 35.7291 240.008C35.6251 240.251 35.5211 240.563 35.4171 240.944C35.3478 241.291 35.3131 241.533 35.3131 241.672V242.14H41.5531C41.3798 242.313 41.2064 242.521 41.0331 242.764C40.8944 242.972 40.7211 243.18 40.5131 243.388H35.2091C35.1398 243.457 35.1051 243.509 35.1051 243.544C35.1051 243.579 35.0704 243.631 35.0011 243.7V244.22H39.5771C37.0811 246.855 34.5331 249.559 31.9331 252.332C29.3331 255.071 26.8891 257.601 24.6011 259.924C24.5664 259.924 24.4971 259.924 24.3931 259.924C24.2891 259.924 24.1851 259.941 24.0811 259.976C23.5958 260.392 23.0238 260.635 22.3651 260.704C21.7411 260.773 21.0998 260.791 20.4411 260.756C20.4064 260.791 20.3718 260.843 20.3371 260.912C20.3371 260.947 20.3371 261.051 20.3371 261.224C20.3371 261.397 20.3371 261.657 20.3371 262.004C20.3371 262.351 20.3371 262.819 20.3371 263.408C20.5451 263.512 20.7878 263.599 21.0651 263.668C21.3424 263.737 21.5504 263.789 21.6891 263.824H25.9011C25.9358 263.824 25.9531 263.807 25.9531 263.772C25.9531 263.703 25.9358 263.651 25.9011 263.616C26.0051 263.685 26.1264 263.755 26.2651 263.824C26.4038 263.859 26.5424 263.876 26.6811 263.876H34.7411C34.8798 263.876 35.2091 263.859 35.7291 263.824C36.2491 263.789 36.7171 263.737 37.1331 263.668C37.2024 263.495 37.2371 263.287 37.2371 263.044C37.2371 262.801 37.2371 262.576 37.2371 262.368H46.0251V271.052ZM29.9051 238.968H24.3411C24.3411 239.141 24.3411 239.315 24.3411 239.488C24.3411 239.661 24.3758 239.783 24.4451 239.852H29.1771C29.3504 239.679 29.4891 239.523 29.5931 239.384C29.6971 239.211 29.8011 239.072 29.9051 238.968ZM40.0843 287.128H38.9403V286.036H40.0843V287.128ZM48.5083 306.836C48.5083 309.644 48.1963 312.296 47.5723 314.792H34.5723C35.1616 313.44 35.5256 312.123 35.6643 310.84C35.8376 309.557 35.9243 308.188 35.9243 306.732C35.9243 305.449 35.8203 304.149 35.6123 302.832C35.4043 301.515 34.9883 300.319 34.3643 299.244C33.7403 298.135 32.8563 297.233 31.7123 296.54C30.603 295.847 29.147 295.5 27.3443 295.5C26.651 295.5 25.9403 295.569 25.2123 295.708C24.4843 295.847 23.8256 296.107 23.2363 296.488V314.74H25.1603V296.956H25.7323V318.64C26.703 318.709 27.691 318.709 28.6963 318.64C28.8696 318.64 29.0776 318.605 29.3203 318.536C29.5976 318.432 29.8056 318.38 29.9443 318.38H33.8443V317.964H31.3483C32.0763 317.548 32.5616 317.219 32.8043 316.976C33.047 316.733 33.2203 316.56 33.3243 316.456C33.4283 316.352 33.5323 316.283 33.6363 316.248C33.775 316.213 34.087 316.196 34.5723 316.196C34.8843 316.196 35.1096 316.196 35.2483 316.196C35.387 316.161 35.5083 316.196 35.6123 316.3C35.751 316.404 35.9416 316.577 36.1843 316.82C36.427 317.063 36.8083 317.444 37.3283 317.964H46.3243C45.2496 320.079 43.967 321.812 42.4763 323.164C41.0203 324.481 39.4603 325.521 37.7963 326.284C36.1323 327.012 34.4336 327.515 32.7003 327.792C31.0016 328.035 29.355 328.156 27.7603 328.156C27.6216 328.156 27.3443 328.139 26.9283 328.104C26.5123 328.104 26.131 328.104 25.7843 328.104V334.032H25.2123V328.104C24.9003 328.035 24.571 328 24.2243 328C23.9123 327.965 23.6003 327.913 23.2883 327.844C23.2536 327.879 23.2363 327.931 23.2363 328C23.2363 328.069 23.2363 328.243 23.2363 328.52C23.2363 328.832 23.2363 329.3 23.2363 329.924C23.271 330.548 23.2883 331.397 23.2883 332.472H22.6123V327.792C22.6123 327.827 22.6123 327.879 22.6123 327.948C22.6123 328.017 22.6123 328.208 22.6123 328.52C22.6123 328.832 22.6123 329.3 22.6123 329.924C22.647 330.548 22.6643 331.397 22.6643 332.472H21.3643V327.48V327.532C21.3643 327.567 21.3296 327.619 21.2603 327.688C21.2603 328.312 21.243 329.075 21.2083 329.976C21.2083 330.877 21.191 331.727 21.1563 332.524V327.532C21.087 328.364 21.035 329.196 21.0003 330.028C21.0003 330.86 20.983 331.692 20.9483 332.524V327.48C20.879 327.515 20.8443 327.584 20.8443 327.688C20.8443 327.757 20.8443 327.948 20.8443 328.26C20.8443 328.572 20.8443 329.057 20.8443 329.716C20.879 330.375 20.9136 331.293 20.9483 332.472H20.3243V327.376C19.1803 326.995 18.0536 326.596 16.9443 326.18C15.835 325.764 14.7256 325.105 13.6163 324.204C13.5816 324.239 13.5643 324.395 13.5643 324.672H12.4203C12.4203 324.499 12.4203 324.325 12.4203 324.152C12.4203 323.944 12.4376 323.771 12.4723 323.632C12.507 323.597 12.5416 323.597 12.5763 323.632C12.611 323.632 12.663 323.597 12.7323 323.528C11.727 322.592 10.9296 321.743 10.3403 320.98C9.78563 320.217 9.3003 319.42 8.8843 318.588C8.91896 318.588 9.00563 318.588 9.1443 318.588C9.28296 318.553 9.42163 318.484 9.5603 318.38H10.4443C10.4096 318.519 10.427 318.761 10.4963 319.108H11.0683C11.1723 318.9 11.2243 318.692 11.2243 318.484C11.2243 318.761 11.259 318.969 11.3283 319.108L12.0563 319.004V316.56H11.2243V317.964L11.1723 316.56H10.3923C10.4616 317.011 10.4616 317.461 10.3923 317.912H8.4683C8.39896 317.704 8.3123 317.513 8.2083 317.34C8.1043 317.132 8.0003 316.924 7.8963 316.716C7.82696 316.785 7.75763 316.855 7.6883 316.924C7.61896 316.959 7.5323 316.976 7.4283 316.976C7.4283 316.907 7.44563 316.837 7.4803 316.768C7.54963 316.699 7.54963 316.612 7.4803 316.508C7.30696 316.612 7.25496 316.768 7.3243 316.976H7.0123C6.87363 317.011 6.82163 317.011 6.8563 316.976C6.92563 316.941 6.92563 316.889 6.8563 316.82L6.8043 316.872V316.976H6.3883C6.45763 316.872 6.50963 316.785 6.5443 316.716C6.61363 316.612 6.61363 316.508 6.5443 316.404C6.4403 316.473 6.37096 316.56 6.3363 316.664C6.3363 316.768 6.30163 316.872 6.2323 316.976C6.1283 316.976 6.0243 316.924 5.9203 316.82C5.85096 316.855 5.8163 316.924 5.8163 317.028C5.8163 317.097 5.78163 317.184 5.7123 317.288H4.7243C4.8283 317.219 4.8803 317.063 4.8803 316.82C4.91496 316.577 4.91496 316.317 4.8803 316.04C4.8803 315.763 4.84563 315.503 4.7763 315.26C4.74163 314.983 4.7243 314.775 4.7243 314.636V301.168C4.7243 301.029 4.74163 300.7 4.7763 300.18C4.81096 299.66 4.86296 299.209 4.9323 298.828C5.31363 298.828 5.69496 298.828 6.0763 298.828C6.4923 298.828 6.9083 298.811 7.3243 298.776C7.56696 298.325 7.77496 297.875 7.9483 297.424C8.1563 296.973 8.3643 296.523 8.5723 296.072C8.64163 296.003 8.71096 295.985 8.7803 296.02C8.8843 296.02 8.9883 296.02 9.0923 296.02C9.16163 295.881 9.17896 295.708 9.1443 295.5C9.10963 295.257 9.1443 295.049 9.2483 294.876C10.2883 293.004 11.571 291.479 13.0963 290.3C14.6563 289.121 16.2683 288.22 17.9323 287.596C19.631 286.937 21.295 286.504 22.9243 286.296C24.5883 286.053 26.0616 285.932 27.3443 285.932C28.5923 285.932 29.771 285.984 30.8803 286.088C31.9896 286.192 33.099 286.383 34.2083 286.66C34.4856 286.729 34.8323 286.833 35.2483 286.972C35.6643 287.111 36.063 287.267 36.4443 287.44C36.8603 287.579 37.207 287.717 37.4843 287.856C37.7963 287.96 37.987 288.012 38.0563 288.012C38.195 288.012 38.2296 287.977 38.1603 287.908C38.1256 287.839 38.1776 287.804 38.3163 287.804H40.0843C40.0843 287.977 40.1016 288.185 40.1363 288.428C40.171 288.671 40.1883 288.879 40.1883 289.052C40.3616 289.225 40.6216 289.416 40.9683 289.624C41.315 289.832 41.5923 289.953 41.8003 289.988C42.043 290.265 42.3376 290.629 42.6843 291.08C43.031 291.496 43.3776 291.912 43.7243 292.328C44.071 292.744 44.3656 293.108 44.6083 293.42C44.8856 293.697 45.059 293.836 45.1283 293.836C45.267 293.836 45.3016 293.819 45.2323 293.784C45.1976 293.749 45.2496 293.732 45.3883 293.732C45.527 293.732 45.579 293.749 45.5443 293.784C45.5443 293.819 45.579 293.871 45.6483 293.94V293.888C45.6483 293.853 45.6483 293.836 45.6483 293.836C45.683 293.801 45.7003 293.767 45.7003 293.732H46.1163C46.047 293.801 45.9776 293.905 45.9083 294.044C45.8736 294.148 45.891 294.252 45.9603 294.356C46.0643 294.252 46.1163 294.148 46.1163 294.044C46.151 293.94 46.1856 293.836 46.2203 293.732C46.3243 293.732 46.4456 293.801 46.5843 293.94C46.619 293.871 46.6363 293.801 46.6363 293.732C46.6363 293.628 46.671 293.524 46.7403 293.42H47.7803C47.6763 293.489 47.607 293.645 47.5723 293.888C47.5723 294.131 47.5896 294.391 47.6243 294.668C47.659 294.945 47.6936 295.223 47.7283 295.5C47.763 295.743 47.7803 295.916 47.7803 296.02V300.232C47.7803 300.336 47.8323 300.561 47.9363 300.908C48.0403 301.255 48.1096 301.567 48.1443 301.844C48.2136 302.641 48.283 303.473 48.3523 304.34C48.4563 305.207 48.5083 306.039 48.5083 306.836ZM46.5843 294.408V294.148H46.3763V294.408H46.5843ZM45.6483 294.2V293.94H45.4403V294.2H45.6483ZM46.5843 295.76V294.772H46.3763V295.76H46.5843ZM22.7683 297.112V296.852H22.5603V297.112H22.7683ZM20.2723 299.556C19.7176 300.735 19.3363 302.017 19.1283 303.404C18.955 304.756 18.8856 306.039 18.9203 307.252C19.0936 306.628 19.2496 305.969 19.3883 305.276C19.527 304.583 19.6656 303.941 19.8043 303.352C19.943 302.763 20.0643 302.139 20.1683 301.48C20.307 300.821 20.3416 300.18 20.2723 299.556ZM20.2723 314.168V303.924H20.0643V314.168H20.2723ZM22.7683 317.288V310.684H22.5603V317.288H22.7683ZM9.3523 303.04V300.804H9.1443V303.04H9.3523ZM25.2123 318.38V316.3H23.2363V318.38C23.895 318.311 24.5536 318.311 25.2123 318.38ZM14.1883 319.056V316.612C14.015 316.612 13.8936 316.647 13.8243 316.716V293.524C13.547 293.593 13.3043 293.628 13.0963 293.628C12.8883 293.628 12.7323 293.663 12.6283 293.732V308.916C12.4203 309.055 12.299 309.228 12.2643 309.436C12.2296 309.609 12.2123 309.817 12.2123 310.06C12.2123 310.268 12.2123 310.511 12.2123 310.788C12.247 311.065 12.2123 311.36 12.1083 311.672C12.1776 311.672 12.2296 311.689 12.2643 311.724C12.3336 311.724 12.4376 311.724 12.5763 311.724C12.715 311.724 12.8363 311.655 12.9403 311.516C13.079 311.343 13.235 311.221 13.4083 311.152V319.16C13.651 319.16 13.8243 319.143 13.9283 319.108C14.0323 319.073 14.119 319.056 14.1883 319.056ZM21.5203 316.248V315.364H21.3123V316.248H21.5203ZM8.1563 302.052H7.4283V302.52H8.0003L8.1563 302.052ZM21.2083 316.144V315.364H21.0003V316.144H21.2083ZM21.0003 316.144V315.364H20.7923V316.144H21.0003ZM22.7683 318.328V317.964H22.5603V318.328H22.7683ZM21.5203 317.964H21.3643L21.2083 318.328L21.3643 318.38L21.5203 317.964ZM21.2083 318.328V317.964H21.0003V318.328H21.2083ZM21.0003 318.328V317.964H20.7923V318.328H21.0003ZM20.3243 316.144V315.364C20.1856 315.295 20.1163 315.121 20.1163 314.844C20.047 314.844 19.995 314.913 19.9603 315.052C19.9256 315.156 19.8736 315.26 19.8043 315.364H14.7083V316.144H20.3243ZM12.1083 310.008V309.644C12.0043 309.679 11.8656 309.817 11.6923 310.06C11.519 310.303 11.4323 310.493 11.4323 310.632L12.1083 310.008ZM11.3283 311.88V310.476H11.1203V311.88H11.3283ZM10.3403 311.048V308.604H9.3523V311.048H10.3403ZM20.3243 318.328V317.964H14.7083V318.328H20.3243ZM10.8083 313.336C10.843 313.232 10.8603 312.955 10.8603 312.504C10.8603 312.019 10.843 311.516 10.8083 310.996C10.8083 310.441 10.791 309.939 10.7563 309.488C10.7563 309.037 10.739 308.777 10.7043 308.708C10.7043 308.777 10.7216 308.829 10.7563 308.864C10.791 308.899 10.739 308.916 10.6003 308.916C10.4963 308.916 10.4443 308.881 10.4443 308.812V308.708V313.908C10.4096 313.735 10.4616 313.527 10.6003 313.284H10.7563C10.791 313.284 10.8083 313.301 10.8083 313.336ZM8.1043 311.048V308.604H7.4283V311.048H8.1043ZM13.3563 318.536V318.068H12.3163L12.2123 318.536H13.3563ZM11.9003 316.144C11.0683 316.109 10.4096 316.075 9.9243 316.04C9.47363 316.005 9.12696 315.971 8.8843 315.936C8.64163 315.901 8.48563 315.884 8.4163 315.884C8.34696 315.849 8.29496 315.815 8.2603 315.78C8.19096 315.468 8.1563 315.156 8.1563 314.844C8.1563 314.497 8.17363 314.185 8.2083 313.908H6.0763V314.324C6.73496 314.255 7.35896 314.255 7.9483 314.324C7.9483 315.087 7.93096 315.572 7.8963 315.78C7.86163 315.953 7.87896 316.075 7.9483 316.144H11.9003ZM6.1283 315.936V314.948H5.9203V315.936H6.1283ZM7.0643 316.768V316.508H6.8563V316.768H7.0643ZM6.1283 316.56V316.3H5.9203V316.56H6.1283ZM49.2432 371.74C49.0699 372.364 48.9139 373.023 48.7752 373.716C48.6365 374.409 48.4805 375.12 48.3072 375.848H47.0072V384.896H35.0472L25.9992 371.688H22.5672L22.8792 367.84C22.9832 367.909 23.1392 367.892 23.3472 367.788L19.8632 362.64V384.896H10.7632V382.556C10.7632 382.452 10.8499 382.14 11.0232 381.62C11.2312 381.065 11.3872 380.545 11.4912 380.06C11.5605 379.783 11.5779 379.419 11.5432 378.968C11.5085 378.517 11.4912 378.205 11.4912 378.032C11.4912 377.512 11.4739 376.992 11.4392 376.472C11.4045 375.952 11.3005 375.432 11.1272 374.912C11.0579 374.773 11.0059 374.6 10.9712 374.392C10.9365 374.184 10.8845 373.976 10.8152 373.768C10.6072 373.907 10.4685 374.184 10.3992 374.6C10.3299 375.016 10.2605 375.363 10.1912 375.64C10.1565 375.709 10.1219 375.761 10.0872 375.796C10.0525 375.796 10.0352 375.865 10.0352 376.004V384.896H7.9552V376.368C7.71254 376.195 7.45254 376.039 7.1752 375.9C6.93254 375.727 6.67254 375.553 6.3952 375.38C6.53387 375.345 6.72454 375.241 6.9672 375.068C7.24454 374.895 7.4352 374.808 7.5392 374.808C7.81654 374.808 7.9552 374.877 7.9552 375.016V374.964V374.652C7.7472 374.513 7.52187 374.375 7.2792 374.236C7.03654 374.063 6.8112 373.924 6.6032 373.82C6.8112 373.751 7.03654 373.664 7.2792 373.56C7.52187 373.421 7.7472 373.3 7.9552 373.196C7.78187 372.988 7.57387 372.832 7.3312 372.728C7.1232 372.624 6.89787 372.485 6.6552 372.312V348.86C6.89787 348.756 7.10587 348.652 7.2792 348.548C7.45254 348.444 7.67787 348.305 7.9552 348.132V344.128H10.1392V373.456C10.2779 372.971 10.4165 372.433 10.5552 371.844C10.6939 371.22 10.7632 370.839 10.7632 370.7V355.516C10.7632 355.412 10.8845 355.187 11.1272 354.84C11.3699 354.459 11.4912 354.199 11.4912 354.06V345.948C11.4912 345.809 11.5779 345.549 11.7512 345.168C11.9245 344.787 12.0632 344.44 12.1672 344.128H19.7072L34.9952 366.488V344.128H46.9552V348.392C46.7819 348.357 46.6259 348.357 46.4872 348.392C46.3485 348.392 46.1925 348.409 46.0192 348.444C45.9152 348.617 45.8112 348.843 45.7072 349.12C45.6379 349.363 45.6032 349.553 45.6032 349.692V365.916C45.6032 366.193 45.7072 366.453 45.9152 366.696C45.9845 366.731 46.0539 366.748 46.1232 366.748C46.2272 366.713 46.3139 366.713 46.3832 366.748V366.852C46.3832 366.887 46.3832 366.921 46.3832 366.956C46.4179 366.956 46.4352 366.973 46.4352 367.008C46.3312 367.043 46.2272 367.043 46.1232 367.008C46.0192 366.939 45.9152 366.991 45.8112 367.164C46.1232 367.372 46.3659 367.424 46.5392 367.32C46.5739 367.389 46.5739 367.476 46.5392 367.58C46.5392 367.684 46.5392 367.805 46.5392 367.944C46.5392 368.048 46.5565 368.152 46.5912 368.256C46.6605 368.325 46.7819 368.377 46.9552 368.412V369.504H33.1232C33.0539 369.573 33.0019 369.625 32.9672 369.66C32.9325 369.695 32.9152 369.799 32.9152 369.972C32.9152 370.18 32.9672 370.527 33.0712 371.012C33.2099 371.463 33.4179 371.688 33.6952 371.688C33.9725 371.688 34.1459 371.515 34.2152 371.168C34.3192 370.787 34.4579 370.44 34.6312 370.128H35.0992C35.0992 370.336 35.0299 370.561 34.8912 370.804C34.7525 371.047 34.7179 371.341 34.7872 371.688C35.0299 371.688 35.1859 371.497 35.2552 371.116C35.3592 370.735 35.4632 370.405 35.5672 370.128H36.1392C36.0699 370.405 35.9832 370.648 35.8792 370.856C35.7752 371.029 35.7579 371.307 35.8272 371.688C36.0699 371.653 36.2259 371.463 36.2952 371.116C36.3645 370.769 36.4685 370.457 36.6072 370.18H37.1792C37.1099 370.353 37.0232 370.579 36.9192 370.856C36.8499 371.099 36.7632 371.359 36.6592 371.636V371.688H36.8152C36.9192 371.688 37.0232 371.619 37.1272 371.48C37.2312 371.341 37.3179 371.185 37.3872 371.012C37.4565 370.839 37.5085 370.665 37.5432 370.492C37.5779 370.319 37.6125 370.197 37.6472 370.128H38.1152C38.1152 370.336 38.0459 370.561 37.9072 370.804C37.7685 371.047 37.7339 371.341 37.8032 371.688C38.1499 371.653 38.3232 371.463 38.3232 371.116C38.3579 370.735 38.4792 370.405 38.6872 370.128H39.1552C39.0859 370.405 38.9992 370.648 38.8952 370.856C38.7912 371.029 38.7739 371.307 38.8432 371.688C39.1205 371.688 39.2765 371.497 39.3112 371.116C39.3459 370.735 39.4499 370.423 39.6232 370.18H40.1952C40.1259 370.353 40.0392 370.579 39.9352 370.856C39.8659 371.133 39.7792 371.359 39.6752 371.532L39.8832 371.688C40.0565 371.723 40.1952 371.549 40.2992 371.168C40.4379 370.752 40.5592 370.423 40.6632 370.18H41.1312C41.0619 370.388 40.9925 370.631 40.9232 370.908C40.8539 371.151 40.8192 371.428 40.8192 371.74C41.0619 371.775 41.2179 371.601 41.2872 371.22C41.3912 370.839 41.5299 370.475 41.7032 370.128H42.1712C42.1712 370.336 42.1019 370.561 41.9632 370.804C41.8245 371.047 41.7899 371.341 41.8592 371.688C42.1019 371.688 42.2579 371.497 42.3272 371.116C42.4312 370.735 42.5352 370.405 42.6392 370.128H43.2112C43.1419 370.405 43.0552 370.648 42.9512 370.856C42.8472 371.029 42.8299 371.307 42.8992 371.688C43.1419 371.653 43.2979 371.463 43.3672 371.116C43.4365 370.769 43.5405 370.457 43.6792 370.18H44.2512C44.1472 370.388 44.0605 370.631 43.9912 370.908C43.9565 371.151 43.9045 371.428 43.8352 371.74C44.1472 371.705 44.3205 371.497 44.3552 371.116C44.4245 370.735 44.5459 370.405 44.7192 370.128H45.1872C45.1872 370.336 45.1179 370.561 44.9792 370.804C44.8405 371.047 44.8059 371.341 44.8752 371.688C45.2219 371.653 45.3952 371.463 45.3952 371.116C45.4299 370.735 45.5512 370.405 45.7592 370.128H46.2272C46.1579 370.405 46.0712 370.648 45.9672 370.856C45.8632 371.029 45.8459 371.307 45.9152 371.688C46.0539 371.653 46.1579 371.584 46.2272 371.48C46.2965 371.341 46.3485 371.185 46.3832 371.012C46.4525 370.839 46.5219 370.683 46.5912 370.544C46.6605 370.371 46.7645 370.232 46.9032 370.128C46.9379 370.336 46.9379 370.579 46.9032 370.856C46.8685 371.099 46.8165 371.324 46.7472 371.532C47.1285 371.705 47.5272 371.775 47.9432 371.74C48.3939 371.671 48.8272 371.671 49.2432 371.74ZM25.0632 370.752V370.284H24.9072V370.752H25.0632ZM24.8552 369.868H24.6992L24.5432 370.752H24.7512L24.8552 369.868ZM24.5432 369.452H24.3872L24.2312 370.752H24.4392L24.5432 369.452ZM24.1272 368.88C24.0579 369.192 24.0232 369.521 24.0232 369.868C24.0232 370.18 24.0059 370.475 23.9712 370.752C24.0405 370.44 24.0752 370.128 24.0752 369.816C24.1099 369.469 24.1272 369.157 24.1272 368.88ZM23.9192 368.724H23.7632L23.5552 370.752H23.7632L23.9192 368.724ZM23.6072 368.724H23.4512L23.1912 370.752H23.3992L23.6072 368.724ZM44.617 441.896H42.953C42.8144 441.931 42.7624 441.931 42.797 441.896C42.8664 441.861 42.8664 441.809 42.797 441.74C42.6237 441.671 42.433 441.619 42.225 441.584C42.017 441.515 41.7917 441.463 41.549 441.428C41.3064 441.393 41.029 441.411 40.717 441.48C40.405 441.549 40.093 441.567 39.781 441.532C39.6077 441.497 39.3997 441.463 39.157 441.428C38.949 441.359 38.7757 441.324 38.637 441.324H25.585C25.5504 441.324 25.4637 441.341 25.325 441.376C25.221 441.376 25.0824 441.393 24.909 441.428C24.7704 441.463 24.6317 441.532 24.493 441.636C24.389 441.705 24.337 441.792 24.337 441.896H10.245V438.308C10.5224 438.308 10.7997 438.308 11.077 438.308C11.389 438.308 11.701 438.291 12.013 438.256C12.117 438.117 12.2384 437.961 12.377 437.788C12.5504 437.58 12.637 437.407 12.637 437.268V430.716H16.589C16.7277 430.577 16.797 430.491 16.797 430.456C16.381 430.387 15.965 430.352 15.549 430.352C15.133 430.352 14.717 430.352 14.301 430.352C14.301 430.283 14.301 430.231 14.301 430.196C14.3357 430.127 14.3184 430.057 14.249 429.988C14.1797 430.057 14.145 430.179 14.145 430.352H12.637V427.908C12.8104 427.977 13.0357 428.029 13.313 428.064C13.5904 428.099 13.8157 428.029 13.989 427.856C13.8157 427.683 13.5904 427.613 13.313 427.648C13.0357 427.648 12.8104 427.683 12.637 427.752V422.24C12.637 422.136 12.5677 421.963 12.429 421.72C12.325 421.443 12.221 421.217 12.117 421.044C11.805 421.009 11.493 421.009 11.181 421.044C11.181 420.975 11.2157 420.923 11.285 420.888C11.3544 420.853 11.389 420.801 11.389 420.732L11.441 420.784C11.441 420.819 11.4757 420.871 11.545 420.94C11.6144 420.871 11.649 420.784 11.649 420.68C11.649 420.784 11.6837 420.871 11.753 420.94C11.8224 420.871 11.857 420.784 11.857 420.68C11.857 420.784 11.8917 420.871 11.961 420.94C12.0304 420.871 12.065 420.749 12.065 420.576C12.065 420.645 12.0477 420.715 12.013 420.784C12.013 420.819 12.0477 420.871 12.117 420.94C12.2557 420.767 12.2904 420.628 12.221 420.524C12.1517 420.385 12.0824 420.247 12.013 420.108C11.9784 420.143 11.961 420.229 11.961 420.368C11.961 420.264 11.9264 420.177 11.857 420.108C11.7877 420.177 11.753 420.247 11.753 420.316C11.753 420.351 11.7357 420.403 11.701 420.472V420.16C11.6317 420.091 11.545 420.073 11.441 420.108C11.337 420.108 11.285 420.073 11.285 420.004C11.2157 420.108 11.1984 420.195 11.233 420.264C11.3024 420.333 11.337 420.42 11.337 420.524C11.3717 420.42 11.3544 420.333 11.285 420.264C11.2504 420.195 11.1984 420.108 11.129 420.004C11.129 420.039 11.1117 420.056 11.077 420.056C11.0077 420.125 10.973 420.16 10.973 420.16V419.796H8.26903L6.70903 414.804H8.99703C9.06636 414.735 9.10103 414.561 9.10103 414.284C9.17036 414.353 9.2397 414.44 9.30903 414.544C9.37836 414.613 9.46503 414.7 9.56903 414.804L10.245 414.7C10.1757 414.665 10.1064 414.596 10.037 414.492C10.0024 414.388 9.93303 414.284 9.82903 414.18H10.193V401.18H11.961C11.857 401.492 11.857 401.735 11.961 401.908C12.0997 402.047 12.273 402.151 12.481 402.22C12.7237 402.289 12.9664 402.324 13.209 402.324C13.4864 402.324 13.677 402.324 13.781 402.324C13.885 402.324 14.093 402.307 14.405 402.272C14.717 402.237 14.9424 402.22 15.081 402.22C15.2197 402.22 15.289 402.255 15.289 402.324C15.289 402.393 15.3584 402.428 15.497 402.428H24.181C24.597 402.428 24.8744 402.341 25.013 402.168C25.1517 401.995 25.1864 401.665 25.117 401.18H43.993V409.812H22.881V411.008H25.377C25.3077 411.355 25.2557 411.701 25.221 412.048C25.1864 412.36 25.1344 412.655 25.065 412.932H15.809C15.7744 413.14 15.809 413.435 15.913 413.816C16.0517 414.197 16.2597 414.561 16.537 414.908C16.641 414.769 16.693 414.648 16.693 414.544C16.693 414.44 16.6584 414.336 16.589 414.232C16.5544 414.128 16.5197 414.041 16.485 413.972C16.4504 413.868 16.485 413.764 16.589 413.66H24.961C24.9957 413.764 24.9957 413.903 24.961 414.076C24.961 414.215 24.9264 414.475 24.857 414.856H31.409C31.513 415.099 31.5997 415.341 31.669 415.584C31.7384 415.827 31.8597 416.087 32.033 416.364H41.185C41.2544 416.537 41.3064 416.728 41.341 416.936C41.3757 417.109 41.393 417.248 41.393 417.352L32.241 417.456C32.3104 417.56 32.3624 417.664 32.397 417.768C32.4317 417.837 32.4837 417.924 32.553 418.028L42.173 417.924C42.069 417.647 41.9824 417.387 41.913 417.144C41.8437 416.901 41.757 416.641 41.653 416.364H42.433V424.632H22.985C22.9157 424.736 22.881 424.84 22.881 424.944H14.145C14.145 425.637 14.1797 426.313 14.249 426.972C14.3184 427.596 14.3877 428.255 14.457 428.948L16.901 429.052C16.901 428.532 16.9184 428.012 16.953 427.492C16.9877 426.937 16.9704 426.348 16.901 425.724H21.841V428.584H25.481C25.5504 429.035 25.6024 429.52 25.637 430.04C25.7064 430.525 25.8624 430.976 26.105 431.392C28.4624 431.427 30.8197 431.461 33.177 431.496C35.569 431.496 37.961 431.496 40.353 431.496H39.625C39.5557 431.669 39.521 431.843 39.521 432.016C39.521 432.155 39.4864 432.363 39.417 432.64C39.4864 432.64 39.6944 432.657 40.041 432.692C40.4224 432.692 40.873 432.692 41.393 432.692C41.913 432.692 42.4504 432.692 43.005 432.692C43.5944 432.657 44.1317 432.64 44.617 432.64V433.68C44.097 433.576 43.5077 433.576 42.849 433.68C43.0224 433.957 43.2824 434.061 43.629 433.992C44.0104 433.923 44.3397 433.905 44.617 433.94V441.896ZM11.597 420.472H11.441V420.212H11.597V420.472ZM11.181 420.576H11.025V420.316H11.181V420.576ZM31.409 416.312C31.409 416.139 31.3917 416 31.357 415.896C31.3224 415.792 31.305 415.705 31.305 415.636H25.013V416.312H31.409ZM42.901 433.368V433.004H42.745V433.368H42.901ZM32.033 417.976C31.9637 417.872 31.929 417.768 31.929 417.664C31.929 417.56 31.929 417.473 31.929 417.404H17.577L16.953 415.532H16.589C16.693 415.913 16.8144 416.312 16.953 416.728C17.0917 417.109 17.213 417.491 17.317 417.872C17.421 417.941 17.5424 417.993 17.681 418.028C17.8197 418.028 17.9237 418.08 17.993 418.184C18.1664 418.565 18.2877 418.912 18.357 419.224H23.713C23.7824 419.12 23.817 419.033 23.817 418.964C23.8517 418.86 23.921 418.739 24.025 418.6H27.041C27.041 418.392 27.145 418.184 27.353 417.976H32.033ZM24.909 419.224C25.1517 419.12 25.1517 418.999 24.909 418.86V419.224ZM24.649 418.86C24.5797 418.86 24.5277 418.912 24.493 419.016C24.493 419.085 24.493 419.155 24.493 419.224C24.597 419.155 24.6664 419.085 24.701 419.016C24.7357 418.912 24.7184 418.86 24.649 418.86ZM24.233 418.86C24.1637 418.86 24.0944 418.912 24.025 419.016C23.9904 419.12 24.0077 419.207 24.077 419.276C24.181 419.207 24.2504 419.12 24.285 419.016C24.3197 418.912 24.3024 418.86 24.233 418.86ZM41.289 441.428V441.272H41.029V441.428H41.289ZM39.313 441.428V441.272H39.053V441.428H39.313ZM21.685 426.972H21.529L21.425 429H21.581L21.685 426.972ZM21.373 426.972H21.217L21.113 429H21.269L21.373 426.972ZM21.061 426.972H20.905L20.853 429H21.009L21.061 426.972ZM20.853 426.972H20.697L20.489 429H20.645L20.853 426.972ZM20.541 426.972H20.385L20.281 429H20.437L20.541 426.972ZM20.229 426.972H20.073L19.969 429H20.125L20.229 426.972ZM19.917 426.972H19.761L19.657 429H19.813L19.917 426.972ZM24.233 432.64C24.1637 432.259 24.129 431.999 24.129 431.86C24.129 431.721 24.129 431.617 24.129 431.548H22.933V432.64H24.233ZM19.553 427.076C19.553 427.769 19.501 428.428 19.397 429.052C19.4664 428.567 19.501 428.185 19.501 427.908C19.5357 427.631 19.553 427.353 19.553 427.076ZM10.193 419.224V418.132C10.193 418.097 10.1237 418.011 9.98503 417.872C9.88103 417.699 9.74236 417.508 9.56903 417.3C9.43036 417.092 9.2917 416.884 9.15303 416.676C9.04903 416.433 8.99703 416.243 8.99703 416.104C8.99703 415.965 8.99703 415.861 8.99703 415.792C9.0317 415.688 9.04903 415.601 9.04903 415.532H7.33303L8.47703 419.224H10.193ZM19.397 426.972H19.241L19.033 429H19.189L19.397 426.972ZM19.085 426.972H18.929L18.825 429H18.981L19.085 426.972ZM18.773 426.972H18.617L18.513 429H18.669L18.773 426.972ZM18.461 426.972H18.305L18.201 429H18.357L18.461 426.972ZM18.097 426.972C18.097 427.18 18.0797 427.457 18.045 427.804C18.045 428.116 18.0104 428.532 17.941 429.052C18.0104 428.775 18.045 428.445 18.045 428.064C18.0797 427.648 18.097 427.284 18.097 426.972ZM17.941 426.972H17.785L17.577 429H17.733L17.941 426.972ZM17.629 426.972H17.473L17.369 429H17.525L17.629 426.972ZM24.441 433.888V433.576H14.613V433.888H24.441ZM14.093 428.584V428.22H13.937V428.584H14.093ZM14.197 429.52V429.052H14.041V429.52H14.197ZM14.405 431.288V430.82H14.249V431.288H14.405ZM14.509 432.12V431.756H14.353V432.12H14.509ZM14.613 433.056V432.588H14.457V433.056H14.613ZM9.77703 418.6H8.89303V417.404C8.99703 417.577 9.1357 417.768 9.30903 417.976C9.48236 418.184 9.63836 418.392 9.77703 418.6Z" fill="white"/>
</g>
<defs>
<filter id="filter0_d_469_1425" x="0.741211" y="0.347992" width="52.502" height="441.6" filterUnits="userSpaceOnUse" color-interpolation-filters="sRGB">
<feFlood flood-opacity="0" result="BackgroundImageFix"/>
<feColorMatrix in="SourceAlpha" type="matrix" values="0 0 0 0 0 0 0 0 0 0 0 0 0 0 0 0 0 0 127 0" result="hardAlpha"/>
<feOffset dx="4" dy="-1"/>
<feComposite in2="hardAlpha" operator="out"/>
<feColorMatrix type="matrix" values="0 0 0 0 0.508333 0 0 0 0 0.882 0 0 0 0 1 0 0 0 1 0"/>
<feBlend mode="normal" in2="BackgroundImageFix" result="effect1_dropShadow_469_1425"/>
<feBlend mode="normal" in="SourceGraphic" in2="effect1_dropShadow_469_1425" result="shape"/>
</filter>
</defs>
</svg>
