<svg width="1007" height="1380" viewBox="0 0 1007 1380" fill="none" xmlns="http://www.w3.org/2000/svg">
<circle cx="418.5" cy="791.5" r="588.5" fill="#DFE0DF"/>
<path opacity="0.67" d="M246.675 185.345C246.998 185.248 247.281 185.238 247.524 185.315C247.759 185.378 247.935 185.511 248.052 185.714C248.122 185.835 248.172 185.969 248.202 186.114C248.293 186.585 248.115 186.949 247.669 187.207C247.479 187.316 247.281 187.394 247.074 187.442C245.274 187.886 243.615 188.013 242.099 187.824C240.97 187.682 239.849 187.427 238.735 187.06C237.613 186.68 236.65 186.216 235.848 185.669C235.644 185.534 235.499 185.392 235.413 185.244C235.256 184.973 235.292 184.691 235.519 184.397C235.596 184.281 235.696 184.187 235.817 184.117C236.088 183.961 236.441 184.009 236.876 184.263C237.574 184.69 238.37 185.07 239.265 185.401C239.459 184.549 239.592 183.67 239.663 182.762C239.702 182.361 239.843 182.09 240.087 181.949C240.249 181.856 240.447 181.823 240.68 181.851C241.003 181.88 241.224 181.997 241.341 182.2C241.443 182.376 241.468 182.623 241.417 182.941C241.278 183.887 241.013 184.834 240.622 185.782C241.225 185.92 241.745 186.008 242.181 186.045C242.622 184.996 242.963 184.024 243.203 183.127C243.312 182.722 243.474 182.457 243.691 182.332C243.867 182.23 244.083 182.214 244.339 182.282C244.595 182.351 244.774 182.473 244.875 182.649C245 182.866 244.994 183.167 244.856 183.553C244.563 184.39 244.21 185.216 243.797 186.032C244.214 185.972 244.684 185.881 245.209 185.758C245.726 185.622 246.214 185.484 246.675 185.345ZM239.645 198.903C240.633 198.332 241.377 198.48 241.877 199.346C242.611 200.618 243.039 201.797 243.16 202.881C243.222 203.333 243.125 203.758 242.869 204.159C242.621 204.573 242.223 204.947 241.676 205.281L240.003 206.273C239.395 206.625 238.942 206.544 238.645 206.029C238.324 205.475 238.524 205.008 239.243 204.629L239.884 204.286C240.828 203.795 241.291 203.347 241.274 202.942C241.255 202.628 241.198 202.327 241.104 202.039C241.002 201.737 240.826 201.369 240.576 200.936C240.357 200.558 240.065 200.474 239.7 200.684L236.695 202.419C235.775 202.95 235.104 202.85 234.682 202.12L234.415 201.516L233.68 199.586C233.539 199.217 233.532 198.878 233.661 198.569C233.803 198.252 234.07 197.981 234.462 197.754L237.385 196.067C237.751 195.856 237.828 195.568 237.617 195.202L237.23 194.532C237.019 194.167 236.731 194.09 236.366 194.301L233.565 195.918C233.321 196.059 233.1 196.114 232.903 196.084C232.697 196.04 232.532 195.91 232.407 195.693L232.36 195.612C232.042 196.03 231.755 196.377 231.498 196.651C231.34 196.815 231.227 196.916 231.159 196.955C230.835 197.142 230.506 197.089 230.173 196.794C230.107 196.742 230.043 196.661 229.98 196.553C229.761 196.174 229.874 195.776 230.318 195.357C231.263 194.432 232.036 193.49 232.637 192.53C231.826 192.438 231.084 192.371 230.409 192.327C230.058 192.313 229.816 192.191 229.684 191.961C229.621 191.853 229.595 191.715 229.606 191.546C229.624 191.265 229.742 191.062 229.958 190.937C230.107 190.851 230.283 190.812 230.487 190.821C231.502 190.83 232.494 190.907 233.462 191.052C233.89 190.137 234.201 189.146 234.396 188.077C234.408 188.034 234.398 187.986 234.366 187.932C234.351 187.904 234.322 187.885 234.279 187.874C234.236 187.862 234.188 187.872 234.134 187.904L229.465 190.599C228.843 190.958 228.399 190.908 228.133 190.448C228.008 190.231 227.992 190.015 228.084 189.8C228.176 189.584 228.371 189.39 228.668 189.219L234.067 186.101C234.433 185.89 234.795 185.799 235.154 185.826C235.512 185.854 235.77 186.003 235.926 186.273C236.02 186.436 236.06 186.647 236.048 186.907C235.896 189.394 235.014 191.834 233.4 194.227L236.161 192.633C236.648 192.352 237.087 192.269 237.479 192.386C237.885 192.495 238.232 192.799 238.521 193.3L239.33 194.7C239.619 195.201 239.709 195.654 239.6 196.06C239.505 196.457 239.214 196.797 238.727 197.078L235.764 198.789C235.615 198.875 235.51 198.99 235.448 199.134L235.711 200.01L235.958 200.626L235.981 200.666C236.083 200.842 236.282 200.844 236.58 200.672L239.645 198.903ZM243.023 188.347C244.024 187.768 244.814 187.98 245.392 188.981L246.294 190.544C246.474 190.855 246.726 190.917 247.051 190.73L247.7 190.355C248.079 190.136 248.152 189.778 247.919 189.281C247.694 188.798 247.805 188.427 248.252 188.169C248.739 187.888 249.119 187.984 249.393 188.458C250.166 189.797 249.998 190.787 248.888 191.428L247.285 192.354C246.838 192.612 246.436 192.727 246.077 192.699C245.724 192.651 245.44 192.472 245.226 192.162L244.124 190.254C243.913 189.889 243.625 189.812 243.26 190.023L241.92 190.796C241.582 190.992 241.525 191.331 241.75 191.815C242.247 192.863 242.389 193.827 242.176 194.708C241.984 195.469 241.671 195.974 241.238 196.224C240.751 196.505 240.363 196.395 240.074 195.895C239.894 195.584 239.908 195.233 240.115 194.842C240.373 194.351 240.497 193.909 240.487 193.518C240.491 193.119 240.365 192.696 240.107 192.249C239.466 191.14 239.64 190.3 240.628 189.729L243.023 188.347ZM252.909 196.657C253.563 196.352 254.022 196.43 254.288 196.89C254.593 197.417 254.454 197.849 253.872 198.185C252.289 199.099 250.366 199.551 248.105 199.539C246.852 201.652 245.759 202.977 244.826 203.516C244.325 203.805 243.926 203.693 243.629 203.179C243.395 202.773 243.647 202.24 244.384 201.579C245.233 200.8 245.878 200.058 246.319 199.353C244.756 199.082 243.825 198.69 243.529 198.176C243.419 197.987 243.405 197.805 243.485 197.633C243.558 197.446 243.716 197.283 243.96 197.142C244.258 196.97 244.609 196.984 245.013 197.184C245.834 197.576 246.562 197.805 247.196 197.872C247.513 197.202 247.754 196.494 247.919 195.749C248.079 195.026 248.147 194.644 248.123 194.603C248.061 194.495 247.955 194.484 247.806 194.57L242.732 197.499C242.191 197.812 241.791 197.745 241.533 197.298C241.276 196.852 241.417 196.472 241.959 196.16L247.987 192.679C248.934 192.132 249.568 192.136 249.888 192.691C250.076 193.016 250.063 193.745 249.851 194.877C249.635 195.94 249.33 196.928 248.937 197.841C250.134 197.727 251.458 197.333 252.909 196.657ZM260.717 194.179C260.176 194.492 259.745 194.37 259.425 193.816C259.105 193.261 259.215 192.827 259.756 192.515L260.406 192.14C260.88 191.866 260.985 191.471 260.723 190.955L258.192 186.571L256.629 188.177C256.075 188.497 255.633 188.373 255.305 187.805C255.063 187.385 255.167 186.955 255.616 186.515L257.231 184.906L254.653 180.441L252.948 181.425C252.637 181.605 252.372 181.677 252.152 181.641C251.939 181.584 251.754 181.42 251.598 181.149C251.301 180.635 251.45 180.206 252.046 179.862L253.751 178.878L251.969 175.793C251.649 175.238 251.746 174.812 252.26 174.515C252.531 174.359 252.766 174.313 252.966 174.378C253.179 174.436 253.368 174.606 253.532 174.89L255.314 177.976L256.288 177.413C256.883 177.069 257.333 177.161 257.638 177.689C257.935 178.203 257.786 178.632 257.19 178.976L256.216 179.539L258.524 183.537L259.506 182.565C259.966 182.299 260.336 182.41 260.618 182.897C260.836 183.276 260.795 183.642 260.495 183.996L259.474 185.181L262.521 190.459C262.919 191.149 263.023 191.766 262.831 192.309C262.64 192.853 262.26 193.288 261.692 193.617L260.717 194.179ZM264.623 191.193C264.082 191.506 263.651 191.385 263.33 190.83C263.229 190.654 263.19 190.352 263.213 189.924C263.339 188.299 262.802 186.228 261.601 183.71C260.84 182.11 259.432 179.531 257.377 175.972L256.923 175.233C256.582 174.672 256.491 174.156 256.652 173.685C256.826 173.205 257.245 172.774 257.908 172.391L265.276 168.137C265.925 167.762 266.477 167.624 266.931 167.723C267.377 167.808 267.74 168.14 268.02 168.718L269.133 170.646C269.469 171.228 269.573 171.737 269.445 172.171C269.31 172.592 268.916 172.973 268.264 173.313L260.47 177.813C262.846 182.053 264.26 185.097 264.714 186.946C265.316 189.395 265.286 190.811 264.623 191.193ZM266.919 172.249C267.393 171.976 267.519 171.632 267.298 171.219L266.631 170.062C266.404 169.669 266.043 169.607 265.548 169.875L258.931 173.695C258.661 173.851 258.534 174.023 258.553 174.211C258.587 174.426 258.967 175.163 259.693 176.421L266.919 172.249ZM269.222 188.565C268.64 188.901 268.15 189.022 267.752 188.927C267.355 188.831 267.016 188.495 266.736 187.916L265.271 185.379C265.123 185.122 265.072 184.908 265.117 184.738C265.169 184.545 265.316 184.379 265.56 184.238C266.061 183.949 266.452 184.048 266.733 184.536L267.928 186.606C268.061 186.836 268.206 186.978 268.363 187.031C268.526 187.064 268.712 187.01 268.921 186.872L270.768 185.805L268.26 181.462L266.311 182.587C265.756 182.907 265.284 183.026 264.894 182.945C264.518 182.855 264.194 182.528 263.922 181.964L262.433 179.386C262.176 178.939 262.277 178.583 262.737 178.318C263.197 178.052 263.556 178.142 263.814 178.589L265.009 180.659C265.259 181.092 265.59 181.181 266.002 180.925L267.463 180.082L265.447 176.59C265.166 176.103 265.269 175.719 265.756 175.438C266.243 175.157 266.627 175.259 266.909 175.747L268.924 179.238L270.508 178.324C270.941 178.074 271.029 177.743 270.774 177.331L269.625 175.342C269.336 174.841 269.435 174.45 269.922 174.169C270.423 173.88 270.818 173.986 271.107 174.487L272.466 176.841C273.241 177.964 273.002 178.832 271.751 179.446L269.721 180.618L272.229 184.962L274.137 183.86C274.57 183.61 274.659 183.279 274.403 182.868L273.255 180.878C272.942 180.337 273.036 179.922 273.537 179.633C274.024 179.352 274.424 179.482 274.736 180.023L276.06 182.317C276.428 182.953 276.554 183.484 276.44 183.911C276.333 184.351 275.964 184.727 275.331 185.038L269.222 188.565ZM298.95 169.21C299.576 169.137 300.006 169.304 300.24 169.71C300.326 169.858 300.385 170.023 300.417 170.203C300.497 170.716 300.327 171.094 299.907 171.336C299.718 171.446 299.485 171.526 299.208 171.578C297.821 171.801 296.306 171.692 294.663 171.252C293.033 170.804 291.426 170.099 289.842 169.137C288.264 168.153 286.852 167.02 285.606 165.737C286.53 168.432 286.806 171.097 286.432 173.731C286.064 176.343 285.118 178.72 283.594 180.863C283.471 181.024 283.342 181.144 283.206 181.222C282.963 181.363 282.706 181.402 282.437 181.342C282.18 181.273 281.97 181.097 281.806 180.812C281.619 180.488 281.662 180.093 281.935 179.629C285.123 174.432 285.361 169.017 282.65 163.384C282.187 162.424 281.744 161.579 281.322 160.849L280.669 159.764C280.505 159.48 280.453 159.203 280.514 158.934C280.575 158.664 280.747 158.447 281.032 158.283C281.316 158.119 281.586 158.071 281.842 158.14C282.112 158.201 282.325 158.366 282.481 158.637C282.942 159.435 283.411 160.31 283.888 161.262C283.945 161.391 284.01 161.552 284.085 161.743C284.165 161.914 284.233 162.046 284.287 162.141C284.326 162.208 284.398 162.302 284.504 162.422C285.758 163.845 287.174 165.093 288.75 166.168C290.327 167.242 291.989 168.059 293.738 168.619C295.5 169.172 297.238 169.368 298.95 169.21ZM313.899 143.989C314.521 143.63 314.997 143.734 315.325 144.302C315.645 144.857 315.494 145.314 314.872 145.674L308.843 149.154L315.192 160.103C316.012 161.524 315.657 162.613 314.128 163.37L312.118 164.53C311.78 164.725 311.487 164.795 311.238 164.74C311.011 164.691 310.808 164.51 310.628 164.199C310.277 163.59 310.365 163.133 310.893 162.829L312.598 161.844C313.206 161.493 313.335 161.013 312.984 160.404L308.144 152.021C308.197 153.957 307.96 155.952 307.432 158.007C306.918 160.054 306.147 162.078 305.119 164.078C304.867 164.548 304.599 164.866 304.315 165.03C303.977 165.225 303.619 165.215 303.242 165C303.067 164.884 302.941 164.759 302.862 164.623C302.62 164.204 302.698 163.636 303.096 162.919C304.2 160.892 305.045 158.826 305.633 156.718C306.234 154.603 306.478 152.558 306.367 150.584L299.039 154.814C298.404 155.182 297.921 155.081 297.593 154.513C297.273 153.958 297.431 153.497 298.067 153.13L306.084 148.501L304.42 145.619C304.084 145.037 304.201 144.582 304.769 144.254C305.391 143.894 305.871 144.005 306.206 144.587L307.871 147.47L313.899 143.989Z" fill="#0E103F"/>
<path opacity="0.67" d="M265.141 330.936C265.945 331.348 266.311 331.786 266.238 332.249C266.123 332.974 265.718 333.282 265.024 333.172C264.545 333.096 263.666 332.553 262.387 331.544C259.447 329.227 257.601 326.198 256.849 322.456L256.757 322.442C255.861 323.202 254.801 323.904 253.576 324.548L252.927 328.645L257.059 328.327L257.294 328.34C257.559 328.367 257.741 328.467 257.84 328.64C257.954 328.817 257.987 329.059 257.938 329.368C257.889 329.677 257.689 329.89 257.338 330.009C256.936 330.151 255.451 330.335 252.884 330.561C250.369 330.764 248.887 330.829 248.439 330.759C248.162 330.715 247.964 330.612 247.847 330.451C247.746 330.293 247.718 330.067 247.765 329.774C247.809 329.496 247.937 329.287 248.149 329.146C248.359 329.021 248.662 328.951 249.06 328.935L251.055 328.776L251.583 325.443C248.821 326.603 247.092 327.128 246.398 327.018C245.796 326.923 245.544 326.566 245.642 325.949C245.71 325.517 246.2 325.223 247.11 325.066C247.972 324.918 249.036 324.596 250.301 324.101C252.562 323.209 254.244 322.376 255.348 321.601L247.847 320.414C247.153 320.304 246.85 319.971 246.938 319.415C247.026 318.86 247.417 318.637 248.111 318.747L256.283 320.041L256.598 318.05L250.903 317.148C250.286 317.051 250.02 316.732 250.106 316.191C250.15 315.914 250.251 315.724 250.41 315.623C250.586 315.508 250.836 315.477 251.16 315.528L256.855 316.43L257.163 314.485L249.871 313.33C249.176 313.22 248.872 312.895 248.957 312.355C249.045 311.8 249.437 311.577 250.131 311.687L257.423 312.842L257.614 311.638C257.665 311.314 257.779 311.095 257.955 310.98C258.134 310.85 258.385 310.811 258.709 310.862C259.034 310.914 259.261 311.029 259.39 311.208C259.523 311.371 259.563 311.615 259.512 311.939L259.321 313.142L266.822 314.33C267.516 314.44 267.819 314.773 267.731 315.329C267.646 315.869 267.256 316.084 266.561 315.974L259.061 314.786L258.753 316.73L264.679 317.669C265.003 317.72 265.224 317.827 265.341 317.987C265.46 318.133 265.498 318.344 265.454 318.622C265.41 318.9 265.307 319.097 265.146 319.214C264.988 319.316 264.747 319.341 264.422 319.29L258.496 318.351L258.181 320.342L266.584 321.673C267.263 321.78 267.559 322.112 267.471 322.667C267.383 323.223 266.999 323.447 266.32 323.339L258.334 322.074C258.639 323.642 259.203 325.076 260.025 326.376L260.091 326.411C261.112 325.86 262.172 325.206 263.273 324.447C263.838 324.077 264.267 323.916 264.56 323.962C264.9 324.016 265.135 324.132 265.264 324.311C265.397 324.475 265.439 324.711 265.39 325.019C265.304 325.559 263.867 326.392 261.079 327.516L260.922 327.61C261.91 328.858 263.317 329.967 265.141 330.936ZM279.57 321.546C278.968 321.451 278.722 321.056 278.832 320.362L279.107 318.625C279.237 317.807 279.508 317.241 279.922 316.927C280.351 316.616 280.954 316.553 281.731 316.739L285.921 317.403L286.119 316.153C286.22 315.52 286.594 315.255 287.242 315.358C287.906 315.463 288.187 315.832 288.087 316.464L287.889 317.715L292.357 318.422C293.981 318.553 294.611 319.42 294.247 321.023L293.979 322.713C293.864 323.438 293.506 323.753 292.904 323.658C292.302 323.563 292.058 323.152 292.173 322.427L292.419 320.876C292.507 320.321 292.28 320.008 291.737 319.938L281.806 318.365C281.251 318.277 280.938 318.504 280.868 319.047L280.615 320.644C280.505 321.338 280.156 321.639 279.57 321.546ZM277.869 317.456C277.683 317.427 277.406 317.233 277.035 316.873L276.233 316.248C275.907 316.007 275.673 315.788 275.53 315.591C275.405 315.381 275.357 315.184 275.386 314.999C275.492 314.335 275.884 314.057 276.563 314.165C276.84 314.209 277.345 314.518 278.077 315.093C278.767 315.629 279.077 316.121 279.006 316.569C278.896 317.263 278.517 317.559 277.869 317.456ZM280.295 331.651C279.57 331.536 279.054 331.297 278.748 330.932C278.46 330.554 278.393 330.029 278.546 329.357L279.287 324.681C279.397 323.987 279.638 323.511 280.011 323.254C280.402 322.983 280.95 322.92 281.655 323.063L285.081 323.606L285.327 322.055L281.97 321.523C281.307 321.418 281.018 321.095 281.103 320.555C281.184 320.046 281.556 319.844 282.22 319.949L290.854 321.316C291.502 321.419 291.786 321.725 291.705 322.234C291.62 322.775 291.253 322.993 290.605 322.891L287.017 322.322L286.771 323.873L290.429 324.453C291.169 324.57 291.685 324.81 291.976 325.172C292.282 325.537 292.358 326.055 292.204 326.727L291.464 331.403C291.354 332.098 291.103 332.58 290.712 332.85C290.337 333.123 289.789 333.187 289.068 333.041L280.295 331.651ZM276.625 323.358C276.425 323.326 276.106 323.141 275.669 322.803L275.069 322.399C274.555 322.049 274.182 321.753 273.952 321.511C273.739 321.256 273.649 321.028 273.68 320.827C273.785 320.163 274.185 319.887 274.88 319.997C275.235 320.053 275.833 320.369 276.675 320.945C277.458 321.497 277.813 322.004 277.739 322.467C277.629 323.161 277.258 323.458 276.625 323.358ZM284.836 325.157L281.826 324.68C281.579 324.641 281.393 324.667 281.268 324.758C281.158 324.851 281.078 325.012 281.025 325.241L280.828 326.491L284.531 327.078L284.836 325.157ZM290.355 326.719C290.391 326.487 290.363 326.317 290.269 326.207C290.179 326.082 290.019 325.993 289.79 325.941L286.526 325.424L286.221 327.346L290.157 327.969L290.355 326.719ZM272.675 334.217C271.965 334.105 271.66 333.732 271.76 333.1C271.787 332.93 271.906 332.68 272.116 332.349C273.18 330.73 274.202 328.97 275.183 327.069C275.363 326.733 275.543 326.493 275.725 326.348C275.921 326.205 276.143 326.153 276.39 326.192C277.038 326.295 277.317 326.631 277.227 327.202C277.173 327.542 276.645 328.629 275.642 330.463C274.769 332.081 274.104 333.186 273.646 333.778C273.353 334.127 273.03 334.274 272.675 334.217ZM284.3 328.536L280.597 327.95L280.369 329.385C280.335 329.601 280.363 329.772 280.454 329.897C280.545 330.022 280.713 330.112 280.957 330.166L283.967 330.643L284.3 328.536ZM288.921 331.428C289.152 331.464 289.323 331.436 289.432 331.343C289.558 331.252 289.646 331.092 289.698 330.863L289.926 329.427L285.99 328.804L285.657 330.911L288.921 331.428ZM276.136 335.288C275.519 335.19 275.26 334.825 275.36 334.192C275.429 333.76 275.941 333.469 276.898 333.32C278.279 333.096 279.515 332.778 280.609 332.365C280.98 332.219 281.274 332.162 281.49 332.197C282.092 332.292 282.346 332.633 282.254 333.219C282.19 333.62 281.3 334.096 279.583 334.647C277.933 335.177 276.784 335.39 276.136 335.288ZM291.178 337.551C290.591 337.458 289.614 336.94 288.245 335.995C286.819 335.01 286.14 334.301 286.208 333.869C286.304 333.267 286.675 333.018 287.324 333.12C287.493 333.147 287.781 333.327 288.187 333.661C289.188 334.436 290.216 335.034 291.273 335.454C292.061 335.769 292.413 336.197 292.327 336.737C292.225 337.385 291.841 337.656 291.178 337.551ZM306.212 339.173C304.498 339.012 303.828 338.099 304.202 336.434L304.785 332.754C304.943 331.054 305.863 330.393 307.543 330.77L310.53 331.243L311.083 327.748L305.574 326.875C304.848 326.76 304.532 326.41 304.625 325.823C304.715 325.252 305.123 325.024 305.849 325.139L311.358 326.012L311.915 322.493L311.017 322.469C309.489 322.433 308.238 322.338 307.266 322.184C306.602 322.078 306.326 321.679 306.436 320.984C306.48 320.706 306.606 320.505 306.816 320.38C307.01 320.253 307.517 320.246 308.338 320.36C312.661 320.934 315.766 321.007 317.653 320.578C318.112 320.476 318.48 320.448 318.758 320.492C319.406 320.594 319.678 320.978 319.573 321.641C319.541 321.842 319.402 322.018 319.157 322.169C318.927 322.322 318.618 322.423 318.231 322.473C317.261 322.604 315.792 322.64 313.824 322.582L313.233 326.308L319.414 327.287C320.124 327.4 320.434 327.742 320.343 328.313C320.25 328.899 319.849 329.136 319.139 329.024L312.958 328.045L312.405 331.54L315.761 332.072C316.487 332.187 317.028 332.462 317.386 332.899C317.744 333.335 317.842 333.967 317.679 334.796L317.096 338.477C316.966 339.295 316.678 339.866 316.231 340.191C315.754 340.51 315.122 340.6 314.338 340.46L306.212 339.173ZM304.589 321.855C304.435 321.83 304.182 321.679 303.83 321.402L302.713 320.513C302.375 320.254 302.134 320.026 301.991 319.829C301.851 319.617 301.795 319.419 301.825 319.234C301.927 318.585 302.31 318.314 302.974 318.419C303.313 318.473 303.886 318.801 304.693 319.403C305.501 319.99 305.868 320.523 305.792 321.001C305.685 321.68 305.284 321.965 304.589 321.855ZM302.635 327.454C302.434 327.422 302.178 327.286 301.868 327.048L300.753 326.301C300.037 325.824 299.712 325.377 299.778 324.961C299.884 324.297 300.268 324.018 300.931 324.123C301.163 324.159 301.88 324.574 303.084 325.365C303.629 325.721 303.866 326.122 303.795 326.57C303.685 327.264 303.298 327.559 302.635 327.454ZM298.827 338.312C298.117 338.199 297.819 337.781 297.934 337.055C297.958 336.901 298.061 336.704 298.241 336.463C299.115 335.241 300.106 333.579 301.214 331.476C301.622 330.702 302.057 330.352 302.52 330.425C303.168 330.528 303.442 330.896 303.342 331.529C303.276 331.945 302.708 333.081 301.639 334.937C300.616 336.705 299.96 337.748 299.672 338.066C299.463 338.286 299.181 338.368 298.827 338.312ZM313.891 338.633C314.694 338.761 315.157 338.431 315.282 337.644L315.689 335.074C315.819 334.256 315.498 333.786 314.726 333.664L307.92 332.586C307.102 332.456 306.631 332.785 306.506 333.572L306.099 336.142C305.97 336.96 306.299 337.431 307.086 337.556L313.891 338.633ZM344.443 329.78C345.863 330.005 346.456 330.708 346.221 331.889L345.288 336.582C344.628 339.847 344.065 342.107 343.597 343.362C343.328 344.063 342.862 344.559 342.199 344.849C341.536 345.14 340.695 345.204 339.676 345.043C338.997 344.935 338.71 344.55 338.816 343.886C338.877 343.5 339.066 343.254 339.384 343.146C339.535 343.091 339.954 343.094 340.64 343.155C341.558 343.253 342.171 342.63 342.478 341.287C343.05 338.878 343.51 336.823 343.858 335.122L344.369 332.498C344.475 331.929 344.234 331.598 343.648 331.505L341.796 331.212C341.22 334.048 340.61 336.3 339.966 337.97C339.244 339.833 338.424 341.317 337.505 342.421C336.488 343.652 335.709 344.225 335.169 344.139C334.598 344.049 334.36 343.703 334.455 343.101C334.475 342.977 334.534 342.852 334.633 342.725C334.745 342.617 334.911 342.469 335.131 342.282C337.44 340.386 339.098 336.606 340.106 330.944L338.555 330.699C337.876 330.591 337.584 330.236 337.679 329.635C337.728 329.326 337.841 329.114 338.017 329C338.212 328.873 338.486 328.837 338.841 328.893L340.438 329.146L340.802 326.997C340.949 326.071 341.068 325.37 341.159 324.894C341.275 324.264 341.61 323.993 342.166 324.081C342.737 324.171 342.971 324.54 342.869 325.188L342.515 327.268L342.151 329.417L344.443 329.78ZM335.227 341.823C335.159 342.255 334.902 342.475 334.458 342.484L325.407 342.095L324.682 342.027C324.042 341.974 323.775 341.615 323.88 340.951C323.973 340.365 324.455 340.117 325.327 340.207L329.445 340.575L329.705 338.931L325.909 338.33C325.338 338.24 325.094 337.932 325.177 337.407C325.26 336.883 325.587 336.665 326.158 336.756L329.954 337.357L330.152 336.107L327.606 335.704C327.004 335.608 326.571 335.397 326.306 335.071C326.044 334.729 325.956 334.288 326.041 333.747L326.599 330.229C326.687 329.673 326.9 329.272 327.24 329.025C327.595 328.781 328.066 328.705 328.652 328.798L331.245 329.209L331.432 328.028L326.941 327.317C326.37 327.226 326.127 326.911 326.213 326.371C326.296 325.846 326.623 325.629 327.194 325.72L331.685 326.431L331.894 325.111L331.258 325.082L327.98 324.8C327.34 324.746 327.069 324.41 327.167 323.793C327.231 323.392 327.457 323.159 327.847 323.094L327.87 323.098L329.012 323.231C332.398 323.625 334.951 323.689 336.67 323.424L337.117 323.447C337.775 323.488 338.049 323.856 337.939 324.55C337.871 324.982 337.414 325.218 336.569 325.259C336.346 325.271 335.626 325.267 334.411 325.249L333.536 325.229L333.305 326.688L337.31 327.322C337.897 327.415 338.147 327.731 338.062 328.271C338.02 328.534 337.919 328.723 337.758 328.84C337.599 328.942 337.366 328.968 337.057 328.919L333.052 328.285L332.865 329.465L335.574 329.894C336.762 330.083 337.268 330.732 337.092 331.843L336.535 335.362C336.354 336.504 335.654 336.979 334.435 336.785L331.773 336.364L331.575 337.614L335.325 338.208C335.649 338.259 335.863 338.356 335.967 338.499C336.086 338.645 336.124 338.856 336.08 339.134C336.036 339.412 335.935 339.602 335.776 339.703C335.633 339.807 335.4 339.833 335.076 339.782L331.326 339.188L331.08 340.739L334.63 340.945C334.849 340.964 335.009 341.053 335.11 341.211C335.23 341.357 335.269 341.561 335.227 341.823ZM328.127 331.515L330.812 331.94L331.018 330.644L328.888 330.307C328.518 330.248 328.302 330.412 328.241 330.797L328.127 331.515ZM335.347 331.923C335.379 331.722 335.356 331.568 335.278 331.461C335.216 331.356 335.084 331.288 334.884 331.256L332.638 330.901L332.433 332.197L335.234 332.641L335.347 331.923ZM327.782 333.691C327.724 334.061 327.88 334.276 328.25 334.335L330.38 334.672L330.592 333.329L327.907 332.904L327.782 333.691ZM335.014 334.03L332.213 333.586L332 334.929L334.246 335.284C334.616 335.343 334.831 335.187 334.889 334.817L335.014 334.03ZM349.997 346.915C349.719 346.871 349.502 346.742 349.346 346.527C349.19 346.313 349.134 346.066 349.178 345.789C349.193 345.696 349.235 345.584 349.303 345.452L358.279 328.484C358.372 328.293 358.506 328.148 358.68 328.049C358.869 327.952 359.08 327.922 359.311 327.959C359.589 328.003 359.806 328.132 359.962 328.347C360.117 328.561 360.173 328.807 360.129 329.085C360.115 329.178 360.073 329.29 360.005 329.421L351.029 346.39C350.935 346.581 350.794 346.725 350.605 346.821C350.431 346.92 350.228 346.951 349.997 346.915ZM365.017 334.842C364.4 334.745 364.133 334.433 364.216 333.909C364.299 333.384 364.649 333.171 365.266 333.268L367.836 333.675L368.184 331.476L367.999 331.447C366.779 332.456 366 332.934 365.66 332.88C365.12 332.794 364.894 332.474 364.982 331.918C365.014 331.718 365.205 331.51 365.555 331.297C366.534 330.709 367.566 329.883 368.652 328.821C368.971 328.508 369.3 328.378 369.639 328.432C370.272 328.532 370.555 328.791 370.489 329.207C370.465 329.362 370.22 329.608 369.755 329.945L369.591 330.085L384.152 332.392C384.723 332.482 384.967 332.79 384.883 333.314C384.8 333.839 384.473 334.056 383.902 333.966L382.56 333.753L382.211 335.952L384.573 336.326C385.128 336.414 385.364 336.72 385.281 337.245C385.198 337.77 384.879 337.988 384.323 337.9L381.962 337.526L381.603 339.795L383.154 340.041C383.725 340.131 383.969 340.439 383.886 340.963C383.802 341.488 383.475 341.705 382.904 341.615L365.219 338.813C364.601 338.716 364.334 338.404 364.417 337.88C364.5 337.355 364.851 337.142 365.468 337.239L367.227 337.518L367.587 335.249L365.017 334.842ZM369.805 331.733L369.456 333.932L371.98 334.332L372.328 332.132L369.805 331.733ZM373.925 332.385L373.577 334.585L376.216 335.003L376.564 332.803L373.925 332.385ZM378.185 333.06L377.836 335.259L380.545 335.688L380.893 333.489L378.185 333.06ZM369.207 335.506L368.848 337.775L371.371 338.174L371.73 335.906L369.207 335.506ZM373.327 336.159L372.968 338.427L375.607 338.845L375.966 336.577L373.327 336.159ZM377.587 336.833L377.228 339.102L379.936 339.531L380.295 337.262L377.587 336.833ZM371.47 341.441C372.443 341.595 372.865 342.073 372.738 342.876C372.675 343.277 372.304 343.97 371.626 344.954C371.009 345.853 370.132 346.647 368.994 347.337C368.082 347.905 366.93 348.331 365.54 348.617C364.215 348.898 363.259 348.992 362.672 348.899C362.101 348.808 361.866 348.447 361.966 347.814C362.007 347.552 362.118 347.355 362.296 347.226C362.35 347.187 362.505 347.156 362.762 347.133C363.034 347.113 363.377 347.096 363.79 347.082C365.002 347.021 366.178 346.741 367.317 346.241L366.011 344.895C365.7 344.561 365.562 344.286 365.596 344.07C365.674 343.576 365.968 343.37 366.477 343.45C366.601 343.47 366.823 343.616 367.144 343.888C367.48 344.163 367.966 344.588 368.603 345.163L368.762 345.355C369.288 344.932 369.707 344.531 370.02 344.154C370.336 343.761 370.531 343.428 370.606 343.155L370.613 343.109C370.64 342.939 370.515 342.832 370.237 342.788L366.834 342.249C365.148 343.801 364.012 344.531 363.426 344.438C362.917 344.358 362.706 344.039 362.794 343.484C362.831 343.252 363.165 342.941 363.796 342.551C364.869 341.867 365.933 340.944 366.987 339.782C367.257 339.476 367.57 339.352 367.924 339.408C368.511 339.501 368.771 339.756 368.705 340.173C368.683 340.311 368.501 340.559 368.16 340.917L371.47 341.441ZM382.826 347.653C383.397 347.744 383.641 348.051 383.558 348.576C383.475 349.101 383.148 349.318 382.577 349.227L380.285 348.864L379.984 350.763C379.884 351.395 379.541 351.665 378.954 351.572C378.383 351.482 378.148 351.12 378.248 350.488L378.549 348.589L374.729 347.984C374.562 348.338 374.447 348.565 374.384 348.665C374.07 349.249 373.682 349.503 373.219 349.43C372.972 349.391 372.785 349.322 372.658 349.223C372.547 349.126 372.465 348.994 372.412 348.828C372.401 348.699 372.4 348.604 372.41 348.543C372.442 348.342 372.554 348.083 372.747 347.765C373.132 347.13 373.572 346.203 374.065 344.984C374.269 344.495 374.588 344.284 375.02 344.352C375.297 344.396 375.509 344.509 375.654 344.69C375.817 344.858 375.877 345.081 375.833 345.359C375.816 345.467 375.795 345.551 375.77 345.61L375.418 346.48L378.798 347.015L379.176 344.631L373.898 343.795C373.342 343.707 373.106 343.401 373.189 342.876C373.272 342.351 373.591 342.133 374.147 342.221L379.425 343.057L379.564 342.177C379.657 341.591 379.997 341.344 380.583 341.437C381.154 341.527 381.393 341.866 381.3 342.452L381.161 343.332L382.782 343.588C383.368 343.681 383.62 343.99 383.537 344.515C383.453 345.04 383.119 345.256 382.532 345.163L380.912 344.906L380.534 347.29L382.826 347.653ZM409.719 344.818C409.318 344.754 408.881 344.266 408.409 343.352L408.057 342.727L391.101 341.014C390.743 340.974 390.485 340.854 390.327 340.655C390.184 340.458 390.14 340.19 390.194 339.85C390.269 339.372 390.564 339.11 391.077 339.065L392.315 339.19L394.078 339.445C395.353 337.986 396.661 336.224 398 334.158C398.234 333.783 398.473 333.521 398.719 333.37C398.982 333.206 399.26 333.147 399.553 333.194C400.217 333.299 400.502 333.644 400.409 334.231C400.346 334.632 399.567 335.703 398.073 337.444L396.103 339.695C401.493 340.422 404.961 340.853 406.506 340.986L406.949 341.033C406.047 339.64 405.356 338.708 404.877 338.237C404.437 337.819 404.244 337.44 404.297 337.101C404.341 336.823 404.444 336.626 404.605 336.509C404.766 336.392 405 336.358 405.309 336.407C405.695 336.468 406.753 337.624 408.485 339.876C410.188 342.108 410.996 343.501 410.908 344.057C410.81 344.674 410.414 344.928 409.719 344.818ZM392.917 353.072C392.006 352.928 391.374 352.622 391.021 352.155C390.683 351.69 390.614 351.03 390.812 350.176L391.52 345.708C391.691 343.932 392.655 343.238 394.412 343.627L405.779 345.427C407.601 345.605 408.312 346.564 407.91 348.304L407.202 352.772C407.031 354.548 406.058 355.248 404.283 354.872L392.917 353.072ZM403.871 352.98C404.719 353.114 405.207 352.78 405.334 351.978L405.877 348.552C406.011 347.703 405.67 347.214 404.852 347.084L394.851 345.5C394.018 345.368 393.537 345.711 393.407 346.529L392.864 349.955C392.732 350.788 393.068 351.269 393.87 351.396L403.871 352.98Z" fill="#0E103F"/>
<path opacity="0.67" d="M247.001 356.118C246.915 356.08 246.78 355.96 246.596 355.759C246.433 355.549 246.336 355.421 246.306 355.373L245.217 354.016C244.832 353.537 244.716 353.126 244.868 352.783C245.116 352.226 245.511 352.069 246.054 352.31C246.239 352.393 246.711 352.851 247.469 353.684C247.822 354.081 248.062 354.445 248.189 354.775C248.322 355.09 248.338 355.363 248.236 355.591C247.969 356.19 247.557 356.366 247.001 356.118ZM249.764 362.531C248.551 361.991 247.795 361.595 247.497 361.342C247.25 361.129 247.1 360.909 247.048 360.68C247.002 360.438 247.045 360.166 247.179 359.867L249.038 355.691C249.216 355.292 249.452 355.012 249.745 354.852C250.045 354.677 250.531 354.74 251.201 355.038L253.792 356.192C254.92 356.694 255.277 357.409 254.864 358.337L254.359 359.471C254.162 359.914 253.874 360.196 253.494 360.318C253.122 360.426 252.675 360.372 252.155 360.158L249.512 359.007L249.054 360.034C248.965 360.234 248.958 360.385 249.032 360.487C249.165 360.648 249.411 360.809 249.767 360.968C250.809 361.432 251.407 361.646 251.559 361.611C251.711 361.577 251.894 361.436 252.106 361.188C252.326 360.927 252.664 360.897 253.12 361.101C253.391 361.222 253.573 361.371 253.665 361.549C253.771 361.733 253.78 361.925 253.691 362.124C253.373 362.838 252.901 363.227 252.274 363.29C251.814 363.324 250.977 363.071 249.764 362.531ZM256.508 365.534C255.224 364.962 254.404 364.537 254.049 364.259C253.817 364.088 253.671 363.877 253.611 363.628C253.572 363.371 253.619 363.093 253.752 362.793L255.611 358.618C256.011 357.719 256.761 357.514 257.86 358.003L260.708 359.271C261.279 359.525 261.649 359.827 261.819 360.176C262.003 360.531 261.983 360.959 261.761 361.459L261.275 362.551C261.078 362.993 260.789 363.275 260.41 363.397C260.037 363.505 259.591 363.451 259.071 363.237L256.021 361.905L255.573 362.911C255.439 363.211 255.548 363.465 255.9 363.673L257.24 364.295C258.169 364.743 258.737 364.85 258.944 364.617C259.358 364.186 259.801 364.075 260.272 364.285C260.543 364.406 260.724 364.555 260.816 364.733C260.922 364.917 260.928 365.116 260.833 365.33C260.559 365.944 260.166 366.307 259.654 366.421C259.113 366.523 258.064 366.227 256.508 365.534ZM252.151 358.668C252.494 358.821 252.749 358.746 252.917 358.445L253.137 357.952C253.257 357.681 253.132 357.463 252.761 357.298L251.241 356.621C250.87 356.456 250.617 356.523 250.484 356.823L250.074 357.743L252.151 358.668ZM259.088 361.757C259.416 361.903 259.665 361.825 259.833 361.524L260.052 361.032C260.173 360.76 260.055 360.545 259.698 360.386L257.814 359.548C257.429 359.376 257.169 359.44 257.036 359.74L256.626 360.66L259.088 361.757ZM244.371 359.72C244.2 359.643 243.998 359.442 243.767 359.117L242.333 357.555C241.979 357.158 241.882 356.781 242.041 356.425C242.289 355.868 242.691 355.713 243.248 355.961C243.476 356.063 243.98 356.527 244.758 357.352C245.508 358.165 245.788 358.785 245.597 359.213C245.336 359.799 244.928 359.967 244.371 359.72ZM243.75 366.934C243.265 366.718 243.133 366.361 243.356 365.861C243.572 365.376 243.922 365.241 244.408 365.457L247.362 366.773L247.992 365.359L245.765 364.368C245.28 364.152 245.142 363.808 245.351 363.337C245.561 362.866 245.909 362.739 246.394 362.955L248.621 363.946L248.878 363.368C248.993 363.111 249.15 362.95 249.35 362.885C249.556 362.806 249.795 362.827 250.066 362.948C250.337 363.069 250.512 363.232 250.591 363.438C250.691 363.637 250.684 363.864 250.57 364.121L250.312 364.699L253.738 366.225L253.995 365.647C254.231 365.118 254.626 364.978 255.183 365.226C255.726 365.468 255.879 365.852 255.644 366.381L255.387 366.959L257.656 367.969C258.142 368.185 258.279 368.529 258.07 369C257.86 369.471 257.512 369.598 257.027 369.382L254.758 368.372L254.128 369.785L257.169 371.139C257.411 371.247 257.568 371.394 257.64 371.579C257.711 371.765 257.693 371.979 257.584 372.222C257.483 372.45 257.339 372.6 257.153 372.671C256.968 372.742 256.754 372.724 256.511 372.616L243.75 366.934ZM247.321 374.99C244.766 373.852 243.024 372.905 242.095 372.15C241.18 371.4 240.525 370.527 240.131 369.531L240.098 369.49C238.179 370.073 237.006 370.269 236.578 370.078C236.021 369.83 235.889 369.378 236.181 368.721C236.385 368.265 236.865 368.051 237.621 368.08C238.021 368.104 238.715 368.062 239.704 367.955L241.467 363.994C241.664 363.552 241.542 363.232 241.099 363.035L239.943 362.52C239.343 362.253 239.161 361.856 239.396 361.327C239.625 360.814 240.039 360.69 240.639 360.957L242.309 361.701C242.923 361.974 243.312 362.31 243.477 362.708C243.648 363.092 243.592 363.563 243.309 364.121L241.374 368.468L241.726 369.291C242.323 370.447 244.235 371.743 247.461 373.179L255.1 376.477C255.642 376.719 255.796 377.104 255.561 377.632C255.3 378.217 254.756 378.325 253.928 377.957L247.321 374.99ZM252.48 369.051L253.109 367.638L249.683 366.113L249.054 367.526L252.48 369.051ZM254.719 375.718C254.191 375.483 253.398 374.788 252.339 373.632C251.257 372.449 250.793 371.687 250.946 371.344C251.187 370.802 251.586 370.654 252.143 370.902C252.286 370.966 252.471 371.125 252.699 371.381C253.384 372.148 254.188 372.916 255.111 373.686C255.888 374.323 256.181 374.855 255.99 375.283C255.743 375.84 255.319 375.985 254.719 375.718ZM243.205 370.232C242.691 370.004 242.558 369.611 242.806 369.054C242.984 368.655 243.338 368.513 243.868 368.629L246.178 368.914L247.704 369.003L247.884 369.058C248.154 369.143 248.321 369.286 248.386 369.486C248.458 369.672 248.433 369.9 248.312 370.171C248.229 370.357 247.994 370.483 247.605 370.549C247.231 370.622 246.672 370.647 245.93 370.624C244.584 370.573 243.676 370.442 243.205 370.232ZM263.951 373.389C263.665 373.262 263.483 373.095 263.404 372.889C263.345 372.674 263.389 372.403 263.535 372.075C263.669 371.775 263.853 371.592 264.088 371.525C264.191 371.486 264.724 371.518 265.687 371.622C268.357 371.887 270.952 371.666 273.474 370.958L266.901 368.031C266.23 367.733 266.018 367.305 266.266 366.748C266.501 366.22 266.954 366.105 267.625 366.404L275.29 369.817L276.091 368.018C273.615 367.087 271.506 366.234 269.765 365.458L269.306 365.28C268.743 365.046 268.588 364.644 268.843 364.073C269.084 363.53 269.562 363.418 270.275 363.736C272.645 364.791 275.278 365.869 278.174 366.97C281.027 368.053 282.869 368.642 283.698 368.737L284.388 368.916C285.045 369.209 285.224 369.69 284.925 370.361C284.754 370.746 284.318 370.86 283.619 370.703C283.293 370.627 281.726 370.074 278.917 369.046L277.83 368.664L276.982 370.57L284.818 374.059C285.489 374.358 285.704 374.778 285.462 375.321C285.221 375.863 284.765 375.985 284.094 375.686L277.114 372.579C278.262 374.954 280.081 377.132 282.568 379.112C283.193 379.63 283.404 380.117 283.201 380.574C282.915 381.216 282.465 381.401 281.851 381.127C281.337 380.899 280.379 379.959 278.976 378.308C277.654 376.744 276.604 375.029 275.828 373.161L274.818 375.43C274.544 376.044 274.129 376.227 273.573 375.979C273.002 375.725 272.853 375.291 273.126 374.677L274.184 372.301C272.394 372.94 270.366 373.329 268.099 373.465C265.776 373.611 264.393 373.586 263.951 373.389ZM272.947 387.066C272.233 386.748 272.007 386.297 272.267 385.712C272.388 385.44 272.566 385.271 272.8 385.205C273.029 385.153 273.335 385.195 273.719 385.332C275.158 385.904 276.052 386.122 276.403 385.988C276.98 385.766 277.501 385.134 277.965 384.092C278.041 383.921 278.042 383.767 277.966 383.631C277.896 383.48 277.761 383.36 277.561 383.271L275.613 382.404C274.728 382.009 274.444 381.456 274.762 380.742L275.398 379.717C275.658 379.285 275.567 378.971 275.125 378.774L271.292 377.068C270.471 378.413 269.741 379.438 269.101 380.146C268.507 380.788 267.753 381.273 266.837 381.601C266.053 381.901 264.996 382.047 263.667 382.036C262.526 382.024 261.635 381.876 260.992 381.59C260.421 381.335 260.269 380.909 260.536 380.309C260.638 380.081 260.809 379.926 261.051 379.845C261.285 379.779 261.587 379.793 261.955 379.889C263.292 380.228 264.638 380.22 265.993 379.865C267.175 379.553 268.371 378.367 269.579 376.305L267.203 375.247C266.589 374.974 266.393 374.587 266.616 374.088C266.73 373.831 266.884 373.677 267.078 373.626C267.286 373.582 267.547 373.63 267.861 373.77L276.618 377.669C277.645 378.126 277.994 378.726 277.664 379.468L276.899 380.667L276.851 380.774C276.743 381.017 276.811 381.192 277.053 381.3L279.002 382.168C280.101 382.657 280.447 383.359 280.04 384.272C279.78 384.857 279.34 385.594 278.723 386.482C278.092 387.399 277.406 387.922 276.663 388.054C275.956 388.183 274.717 387.854 272.947 387.066ZM292.285 394.881C290.671 394.282 290.26 393.226 291.052 391.715L292.568 388.311C293.161 386.71 294.22 386.31 295.746 387.109L298.508 388.338L299.947 385.105L294.852 382.836C294.181 382.538 293.966 382.117 294.207 381.575C294.443 381.047 294.896 380.932 295.567 381.231L300.662 383.499L302.111 380.245L301.25 379.99C299.783 379.559 298.6 379.143 297.7 378.743C297.087 378.469 296.923 378.012 297.209 377.369C297.323 377.112 297.498 376.951 297.733 376.884C297.953 376.811 298.445 376.936 299.208 377.259C303.235 378.932 306.215 379.806 308.149 379.88C308.619 379.901 308.982 379.969 309.239 380.083C309.838 380.35 310.001 380.79 309.728 381.404C309.645 381.59 309.466 381.723 309.19 381.806C308.928 381.894 308.604 381.913 308.217 381.86C307.246 381.736 305.817 381.39 303.931 380.824L302.397 384.272L308.113 386.817C308.77 387.109 308.981 387.519 308.746 388.048C308.504 388.59 308.055 388.715 307.399 388.423L301.682 385.877L300.242 389.11L303.347 390.493C304.018 390.791 304.47 391.198 304.703 391.712C304.935 392.226 304.866 392.862 304.494 393.62L302.979 397.025C302.642 397.781 302.215 398.259 301.7 398.457C301.155 398.642 300.522 398.565 299.801 398.227L292.285 394.881ZM295.2 377.732C295.057 377.669 294.852 377.457 294.584 377.099L293.735 375.951C293.475 375.613 293.302 375.331 293.215 375.104C293.134 374.862 293.132 374.656 293.208 374.485C293.475 373.885 293.915 373.722 294.529 373.995C294.843 374.135 295.311 374.6 295.934 375.391C296.564 376.167 296.78 376.776 296.583 377.219C296.303 377.847 295.842 378.018 295.2 377.732ZM291.863 382.635C291.677 382.552 291.466 382.355 291.228 382.044L290.343 381.034C289.776 380.388 289.578 379.873 289.749 379.487C290.023 378.873 290.466 378.703 291.08 378.976C291.294 379.072 291.88 379.657 292.837 380.734C293.272 381.218 293.397 381.667 293.212 382.081C292.926 382.723 292.477 382.908 291.863 382.635ZM285.374 392.137C284.718 391.845 284.539 391.363 284.837 390.692C284.901 390.55 285.051 390.386 285.287 390.2C286.448 389.246 287.835 387.897 289.45 386.153C290.044 385.51 290.555 385.285 290.983 385.475C291.582 385.742 291.752 386.168 291.491 386.754C291.32 387.139 290.477 388.089 288.964 389.605C287.518 391.048 286.615 391.886 286.255 392.119C285.996 392.277 285.702 392.283 285.374 392.137ZM299.842 396.347C300.585 396.677 301.118 396.479 301.442 395.751L302.5 393.374C302.837 392.617 302.649 392.08 301.935 391.763L295.64 388.96C294.883 388.623 294.343 388.819 294.019 389.547L292.961 391.923C292.624 392.68 292.82 393.22 293.548 393.544L299.842 396.347ZM331.645 395.703C332.958 396.288 333.348 397.12 332.816 398.2L330.7 402.492C329.218 405.475 328.089 407.512 327.312 408.603C326.871 409.21 326.292 409.568 325.577 409.677C324.861 409.786 324.032 409.631 323.09 409.212C322.462 408.932 322.285 408.485 322.558 407.872C322.717 407.515 322.964 407.325 323.298 407.303C323.459 407.289 323.862 407.4 324.509 407.637C325.371 407.969 326.124 407.526 326.769 406.308C327.944 404.129 328.92 402.264 329.697 400.711L330.869 398.308C331.119 397.786 330.972 397.405 330.43 397.163L328.717 396.401C327.427 398.99 326.255 401.008 325.201 402.455C324.021 404.067 322.844 405.288 321.671 406.117C320.37 407.043 319.469 407.394 318.97 407.172C318.442 406.937 318.301 406.541 318.549 405.984C318.6 405.87 318.69 405.765 318.818 405.668C318.955 405.592 319.153 405.492 319.414 405.368C322.135 404.134 324.715 400.913 327.154 395.705L325.719 395.066C325.091 394.786 324.901 394.368 325.149 393.811C325.276 393.526 325.44 393.351 325.64 393.286C325.86 393.213 326.135 393.25 326.463 393.396L327.94 394.054L328.848 392.072C329.23 391.215 329.526 390.569 329.737 390.133C330.012 389.554 330.406 389.379 330.92 389.608C331.448 389.843 331.579 390.26 331.312 390.86L330.433 392.777L329.525 394.759L331.645 395.703ZM319.626 404.95C319.448 405.349 319.143 405.496 318.712 405.389L310.07 402.671L309.387 402.418C308.783 402.2 308.618 401.785 308.891 401.171C309.132 400.628 309.662 400.514 310.481 400.827L314.363 402.248L315.04 400.727L311.529 399.164C311.001 398.929 310.845 398.569 311.061 398.083C311.277 397.598 311.649 397.473 312.177 397.708L315.689 399.271L316.203 398.115L313.848 397.067C313.291 396.819 312.928 396.503 312.756 396.119C312.592 395.721 312.621 395.272 312.843 394.772L314.292 391.517C314.521 391.004 314.831 390.671 315.223 390.521C315.629 390.377 316.104 390.426 316.646 390.667L319.044 391.735L319.53 390.643L315.377 388.793C314.848 388.558 314.696 388.191 314.918 387.691C315.134 387.206 315.506 387.081 316.034 387.316L320.188 389.165L320.731 387.945L320.125 387.752L317.032 386.631C316.428 386.414 316.252 386.019 316.507 385.448C316.672 385.077 316.951 384.911 317.345 384.949L317.366 384.959L318.434 385.383C321.603 386.64 324.052 387.363 325.781 387.551L326.207 387.689C326.832 387.899 327.002 388.325 326.716 388.967C326.538 389.367 326.036 389.477 325.209 389.297C324.99 389.251 324.296 389.062 323.127 388.729L322.287 388.484L321.687 389.833L325.391 391.482C325.933 391.723 326.093 392.094 325.871 392.594C325.763 392.836 325.616 392.993 325.43 393.064C325.251 393.121 325.019 393.086 324.733 392.959L321.029 391.31L320.543 392.402L323.048 393.517C324.147 394.007 324.468 394.765 324.01 395.793L322.561 399.048C322.091 400.104 321.292 400.381 320.164 399.879L317.702 398.783L317.187 399.939L320.656 401.483C320.956 401.617 321.137 401.766 321.201 401.931C321.278 402.102 321.26 402.316 321.145 402.573C321.031 402.83 320.884 402.987 320.705 403.044C320.54 403.108 320.307 403.073 320.008 402.939L316.539 401.395L315.9 402.829L319.276 403.948C319.483 404.022 319.614 404.149 319.671 404.329C319.749 404.5 319.734 404.707 319.626 404.95ZM315.436 393.155L317.919 394.261L318.453 393.062L316.483 392.185C316.141 392.033 315.89 392.135 315.731 392.492L315.436 393.155ZM322.304 395.418C322.387 395.233 322.404 395.078 322.357 394.954C322.324 394.837 322.214 394.737 322.029 394.654L319.952 393.73L319.418 394.929L322.009 396.082L322.304 395.418ZM314.539 395.168C314.387 395.511 314.482 395.758 314.825 395.911L316.794 396.788L317.347 395.546L314.864 394.44L314.539 395.168ZM321.437 397.367L318.846 396.213L318.293 397.455L320.37 398.38C320.713 398.532 320.96 398.437 321.113 398.095L321.437 397.367Z" fill="#0E103F"/>
<path opacity="0.67" d="M272.024 232.05C272.647 232.142 273.019 232.414 273.14 232.867C273.185 233.033 273.199 233.207 273.183 233.389C273.127 233.906 272.866 234.227 272.398 234.352C272.186 234.409 271.94 234.426 271.66 234.404C270.262 234.261 268.827 233.764 267.353 232.913C265.895 232.058 264.525 230.962 263.245 229.622C261.975 228.264 260.904 226.804 260.033 225.242C260.228 228.085 259.805 230.73 258.762 233.177C257.73 235.605 256.201 237.657 254.175 239.332C254.014 239.456 253.858 239.538 253.707 239.579C253.436 239.651 253.177 239.623 252.933 239.495C252.703 239.362 252.546 239.138 252.461 238.821C252.364 238.458 252.507 238.088 252.891 237.71C257.316 233.516 258.948 228.347 257.787 222.204C257.587 221.158 257.379 220.227 257.16 219.412L256.81 218.195C256.725 217.878 256.747 217.598 256.875 217.353C257.004 217.108 257.227 216.943 257.544 216.858C257.861 216.773 258.134 216.797 258.363 216.93C258.608 217.058 258.771 217.274 258.852 217.575C259.09 218.466 259.317 219.432 259.532 220.475C259.553 220.615 259.575 220.787 259.597 220.991C259.631 221.176 259.662 221.322 259.69 221.427C259.71 221.503 259.755 221.612 259.826 221.755C260.67 223.454 261.714 225.026 262.958 226.472C264.203 227.918 265.598 229.137 267.142 230.131C268.701 231.121 270.328 231.76 272.024 232.05ZM292.991 211.558C293.685 211.372 294.117 211.596 294.287 212.23C294.452 212.849 294.188 213.251 293.494 213.437L286.77 215.239L290.069 227.458C290.493 229.042 289.869 230.002 288.195 230.337L285.954 230.938C285.577 231.039 285.275 231.031 285.05 230.913C284.843 230.807 284.694 230.58 284.601 230.233C284.419 229.554 284.622 229.135 285.211 228.978L287.112 228.468C287.791 228.286 288.04 227.856 287.858 227.176L285.353 217.827C284.903 219.71 284.157 221.576 283.116 223.424C282.089 225.268 280.821 227.024 279.31 228.69C278.945 229.079 278.604 229.316 278.287 229.401C277.91 229.502 277.567 229.4 277.259 229.094C277.12 228.938 277.03 228.784 276.99 228.633C276.864 228.165 277.087 227.636 277.656 227.047C279.247 225.375 280.598 223.597 281.711 221.714C282.839 219.826 283.605 217.915 284.008 215.979L275.836 218.169C275.126 218.359 274.687 218.137 274.517 217.503C274.351 216.884 274.623 216.48 275.332 216.29L284.275 213.893L283.413 210.679C283.239 210.03 283.469 209.62 284.103 209.451C284.797 209.264 285.231 209.496 285.405 210.145L286.267 213.36L292.991 211.558ZM311.83 204.86C311.582 204.959 311.356 204.963 311.154 204.871C310.966 204.776 310.84 204.608 310.776 204.366C310.711 204.125 310.732 203.933 310.84 203.791C310.963 203.645 311.186 203.512 311.51 203.393C312.591 203.022 313.661 202.606 314.718 202.145C315.689 201.723 316.492 201.338 317.126 200.99L317.656 200.703C317.697 200.676 317.755 200.652 317.831 200.632C318.042 200.575 318.213 200.61 318.344 200.737C318.471 200.848 318.561 201.002 318.614 201.198C318.686 201.47 318.628 201.704 318.438 201.901C318.069 202.274 316.717 202.936 314.383 203.885C313.51 204.248 312.659 204.573 311.83 204.86ZM305.047 225.458C304.459 225.616 304.084 225.393 303.922 224.789C303.825 224.427 303.919 224.086 304.206 223.767C305.534 222.262 306.191 220.76 306.177 219.259L303.375 221.029L303.093 221.153C302.86 221.248 302.662 221.236 302.501 221.118C302.336 220.984 302.213 220.766 302.132 220.464C302.003 219.981 302.254 219.59 302.886 219.292L300.016 208.584C299.834 207.904 299.865 207.387 300.11 207.03C300.276 206.807 300.6 206.567 301.081 206.309L303.175 204.704L303.479 204.574C303.728 204.475 303.942 204.491 304.123 204.62C304.314 204.731 304.45 204.937 304.531 205.239C304.668 205.752 303.941 206.448 302.349 207.328C301.718 207.691 301.468 208.114 301.597 208.597L304.284 218.626L304.628 218.461L306.032 217.721C305.928 216.972 305.583 215.504 304.997 213.315L304.627 211.934L303.53 207.933C303.393 207.42 303.565 207.099 304.048 206.969C304.516 206.844 304.825 207.061 304.975 207.619L306.139 211.966C307.041 215.331 307.561 217.756 307.7 219.239C307.83 220.628 307.441 222.107 306.535 223.676C305.906 224.767 305.41 225.361 305.047 225.458ZM311.165 224.11C310.682 224.239 310.365 224.025 310.216 223.467L305.703 206.623C305.407 205.521 305.811 204.823 306.913 204.528L308.656 204.061C309.773 203.761 310.479 204.163 310.774 205.264L313.952 217.127C314.134 217.806 314.121 218.36 313.912 218.788C313.699 219.201 313.27 219.502 312.625 219.691L311.856 219.897C311.343 220.035 311.015 219.839 310.874 219.311C310.732 218.783 310.918 218.45 311.431 218.312L311.974 218.167C312.382 218.058 312.539 217.797 312.444 217.386L309.448 206.202C309.347 205.825 309.1 205.689 308.708 205.794L307.734 206.055C307.357 206.156 307.219 206.395 307.32 206.772L311.687 223.072C311.837 223.631 311.663 223.977 311.165 224.11ZM318.594 207.464C318.141 207.585 317.87 207.48 317.781 207.148C317.733 206.967 317.698 206.596 317.677 206.035L317.625 204.933L317.585 204.24C317.569 203.759 317.757 203.466 318.15 203.361C318.648 203.227 318.943 203.334 319.036 203.681C319.101 203.923 319.14 204.22 319.154 204.572C319.182 205.163 319.184 205.68 319.157 206.124C319.145 206.564 319.124 206.845 319.092 206.966C319.016 207.229 318.85 207.395 318.594 207.464ZM316.348 208.138C316.197 208.179 316.07 208.188 315.968 208.167C315.861 208.131 315.755 208.038 315.65 207.889L314.313 205.796C314.173 205.575 314.092 205.362 314.069 205.158C314.067 205.029 314.124 204.909 314.24 204.797C314.351 204.67 314.49 204.584 314.656 204.54C314.807 204.499 314.986 204.564 315.194 204.735C315.412 204.887 315.644 205.148 315.889 205.519C316.462 206.45 316.785 207.051 316.858 207.322C316.906 207.504 316.886 207.671 316.798 207.824C316.724 207.973 316.575 208.078 316.348 208.138ZM313.947 209.049C313.645 209.129 313.326 208.932 312.988 208.456L311.949 206.842C311.789 206.61 311.69 206.418 311.649 206.267C311.605 206.101 311.623 205.959 311.704 205.84C311.797 205.702 311.934 205.609 312.115 205.56C312.281 205.516 312.44 205.538 312.593 205.626C312.758 205.695 312.932 205.834 313.118 206.044C313.276 206.212 313.538 206.586 313.904 207.167C314.285 207.745 314.494 208.101 314.531 208.237C314.579 208.418 314.544 208.589 314.426 208.751C314.303 208.897 314.143 208.996 313.947 209.049ZM304.954 215.874C304.622 215.963 304.373 215.787 304.206 215.347L303.103 212.585L302.258 210.701L302.234 210.61C302.157 210.323 302.284 210.135 302.616 210.046C302.873 209.978 303.1 210.16 303.296 210.592L305.298 214.982C305.325 215.023 305.348 215.081 305.369 215.157C305.417 215.338 305.403 215.495 305.325 215.629C305.244 215.748 305.12 215.83 304.954 215.874ZM310.923 214.785C310.591 214.874 310.341 214.698 310.175 214.257C309.175 211.613 308.554 210.081 308.312 209.661L308.158 209.265L308.133 209.175C308.101 209.054 308.113 208.946 308.168 208.85C308.238 208.75 308.349 208.68 308.5 208.64C308.771 208.567 309.025 208.79 309.261 209.309L311.319 213.999C311.401 214.187 311.406 214.356 311.333 214.505C311.256 214.639 311.119 214.732 310.923 214.785ZM317.658 222.443C316.978 222.625 316.562 222.429 316.408 221.856C316.251 221.267 316.481 220.89 317.1 220.724L317.915 220.506C318.383 220.38 318.565 220.065 318.462 219.558L317.625 216.434L315.316 217.053C314.652 217.231 314.249 217.056 314.107 216.528C313.966 215.999 314.227 215.646 314.891 215.468L317.2 214.85L316.976 214.012C316.769 213.242 316.874 212.608 317.29 212.108L318.321 210.521C318.343 210.483 318.371 210.435 318.404 210.378C318.452 210.316 318.472 210.271 318.464 210.24C318.448 210.18 318.395 210.162 318.304 210.186L314.342 211.248C313.754 211.405 313.391 211.228 313.253 210.715C313.116 210.201 313.341 209.866 313.93 209.708L318.684 208.434C319.68 208.168 320.263 208.351 320.433 208.985C320.534 209.362 319.969 210.484 318.739 212.351C318.517 212.669 318.454 213.009 318.551 213.371L318.83 214.413L321.479 213.703C322.128 213.529 322.523 213.706 322.665 214.235C322.806 214.763 322.553 215.114 321.904 215.288L319.255 215.998L320.213 219.575C320.411 220.314 320.389 220.894 320.146 221.315C319.918 221.732 319.443 222.013 318.722 222.158L317.658 222.443ZM330.984 196.889C331.367 196.932 331.608 197.134 331.705 197.496C331.753 197.678 331.762 197.893 331.733 198.144C331.528 199.736 331.167 201.466 330.649 203.336L334.258 216.806C334.464 217.576 334.251 218.046 333.617 218.215C332.983 218.385 332.563 218.085 332.356 217.316L329.542 206.811C329.142 207.856 328.755 208.737 328.381 209.452C328.212 209.788 327.969 209.999 327.652 210.084C327.426 210.144 327.21 210.121 327.003 210.015C326.758 209.886 326.606 209.709 326.545 209.482C326.48 209.241 326.525 208.954 326.678 208.622C327.445 207.074 328.094 205.331 328.626 203.393C329.173 201.45 329.557 199.625 329.779 197.915C329.809 197.665 329.898 197.455 330.047 197.286C330.191 197.101 330.369 196.981 330.581 196.924C330.701 196.892 330.836 196.88 330.984 196.889ZM348.337 208.496C348.793 210.137 348.995 211.313 348.942 212.022C348.894 212.747 348.567 213.279 347.963 213.619C347.362 213.974 346.224 214.376 344.549 214.825C343.04 215.229 341.92 215.489 341.191 215.604C340.476 215.714 339.905 215.665 339.477 215.456C339.053 215.262 338.75 214.826 338.568 214.147L334.098 197.462C333.899 196.722 334.11 196.27 334.728 196.104C335.377 195.93 335.801 196.213 335.999 196.952L338.019 204.491C339.711 202.776 341.4 200.779 343.086 198.499C343.316 198.211 343.56 198.032 343.816 197.964C344.103 197.887 344.377 197.943 344.638 198.132C344.86 198.298 344.998 198.48 345.051 198.676C345.132 198.978 345.04 199.302 344.777 199.647C342.919 202.07 340.822 204.266 338.486 206.234L340.239 212.777C340.34 213.154 340.489 213.406 340.684 213.531C340.895 213.653 341.187 213.688 341.561 213.636C342.061 213.567 342.748 213.415 343.623 213.181L344.348 212.986C345.098 212.769 345.651 212.597 346.005 212.47C346.37 212.323 346.627 212.165 346.776 211.996C346.909 211.831 346.963 211.517 346.936 211.055C346.909 210.593 346.776 209.885 346.536 208.93C346.401 208.303 346.605 207.917 347.148 207.771C347.465 207.686 347.723 207.714 347.923 207.855C348.118 207.981 348.256 208.194 348.337 208.496Z" fill="#0E103F"/>
<path opacity="0.67" d="M259.215 284.977C258.609 285.04 258.27 284.73 258.198 284.047L257.274 275.259L254.6 275.823C254.322 275.868 254.105 275.82 253.949 275.679C253.791 275.523 253.696 275.297 253.665 275.002C253.595 274.334 254.137 273.963 255.292 273.888L255.481 273.892L256.824 271.418C256.007 270.828 255.002 270.227 253.806 269.614C253.408 269.42 253.193 269.168 253.161 268.857C253.1 268.282 253.358 267.964 253.933 267.904C254.104 267.886 254.396 267.981 254.811 268.189C255.4 266.917 255.843 265.747 256.139 264.679C256.311 264.08 256.623 263.756 257.074 263.709C257.726 263.64 258.084 263.901 258.146 264.492C258.203 265.036 257.543 266.527 256.165 268.965L256.144 268.991L257.63 269.896C258.162 268.834 258.558 267.968 258.818 267.296C259.03 266.771 259.322 266.489 259.695 266.45C260.317 266.385 260.658 266.639 260.718 267.214C260.741 267.432 260.333 268.331 259.493 269.912C258.655 271.508 257.93 272.755 257.318 273.652L260.007 273.228L260.1 273.218L259.646 272.04C259.597 271.574 259.814 271.316 260.295 271.265C260.715 271.221 261.176 271.722 261.679 272.769C262.183 273.832 262.448 274.48 262.472 274.713C262.528 275.241 262.284 275.534 261.74 275.591C261.336 275.633 260.976 275.271 260.659 274.503L260.245 274.593L259.075 274.905L260.016 283.855C260.088 284.539 259.821 284.913 259.215 284.977ZM263.71 273.263C263.027 273.335 262.655 273.083 262.594 272.508C262.535 271.949 262.848 271.633 263.532 271.561L267.214 271.174L266.864 267.841L262.552 268.294C261.868 268.366 261.496 268.115 261.436 267.54C261.377 266.98 261.689 266.664 262.373 266.593L266.685 266.139L266.452 263.925C266.413 263.552 266.462 263.264 266.597 263.061C266.749 262.857 266.972 262.739 267.267 262.708C267.562 262.677 267.798 262.747 267.973 262.917C268.163 263.085 268.278 263.356 268.317 263.729L268.55 265.943L273.118 265.463C273.833 265.388 274.221 265.638 274.281 266.213C274.34 266.772 274.012 267.09 273.297 267.165L268.729 267.645L269.079 270.978L273.181 270.547C273.881 270.473 274.26 270.716 274.319 271.276C274.379 271.851 274.06 272.175 273.36 272.249L263.71 273.263ZM266.424 283.606C265.693 283.683 265.14 283.576 264.764 283.286C264.403 282.994 264.201 282.489 264.157 281.771L263.716 277.575C263.639 276.845 263.747 276.299 264.039 275.938C264.329 275.562 264.833 275.352 265.551 275.308L271.868 274.644C272.614 274.566 273.167 274.673 273.528 274.965C273.902 275.24 274.105 275.745 274.135 276.48L274.576 280.675C274.654 281.421 274.548 281.975 274.256 282.335C273.981 282.71 273.476 282.912 272.74 282.942L266.424 283.606ZM255.4 283.209C255.105 283.24 254.881 283.201 254.728 283.092C254.573 282.966 254.481 282.764 254.452 282.484C254.432 282.298 254.472 282.003 254.571 281.6C254.843 280.456 254.952 279.172 254.896 277.748C254.875 277.09 255.112 276.735 255.609 276.683C255.889 276.654 256.098 276.702 256.238 276.829C256.392 276.954 256.485 277.164 256.516 277.46C256.63 278.547 256.582 279.88 256.37 281.458C256.305 282.03 256.193 282.458 256.034 282.742C255.875 283.026 255.664 283.182 255.4 283.209ZM262.318 281.987C262.038 282.017 261.817 281.93 261.654 281.727C261.491 281.524 261.355 281.193 261.243 280.733C260.862 279.045 260.588 278.014 260.423 277.638L260.223 276.858C260.169 276.644 260.207 276.475 260.335 276.351C260.463 276.228 260.652 276.153 260.901 276.127C261.336 276.081 261.664 276.369 261.887 276.989C262.617 279.002 263.019 280.366 263.095 281.081C263.152 281.625 262.893 281.927 262.318 281.987ZM271.935 281.33C272.214 281.301 272.416 281.201 272.539 281.031C272.679 280.859 272.734 280.641 272.706 280.377L272.371 277.184C272.341 276.904 272.242 276.702 272.072 276.579C271.9 276.44 271.682 276.384 271.418 276.412L266.336 276.946C265.761 277.006 265.504 277.324 265.565 277.899L265.9 281.092C265.961 281.667 266.278 281.925 266.853 281.864L271.935 281.33ZM280.771 270.692C280.46 270.725 280.227 270.671 280.071 270.53C279.913 270.374 279.815 270.117 279.777 269.759C279.738 269.387 279.844 269.124 280.095 268.972L281.639 267.961C284.227 266.275 286.393 264.092 288.138 261.41C288.528 260.788 288.964 260.451 289.446 260.401C289.788 260.365 290.043 260.401 290.211 260.509C290.394 260.6 290.498 260.769 290.524 261.018C290.531 261.08 290.506 261.216 290.449 261.426L290.681 261.614C291.866 262.574 293.222 263.444 294.75 264.227C296.295 265.023 297.979 265.647 299.801 266.099C300.479 266.264 300.843 266.587 300.893 267.069C300.972 267.815 300.677 268.223 300.008 268.293C299.169 268.381 297.642 267.827 295.427 266.63C293.079 265.368 291.132 264.112 289.587 262.86C288.878 263.893 287.899 265.041 286.649 266.303C285.5 267.477 284.311 268.497 283.082 269.365C281.883 270.214 281.113 270.656 280.771 270.692ZM285.016 270.269C284.379 270.336 284.031 270.09 283.972 269.531C283.911 268.956 284.2 268.635 284.837 268.568L295.839 267.411C296.491 267.343 296.848 267.596 296.908 268.171C296.967 268.73 296.67 269.044 296.018 269.113L285.016 270.269ZM286.063 281.353C284.287 281.65 283.351 280.892 283.255 279.08L282.897 275.677C282.801 274.76 282.925 274.071 283.27 273.611C283.629 273.149 284.263 272.902 285.171 272.869L296.29 271.7C297.2 271.542 297.887 271.65 298.35 272.026C298.83 272.4 299.086 273.048 299.121 273.972L299.478 277.375C299.792 279.164 299.026 280.101 297.181 280.185L286.063 281.353ZM296.322 278.508C297.161 278.42 297.536 277.956 297.448 277.117L297.188 274.646C297.1 273.807 296.636 273.431 295.797 273.52L286.054 274.544C285.215 274.632 284.84 275.095 284.928 275.935L285.187 278.405C285.276 279.245 285.739 279.62 286.578 279.532L296.322 278.508ZM318.234 270.973C318.607 270.934 319.065 271.404 319.608 272.384C320.84 274.548 321.479 275.84 321.523 276.26C321.584 276.835 321.326 277.152 320.751 277.213C320.332 277.257 319.95 276.841 319.607 275.966L319.39 275.47L317.134 276.65C315.465 277.517 314.351 277.98 313.792 278.038C313.201 278.1 312.875 277.836 312.813 277.246C312.764 276.78 313.004 276.448 313.533 276.251L314.441 275.92L312.974 261.958C312.911 261.367 313.004 260.902 313.251 260.562C313.512 260.204 313.961 259.992 314.598 259.925L314.971 259.886L314.836 258.604C314.771 257.982 315.026 257.641 315.601 257.581C315.88 257.552 316.106 257.606 316.278 257.745C316.448 257.869 316.549 258.078 316.58 258.374L316.719 259.702L317.255 259.646C318.483 259.517 319.161 260.066 319.29 261.294L319.976 267.82C320.105 269.048 319.556 269.726 318.328 269.855L315.601 270.142L316.14 275.27L318.751 274.1L317.661 272.023L317.585 271.748C317.531 271.534 317.559 271.358 317.671 271.221C317.797 271.082 317.985 270.999 318.234 270.973ZM312.775 268.365C312.81 268.55 312.846 268.821 312.884 269.179C313.286 273.001 312.346 276.014 310.064 278.218C309.309 278.957 308.76 279.345 308.418 279.381C307.828 279.443 307.501 279.171 307.437 278.565C307.398 278.192 307.668 277.779 308.249 277.325C309.978 275.981 310.972 274.234 311.234 272.086C310.138 272.578 309.267 272.952 308.618 273.209C307.983 273.449 307.596 273.576 307.456 273.59C306.866 273.652 306.539 273.38 306.475 272.774C306.423 272.277 306.794 271.924 307.589 271.715C308.198 270.331 308.691 268.967 309.068 267.624C308.456 267.185 307.711 266.674 306.833 266.091C306.68 265.981 306.452 265.832 306.15 265.644C305.643 265.305 305.377 265.019 305.352 264.785C305.284 264.133 305.498 263.78 305.995 263.728C306.182 263.708 306.458 263.797 306.825 263.994C307.049 263.437 307.315 262.678 307.622 261.719C307.944 260.742 308.198 259.875 308.386 259.117C308.439 258.876 308.537 258.685 308.679 258.544C308.821 258.404 308.986 258.323 309.172 258.304C309.297 258.291 309.423 258.301 309.553 258.335C309.989 258.446 310.226 258.688 310.265 259.061C310.278 259.185 310.256 259.345 310.198 259.539C309.384 261.809 308.668 263.596 308.051 264.902L309.64 265.89C309.948 265.088 310.289 263.999 310.663 262.625C310.789 262.172 311.03 261.926 311.387 261.889C311.527 261.874 311.663 261.891 311.793 261.94C312.136 262.061 312.325 262.285 312.359 262.611C312.375 262.767 312.355 262.95 312.299 263.16C311.925 264.393 311.439 265.819 310.839 267.437C310.255 269.054 309.743 270.31 309.303 271.205L310.984 270.604L311.3 270.476L311.25 269.327C311.222 268.764 311.257 268.352 311.356 268.09C311.452 267.813 311.633 267.66 311.897 267.633C312.41 267.579 312.702 267.823 312.775 268.365ZM325.667 266.586C327.036 267.793 327.819 269.345 328.018 271.241C328.154 272.53 327.991 273.522 327.53 274.214C327.067 274.891 326.284 275.288 325.18 275.404C324.357 275.49 323.91 275.2 323.84 274.531C323.782 273.988 324.11 273.662 324.821 273.556C325.534 273.466 325.995 273.213 326.203 272.798C326.372 272.466 326.415 271.904 326.332 271.112C326.186 269.729 325.473 268.397 324.192 267.118C323.946 266.877 323.768 266.676 323.657 266.514C323.561 266.352 323.504 266.185 323.486 266.014C323.468 265.843 323.484 265.621 323.534 265.349C323.6 265.075 323.677 264.761 323.765 264.406C324.45 261.506 324.785 259.986 324.771 259.846C324.744 259.597 324.568 259.49 324.242 259.524L322.517 259.706C322.082 259.751 321.887 259.992 321.933 260.427L323.694 277.186C323.769 277.901 323.512 278.289 322.921 278.351C322.315 278.415 321.975 278.09 321.9 277.375L320.094 260.196C320.019 259.481 320.12 258.952 320.398 258.609C320.691 258.248 321.181 258.055 321.869 258.03L324.97 257.704C325.42 257.657 325.798 257.742 326.104 257.962C326.409 258.165 326.583 258.485 326.629 258.92C326.672 259.324 326.539 260.155 326.231 261.413C325.916 262.75 325.592 263.923 325.258 264.932C325.13 265.354 325.075 265.658 325.095 265.845C325.111 266 325.302 266.247 325.667 266.586ZM314.984 264.268L317.828 263.969L317.602 261.825C317.561 261.436 317.339 261.263 316.935 261.306L315.303 261.477C314.899 261.52 314.718 261.735 314.758 262.124L314.984 264.268ZM315.435 268.557L317.672 268.322C318.076 268.279 318.256 268.048 318.212 267.629L317.984 265.461L315.141 265.76L315.435 268.557ZM341.826 273.372C341.859 273.682 341.759 273.928 341.527 274.11C341.411 274.201 340.251 274.527 338.047 275.088C335.891 275.645 334.766 275.928 334.672 275.938C334.051 276.003 333.707 275.725 333.642 275.104C333.59 274.606 333.961 274.253 334.756 274.044L337.058 273.519L336.372 266.993L334.087 267.233C333.435 267.301 333.078 267.048 333.018 266.473C332.961 265.929 333.258 265.623 333.911 265.554L336.195 265.314L335.972 263.193L334.667 263.33C334.356 263.363 334.117 263.325 333.948 263.217C333.794 263.092 333.702 262.89 333.672 262.61L333.671 262.375C333.404 262.67 333.146 262.831 332.897 262.857C332.353 262.914 332.05 262.647 331.988 262.057C331.96 261.792 332.079 261.505 332.345 261.194C333.525 259.861 334.468 258.3 335.176 256.513C335.46 255.777 335.796 255.388 336.185 255.347C336.775 255.285 337.101 255.541 337.161 256.116C337.176 256.256 337.141 256.448 337.057 256.693C339.315 257.697 340.474 258.486 340.534 259.061C340.593 259.62 340.335 259.93 339.76 259.991C339.558 260.012 339.218 259.843 338.741 259.485C338.363 259.179 337.606 258.701 336.469 258.051C335.855 259.388 335.09 260.631 334.174 261.78L334.428 261.729L339.043 261.244C339.37 261.21 339.61 261.256 339.765 261.381C339.933 261.489 340.031 261.675 340.059 261.939C340.088 262.219 340.033 262.437 339.892 262.593C339.765 262.732 339.539 262.818 339.212 262.853L337.627 263.019L337.85 265.14L339.832 264.932C340.469 264.865 340.817 265.111 340.875 265.671C340.934 266.23 340.645 266.544 340.008 266.61L338.027 266.819L338.693 273.159L340.95 272.662C341.211 272.603 341.412 272.645 341.553 272.788C341.707 272.913 341.798 273.107 341.826 273.372ZM342.46 260.343C342.202 260.276 341.989 260.126 341.823 259.892C341.673 259.656 341.578 259.352 341.539 258.979L341.194 255.692C341.135 255.133 341.385 254.824 341.944 254.765C342.504 254.706 342.813 254.957 342.872 255.516L342.955 256.308C345.5 255.711 347.646 255.046 349.391 254.312L350.073 254.076C350.617 254.018 350.921 254.293 350.985 254.899C351.043 255.458 350.257 255.973 348.625 256.443C347.239 256.856 345.4 257.301 343.109 257.777L343.156 258.22C343.197 258.608 343.489 258.774 344.033 258.717L346.882 258.465C348.641 258.311 349.715 258.143 350.104 257.961C350.328 257.843 350.475 257.529 350.547 257.019C350.601 256.479 350.868 256.184 351.35 256.133C351.925 256.073 352.243 256.33 352.303 256.905C352.445 258.257 352.07 259.098 351.178 259.427C350.619 259.643 349.586 259.83 348.079 259.988L347.17 260.084L344.741 260.292C344.228 260.346 343.768 260.379 343.36 260.39C342.953 260.401 342.653 260.386 342.46 260.343ZM350.325 260.506C351.366 260.397 351.947 260.917 352.068 262.067L352.595 267.079C352.653 267.638 352.566 268.079 352.333 268.402C352.1 268.725 351.727 268.914 351.214 268.968L345.923 269.524C345.41 269.578 345.006 269.471 344.711 269.203C344.416 268.936 344.24 268.53 344.182 267.986L343.651 262.928C343.532 261.794 343.993 261.172 345.034 261.063L350.325 260.506ZM340.948 263.448C340.881 262.811 341.112 262.465 341.64 262.409C341.889 262.383 342.092 262.448 342.25 262.604C342.406 262.745 342.501 262.971 342.533 263.281L343.236 269.971C343.287 270.453 343.531 270.679 343.967 270.648L353.361 269.661C353.889 269.606 354.18 269.826 354.232 270.324C354.284 270.821 354.046 271.097 353.518 271.153L343.518 272.204C343.005 272.258 342.594 272.152 342.283 271.886C341.986 271.603 341.791 271.168 341.698 270.581L340.948 263.448ZM350.477 262.399C350.442 262.073 350.261 261.919 349.933 261.938L345.621 262.391C345.326 262.422 345.195 262.601 345.23 262.927L345.288 263.487L350.533 262.935L350.477 262.399ZM350.776 265.243L350.663 264.171L345.418 264.722L345.531 265.794L350.776 265.243ZM350.905 266.478L345.661 267.03L345.725 267.636C345.759 267.962 345.924 268.117 346.221 268.102L350.534 267.649C350.86 267.614 351.005 267.426 350.969 267.085L350.905 266.478ZM335.831 271.716C335.892 272.291 335.658 272.606 335.129 272.661C334.881 272.688 334.679 272.638 334.525 272.513C334.384 272.371 334.299 272.16 334.27 271.88L333.993 269.246C333.931 268.655 334.164 268.332 334.692 268.277C335.205 268.223 335.492 268.491 335.554 269.082L335.831 271.716ZM339.214 268.697C339.152 268.107 339.377 267.784 339.89 267.73C340.418 267.675 340.711 267.919 340.768 268.463L341.023 270.887C341.082 271.447 340.847 271.754 340.319 271.81C339.806 271.863 339.52 271.611 339.461 271.051L339.214 268.697ZM345.769 272.321C346.204 272.275 346.451 272.532 346.51 273.091C346.554 273.511 345.974 274.122 344.77 274.924C343.551 275.728 342.7 276.155 342.218 276.205C341.752 276.254 341.489 275.991 341.428 275.416C341.381 274.966 341.599 274.644 342.081 274.452C343.391 273.906 344.415 273.335 345.153 272.739C345.197 272.703 345.291 272.63 345.437 272.521C345.581 272.396 345.692 272.329 345.769 272.321ZM353.796 273.127C354.263 273.235 354.519 273.506 354.565 273.942C354.627 274.532 354.394 274.855 353.866 274.911C353.446 274.955 352.593 274.691 351.308 274.119C349.988 273.519 349.312 273.072 349.281 272.776C349.228 272.264 349.465 271.98 349.993 271.924C350.133 271.909 350.367 271.971 350.696 272.109C351.958 272.605 352.991 272.944 353.796 273.127ZM358.92 256.092C358.345 256.152 358.03 255.926 357.977 255.413C357.924 254.916 358.186 254.637 358.761 254.577L363.982 254.028L363.901 253.259C363.845 252.73 364.113 252.435 364.703 252.373C365.294 252.311 365.617 252.544 365.672 253.072L365.753 253.842L371.091 253.281L371.01 252.511C370.955 251.983 371.23 251.687 371.836 251.623C372.442 251.56 372.773 251.792 372.828 252.32L372.909 253.089L378.037 252.55C378.628 252.488 378.949 252.706 379.001 253.203C379.055 253.716 378.787 254.004 378.196 254.066L373.068 254.605L373.125 255.141C373.166 255.529 373.027 255.779 372.709 255.891C372.957 255.865 373.168 255.929 373.342 256.084C373.514 256.223 373.607 256.441 373.623 256.738L373.663 257.346L375.458 257.158C375.986 257.102 376.403 257.184 376.709 257.403C377.013 257.607 377.183 257.951 377.218 258.434L377.299 259.651L377.354 260.399C377.46 261.409 377.619 262.17 377.83 262.682C378.056 263.193 378.309 263.433 378.589 263.404C378.775 263.384 378.841 263.04 378.786 262.37C378.742 261.652 378.726 261.198 378.738 261.008C378.763 260.801 378.939 260.68 379.265 260.646C379.514 260.62 379.7 260.671 379.823 260.8C379.945 260.912 380.021 261.109 380.05 261.388C380.297 263.735 379.907 264.962 378.882 265.07C378.462 265.114 378.068 265.03 377.7 264.817C377.331 264.589 377.002 264.23 376.715 263.742C376.447 263.283 376.246 262.786 376.111 262.25C375.976 261.715 375.871 261.089 375.796 260.375L375.671 259.186C375.627 258.766 375.403 258.578 374.999 258.62L373.74 258.752C373.806 259.83 373.769 260.745 373.628 261.498C374.839 262.109 375.463 262.586 375.499 262.927C375.549 263.409 375.334 263.675 374.852 263.726C374.743 263.737 374.557 263.686 374.294 263.572C374.044 263.442 373.75 263.253 373.409 263.006L373.206 262.862C372.892 263.461 372.408 264.093 371.755 264.758C371.129 265.374 370.645 265.7 370.303 265.736C369.821 265.787 369.552 265.54 369.494 264.996C369.465 264.716 369.656 264.437 370.066 264.158C370.877 263.649 371.49 262.98 371.906 262.15C370.715 261.584 370.109 261.2 370.088 260.998C370.042 260.563 370.229 260.323 370.648 260.279C370.742 260.269 370.927 260.313 371.204 260.409C371.48 260.49 371.808 260.629 372.19 260.824L372.265 260.863C372.309 260.23 372.303 259.579 372.248 258.909L370.244 259.12C369.715 259.175 369.427 258.97 369.378 258.504C369.329 258.038 369.568 257.777 370.097 257.721L372.101 257.511L372.043 256.951C371.989 256.438 372.111 256.111 372.411 255.97L372.271 255.985C372.007 256.012 371.783 255.973 371.599 255.867C371.429 255.743 371.331 255.565 371.307 255.332L371.25 254.796L365.913 255.357L365.959 255.8C366.013 256.312 365.745 256.6 365.154 256.662C364.564 256.724 364.242 256.499 364.188 255.986L364.141 255.543L358.92 256.092ZM366.611 262.448C365.585 262.555 365.034 262.244 364.957 261.514L364.857 260.558L363.109 260.742C363.018 261.38 362.65 261.984 362.003 262.555C361.687 262.839 361.311 263.067 360.873 263.239C360.451 263.409 360.015 263.518 359.564 263.565C359.113 263.613 358.865 263.419 358.819 262.984C358.782 262.626 359.001 262.391 359.476 262.278C360.718 261.991 361.409 261.533 361.547 260.906L359.402 261.131C358.905 261.184 358.635 261.008 358.593 260.604C358.549 260.184 358.775 259.948 359.273 259.896L363.025 259.501L362.952 258.802L360.178 259.094C359.696 259.144 359.433 258.96 359.389 258.54C359.347 258.136 359.566 257.909 360.048 257.858L362.822 257.567L362.775 257.124C362.726 256.658 362.974 256.396 363.518 256.339C364.062 256.282 364.358 256.486 364.407 256.952L364.454 257.395L367.461 257.079C367.958 257.027 368.228 257.203 368.27 257.607C368.314 258.027 368.088 258.262 367.59 258.315L364.583 258.631L364.657 259.33L368.596 258.916C369.093 258.864 369.364 259.047 369.408 259.467C369.451 259.871 369.223 260.099 368.726 260.151L366.232 260.413L366.288 260.95C366.323 261.276 366.542 261.418 366.946 261.375L367.435 261.324C367.87 261.278 368.117 261.08 368.174 260.728C368.222 260.44 368.417 260.278 368.759 260.242C369.241 260.192 369.504 260.376 369.548 260.796C369.641 261.681 369.12 262.184 367.986 262.303L366.611 262.448ZM359.952 267.036C359.458 267.119 359.185 266.912 359.133 266.415C359.087 265.98 359.59 265.683 360.642 265.526L363.588 265.075L363.512 264.352L361.018 264.614C360.536 264.665 360.274 264.488 360.231 264.084C360.19 263.696 360.411 263.476 360.893 263.426L363.387 263.163L363.323 262.557C363.269 262.045 363.506 261.76 364.035 261.705C364.579 261.648 364.877 261.876 364.931 262.388L364.995 262.994L367.745 262.705C368.227 262.655 368.489 262.831 368.532 263.235C368.551 263.422 368.497 263.577 368.369 263.7C368.254 263.807 368.088 263.871 367.87 263.894L365.12 264.183L365.191 264.859L365.305 264.824L365.492 264.804L367.603 264.488L368.365 264.337C368.565 264.3 368.725 264.331 368.846 264.428C368.966 264.525 369.037 264.675 369.058 264.877C369.077 265.063 368.984 265.222 368.778 265.354C368.586 265.469 368.266 265.565 367.819 265.643L359.952 267.036ZM376.964 265.436C377.477 265.382 377.757 265.581 377.804 266.031C377.853 266.498 377.622 266.758 377.109 266.812L362.634 268.333C362.121 268.387 361.84 268.181 361.791 267.715C361.744 267.264 361.976 267.012 362.489 266.958L376.964 265.436ZM379.701 267.482C380.26 267.423 380.565 267.634 380.616 268.116C380.639 268.334 380.579 268.513 380.437 268.654C380.31 268.793 380.114 268.876 379.85 268.904L375.771 269.332C376.5 269.539 377.446 269.871 378.61 270.33C379.922 270.852 380.594 271.269 380.626 271.579C380.682 272.108 380.407 272.404 379.801 272.467C379.505 272.498 379.182 272.415 378.832 272.216L378.383 271.98L377.859 271.705L361.496 273.873C360.829 273.959 360.466 273.722 360.408 273.162C360.362 272.727 360.591 272.444 361.096 272.312L364.707 271.909L365.655 270.396L360.387 270.949C359.843 271.007 359.546 270.794 359.495 270.313C359.446 269.846 359.694 269.585 360.238 269.527L379.701 267.482ZM366.851 271.684L375.657 270.711L374.967 270.43C374.704 270.317 374.514 270.227 374.397 270.16C374.294 270.077 374.238 269.988 374.228 269.895C374.213 269.755 374.285 269.614 374.443 269.472L367.916 270.158L366.851 271.684ZM395.95 255.617L397.402 269.439C397.473 270.107 397.205 270.473 396.599 270.537C395.993 270.601 395.655 270.298 395.584 269.63L394.132 255.808L391.94 256.038C391.179 256.118 390.766 255.847 390.7 255.226C390.669 254.931 390.739 254.696 390.909 254.521C391.095 254.344 391.374 254.236 391.747 254.197L393.938 253.966L393.575 250.517C393.502 249.817 393.768 249.436 394.374 249.372C394.98 249.309 395.32 249.626 395.394 250.326L395.756 253.775L398.18 253.521C398.895 253.445 399.285 253.719 399.35 254.34C399.381 254.636 399.304 254.871 399.118 255.048C398.948 255.223 398.685 255.329 398.327 255.367L395.95 255.617ZM385.348 255.647C384.773 255.707 384.452 255.419 384.385 254.782C384.347 254.425 384.712 253.931 385.478 253.3C386.085 252.797 386.729 252.124 387.411 251.282C388.063 250.46 388.536 250.033 388.832 250.002C389.469 249.935 389.819 250.205 389.883 250.811C389.93 251.261 389.31 252.167 388.024 253.528C386.737 254.888 385.845 255.595 385.348 255.647ZM398.117 252.915C397.806 252.947 397.434 252.703 397.003 252.183C396.34 251.405 396.006 250.992 396.001 250.945C395.952 250.479 396.176 250.22 396.673 250.168C396.984 250.135 397.421 250.403 397.983 250.973C398.527 251.512 398.81 251.891 398.833 252.109C398.884 252.59 398.645 252.859 398.117 252.915ZM400.162 251.969C399.82 252.005 399.564 251.961 399.394 251.838C399.224 251.714 399.122 251.497 399.09 251.186C399.057 250.875 399.111 250.642 399.252 250.486C399.392 250.33 399.634 250.233 399.976 250.198L403.891 249.786C404.218 249.752 404.458 249.797 404.613 249.922C404.767 250.047 404.861 250.265 404.894 250.576C404.926 250.887 404.88 251.12 404.755 251.274C404.63 251.429 404.404 251.523 404.078 251.557L400.162 251.969ZM389.451 255.451C390.073 255.386 390.414 255.641 390.474 256.216C390.517 256.62 390.062 257.602 389.111 259.164L390.27 270.189C390.345 270.904 390.08 271.293 389.473 271.357C388.867 271.42 388.527 271.095 388.452 270.38L387.531 261.616C386.843 262.693 386.335 263.25 386.009 263.284C385.481 263.339 385.182 263.041 385.114 262.388C385.083 262.093 385.241 261.731 385.589 261.301C386.692 259.991 387.686 258.316 388.572 256.274C388.785 255.765 389.078 255.491 389.451 255.451ZM405.002 255.867C405.592 255.805 405.92 256.077 405.983 256.683C406.045 257.274 405.781 257.6 405.191 257.662L404.072 257.78L405.069 267.266C405.37 268.932 404.675 269.798 402.985 269.866L401.75 269.996C400.989 270.076 400.574 269.797 400.507 269.16C400.445 268.569 400.741 268.24 401.393 268.171L402.326 268.073C402.636 268.041 402.868 267.93 403.021 267.741C403.174 267.552 403.234 267.294 403.199 266.968L402.254 257.971L400.366 258.169C399.713 258.238 399.356 257.977 399.294 257.386C399.23 256.78 399.524 256.443 400.177 256.374L405.002 255.867ZM400.384 265.52C400.458 265.921 400.428 266.238 400.296 266.472C400.163 266.706 399.949 266.838 399.654 266.869C399.048 266.933 398.706 266.443 398.627 265.398C398.589 264.884 398.205 262.725 397.475 258.921L397.332 258.229C397.292 257.997 397.327 257.813 397.439 257.676C397.565 257.537 397.753 257.454 398.002 257.428C398.452 257.38 398.786 257.785 399.001 258.643L399.406 260.25L400.384 265.52ZM392.322 258.096C392.586 258.068 392.798 258.148 392.96 258.335C393.136 258.521 393.245 258.808 393.286 259.196C393.592 262.558 393.61 265.046 393.34 266.661C393.063 268.214 392.622 269.022 392.016 269.086C391.41 269.15 391.075 268.879 391.011 268.273C390.988 268.055 391.046 267.782 391.184 267.453C391.755 266.011 391.917 263.511 391.669 259.955L391.59 259.209C391.518 258.526 391.762 258.154 392.322 258.096ZM413.397 268.606C412.729 268.677 412.356 268.347 412.279 267.616C412.252 267.352 412.337 267.115 412.535 266.906C412.75 266.711 413.092 266.533 413.563 266.374C416.541 265.416 418.995 264.02 420.923 262.183L420.918 262.136C419.229 260.868 417.899 259.421 416.927 257.795C415.934 256.124 415.41 255.025 415.354 254.496C415.297 253.953 415.603 253.645 416.271 253.575C416.52 253.549 416.746 253.612 416.951 253.763C417.153 253.899 417.318 254.117 417.444 254.418C418.493 256.932 420.088 259.026 422.228 260.702L422.275 260.698C424.136 258.224 425.16 255.186 425.347 251.584L412.224 252.964C411.416 253.049 410.979 252.78 410.914 252.159C410.847 251.522 411.217 251.161 412.026 251.076L419.997 250.238L419.762 248C419.671 247.13 419.967 246.659 420.65 246.587C421.008 246.549 421.276 246.631 421.454 246.832C421.646 247.016 421.766 247.334 421.813 247.784L422.048 250.022L430.253 249.16C431.046 249.077 431.475 249.353 431.542 249.991C431.608 250.612 431.244 250.965 430.452 251.048L427.491 251.359C427.057 255.599 425.839 259.035 423.838 261.665L423.843 261.711C426.168 263.054 428.896 263.898 432.027 264.245C432.902 264.341 433.368 264.669 433.427 265.229C433.508 266.006 433.207 266.43 432.524 266.502C432.415 266.513 432.265 266.505 432.074 266.478C431.882 266.451 431.738 266.427 431.642 266.406C427.997 265.815 424.963 264.751 422.54 263.215L422.493 263.22C421.251 264.56 419.674 265.771 417.761 266.852C415.893 267.912 414.438 268.497 413.397 268.606ZM448.588 248.175C448.072 249.392 447.658 250.237 447.346 250.71C447.05 251.181 446.755 251.432 446.459 251.463C446.226 251.487 446.007 251.416 445.801 251.249C445.593 251.067 445.478 250.867 445.455 250.649C445.443 250.541 445.476 250.404 445.553 250.238C445.645 250.072 445.813 249.795 446.055 249.408C446.417 248.82 446.75 248.172 447.052 247.465C447.28 246.938 447.54 246.125 447.833 245.026C447.958 244.573 448.058 244.248 448.131 244.052C448.221 243.854 448.316 243.718 448.418 243.645C448.521 243.571 448.665 243.525 448.852 243.505C449.1 243.479 449.327 243.542 449.531 243.693C449.734 243.829 449.847 244.005 449.87 244.223C449.886 244.378 449.86 244.577 449.791 244.82C449.736 245.046 449.582 245.526 449.33 246.259L456.788 245.475C457.503 245.4 457.893 245.673 457.959 246.295C458.021 246.885 457.694 247.218 456.98 247.293L448.588 248.175ZM444.028 252.543C445.317 252.408 445.998 252.902 446.069 254.025L446.403 258.774L446.455 260.843C446.483 262.002 446.453 262.838 446.365 263.35C446.293 263.861 446.129 264.239 445.872 264.486C445.659 264.697 445.311 264.899 444.828 265.091C444.361 265.281 443.925 265.398 443.521 265.44C443.133 265.481 442.853 265.432 442.681 265.293C442.511 265.169 442.407 264.929 442.37 264.571C442.335 264.245 442.395 263.988 442.548 263.799C442.718 263.624 443.005 263.515 443.409 263.472C444.093 263.401 444.494 263.107 444.612 262.592C444.678 262.318 444.7 261.703 444.678 260.747C444.654 259.775 444.582 258.267 444.461 256.221L444.381 255.004C444.366 254.566 444.126 254.371 443.659 254.42L441.655 254.631C441.735 256.445 441.735 257.937 441.654 259.109C441.588 260.278 441.429 261.379 441.176 262.411C440.959 263.329 440.703 264.04 440.41 264.542C440.118 265.044 439.808 265.312 439.482 265.346C439.218 265.374 438.982 265.297 438.774 265.114C438.568 264.947 438.451 264.732 438.423 264.468C438.41 264.343 438.407 264.242 438.415 264.162C438.437 264.081 438.487 263.958 438.564 263.793C438.94 263.031 439.25 262.173 439.496 261.221C439.741 260.268 439.889 259.357 439.939 258.488C440.053 256.732 439.908 253.935 439.505 250.096L437.99 250.256C437.291 250.329 436.909 250.063 436.845 249.457C436.783 248.866 437.102 248.534 437.801 248.461L440.249 248.204L439.969 245.546C439.899 244.878 440.19 244.51 440.843 244.441C441.48 244.374 441.834 244.675 441.904 245.343L442.183 248L444.91 247.714C445.252 247.678 445.508 247.721 445.678 247.845C445.864 247.967 445.973 248.183 446.006 248.494C446.07 249.1 445.767 249.438 445.099 249.508L441.253 249.913L441.534 252.805L444.028 252.543ZM458.568 253.442C458.595 253.691 458.47 254.002 458.195 254.377C457.936 254.75 457.327 255.458 456.368 256.501L455.485 257.513C456.219 259.117 457.307 260.496 458.748 261.648C459.039 261.885 459.239 262.068 459.347 262.198C459.455 262.328 459.52 262.494 459.541 262.696C459.572 262.991 459.498 263.258 459.319 263.497C459.14 263.736 458.91 263.87 458.631 263.899C458.273 263.937 457.893 263.835 457.491 263.595C457.104 263.353 456.626 262.837 456.056 262.049C455.176 260.853 454.404 259.41 453.739 257.72C453.075 256.031 452.59 254.259 452.285 252.406L452.062 252.524L450.61 253.289C450.462 253.367 450.349 253.489 450.272 253.654C450.209 253.802 450.186 253.962 450.204 254.133L450.988 261.592C451.616 261.29 452.152 261.006 452.595 260.739C452.817 260.606 452.98 260.51 453.084 260.452C453.188 260.394 453.271 260.362 453.333 260.356C453.55 260.333 453.737 260.392 453.893 260.532C454.065 260.671 454.162 260.85 454.185 261.067C454.203 261.238 454.179 261.382 454.113 261.499C454.047 261.616 453.926 261.739 453.751 261.867C453.59 261.978 453.043 262.303 452.109 262.841C451.798 263.015 451.284 263.289 450.57 263.662C450.404 263.727 450.261 263.789 450.141 263.849C450.024 263.924 449.92 263.982 449.83 264.023C449.516 264.182 449.24 264.313 448.999 264.417C448.76 264.536 448.579 264.602 448.454 264.615C448.237 264.638 448.034 264.573 447.845 264.42C447.656 264.267 447.549 264.074 447.525 263.841C447.499 263.592 447.555 263.382 447.694 263.211C447.85 263.053 448.124 262.89 448.515 262.724L449.148 262.469L448.259 254.007C448.208 253.526 448.261 253.135 448.418 252.836C448.589 252.519 448.906 252.243 449.368 252.005C450.129 251.627 451.08 251.103 452.219 250.433C453.372 249.746 454.168 249.246 454.607 248.933C454.797 248.803 454.93 248.719 455.004 248.679C455.094 248.638 455.209 248.611 455.349 248.596C455.582 248.571 455.795 248.651 455.987 248.835C456.195 249.018 456.312 249.241 456.34 249.505C456.361 249.707 456.318 249.892 456.21 250.061C456.1 250.214 455.891 250.393 455.583 250.598C455.275 250.803 454.786 251.09 454.118 251.459L453.76 251.638C454.119 253.564 454.466 254.989 454.798 255.912L455.106 255.479L456.427 253.691C456.653 253.306 456.838 253.043 456.98 252.902C457.138 252.76 457.302 252.68 457.473 252.662C457.722 252.636 457.957 252.705 458.178 252.871C458.416 253.034 458.546 253.225 458.568 253.442ZM483.598 247.536C484.266 247.466 484.632 247.734 484.695 248.34C484.756 248.915 484.452 249.237 483.784 249.307L479.658 249.741L480.792 260.533C480.838 260.968 480.793 261.287 480.657 261.49C480.523 261.708 480.277 261.836 479.92 261.874C479.563 261.911 479.295 261.837 479.119 261.652C478.944 261.481 478.834 261.179 478.788 260.744L477.653 249.952L473.714 250.366C473.031 250.438 472.658 250.178 472.596 249.588C472.533 248.997 472.844 248.666 473.528 248.594L477.467 248.18L476.813 241.957C476.769 241.537 476.814 241.218 476.948 241C477.098 240.78 477.344 240.652 477.686 240.616C478.043 240.578 478.31 240.652 478.487 240.838C478.662 241.008 478.772 241.311 478.818 241.746L479.472 247.969L483.598 247.536ZM464.702 244.667C464.065 244.734 463.715 244.465 463.651 243.859C463.589 243.268 463.876 242.939 464.513 242.872L470.154 242.279C470.465 242.247 470.714 242.299 470.901 242.437C471.089 242.574 471.198 242.79 471.229 243.086C471.291 243.676 470.995 244.006 470.343 244.074L464.702 244.667ZM464.175 247.951C463.523 248.02 463.165 247.759 463.103 247.168C463.039 246.562 463.334 246.225 463.987 246.156L471.399 245.377C472.052 245.309 472.41 245.577 472.473 246.183C472.535 246.774 472.24 247.103 471.588 247.172L464.175 247.951ZM470.73 248.653C471.367 248.586 471.716 248.84 471.776 249.415C471.837 249.99 471.548 250.311 470.911 250.378L465.41 250.956C464.789 251.021 464.448 250.766 464.387 250.191C464.327 249.616 464.607 249.296 465.229 249.231L470.73 248.653ZM471.121 251.699C471.758 251.632 472.107 251.886 472.167 252.461C472.227 253.036 471.939 253.357 471.302 253.424L465.731 254.009C465.109 254.075 464.768 253.82 464.708 253.245C464.648 252.67 464.928 252.35 465.55 252.284L471.121 251.699ZM470.421 254.907C471.68 254.774 472.374 255.33 472.505 256.573L472.863 259.976C472.993 261.219 472.429 261.907 471.171 262.039L467.534 262.421C466.276 262.554 465.581 261.998 465.45 260.755L465.093 257.352C464.962 256.109 465.526 255.421 466.785 255.289L470.421 254.907ZM470.757 257.204C470.734 256.987 470.671 256.836 470.568 256.753C470.465 256.67 470.304 256.639 470.087 256.662L467.476 256.937C467.274 256.958 467.132 257.02 467.048 257.123C466.965 257.226 466.927 257.387 466.934 257.606L467.199 260.124C467.221 260.341 467.284 260.492 467.387 260.575C467.49 260.659 467.652 260.697 467.871 260.689L470.481 260.415C470.683 260.394 470.826 260.332 470.91 260.229C470.991 260.11 471.029 259.941 471.021 259.722L470.757 257.204ZM510.459 247.399C510.987 247.344 511.273 247.526 511.317 247.945C511.361 248.365 511.119 248.602 510.591 248.658L490.871 250.731C490.607 250.758 490.408 250.732 490.274 250.652C490.138 250.556 490.059 250.4 490.036 250.182C489.992 249.762 490.226 249.526 490.739 249.472L499.363 248.565L499.253 247.516L492.307 248.247C491.81 248.299 491.541 248.131 491.5 247.742C491.457 247.338 491.685 247.11 492.182 247.058L499.128 246.328L499.025 245.349L492.732 246.01C492.235 246.062 491.966 245.894 491.925 245.506C491.882 245.102 492.11 244.874 492.607 244.821L498.9 244.16L498.793 243.134L490.168 244.041C489.64 244.096 489.354 243.914 489.31 243.495C489.266 243.075 489.508 242.838 490.036 242.782L498.66 241.876L498.557 240.897L492.264 241.558C491.736 241.614 491.449 241.432 491.405 241.012C491.361 240.593 491.603 240.355 492.132 240.299L498.425 239.638L498.381 239.218C498.319 238.628 498.607 238.299 499.244 238.232C499.881 238.165 500.23 238.427 500.292 239.018L500.336 239.437L505.907 238.852C507.042 238.732 507.661 239.17 507.766 240.165L507.844 240.91L509.755 240.71C510.284 240.654 510.57 240.836 510.614 241.256C510.658 241.675 510.416 241.913 509.888 241.968L507.976 242.169L508.047 242.845C508.155 243.871 507.642 244.443 506.508 244.562L500.937 245.148L501.04 246.127L508.499 245.343C508.996 245.291 509.266 245.466 509.308 245.87C509.349 246.259 509.121 246.479 508.623 246.532L501.165 247.316L501.275 248.364L510.459 247.399ZM500.572 241.675L506.003 241.104L505.956 240.661C505.922 240.335 505.724 240.175 505.364 240.181L500.469 240.696L500.572 241.675ZM500.812 243.959L505.707 243.445C506.064 243.407 506.225 243.217 506.189 242.875L506.135 242.363L500.704 242.933L500.812 243.959ZM494.72 257.302C493.539 257.426 492.887 256.905 492.765 255.74L492.505 253.269C492.383 252.104 492.912 251.459 494.093 251.335L507.589 249.916C508.739 249.795 509.375 250.318 509.497 251.483L509.757 253.954C509.88 255.119 509.366 255.762 508.216 255.883L494.72 257.302ZM494.457 253.677L499.911 253.103L499.794 251.984L494.992 252.489C494.588 252.532 494.392 252.764 494.405 253.187L494.457 253.677ZM501.776 252.907L507.673 252.287L507.622 251.798C507.581 251.41 507.349 251.222 506.926 251.235L501.658 251.788L501.776 252.907ZM494.641 255.425C494.681 255.813 494.921 256 495.359 255.986L500.161 255.481L500.034 254.269L494.579 254.842L494.641 255.425ZM502.026 255.285L507.294 254.731C507.682 254.69 507.87 254.458 507.857 254.036L507.796 253.453L501.898 254.073L502.026 255.285ZM511.396 256.539C511.94 256.482 512.234 256.671 512.28 257.106C512.326 257.541 512.077 257.787 511.533 257.844L491.86 259.912C491.316 259.969 491.021 259.78 490.976 259.345C490.93 258.91 491.179 258.664 491.723 258.607L511.396 256.539Z" fill="#0E103F"/>
<mask id="mask0_425_2587" style="mask-type:alpha" maskUnits="userSpaceOnUse" x="0" y="0" width="230" height="621">
<path d="M230 235L0 0V621L194 512L230 235Z" fill="#FFDC34"/>
</mask>
<g mask="url(#mask0_425_2587)">
<path d="M230 235L0 0V621L194 512L230 235Z" fill="#FFDC34"/>
<g opacity="0.15">
<circle cy="210" r="16" fill="white"/>
<circle cx="52" cy="210" r="16" fill="white"/>
<circle cx="104" cy="210" r="16" fill="white"/>
</g>
<g opacity="0.15">
<circle cx="20" cy="262" r="16" fill="white"/>
<circle cx="72" cy="262" r="16" fill="white"/>
<circle cx="124" cy="262" r="16" fill="white"/>
</g>
<g opacity="0.15">
<circle cy="314" r="16" fill="white"/>
<circle cx="52" cy="314" r="16" fill="white"/>
<circle cx="104" cy="314" r="16" fill="white"/>
</g>
<g opacity="0.15">
<circle cx="20" cy="366" r="16" fill="white"/>
<circle cx="72" cy="366" r="16" fill="white"/>
<circle cx="124" cy="366" r="16" fill="white"/>
</g>
<g opacity="0.15">
<circle cy="418" r="16" fill="white"/>
<circle cx="52" cy="418" r="16" fill="white"/>
<circle cx="104" cy="418" r="16" fill="white"/>
</g>
<g opacity="0.15">
<circle cx="20" cy="470" r="16" fill="white"/>
<circle cx="72" cy="470" r="16" fill="white"/>
<circle cx="124" cy="470" r="16" fill="white"/>
</g>
<g opacity="0.15">
<circle cy="522" r="16" fill="white"/>
<circle cx="52" cy="522" r="16" fill="white"/>
<circle cx="104" cy="522" r="16" fill="white"/>
</g>
<g opacity="0.15">
<circle cx="20" cy="574" r="16" fill="white"/>
<circle cx="72" cy="574" r="16" fill="white"/>
<circle cx="124" cy="574" r="16" fill="white"/>
</g>
</g>
</svg>
