<svg width="520" height="477" viewBox="0 0 520 477" fill="none" xmlns="http://www.w3.org/2000/svg">
<g opacity="0.95" filter="url(#filter0_d_31_432)">
<path d="M250.005 71C194.579 107.621 144.246 153.219 106.005 207.889C96.4681 221.523 81.863 241.37 80.0051 258.556C79.4518 263.674 124.152 243.254 124.227 243.222C172.651 222.977 220.112 201.083 268.005 179.667C290.794 169.476 317.452 153.282 342.672 149.444C349.239 148.445 331.799 165.7 331.116 166.333C297.208 197.797 261.425 227.181 228.561 259.778C203.302 284.831 180.454 312.067 161.005 341.889C153.776 352.974 146.319 365.725 143.227 378.778C139.586 394.151 156.891 381.528 163.338 378C204.345 355.562 244.143 330.791 286.227 310.333C292.218 307.421 362.75 271.106 359.45 292.556C357.061 308.084 340.872 322.22 330.783 333C320.296 344.205 307.913 353.441 298.005 365" stroke="#B3292C" stroke-width="80" stroke-linecap="round"/>
</g>
<defs>
<filter id="filter0_d_31_432" x="0.00317383" y="0.995605" width="439.557" height="475.229" filterUnits="userSpaceOnUse" color-interpolation-filters="sRGB">
<feFlood flood-opacity="0" result="BackgroundImageFix"/>
<feColorMatrix in="SourceAlpha" type="matrix" values="0 0 0 0 0 0 0 0 0 0 0 0 0 0 0 0 0 0 127 0" result="hardAlpha"/>
<feOffset dy="10"/>
<feGaussianBlur stdDeviation="20"/>
<feComposite in2="hardAlpha" operator="out"/>
<feColorMatrix type="matrix" values="0 0 0 0 0 0 0 0 0 0 0 0 0 0 0 0 0 0 0.25 0"/>
<feBlend mode="normal" in2="BackgroundImageFix" result="effect1_dropShadow_31_432"/>
<feBlend mode="normal" in="SourceGraphic" in2="effect1_dropShadow_31_432" result="shape"/>
</filter>
</defs>
</svg>
