<svg width="1332" height="1314" viewBox="0 0 1332 1314" fill="none" xmlns="http://www.w3.org/2000/svg">
<g opacity="0.37" filter="url(#filter0_d_495_1544)">
<path d="M708.153 96.7769C708.566 95.9492 709.784 96.0772 710.016 96.9727L815.085 503.183C815.185 503.572 815.508 503.863 815.905 503.922L1230.87 565.954C1231.79 566.091 1232.04 567.29 1231.26 567.787L877.401 793.239C877.063 793.454 876.886 793.851 876.952 794.247L946.188 1208.07C946.341 1208.99 945.279 1209.6 944.566 1209.01L620.799 942.137C620.489 941.882 620.057 941.837 619.701 942.022L247.523 1135.75C246.703 1136.18 245.792 1135.36 246.131 1134.5L399.894 744.106C400.041 743.733 399.95 743.308 399.664 743.027L100.409 448.929C99.7498 448.281 100.248 447.161 101.171 447.218L519.969 472.818C520.369 472.842 520.746 472.625 520.925 472.266L708.153 96.7769Z" fill="url(#paint0_linear_495_1544)" shape-rendering="crispEdges"/>
<path d="M708.153 96.7769C708.566 95.9492 709.784 96.0772 710.016 96.9727L815.085 503.183C815.185 503.572 815.508 503.863 815.905 503.922L1230.87 565.954C1231.79 566.091 1232.04 567.29 1231.26 567.787L877.401 793.239C877.063 793.454 876.886 793.851 876.952 794.247L946.188 1208.07C946.341 1208.99 945.279 1209.6 944.566 1209.01L620.799 942.137C620.489 941.882 620.057 941.837 619.701 942.022L247.523 1135.75C246.703 1136.18 245.792 1135.36 246.131 1134.5L399.894 744.106C400.041 743.733 399.95 743.308 399.664 743.027L100.409 448.929C99.7498 448.281 100.248 447.161 101.171 447.218L519.969 472.818C520.369 472.842 520.746 472.625 520.925 472.266L708.153 96.7769Z" fill="url(#paint1_linear_495_1544)" fill-opacity="0.2" shape-rendering="crispEdges"/>
</g>
<defs>
<filter id="filter0_d_495_1544" x="0.10791" y="0.223145" width="1331.62" height="1313.02" filterUnits="userSpaceOnUse" color-interpolation-filters="sRGB">
<feFlood flood-opacity="0" result="BackgroundImageFix"/>
<feColorMatrix in="SourceAlpha" type="matrix" values="0 0 0 0 0 0 0 0 0 0 0 0 0 0 0 0 0 0 127 0" result="hardAlpha"/>
<feOffset dy="4"/>
<feGaussianBlur stdDeviation="50"/>
<feComposite in2="hardAlpha" operator="out"/>
<feColorMatrix type="matrix" values="0 0 0 0 1 0 0 0 0 1 0 0 0 0 1 0 0 0 0.5 0"/>
<feBlend mode="normal" in2="BackgroundImageFix" result="effect1_dropShadow_495_1544"/>
<feBlend mode="normal" in="SourceGraphic" in2="effect1_dropShadow_495_1544" result="shape"/>
</filter>
<linearGradient id="paint0_linear_495_1544" x1="709.346" y1="94.3836" x2="583.912" y2="1287.81" gradientUnits="userSpaceOnUse">
<stop stop-color="#C4C4C4"/>
<stop offset="1" stop-color="#C4C4C4" stop-opacity="0.2"/>
</linearGradient>
<linearGradient id="paint1_linear_495_1544" x1="45" y1="293" x2="607" y2="633" gradientUnits="userSpaceOnUse">
<stop stop-color="white"/>
<stop offset="0.9999" stop-color="white"/>
<stop offset="1" stop-color="white" stop-opacity="0"/>
</linearGradient>
</defs>
</svg>
