<?xml version="1.0" encoding="utf-8"?>
<!-- Generator: Adobe Illustrator 23.0.1, SVG Export Plug-In . SVG Version: 6.00 Build 0)  -->
<svg version="1.1" id="Layer_1" xmlns="http://www.w3.org/2000/svg" xmlns:xlink="http://www.w3.org/1999/xlink" x="0px" y="0px"
	 viewBox="0 0 512 512" style="enable-background:new 0 0 512 512;" xml:space="preserve">
<style type="text/css">
	.st0{fill:#303C42;}
	.st1{fill:#E82C2A;}
	.st2{fill:#FFFFFF;}
	.st3{fill:#FAFAFA;}
	.st4{opacity:0.1;enable-background:new    ;}
	.st5{opacity:0.2;fill:#FFFFFF;enable-background:new    ;}
	.st6{fill:url(#SVGID_1_);}
</style>
<g>
	<path class="st0" d="M350.8,423.3c-16.5-6.6-26.7-18.2-28.2-31.8c-1.2-11.4,4.1-22.6,13.9-29.2l-0.1-0.1
		c32.1-24.4,52.9-62.8,52.9-106c0-8.3-5.9-15.5-16.9-21.6C370.2,170.6,321.8,56,256,56S141.8,170.6,139.6,234.5
		c-11,6.1-16.9,13.3-16.9,21.6c0,43.3,20.8,81.7,52.9,106l-0.1,0.1c9.8,6.6,15.2,17.8,13.9,29.2c-1.4,13.6-11.7,25.2-28.2,31.8
		c-3.2,1.3-5.2,4.3-5.2,7.7c0,22.6,69.9,25,100,25s100-2.4,100-25C356,427.6,353.9,424.5,350.8,423.3z"/>
	<path class="st1" d="M160.7,268.9c-3-9.6-4.7-19.5-4.7-29.6c0-0.6,0.1-1.4,0.1-2c0.7,0.4,1.4,0.7,2.1,1.1
		c8.2,4.4,17.5,9.3,35.2,9.3s27-4.9,35.2-9.3c7.4-3.9,13.8-7.3,27.3-7.3c13.6,0,19.9,3.4,27.4,7.4c8.2,4.4,17.5,9.3,35.2,9.3
		c17.7,0,27.1-4.9,35.3-9.3c0.7-0.4,1.4-0.7,2.2-1.1c0,0.7,0.1,1.4,0.1,2c0,10.1-1.7,20-4.7,29.6c-19.1,6.4-50.7,12.3-95.3,12.3
		C211.5,281.2,179.8,275.3,160.7,268.9z"/>
	<path class="st2" d="M163.8,191.2c7.1,3.4,15.7,6.5,29.6,6.5c17.7,0,27-4.9,35.2-9.3c7.4-3.9,13.8-7.3,27.3-7.3
		c13.6,0,19.9,3.4,27.4,7.4c8.2,4.4,17.5,9.3,35.2,9.3c14,0,22.7-3.1,29.8-6.5c2.8,9.9,4.8,19.5,6.1,28.4c-3,1.3-5.8,2.7-8.4,4
		c-7.5,3.9-13.9,7.3-27.5,7.3c-13.6,0-20-3.4-27.4-7.4c-8.2-4.4-17.5-9.3-35.2-9.3c-17.7,0-27,4.9-35.1,9.3
		c-7.4,3.9-13.8,7.3-27.3,7.3c-13.6,0-20-3.4-27.4-7.3c-2.6-1.4-5.4-2.7-8.3-4C159,210.7,161,201.1,163.8,191.2z"/>
	<path class="st1" d="M256,72.7c36.6,0,69.7,51.9,87.1,102.4c-6.4,3.3-12.8,5.9-24.7,5.9c-13.6,0-20-3.4-27.4-7.4
		c-8.2-4.4-17.5-9.3-35.2-9.3c-17.7,0-27,4.9-35.1,9.3c-7.4,3.9-13.8,7.3-27.3,7.3c-11.8,0-18.2-2.6-24.6-5.9
		C186.2,124.6,219.4,72.7,256,72.7z"/>
	<path class="st3" d="M141.6,279c24.9,12.8,70.8,18.9,114.4,18.9s89.5-6,114.4-18.9c-10.6,53.5-57.9,93.9-114.4,93.9
		S152.2,332.4,141.6,279z"/>
	<path class="st4" d="M348.7,287.2c-19.5,37.2-58.4,62.7-103.3,62.7c-42.3,0-79.3-22.6-99.8-56.4c15.6,46.1,59.1,79.4,110.4,79.4
		c56.5,0,103.8-40.4,114.4-93.9C364.3,282.1,356.9,284.8,348.7,287.2z"/>
	<path class="st3" d="M256,439.5c-37.2,0-62.6-3.8-75.3-7.4c14.6-9.5,23.6-23.1,25.3-38.7c0.5-4.7,0.2-9.4-0.7-13.9
		c15.7,6.5,32.8,10.1,50.7,10.1s35.1-3.6,50.7-10.1c-0.9,4.5-1.2,9.2-0.7,13.9c1.7,15.7,10.7,29.3,25.3,38.7
		C318.6,435.7,293.2,439.5,256,439.5z"/>
	<path class="st5" d="M222.8,393.4c0.2-2.8-0.1-5.5-0.3-8.3c-5.9-1.5-11.7-3.3-17.2-5.6c0.9,4.5,1.2,9.2,0.7,13.9
		c-1.7,15.7-10.7,29.3-25.3,38.7c12.7,3.6,38.1,7.4,75.3,7.4c-24.7,0-41.6-3.8-50-7.4C215.7,422.7,221.7,409.1,222.8,393.4z"/>
	<path class="st4" d="M306,393.4c-0.5-4.7-0.2-9.4,0.7-13.9c-5.6,2.3-11.3,4.1-17.2,5.6c-0.2,2.8-0.5,5.5-0.3,8.3
		c0.6,8.5,2.6,16.3,5.9,23.3c4.2,8.9-0.7,19.5-10.4,20.9c-7.9,1.2-17.5,2-28.7,2c37.2,0,62.6-3.8,75.3-7.4
		C316.7,422.7,307.7,409.1,306,393.4z"/>
	
		<linearGradient id="SVGID_1_" gradientUnits="userSpaceOnUse" x1="131.8226" y1="303.1101" x2="401.5301" y2="177.3434" gradientTransform="matrix(1 0 0 -1 0 513.0394)">
		<stop  offset="0" style="stop-color:#FFFFFF;stop-opacity:0.2"/>
		<stop  offset="1" style="stop-color:#FFFFFF;stop-opacity:0"/>
	</linearGradient>
	<path class="st6" d="M350.8,423.3c-16.5-6.6-26.7-18.2-28.2-31.8c-1.2-11.4,4.1-22.6,13.9-29.2l-0.1-0.1
		c32.1-24.4,52.9-62.8,52.9-106c0-8.3-5.9-15.5-16.9-21.6C370.2,170.6,321.8,56,256,56S141.8,170.6,139.6,234.5
		c-11,6.1-16.9,13.3-16.9,21.6c0,43.3,20.8,81.7,52.9,106l-0.1,0.1c9.8,6.6,15.2,17.8,13.9,29.2c-1.4,13.6-11.7,25.2-28.2,31.8
		c-3.2,1.3-5.2,4.3-5.2,7.7c0,22.6,69.9,25,100,25s100-2.4,100-25C356,427.6,353.9,424.5,350.8,423.3z"/>
</g>
</svg>
