<?xml version="1.0" encoding="utf-8"?>
<!-- Generator: Adobe Illustrator 23.0.1, SVG Export Plug-In . SVG Version: 6.00 Build 0)  -->
<svg version="1.1" id="Layer_1" xmlns="http://www.w3.org/2000/svg" xmlns:xlink="http://www.w3.org/1999/xlink" x="0px" y="0px"
	 viewBox="0 0 512 512" style="enable-background:new 0 0 512 512;" xml:space="preserve">
<style type="text/css">
	.st0{fill:#303C42;}
	.st1{fill:#FFCA28;}
	.st2{fill:url(#SVGID_1_);}
	.st3{opacity:0.1;enable-background:new    ;}
	.st4{fill:#FAFAFA;}
	.st5{fill:url(#SVGID_2_);}
</style>
<g>
	<path class="st0" d="M256,56c-85.2,0-150,166.7-150,250.1c0,82.7,67.3,149.9,150,149.9s150-67.3,150-149.9
		C406,222.7,341.2,56,256,56z"/>
	<path class="st1" d="M138,220.5l32.7-13l12.8,12.8c3.1,3.1,8.1,3.3,11.4,0.3l68.3-60.7l52.9,68c1.6,2,4,3.2,6.6,3.2
		c0.4,0,0.8,0,1.2-0.1l51.1-7.2c4.3,14.1,7.7,28.1,10.1,41.5l-38.2,38.2L286,257.7c-2.7-2.1-6.4-2.2-9.3-0.5l-75.6,45.4l-21-42
		c-2-4.1-7-5.7-11-3.8l-44.2,21C127.3,259.8,131.8,240.2,138,220.5z"/>
	
		<linearGradient id="SVGID_1_" gradientUnits="userSpaceOnUse" x1="178.8434" y1="333.4117" x2="324.7159" y2="187.5392" gradientTransform="matrix(1 0 0 -1 0 513.0394)">
		<stop  offset="0" style="stop-color:#000000;stop-opacity:0.1"/>
		<stop  offset="1" style="stop-color:#000000;stop-opacity:0"/>
	</linearGradient>
	<path class="st2" d="M138,220.5l32.7-13l12.8,12.8c3.1,3.1,8.1,3.3,11.4,0.3l68.3-60.7l52.9,68c1.6,2,4,3.2,6.6,3.2
		c0.4,0,0.8,0,1.2-0.1l51.1-7.2c4.3,14.1,7.7,28.1,10.1,41.5l-38.2,38.2L286,257.7c-2.7-2.1-6.4-2.2-9.3-0.5l-75.6,45.4l-21-42
		c-2-4.1-7-5.7-11-3.8l-44.2,21C127.3,259.8,131.8,240.2,138,220.5z"/>
	<path class="st3" d="M131.6,245.6c2.5-9,9.4-16.2,18.1-19.6l18.7-7.5l12.8,12.8c3.1,3.1,8.1,3.3,11.4,0.3l56.4-50.1
		c6.5-5.8,16.5-4.8,21.8,2l43,55.3c1.6,2,4,3.2,6.6,3.2c0.4,0,0.8,0,1.2-0.1l39.5-5.6c6.6-0.9,13.1,3,14.8,9.4
		c2.2,7.9,3.7,15.6,5.3,23.2l3.9-3.9c-2.4-13.4-5.8-27.3-10.1-41.5l-51.1,7.2c-0.4,0.1-0.8,0.1-1.2,0.1c-2.6,0-5-1.2-6.6-3.2
		l-52.9-68l-68.3,60.7c-3.3,2.9-8.3,2.8-11.4-0.3l-12.8-12.8l-32.7,13c-4.2,13.4-7.3,26.6-9.8,39.4
		C129.3,255.2,130.3,250.4,131.6,245.6z"/>
	<path class="st4" d="M256,72.6c31.2,0,64.9,31,92.7,85.1c8,15.7,15.1,32.7,21.1,49.9l-43.5,6.2l-55.4-71.2c-1.4-1.8-3.5-3-5.8-3.2
		c-2.3-0.2-4.6,0.5-6.3,2.1l-69.1,61.4l-11.1-11.1c-2.4-2.4-5.9-3.1-9-1.8l-24.5,9.8c5.4-14.5,11.5-28.7,18.3-42
		C191.1,103.6,224.8,72.6,256,72.6z"/>
	<path class="st4" d="M256,439.3c-73.5,0-133.3-59.8-133.3-133.3c0-2.8,0.3-5.9,0.4-8.9l45.8-21.7l21.4,42.7c1,2.1,2.9,3.6,5.1,4.3
		c2.2,0.6,4.6,0.3,6.6-0.9l78.5-47.1l62.2,46.6c1.5,1.1,3.2,1.7,5,1.7c2.1,0,4.3-0.8,5.9-2.4l34.5-34.5c0.7,7.1,1.2,14,1.2,20.3
		C389.3,379.5,329.5,439.3,256,439.3z"/>
	<ellipse class="st0" cx="231" cy="210.2" rx="8.3" ry="12.5"/>
	<ellipse class="st0" cx="281" cy="210.2" rx="8.3" ry="12.5"/>
	<path class="st0" d="M241.8,245.2l8.3,8.3c1.6,1.6,3.8,2.4,5.9,2.4c2.1,0,4.3-0.8,5.9-2.4l8.3-8.3c3.3-3.3,3.3-8.5,0-11.8
		c-3.3-3.3-8.5-3.3-11.8,0l-2.4,2.4l-2.4-2.4c-3.3-3.3-8.5-3.3-11.8,0C238.5,236.7,238.5,242,241.8,245.2z"/>
	<path class="st3" d="M369.7,207.6c-6-17.2-13-34.2-21.1-49.9c-16.5-32.2-35.1-55.9-54.1-70.1c25.5,32.2,46.3,78.9,58.3,122.4
		L369.7,207.6z"/>
	<path class="st3" d="M388.1,285.7l-28,28c-14.6,57.8-66.9,100.7-129.1,100.7c-30.3,0-58.3-10.3-80.7-27.4
		c24.4,31.8,62.6,52.4,105.7,52.4c73.5,0,133.3-59.8,133.3-133.3C389.3,299.7,388.8,292.8,388.1,285.7z"/>
	
		<linearGradient id="SVGID_2_" gradientUnits="userSpaceOnUse" x1="125.5946" y1="313.6383" x2="409.4937" y2="181.2539" gradientTransform="matrix(1 0 0 -1 0 513.0394)">
		<stop  offset="0" style="stop-color:#FFFFFF;stop-opacity:0.2"/>
		<stop  offset="1" style="stop-color:#FFFFFF;stop-opacity:0"/>
	</linearGradient>
	<path class="st5" d="M256,56c-85.2,0-150,166.7-150,250.1c0,82.7,67.3,149.9,150,149.9s150-67.3,150-149.9
		C406,222.7,341.2,56,256,56z"/>
</g>
</svg>
