<svg width="319" height="82" viewBox="0 0 319 82" fill="none" xmlns="http://www.w3.org/2000/svg">
<path opacity="0.37" d="M85.04 17.36C82.8 16.1333 80.5067 15.12 78.16 14.32C75.8667 13.52 73.7067 13.12 71.68 13.12C69.1733 13.12 67.2 13.6267 65.76 14.64C64.32 15.6533 63.6 17.1733 63.6 19.2C63.6 20.5867 64.1333 21.84 65.2 22.96C66.32 24.0267 67.7333 24.9867 69.44 25.84C71.2 26.6933 73.0133 27.4667 74.88 28.16C76.5867 28.8 78.2667 29.5733 79.92 30.48C81.6267 31.3333 83.1467 32.4267 84.48 33.76C85.8133 35.04 86.88 36.6667 87.68 38.64C88.48 40.56 88.88 42.9333 88.88 45.76C88.88 48.7467 88.1067 51.52 86.56 54.08C85.0133 56.64 82.7467 58.72 79.76 60.32C76.7733 61.8667 73.0933 62.64 68.72 62.64C66.48 62.64 64.1867 62.4267 61.84 62C59.5467 61.52 57.28 60.8267 55.04 59.92C52.8 58.96 50.64 57.76 48.56 56.32L53.68 47.28C55.0667 48.2933 56.56 49.2 58.16 50C59.8133 50.7467 61.4667 51.3333 63.12 51.76C64.7733 52.1867 66.2933 52.4 67.68 52.4C69.0667 52.4 70.4533 52.2133 71.84 51.84C73.28 51.4133 74.4533 50.72 75.36 49.76C76.32 48.8 76.8 47.4667 76.8 45.76C76.8 44.5867 76.4 43.52 75.6 42.56C74.8533 41.6 73.8133 40.72 72.48 39.92C71.2 39.12 69.7867 38.4267 68.24 37.84C66.4267 37.1467 64.56 36.3467 62.64 35.44C60.72 34.5333 58.9067 33.44 57.2 32.16C55.5467 30.8267 54.1867 29.2 53.12 27.28C52.1067 25.3067 51.6 22.9067 51.6 20.08C51.6 16.6667 52.3467 13.7067 53.84 11.2C55.3867 8.69333 57.5467 6.72 60.32 5.28C63.0933 3.78666 66.2933 2.96 69.92 2.8C74.6667 2.8 78.5067 3.36 81.44 4.48C84.4267 5.6 87.0933 6.93333 89.44 8.48L85.04 17.36ZM102.641 3.12H142.321V14.32H128.001V62H116.401V14.32H102.641V3.12ZM148.51 62L175.07 0.799996H175.71L202.27 62H188.83L171.87 18.96L180.27 13.2L159.95 62H148.51ZM166.67 40.72H184.35L188.43 50.48H163.07L166.67 40.72ZM235.093 3.12C238.773 3.12 242.053 3.6 244.933 4.56C247.813 5.46666 250.213 6.8 252.133 8.56C254.106 10.2667 255.6 12.3467 256.613 14.8C257.626 17.2 258.133 19.92 258.133 22.96C258.133 25.36 257.76 27.76 257.013 30.16C256.32 32.56 255.146 34.7467 253.493 36.72C251.893 38.6933 249.76 40.2933 247.093 41.52C244.426 42.6933 241.12 43.28 237.173 43.28H228.853V62H217.253V3.12H235.093ZM237.093 32.08C238.853 32.08 240.32 31.7867 241.493 31.2C242.666 30.6133 243.573 29.8667 244.213 28.96C244.906 28.0533 245.386 27.12 245.653 26.16C245.973 25.1467 246.133 24.2133 246.133 23.36C246.133 22.72 246.026 21.92 245.813 20.96C245.653 19.9467 245.28 18.9333 244.693 17.92C244.106 16.9067 243.2 16.0533 241.973 15.36C240.8 14.6667 239.2 14.32 237.173 14.32H228.853V32.08H237.093ZM247.973 39.28L262.533 62H249.013L234.133 39.6L247.973 39.28ZM309.937 17.36C307.697 16.1333 305.404 15.12 303.057 14.32C300.764 13.52 298.604 13.12 296.577 13.12C294.07 13.12 292.097 13.6267 290.657 14.64C289.217 15.6533 288.497 17.1733 288.497 19.2C288.497 20.5867 289.03 21.84 290.097 22.96C291.217 24.0267 292.63 24.9867 294.337 25.84C296.097 26.6933 297.91 27.4667 299.777 28.16C301.484 28.8 303.164 29.5733 304.817 30.48C306.524 31.3333 308.044 32.4267 309.377 33.76C310.71 35.04 311.777 36.6667 312.577 38.64C313.377 40.56 313.777 42.9333 313.777 45.76C313.777 48.7467 313.004 51.52 311.457 54.08C309.91 56.64 307.644 58.72 304.657 60.32C301.67 61.8667 297.99 62.64 293.617 62.64C291.377 62.64 289.084 62.4267 286.737 62C284.444 61.52 282.177 60.8267 279.937 59.92C277.697 58.96 275.537 57.76 273.457 56.32L278.577 47.28C279.964 48.2933 281.457 49.2 283.057 50C284.71 50.7467 286.364 51.3333 288.017 51.76C289.67 52.1867 291.19 52.4 292.577 52.4C293.964 52.4 295.35 52.2133 296.737 51.84C298.177 51.4133 299.35 50.72 300.257 49.76C301.217 48.8 301.697 47.4667 301.697 45.76C301.697 44.5867 301.297 43.52 300.497 42.56C299.75 41.6 298.71 40.72 297.377 39.92C296.097 39.12 294.684 38.4267 293.137 37.84C291.324 37.1467 289.457 36.3467 287.537 35.44C285.617 34.5333 283.804 33.44 282.097 32.16C280.444 30.8267 279.084 29.2 278.017 27.28C277.004 25.3067 276.497 22.9067 276.497 20.08C276.497 16.6667 277.244 13.7067 278.737 11.2C280.284 8.69333 282.444 6.72 285.217 5.28C287.99 3.78666 291.19 2.96 294.817 2.8C299.564 2.8 303.404 3.36 306.337 4.48C309.324 5.6 311.99 6.93333 314.337 8.48L309.937 17.36Z" fill="#EAE9ED"/>
<path d="M81.76 9.84C80.2667 9.2 78.32 8.56 75.92 7.92C73.52 7.22666 71.0667 6.88 68.56 6.88C64.4533 6.88 61.1467 7.94666 58.64 10.08C56.1867 12.16 54.96 14.7467 54.96 17.84C54.96 20.1867 55.6267 22.1333 56.96 23.68C58.3467 25.1733 60.1067 26.4533 62.24 27.52C64.4267 28.5333 66.7733 29.52 69.28 30.48C71.2 31.1733 73.0933 31.9467 74.96 32.8C76.8267 33.6533 78.5333 34.6933 80.08 35.92C81.6267 37.0933 82.8533 38.5867 83.76 40.4C84.6667 42.16 85.12 44.32 85.12 46.88C85.12 50.1333 84.3733 52.9333 82.88 55.28C81.3867 57.6267 79.36 59.44 76.8 60.72C74.24 62 71.36 62.64 68.16 62.64C65.12 62.64 62.4267 62.2667 60.08 61.52C57.7333 60.72 55.7867 59.8667 54.24 58.96C52.6933 58.0533 51.5733 57.3867 50.88 56.96L51.68 55.52C52.8 56.32 54.2133 57.1733 55.92 58.08C57.6267 58.9333 59.4933 59.68 61.52 60.32C63.6 60.9067 65.7067 61.2 67.84 61.2C70.4533 61.2 72.96 60.6933 75.36 59.68C77.76 58.6133 79.7067 57.04 81.2 54.96C82.7467 52.8267 83.52 50.16 83.52 46.96C83.52 43.8133 82.7733 41.3067 81.28 39.44C79.7867 37.52 77.8667 36 75.52 34.88C73.2267 33.7067 70.8 32.64 68.24 31.68C66.3733 31.04 64.56 30.3467 62.8 29.6C61.04 28.8 59.44 27.8933 58 26.88C56.6133 25.8667 55.4933 24.64 54.64 23.2C53.7867 21.76 53.36 20.0533 53.36 18.08C53.36 15.5733 54.0267 13.3867 55.36 11.52C56.6933 9.65333 58.48 8.18666 60.72 7.12C63.0133 6.05333 65.5733 5.52 68.4 5.52C70.4267 5.52 72.7733 5.81333 75.44 6.4C78.16 6.98666 80.48 7.73333 82.4 8.64L81.76 9.84ZM101.767 5.84H138.247V7.36H120.807V62H119.207V7.36H101.767V5.84ZM152.04 62L175.32 3.28H175.48L198.76 62H197L174.92 5.92L175.96 5.68L153.64 62H152.04ZM161.72 39.52H189.16L189.32 40.96H161.56L161.72 39.52ZM232.759 5.84C234.359 5.84 236.092 6.10666 237.959 6.64C239.879 7.17333 241.665 8.02666 243.319 9.2C245.025 10.3733 246.412 11.92 247.479 13.84C248.545 15.7067 249.079 18.0267 249.079 20.8C249.079 22.8267 248.759 24.8 248.119 26.72C247.479 28.5867 246.465 30.2667 245.079 31.76C243.745 33.2533 241.985 34.4533 239.799 35.36C237.612 36.2133 234.919 36.64 231.719 36.64H222.839V62H221.239V5.84H232.759ZM231.479 35.12C234.679 35.12 237.292 34.6933 239.319 33.84C241.399 32.9867 243.025 31.8667 244.199 30.48C245.372 29.0933 246.199 27.5733 246.679 25.92C247.212 24.2133 247.479 22.5333 247.479 20.88C247.479 18.9067 247.079 17.0933 246.279 15.44C245.532 13.7333 244.492 12.2933 243.159 11.12C241.825 9.89333 240.279 8.96 238.519 8.32C236.759 7.68 234.865 7.36 232.839 7.36H222.839V35.12H231.479ZM238.839 35.2L254.919 62H253.079L236.999 35.2H238.839ZM304.854 9.84C303.36 9.2 301.414 8.56 299.014 7.92C296.614 7.22666 294.16 6.88 291.654 6.88C287.547 6.88 284.24 7.94666 281.734 10.08C279.28 12.16 278.054 14.7467 278.054 17.84C278.054 20.1867 278.72 22.1333 280.054 23.68C281.44 25.1733 283.2 26.4533 285.334 27.52C287.52 28.5333 289.867 29.52 292.374 30.48C294.294 31.1733 296.187 31.9467 298.054 32.8C299.92 33.6533 301.627 34.6933 303.174 35.92C304.72 37.0933 305.947 38.5867 306.854 40.4C307.76 42.16 308.214 44.32 308.214 46.88C308.214 50.1333 307.467 52.9333 305.974 55.28C304.48 57.6267 302.454 59.44 299.894 60.72C297.334 62 294.454 62.64 291.254 62.64C288.214 62.64 285.52 62.2667 283.174 61.52C280.827 60.72 278.88 59.8667 277.334 58.96C275.787 58.0533 274.667 57.3867 273.974 56.96L274.774 55.52C275.894 56.32 277.307 57.1733 279.014 58.08C280.72 58.9333 282.587 59.68 284.614 60.32C286.694 60.9067 288.8 61.2 290.934 61.2C293.547 61.2 296.054 60.6933 298.454 59.68C300.854 58.6133 302.8 57.04 304.294 54.96C305.84 52.8267 306.614 50.16 306.614 46.96C306.614 43.8133 305.867 41.3067 304.374 39.44C302.88 37.52 300.96 36 298.614 34.88C296.32 33.7067 293.894 32.64 291.334 31.68C289.467 31.04 287.654 30.3467 285.894 29.6C284.134 28.8 282.534 27.8933 281.094 26.88C279.707 25.8667 278.587 24.64 277.734 23.2C276.88 21.76 276.454 20.0533 276.454 18.08C276.454 15.5733 277.12 13.3867 278.454 11.52C279.787 9.65333 281.574 8.18666 283.814 7.12C286.107 6.05333 288.667 5.52 291.494 5.52C293.52 5.52 295.867 5.81333 298.534 6.4C301.254 6.98666 303.574 7.73333 305.494 8.64L304.854 9.84Z" fill="#EAE9ED"/>
<path d="M86.76 9.84C85.2667 9.2 83.32 8.56 80.92 7.92C78.52 7.22666 76.0667 6.88 73.56 6.88C69.4533 6.88 66.1467 7.94666 63.64 10.08C61.1867 12.16 59.96 14.7467 59.96 17.84C59.96 20.1867 60.6267 22.1333 61.96 23.68C63.3467 25.1733 65.1067 26.4533 67.24 27.52C69.4267 28.5333 71.7733 29.52 74.28 30.48C76.2 31.1733 78.0933 31.9467 79.96 32.8C81.8267 33.6533 83.5333 34.6933 85.08 35.92C86.6267 37.0933 87.8533 38.5867 88.76 40.4C89.6667 42.16 90.12 44.32 90.12 46.88C90.12 50.1333 89.3733 52.9333 87.88 55.28C86.3867 57.6267 84.36 59.44 81.8 60.72C79.24 62 76.36 62.64 73.16 62.64C70.12 62.64 67.4267 62.2667 65.08 61.52C62.7333 60.72 60.7867 59.8667 59.24 58.96C57.6933 58.0533 56.5733 57.3867 55.88 56.96L56.68 55.52C57.8 56.32 59.2133 57.1733 60.92 58.08C62.6267 58.9333 64.4933 59.68 66.52 60.32C68.6 60.9067 70.7067 61.2 72.84 61.2C75.4533 61.2 77.96 60.6933 80.36 59.68C82.76 58.6133 84.7067 57.04 86.2 54.96C87.7467 52.8267 88.52 50.16 88.52 46.96C88.52 43.8133 87.7733 41.3067 86.28 39.44C84.7867 37.52 82.8667 36 80.52 34.88C78.2267 33.7067 75.8 32.64 73.24 31.68C71.3733 31.04 69.56 30.3467 67.8 29.6C66.04 28.8 64.44 27.8933 63 26.88C61.6133 25.8667 60.4933 24.64 59.64 23.2C58.7867 21.76 58.36 20.0533 58.36 18.08C58.36 15.5733 59.0267 13.3867 60.36 11.52C61.6933 9.65333 63.48 8.18666 65.72 7.12C68.0133 6.05333 70.5733 5.52 73.4 5.52C75.4267 5.52 77.7733 5.81333 80.44 6.4C83.16 6.98666 85.48 7.73333 87.4 8.64L86.76 9.84ZM106.767 5.84H143.247V7.36H125.807V62H124.207V7.36H106.767V5.84ZM157.04 62L180.32 3.28H180.48L203.76 62H202L179.92 5.92L180.96 5.68L158.64 62H157.04ZM166.72 39.52H194.16L194.32 40.96H166.56L166.72 39.52ZM237.759 5.84C239.359 5.84 241.092 6.10666 242.959 6.64C244.879 7.17333 246.665 8.02666 248.319 9.2C250.025 10.3733 251.412 11.92 252.479 13.84C253.545 15.7067 254.079 18.0267 254.079 20.8C254.079 22.8267 253.759 24.8 253.119 26.72C252.479 28.5867 251.465 30.2667 250.079 31.76C248.745 33.2533 246.985 34.4533 244.799 35.36C242.612 36.2133 239.919 36.64 236.719 36.64H227.839V62H226.239V5.84H237.759ZM236.479 35.12C239.679 35.12 242.292 34.6933 244.319 33.84C246.399 32.9867 248.025 31.8667 249.199 30.48C250.372 29.0933 251.199 27.5733 251.679 25.92C252.212 24.2133 252.479 22.5333 252.479 20.88C252.479 18.9067 252.079 17.0933 251.279 15.44C250.532 13.7333 249.492 12.2933 248.159 11.12C246.825 9.89333 245.279 8.96 243.519 8.32C241.759 7.68 239.865 7.36 237.839 7.36H227.839V35.12H236.479ZM243.839 35.2L259.919 62H258.079L241.999 35.2H243.839ZM309.854 9.84C308.36 9.2 306.414 8.56 304.014 7.92C301.614 7.22666 299.16 6.88 296.654 6.88C292.547 6.88 289.24 7.94666 286.734 10.08C284.28 12.16 283.054 14.7467 283.054 17.84C283.054 20.1867 283.72 22.1333 285.054 23.68C286.44 25.1733 288.2 26.4533 290.334 27.52C292.52 28.5333 294.867 29.52 297.374 30.48C299.294 31.1733 301.187 31.9467 303.054 32.8C304.92 33.6533 306.627 34.6933 308.174 35.92C309.72 37.0933 310.947 38.5867 311.854 40.4C312.76 42.16 313.214 44.32 313.214 46.88C313.214 50.1333 312.467 52.9333 310.974 55.28C309.48 57.6267 307.454 59.44 304.894 60.72C302.334 62 299.454 62.64 296.254 62.64C293.214 62.64 290.52 62.2667 288.174 61.52C285.827 60.72 283.88 59.8667 282.334 58.96C280.787 58.0533 279.667 57.3867 278.974 56.96L279.774 55.52C280.894 56.32 282.307 57.1733 284.014 58.08C285.72 58.9333 287.587 59.68 289.614 60.32C291.694 60.9067 293.8 61.2 295.934 61.2C298.547 61.2 301.054 60.6933 303.454 59.68C305.854 58.6133 307.8 57.04 309.294 54.96C310.84 52.8267 311.614 50.16 311.614 46.96C311.614 43.8133 310.867 41.3067 309.374 39.44C307.88 37.52 305.96 36 303.614 34.88C301.32 33.7067 298.894 32.64 296.334 31.68C294.467 31.04 292.654 30.3467 290.894 29.6C289.134 28.8 287.534 27.8933 286.094 26.88C284.707 25.8667 283.587 24.64 282.734 23.2C281.88 21.76 281.454 20.0533 281.454 18.08C281.454 15.5733 282.12 13.3867 283.454 11.52C284.787 9.65333 286.574 8.18666 288.814 7.12C291.107 6.05333 293.667 5.52 296.494 5.52C298.52 5.52 300.867 5.81333 303.534 6.4C306.254 6.98666 308.574 7.73333 310.494 8.64L309.854 9.84Z" fill="#EAE9ED"/>
<line x1="0.5" y1="34.5" x2="19.5" y2="34.5" stroke="#B3292C" stroke-linecap="round"/>
<line x1="0.5" y1="40.5" x2="19.5" y2="40.5" stroke="#B3292C" stroke-linecap="round"/>
</svg>
