<svg width="320" height="60" viewBox="0 0 320 60" fill="none" xmlns="http://www.w3.org/2000/svg">
<path opacity="0.2" d="M74.82 41.34C74.34 41.74 73.44 42.28 72.12 42.96C70.84 43.64 69.26 44.24 67.38 44.76C65.5 45.28 63.42 45.52 61.14 45.48C57.66 45.4 54.54 44.78 51.78 43.62C49.06 42.42 46.74 40.8 44.82 38.76C42.94 36.72 41.5 34.38 40.5 31.74C39.5 29.1 39 26.28 39 23.28C39 19.92 39.5 16.84 40.5 14.04C41.54 11.24 43 8.82 44.88 6.78C46.8 4.74 49.08 3.16 51.72 2.04C54.36 0.919999 57.28 0.359999 60.48 0.359999C63.44 0.359999 66.06 0.759999 68.34 1.56C70.62 2.36 72.48 3.22 73.92 4.14L70.5 12.36C69.5 11.6 68.16 10.82 66.48 10.02C64.84 9.18 62.94 8.76 60.78 8.76C59.1 8.76 57.48 9.12 55.92 9.84C54.4 10.52 53.04 11.5 51.84 12.78C50.68 14.06 49.76 15.56 49.08 17.28C48.4 18.96 48.06 20.8 48.06 22.8C48.06 24.92 48.36 26.86 48.96 28.62C49.6 30.38 50.5 31.9 51.66 33.18C52.82 34.42 54.2 35.38 55.8 36.06C57.44 36.74 59.28 37.08 61.32 37.08C63.68 37.08 65.7 36.7 67.38 35.94C69.06 35.18 70.34 34.38 71.22 33.54L74.82 41.34ZM85.6359 22.98C85.6359 19.94 86.2159 17.06 87.3759 14.34C88.5359 11.62 90.1359 9.22 92.1759 7.14C94.2559 5.02 96.6559 3.36 99.3759 2.16C102.096 0.959998 105.016 0.359999 108.136 0.359999C111.216 0.359999 114.116 0.959998 116.836 2.16C119.556 3.36 121.956 5.02 124.036 7.14C126.156 9.22 127.796 11.62 128.956 14.34C130.156 17.06 130.756 19.94 130.756 22.98C130.756 26.1 130.156 29.02 128.956 31.74C127.796 34.46 126.156 36.86 124.036 38.94C121.956 40.98 119.556 42.58 116.836 43.74C114.116 44.9 111.216 45.48 108.136 45.48C105.016 45.48 102.096 44.9 99.3759 43.74C96.6559 42.58 94.2559 40.98 92.1759 38.94C90.1359 36.86 88.5359 34.46 87.3759 31.74C86.2159 29.02 85.6359 26.1 85.6359 22.98ZM94.6359 22.98C94.6359 24.94 94.9759 26.78 95.6559 28.5C96.3759 30.18 97.3559 31.68 98.5959 33C99.8759 34.28 101.336 35.28 102.976 36C104.656 36.72 106.476 37.08 108.436 37.08C110.316 37.08 112.056 36.72 113.656 36C115.296 35.28 116.716 34.28 117.916 33C119.116 31.68 120.056 30.18 120.736 28.5C121.416 26.78 121.756 24.94 121.756 22.98C121.756 20.98 121.396 19.12 120.676 17.4C119.996 15.68 119.036 14.18 117.796 12.9C116.596 11.58 115.176 10.56 113.536 9.84C111.896 9.12 110.116 8.76 108.196 8.76C106.276 8.76 104.496 9.12 102.856 9.84C101.216 10.56 99.7759 11.58 98.5359 12.9C97.2959 14.18 96.3359 15.68 95.6559 17.4C94.9759 19.12 94.6359 20.98 94.6359 22.98ZM152.03 28.68C152.03 30.08 152.45 31.42 153.29 32.7C154.13 33.98 155.23 35.02 156.59 35.82C157.99 36.62 159.51 37.02 161.15 37.02C162.95 37.02 164.55 36.62 165.95 35.82C167.35 35.02 168.45 33.98 169.25 32.7C170.09 31.42 170.51 30.08 170.51 28.68V0.839996H179.09V28.86C179.09 32.1 178.29 34.98 176.69 37.5C175.09 39.98 172.93 41.94 170.21 43.38C167.49 44.78 164.47 45.48 161.15 45.48C157.87 45.48 154.87 44.78 152.15 43.38C149.47 41.94 147.33 39.98 145.73 37.5C144.13 34.98 143.33 32.1 143.33 28.86V0.839996H152.03V28.68ZM207.761 0.839996C210.521 0.839996 212.981 1.2 215.141 1.92C217.301 2.6 219.101 3.6 220.541 4.92C222.021 6.2 223.141 7.76 223.901 9.6C224.661 11.4 225.041 13.44 225.041 15.72C225.041 17.52 224.761 19.32 224.201 21.12C223.681 22.92 222.801 24.56 221.561 26.04C220.361 27.52 218.761 28.72 216.761 29.64C214.761 30.52 212.281 30.96 209.321 30.96H203.081V45H194.381V0.839996H207.761ZM209.261 22.56C210.581 22.56 211.681 22.34 212.561 21.9C213.441 21.46 214.121 20.9 214.601 20.22C215.121 19.54 215.481 18.84 215.681 18.12C215.921 17.36 216.041 16.66 216.041 16.02C216.041 15.54 215.961 14.94 215.801 14.22C215.681 13.46 215.401 12.7 214.961 11.94C214.521 11.18 213.841 10.54 212.921 10.02C212.041 9.5 210.841 9.24 209.321 9.24H203.081V22.56H209.261ZM217.421 27.96L228.341 45H218.201L207.041 28.2L217.421 27.96ZM271.911 41.34C271.431 41.74 270.531 42.28 269.211 42.96C267.931 43.64 266.351 44.24 264.471 44.76C262.591 45.28 260.511 45.52 258.231 45.48C254.751 45.4 251.631 44.78 248.871 43.62C246.151 42.42 243.831 40.8 241.911 38.76C240.031 36.72 238.591 34.38 237.591 31.74C236.591 29.1 236.091 26.28 236.091 23.28C236.091 19.92 236.591 16.84 237.591 14.04C238.631 11.24 240.091 8.82 241.971 6.78C243.891 4.74 246.171 3.16 248.811 2.04C251.451 0.919999 254.371 0.359999 257.571 0.359999C260.531 0.359999 263.151 0.759999 265.431 1.56C267.711 2.36 269.571 3.22 271.011 4.14L267.591 12.36C266.591 11.6 265.251 10.82 263.571 10.02C261.931 9.18 260.031 8.76 257.871 8.76C256.191 8.76 254.571 9.12 253.011 9.84C251.491 10.52 250.131 11.5 248.931 12.78C247.771 14.06 246.851 15.56 246.171 17.28C245.491 18.96 245.151 20.8 245.151 22.8C245.151 24.92 245.451 26.86 246.051 28.62C246.691 30.38 247.591 31.9 248.751 33.18C249.911 34.42 251.291 35.38 252.891 36.06C254.531 36.74 256.371 37.08 258.411 37.08C260.771 37.08 262.791 36.7 264.471 35.94C266.151 35.18 267.431 34.38 268.311 33.54L271.911 41.34ZM285.427 0.839996H315.547V9.24H294.127V18.66H313.087V27.06H294.127V36.6H316.387V45H285.427V0.839996Z" fill="#5D5C61"/>
<path d="M72.96 42.42C71.92 43.02 70.8 43.56 69.6 44.04C68.44 44.48 67.2 44.82 65.88 45.06C64.56 45.34 63.18 45.48 61.74 45.48C58.54 45.48 55.62 44.92 52.98 43.8C50.38 42.68 48.14 41.14 46.26 39.18C44.38 37.22 42.94 34.96 41.94 32.4C40.94 29.8 40.44 27.06 40.44 24.18C40.44 21.14 40.98 18.3 42.06 15.66C43.18 13.02 44.72 10.72 46.68 8.76C48.64 6.76 50.92 5.2 53.52 4.08C56.12 2.96 58.9 2.4 61.86 2.4C63.9 2.4 65.84 2.68 67.68 3.24C69.56 3.76 71.32 4.5 72.96 5.46L72.36 6.48C70.84 5.56 69.18 4.84 67.38 4.32C65.62 3.8 63.78 3.54 61.86 3.54C59.1 3.54 56.48 4.08 54 5.16C51.56 6.2 49.42 7.68 47.58 9.6C45.74 11.48 44.28 13.68 43.2 16.2C42.16 18.68 41.64 21.36 41.64 24.24C41.64 26.92 42.1 29.48 43.02 31.92C43.98 34.36 45.34 36.52 47.1 38.4C48.86 40.24 50.96 41.7 53.4 42.78C55.88 43.82 58.66 44.34 61.74 44.34C63.7 44.34 65.56 44.08 67.32 43.56C69.08 43 70.72 42.28 72.24 41.4L72.96 42.42ZM87.8658 24C87.8658 21.04 88.4258 18.26 89.5458 15.66C90.6658 13.02 92.2058 10.72 94.1658 8.76C96.1258 6.76 98.4058 5.2 101.006 4.08C103.606 2.96 106.386 2.4 109.346 2.4C112.306 2.4 115.086 2.96 117.686 4.08C120.286 5.2 122.566 6.76 124.526 8.76C126.526 10.72 128.086 13.02 129.206 15.66C130.366 18.26 130.946 21.04 130.946 24C130.946 26.96 130.366 29.74 129.206 32.34C128.086 34.94 126.526 37.22 124.526 39.18C122.566 41.14 120.286 42.68 117.686 43.8C115.086 44.92 112.306 45.48 109.346 45.48C106.386 45.48 103.606 44.96 101.006 43.92C98.4058 42.84 96.1258 41.34 94.1658 39.42C92.2058 37.5 90.6658 35.24 89.5458 32.64C88.4258 30 87.8658 27.12 87.8658 24ZM89.0658 24.06C89.0658 26.86 89.5858 29.5 90.6258 31.98C91.6658 34.42 93.1058 36.58 94.9458 38.46C96.7858 40.3 98.9258 41.74 101.366 42.78C103.806 43.82 106.406 44.34 109.166 44.34C112.006 44.34 114.666 43.82 117.146 42.78C119.626 41.74 121.806 40.3 123.686 38.46C125.566 36.58 127.046 34.42 128.126 31.98C129.206 29.5 129.746 26.84 129.746 24C129.746 21.2 129.206 18.58 128.126 16.14C127.046 13.66 125.566 11.48 123.686 9.6C121.846 7.72 119.686 6.24 117.206 5.16C114.766 4.08 112.146 3.54 109.346 3.54C106.466 3.54 103.786 4.1 101.306 5.22C98.8658 6.3 96.7258 7.8 94.8858 9.72C93.0458 11.64 91.6058 13.84 90.5658 16.32C89.5658 18.76 89.0658 21.34 89.0658 24.06ZM149.62 31.2C149.62 34 150.16 36.38 151.24 38.34C152.32 40.3 153.8 41.8 155.68 42.84C157.56 43.84 159.7 44.34 162.1 44.34C164.5 44.34 166.64 43.84 168.52 42.84C170.44 41.8 171.94 40.3 173.02 38.34C174.1 36.38 174.64 34 174.64 31.2V2.88H175.84V31.32C175.84 34.4 175.22 37 173.98 39.12C172.78 41.2 171.14 42.78 169.06 43.86C167.02 44.94 164.7 45.48 162.1 45.48C159.5 45.48 157.16 44.94 155.08 43.86C153.04 42.78 151.42 41.2 150.22 39.12C149.02 37 148.42 34.4 148.42 31.32V2.88H149.62V31.2ZM204.721 2.88C205.921 2.88 207.221 3.08 208.621 3.48C210.061 3.88 211.401 4.52 212.641 5.4C213.921 6.28 214.961 7.44 215.761 8.88C216.561 10.28 216.961 12.02 216.961 14.1C216.961 15.62 216.721 17.1 216.241 18.54C215.761 19.94 215.001 21.2 213.961 22.32C212.961 23.44 211.641 24.34 210.001 25.02C208.361 25.66 206.341 25.98 203.941 25.98H197.281V45H196.081V2.88H204.721ZM203.761 24.84C206.161 24.84 208.121 24.52 209.641 23.88C211.201 23.24 212.421 22.4 213.301 21.36C214.181 20.32 214.801 19.18 215.161 17.94C215.561 16.66 215.761 15.4 215.761 14.16C215.761 12.68 215.461 11.32 214.861 10.08C214.301 8.8 213.521 7.72 212.521 6.84C211.521 5.92 210.361 5.22 209.041 4.74C207.721 4.26 206.301 4.02 204.781 4.02H197.281V24.84H203.761ZM209.281 24.9L221.341 45H219.961L207.901 24.9H209.281ZM266.472 42.42C265.432 43.02 264.312 43.56 263.112 44.04C261.952 44.48 260.712 44.82 259.392 45.06C258.072 45.34 256.692 45.48 255.252 45.48C252.052 45.48 249.132 44.92 246.492 43.8C243.892 42.68 241.652 41.14 239.772 39.18C237.892 37.22 236.452 34.96 235.452 32.4C234.452 29.8 233.952 27.06 233.952 24.18C233.952 21.14 234.492 18.3 235.572 15.66C236.692 13.02 238.232 10.72 240.192 8.76C242.152 6.76 244.432 5.2 247.032 4.08C249.632 2.96 252.412 2.4 255.372 2.4C257.412 2.4 259.352 2.68 261.192 3.24C263.072 3.76 264.832 4.5 266.472 5.46L265.872 6.48C264.352 5.56 262.692 4.84 260.892 4.32C259.132 3.8 257.292 3.54 255.372 3.54C252.612 3.54 249.992 4.08 247.512 5.16C245.072 6.2 242.932 7.68 241.092 9.6C239.252 11.48 237.792 13.68 236.712 16.2C235.672 18.68 235.152 21.36 235.152 24.24C235.152 26.92 235.612 29.48 236.532 31.92C237.492 34.36 238.852 36.52 240.612 38.4C242.372 40.24 244.472 41.7 246.912 42.78C249.392 43.82 252.172 44.34 255.252 44.34C257.212 44.34 259.072 44.08 260.832 43.56C262.592 43 264.232 42.28 265.752 41.4L266.472 42.42ZM284.078 2.88H309.218V4.02H285.278V23.16H306.878V24.3H285.278V43.86H310.058V45H284.078V2.88Z" fill="#5D5C61"/>
<path d="M77.96 42.42C76.92 43.02 75.8 43.56 74.6 44.04C73.44 44.48 72.2 44.82 70.88 45.06C69.56 45.34 68.18 45.48 66.74 45.48C63.54 45.48 60.62 44.92 57.98 43.8C55.38 42.68 53.14 41.14 51.26 39.18C49.38 37.22 47.94 34.96 46.94 32.4C45.94 29.8 45.44 27.06 45.44 24.18C45.44 21.14 45.98 18.3 47.06 15.66C48.18 13.02 49.72 10.72 51.68 8.76C53.64 6.76 55.92 5.2 58.52 4.08C61.12 2.96 63.9 2.4 66.86 2.4C68.9 2.4 70.84 2.68 72.68 3.24C74.56 3.76 76.32 4.5 77.96 5.46L77.36 6.48C75.84 5.56 74.18 4.84 72.38 4.32C70.62 3.8 68.78 3.54 66.86 3.54C64.1 3.54 61.48 4.08 59 5.16C56.56 6.2 54.42 7.68 52.58 9.6C50.74 11.48 49.28 13.68 48.2 16.2C47.16 18.68 46.64 21.36 46.64 24.24C46.64 26.92 47.1 29.48 48.02 31.92C48.98 34.36 50.34 36.52 52.1 38.4C53.86 40.24 55.96 41.7 58.4 42.78C60.88 43.82 63.66 44.34 66.74 44.34C68.7 44.34 70.56 44.08 72.32 43.56C74.08 43 75.72 42.28 77.24 41.4L77.96 42.42ZM92.8658 24C92.8658 21.04 93.4258 18.26 94.5458 15.66C95.6658 13.02 97.2058 10.72 99.1658 8.76C101.126 6.76 103.406 5.2 106.006 4.08C108.606 2.96 111.386 2.4 114.346 2.4C117.306 2.4 120.086 2.96 122.686 4.08C125.286 5.2 127.566 6.76 129.526 8.76C131.526 10.72 133.086 13.02 134.206 15.66C135.366 18.26 135.946 21.04 135.946 24C135.946 26.96 135.366 29.74 134.206 32.34C133.086 34.94 131.526 37.22 129.526 39.18C127.566 41.14 125.286 42.68 122.686 43.8C120.086 44.92 117.306 45.48 114.346 45.48C111.386 45.48 108.606 44.96 106.006 43.92C103.406 42.84 101.126 41.34 99.1658 39.42C97.2058 37.5 95.6658 35.24 94.5458 32.64C93.4258 30 92.8658 27.12 92.8658 24ZM94.0658 24.06C94.0658 26.86 94.5858 29.5 95.6258 31.98C96.6658 34.42 98.1058 36.58 99.9458 38.46C101.786 40.3 103.926 41.74 106.366 42.78C108.806 43.82 111.406 44.34 114.166 44.34C117.006 44.34 119.666 43.82 122.146 42.78C124.626 41.74 126.806 40.3 128.686 38.46C130.566 36.58 132.046 34.42 133.126 31.98C134.206 29.5 134.746 26.84 134.746 24C134.746 21.2 134.206 18.58 133.126 16.14C132.046 13.66 130.566 11.48 128.686 9.6C126.846 7.72 124.686 6.24 122.206 5.16C119.766 4.08 117.146 3.54 114.346 3.54C111.466 3.54 108.786 4.1 106.306 5.22C103.866 6.3 101.726 7.8 99.8858 9.72C98.0458 11.64 96.6058 13.84 95.5658 16.32C94.5658 18.76 94.0658 21.34 94.0658 24.06ZM154.62 31.2C154.62 34 155.16 36.38 156.24 38.34C157.32 40.3 158.8 41.8 160.68 42.84C162.56 43.84 164.7 44.34 167.1 44.34C169.5 44.34 171.64 43.84 173.52 42.84C175.44 41.8 176.94 40.3 178.02 38.34C179.1 36.38 179.64 34 179.64 31.2V2.88H180.84V31.32C180.84 34.4 180.22 37 178.98 39.12C177.78 41.2 176.14 42.78 174.06 43.86C172.02 44.94 169.7 45.48 167.1 45.48C164.5 45.48 162.16 44.94 160.08 43.86C158.04 42.78 156.42 41.2 155.22 39.12C154.02 37 153.42 34.4 153.42 31.32V2.88H154.62V31.2ZM209.721 2.88C210.921 2.88 212.221 3.08 213.621 3.48C215.061 3.88 216.401 4.52 217.641 5.4C218.921 6.28 219.961 7.44 220.761 8.88C221.561 10.28 221.961 12.02 221.961 14.1C221.961 15.62 221.721 17.1 221.241 18.54C220.761 19.94 220.001 21.2 218.961 22.32C217.961 23.44 216.641 24.34 215.001 25.02C213.361 25.66 211.341 25.98 208.941 25.98H202.281V45H201.081V2.88H209.721ZM208.761 24.84C211.161 24.84 213.121 24.52 214.641 23.88C216.201 23.24 217.421 22.4 218.301 21.36C219.181 20.32 219.801 19.18 220.161 17.94C220.561 16.66 220.761 15.4 220.761 14.16C220.761 12.68 220.461 11.32 219.861 10.08C219.301 8.8 218.521 7.72 217.521 6.84C216.521 5.92 215.361 5.22 214.041 4.74C212.721 4.26 211.301 4.02 209.781 4.02H202.281V24.84H208.761ZM214.281 24.9L226.341 45H224.961L212.901 24.9H214.281ZM271.472 42.42C270.432 43.02 269.312 43.56 268.112 44.04C266.952 44.48 265.712 44.82 264.392 45.06C263.072 45.34 261.692 45.48 260.252 45.48C257.052 45.48 254.132 44.92 251.492 43.8C248.892 42.68 246.652 41.14 244.772 39.18C242.892 37.22 241.452 34.96 240.452 32.4C239.452 29.8 238.952 27.06 238.952 24.18C238.952 21.14 239.492 18.3 240.572 15.66C241.692 13.02 243.232 10.72 245.192 8.76C247.152 6.76 249.432 5.2 252.032 4.08C254.632 2.96 257.412 2.4 260.372 2.4C262.412 2.4 264.352 2.68 266.192 3.24C268.072 3.76 269.832 4.5 271.472 5.46L270.872 6.48C269.352 5.56 267.692 4.84 265.892 4.32C264.132 3.8 262.292 3.54 260.372 3.54C257.612 3.54 254.992 4.08 252.512 5.16C250.072 6.2 247.932 7.68 246.092 9.6C244.252 11.48 242.792 13.68 241.712 16.2C240.672 18.68 240.152 21.36 240.152 24.24C240.152 26.92 240.612 29.48 241.532 31.92C242.492 34.36 243.852 36.52 245.612 38.4C247.372 40.24 249.472 41.7 251.912 42.78C254.392 43.82 257.172 44.34 260.252 44.34C262.212 44.34 264.072 44.08 265.832 43.56C267.592 43 269.232 42.28 270.752 41.4L271.472 42.42ZM289.078 2.88H314.218V4.02H290.278V23.16H311.878V24.3H290.278V43.86H315.058V45H289.078V2.88Z" fill="#5D5C61"/>
<line x1="0.5" y1="22.5" x2="19.5" y2="22.5" stroke="#B3292C" stroke-linecap="round"/>
<line x1="0.5" y1="28.5" x2="19.5" y2="28.5" stroke="#B3292C" stroke-linecap="round"/>
</svg>
