<svg width="319" height="60" viewBox="0 0 319 60" fill="none" xmlns="http://www.w3.org/2000/svg">
<path opacity="0.2" d="M55.08 0.839996C58.72 0.839996 61.8 1.46 64.32 2.7C66.84 3.9 68.76 5.62 70.08 7.86C71.4 10.06 72.06 12.68 72.06 15.72C72.06 17.52 71.78 19.34 71.22 21.18C70.7 22.98 69.84 24.62 68.64 26.1C67.48 27.58 65.9 28.78 63.9 29.7C61.94 30.58 59.52 31.02 56.64 31.02H50.4V45H41.7V0.839996H55.08ZM56.58 22.56C57.9 22.56 59 22.34 59.88 21.9C60.76 21.42 61.44 20.84 61.92 20.16C62.44 19.44 62.8 18.7 63 17.94C63.24 17.18 63.36 16.52 63.36 15.96C63.36 15.52 63.28 14.94 63.12 14.22C63 13.46 62.72 12.7 62.28 11.94C61.84 11.18 61.16 10.54 60.24 10.02C59.36 9.5 58.16 9.24 56.64 9.24H50.4V22.56H56.58ZM122.385 0.839996V45H113.685V27.06H93.9445V45H85.2445V0.839996H93.9445V18.66H113.685V0.839996H122.385ZM136.46 22.98C136.46 19.94 137.04 17.06 138.2 14.34C139.36 11.62 140.96 9.22 143 7.14C145.08 5.02 147.48 3.36 150.2 2.16C152.92 0.959998 155.84 0.359999 158.96 0.359999C162.04 0.359999 164.94 0.959998 167.66 2.16C170.38 3.36 172.78 5.02 174.86 7.14C176.98 9.22 178.62 11.62 179.78 14.34C180.98 17.06 181.58 19.94 181.58 22.98C181.58 26.1 180.98 29.02 179.78 31.74C178.62 34.46 176.98 36.86 174.86 38.94C172.78 40.98 170.38 42.58 167.66 43.74C164.94 44.9 162.04 45.48 158.96 45.48C155.84 45.48 152.92 44.9 150.2 43.74C147.48 42.58 145.08 40.98 143 38.94C140.96 36.86 139.36 34.46 138.2 31.74C137.04 29.02 136.46 26.1 136.46 22.98ZM145.46 22.98C145.46 24.94 145.8 26.78 146.48 28.5C147.2 30.18 148.18 31.68 149.42 33C150.7 34.28 152.16 35.28 153.8 36C155.48 36.72 157.3 37.08 159.26 37.08C161.14 37.08 162.88 36.72 164.48 36C166.12 35.28 167.54 34.28 168.74 33C169.94 31.68 170.88 30.18 171.56 28.5C172.24 26.78 172.58 24.94 172.58 22.98C172.58 20.98 172.22 19.12 171.5 17.4C170.82 15.68 169.86 14.18 168.62 12.9C167.42 11.58 166 10.56 164.36 9.84C162.72 9.12 160.94 8.76 159.02 8.76C157.1 8.76 155.32 9.12 153.68 9.84C152.04 10.56 150.6 11.58 149.36 12.9C148.12 14.18 147.16 15.68 146.48 17.4C145.8 19.12 145.46 20.98 145.46 22.98ZM191.13 0.839996H220.89V9.24H210.15V45H201.45V9.24H191.13V0.839996ZM230.463 22.98C230.463 19.94 231.043 17.06 232.203 14.34C233.363 11.62 234.963 9.22 237.003 7.14C239.083 5.02 241.483 3.36 244.203 2.16C246.923 0.959998 249.843 0.359999 252.963 0.359999C256.043 0.359999 258.943 0.959998 261.663 2.16C264.383 3.36 266.783 5.02 268.863 7.14C270.983 9.22 272.623 11.62 273.783 14.34C274.983 17.06 275.583 19.94 275.583 22.98C275.583 26.1 274.983 29.02 273.783 31.74C272.623 34.46 270.983 36.86 268.863 38.94C266.783 40.98 264.383 42.58 261.663 43.74C258.943 44.9 256.043 45.48 252.963 45.48C249.843 45.48 246.923 44.9 244.203 43.74C241.483 42.58 239.083 40.98 237.003 38.94C234.963 36.86 233.363 34.46 232.203 31.74C231.043 29.02 230.463 26.1 230.463 22.98ZM239.463 22.98C239.463 24.94 239.803 26.78 240.483 28.5C241.203 30.18 242.183 31.68 243.423 33C244.703 34.28 246.163 35.28 247.803 36C249.483 36.72 251.303 37.08 253.263 37.08C255.143 37.08 256.883 36.72 258.483 36C260.123 35.28 261.543 34.28 262.743 33C263.943 31.68 264.883 30.18 265.563 28.5C266.243 26.78 266.583 24.94 266.583 22.98C266.583 20.98 266.223 19.12 265.503 17.4C264.823 15.68 263.863 14.18 262.623 12.9C261.423 11.58 260.003 10.56 258.363 9.84C256.723 9.12 254.943 8.76 253.023 8.76C251.103 8.76 249.323 9.12 247.683 9.84C246.043 10.56 244.603 11.58 243.363 12.9C242.123 14.18 241.163 15.68 240.483 17.4C239.803 19.12 239.463 20.98 239.463 22.98ZM313.237 11.52C311.557 10.6 309.837 9.84 308.077 9.24C306.357 8.64 304.737 8.34 303.217 8.34C301.337 8.34 299.857 8.72 298.777 9.48C297.697 10.24 297.157 11.38 297.157 12.9C297.157 13.94 297.557 14.88 298.357 15.72C299.197 16.52 300.257 17.24 301.537 17.88C302.857 18.52 304.217 19.1 305.617 19.62C306.897 20.1 308.157 20.68 309.397 21.36C310.677 22 311.817 22.82 312.817 23.82C313.817 24.78 314.617 26 315.217 27.48C315.817 28.92 316.117 30.7 316.117 32.82C316.117 35.06 315.537 37.14 314.377 39.06C313.217 40.98 311.517 42.54 309.277 43.74C307.037 44.9 304.277 45.48 300.997 45.48C299.317 45.48 297.597 45.32 295.837 45C294.117 44.64 292.417 44.12 290.737 43.44C289.057 42.72 287.437 41.82 285.877 40.74L289.717 33.96C290.757 34.72 291.877 35.4 293.077 36C294.317 36.56 295.557 37 296.797 37.32C298.037 37.64 299.177 37.8 300.217 37.8C301.257 37.8 302.297 37.66 303.337 37.38C304.417 37.06 305.297 36.54 305.977 35.82C306.697 35.1 307.057 34.1 307.057 32.82C307.057 31.94 306.757 31.14 306.157 30.42C305.597 29.7 304.817 29.04 303.817 28.44C302.857 27.84 301.797 27.32 300.637 26.88C299.277 26.36 297.877 25.76 296.437 25.08C294.997 24.4 293.637 23.58 292.357 22.62C291.117 21.62 290.097 20.4 289.297 18.96C288.537 17.48 288.157 15.68 288.157 13.56C288.157 11 288.717 8.78 289.837 6.9C290.997 5.02 292.617 3.54 294.697 2.46C296.777 1.34 299.177 0.719998 301.897 0.599999C305.457 0.599999 308.337 1.02 310.537 1.86C312.777 2.7 314.777 3.7 316.537 4.86L313.237 11.52Z" fill="#5D5C61"/>
<path d="M51.9 2.88C54.22 2.88 56.28 3.28 58.08 4.08C59.92 4.88 61.36 6.12 62.4 7.8C63.44 9.44 63.96 11.54 63.96 14.1C63.96 15.62 63.7 17.1 63.18 18.54C62.7 19.94 61.94 21.2 60.9 22.32C59.86 23.44 58.52 24.34 56.88 25.02C55.24 25.66 53.28 25.98 51 25.98H44.34V45H43.14V2.88H51.9ZM51 24.84C53.32 24.84 55.24 24.48 56.76 23.76C58.32 23.04 59.52 22.12 60.36 21C61.24 19.88 61.86 18.7 62.22 17.46C62.62 16.22 62.82 15.06 62.82 13.98C62.82 12.38 62.54 10.96 61.98 9.72C61.46 8.48 60.72 7.44 59.76 6.6C58.8 5.76 57.64 5.12 56.28 4.68C54.92 4.24 53.44 4.02 51.84 4.02H44.34V24.84H51ZM110.836 2.88V45H109.636V24.36H82.1564V45H80.9564V2.88H82.1564V23.22H109.636V2.88H110.836ZM128.378 24C128.378 21.04 128.938 18.26 130.058 15.66C131.178 13.02 132.718 10.72 134.678 8.76C136.638 6.76 138.918 5.2 141.518 4.08C144.118 2.96 146.898 2.4 149.858 2.4C152.818 2.4 155.598 2.96 158.198 4.08C160.798 5.2 163.078 6.76 165.038 8.76C167.038 10.72 168.598 13.02 169.718 15.66C170.878 18.26 171.458 21.04 171.458 24C171.458 26.96 170.878 29.74 169.718 32.34C168.598 34.94 167.038 37.22 165.038 39.18C163.078 41.14 160.798 42.68 158.198 43.8C155.598 44.92 152.818 45.48 149.858 45.48C146.898 45.48 144.118 44.96 141.518 43.92C138.918 42.84 136.638 41.34 134.678 39.42C132.718 37.5 131.178 35.24 130.058 32.64C128.938 30 128.378 27.12 128.378 24ZM129.578 24.06C129.578 26.86 130.098 29.5 131.138 31.98C132.178 34.42 133.618 36.58 135.458 38.46C137.298 40.3 139.438 41.74 141.878 42.78C144.318 43.82 146.918 44.34 149.678 44.34C152.518 44.34 155.178 43.82 157.658 42.78C160.138 41.74 162.318 40.3 164.198 38.46C166.078 36.58 167.558 34.42 168.638 31.98C169.718 29.5 170.258 26.84 170.258 24C170.258 21.2 169.718 18.58 168.638 16.14C167.558 13.66 166.078 11.48 164.198 9.6C162.358 7.72 160.198 6.24 157.718 5.16C155.278 4.08 152.658 3.54 149.858 3.54C146.978 3.54 144.298 4.1 141.818 5.22C139.378 6.3 137.238 7.8 135.398 9.72C133.558 11.64 132.118 13.84 131.078 16.32C130.078 18.76 129.578 21.34 129.578 24.06ZM183.048 2.88H210.408V4.02H197.328V45H196.128V4.02H183.048V2.88ZM222.116 24C222.116 21.04 222.676 18.26 223.796 15.66C224.916 13.02 226.456 10.72 228.416 8.76C230.376 6.76 232.656 5.2 235.256 4.08C237.856 2.96 240.636 2.4 243.596 2.4C246.556 2.4 249.336 2.96 251.936 4.08C254.536 5.2 256.816 6.76 258.776 8.76C260.776 10.72 262.336 13.02 263.456 15.66C264.616 18.26 265.196 21.04 265.196 24C265.196 26.96 264.616 29.74 263.456 32.34C262.336 34.94 260.776 37.22 258.776 39.18C256.816 41.14 254.536 42.68 251.936 43.8C249.336 44.92 246.556 45.48 243.596 45.48C240.636 45.48 237.856 44.96 235.256 43.92C232.656 42.84 230.376 41.34 228.416 39.42C226.456 37.5 224.916 35.24 223.796 32.64C222.676 30 222.116 27.12 222.116 24ZM223.316 24.06C223.316 26.86 223.836 29.5 224.876 31.98C225.916 34.42 227.356 36.58 229.196 38.46C231.036 40.3 233.176 41.74 235.616 42.78C238.056 43.82 240.656 44.34 243.416 44.34C246.256 44.34 248.916 43.82 251.396 42.78C253.876 41.74 256.056 40.3 257.936 38.46C259.816 36.58 261.296 34.42 262.376 31.98C263.456 29.5 263.996 26.84 263.996 24C263.996 21.2 263.456 18.58 262.376 16.14C261.296 13.66 259.816 11.48 257.936 9.6C256.096 7.72 253.936 6.24 251.456 5.16C249.016 4.08 246.396 3.54 243.596 3.54C240.716 3.54 238.036 4.1 235.556 5.22C233.116 6.3 230.976 7.8 229.136 9.72C227.296 11.64 225.856 13.84 224.816 16.32C223.816 18.76 223.316 21.34 223.316 24.06ZM302.41 5.88C301.29 5.4 299.83 4.92 298.03 4.44C296.23 3.92 294.39 3.66 292.51 3.66C289.43 3.66 286.95 4.46 285.07 6.06C283.23 7.62 282.31 9.56 282.31 11.88C282.31 13.64 282.81 15.1 283.81 16.26C284.85 17.38 286.17 18.34 287.77 19.14C289.41 19.9 291.17 20.64 293.05 21.36C294.49 21.88 295.91 22.46 297.31 23.1C298.71 23.74 299.99 24.52 301.15 25.44C302.31 26.32 303.23 27.44 303.91 28.8C304.59 30.12 304.93 31.74 304.93 33.66C304.93 36.1 304.37 38.2 303.25 39.96C302.13 41.72 300.61 43.08 298.69 44.04C296.77 45 294.61 45.48 292.21 45.48C289.93 45.48 287.91 45.2 286.15 44.64C284.39 44.04 282.93 43.4 281.77 42.72C280.61 42.04 279.77 41.54 279.25 41.22L279.85 40.14C280.69 40.74 281.75 41.38 283.03 42.06C284.31 42.7 285.71 43.26 287.23 43.74C288.79 44.18 290.37 44.4 291.97 44.4C293.93 44.4 295.81 44.02 297.61 43.26C299.41 42.46 300.87 41.28 301.99 39.72C303.15 38.12 303.73 36.12 303.73 33.72C303.73 31.36 303.17 29.48 302.05 28.08C300.93 26.64 299.49 25.5 297.73 24.66C296.01 23.78 294.19 22.98 292.27 22.26C290.87 21.78 289.51 21.26 288.19 20.7C286.87 20.1 285.67 19.42 284.59 18.66C283.55 17.9 282.71 16.98 282.07 15.9C281.43 14.82 281.11 13.54 281.11 12.06C281.11 10.18 281.61 8.54 282.61 7.14C283.61 5.74 284.95 4.64 286.63 3.84C288.35 3.04 290.27 2.64 292.39 2.64C293.91 2.64 295.67 2.86 297.67 3.3C299.71 3.74 301.45 4.3 302.89 4.98L302.41 5.88Z" fill="#5D5C61"/>
<path d="M56.9 2.88C59.22 2.88 61.28 3.28 63.08 4.08C64.92 4.88 66.36 6.12 67.4 7.8C68.44 9.44 68.96 11.54 68.96 14.1C68.96 15.62 68.7 17.1 68.18 18.54C67.7 19.94 66.94 21.2 65.9 22.32C64.86 23.44 63.52 24.34 61.88 25.02C60.24 25.66 58.28 25.98 56 25.98H49.34V45H48.14V2.88H56.9ZM56 24.84C58.32 24.84 60.24 24.48 61.76 23.76C63.32 23.04 64.52 22.12 65.36 21C66.24 19.88 66.86 18.7 67.22 17.46C67.62 16.22 67.82 15.06 67.82 13.98C67.82 12.38 67.54 10.96 66.98 9.72C66.46 8.48 65.72 7.44 64.76 6.6C63.8 5.76 62.64 5.12 61.28 4.68C59.92 4.24 58.44 4.02 56.84 4.02H49.34V24.84H56ZM115.836 2.88V45H114.636V24.36H87.1564V45H85.9564V2.88H87.1564V23.22H114.636V2.88H115.836ZM133.378 24C133.378 21.04 133.938 18.26 135.058 15.66C136.178 13.02 137.718 10.72 139.678 8.76C141.638 6.76 143.918 5.2 146.518 4.08C149.118 2.96 151.898 2.4 154.858 2.4C157.818 2.4 160.598 2.96 163.198 4.08C165.798 5.2 168.078 6.76 170.038 8.76C172.038 10.72 173.598 13.02 174.718 15.66C175.878 18.26 176.458 21.04 176.458 24C176.458 26.96 175.878 29.74 174.718 32.34C173.598 34.94 172.038 37.22 170.038 39.18C168.078 41.14 165.798 42.68 163.198 43.8C160.598 44.92 157.818 45.48 154.858 45.48C151.898 45.48 149.118 44.96 146.518 43.92C143.918 42.84 141.638 41.34 139.678 39.42C137.718 37.5 136.178 35.24 135.058 32.64C133.938 30 133.378 27.12 133.378 24ZM134.578 24.06C134.578 26.86 135.098 29.5 136.138 31.98C137.178 34.42 138.618 36.58 140.458 38.46C142.298 40.3 144.438 41.74 146.878 42.78C149.318 43.82 151.918 44.34 154.678 44.34C157.518 44.34 160.178 43.82 162.658 42.78C165.138 41.74 167.318 40.3 169.198 38.46C171.078 36.58 172.558 34.42 173.638 31.98C174.718 29.5 175.258 26.84 175.258 24C175.258 21.2 174.718 18.58 173.638 16.14C172.558 13.66 171.078 11.48 169.198 9.6C167.358 7.72 165.198 6.24 162.718 5.16C160.278 4.08 157.658 3.54 154.858 3.54C151.978 3.54 149.298 4.1 146.818 5.22C144.378 6.3 142.238 7.8 140.398 9.72C138.558 11.64 137.118 13.84 136.078 16.32C135.078 18.76 134.578 21.34 134.578 24.06ZM188.048 2.88H215.408V4.02H202.328V45H201.128V4.02H188.048V2.88ZM227.116 24C227.116 21.04 227.676 18.26 228.796 15.66C229.916 13.02 231.456 10.72 233.416 8.76C235.376 6.76 237.656 5.2 240.256 4.08C242.856 2.96 245.636 2.4 248.596 2.4C251.556 2.4 254.336 2.96 256.936 4.08C259.536 5.2 261.816 6.76 263.776 8.76C265.776 10.72 267.336 13.02 268.456 15.66C269.616 18.26 270.196 21.04 270.196 24C270.196 26.96 269.616 29.74 268.456 32.34C267.336 34.94 265.776 37.22 263.776 39.18C261.816 41.14 259.536 42.68 256.936 43.8C254.336 44.92 251.556 45.48 248.596 45.48C245.636 45.48 242.856 44.96 240.256 43.92C237.656 42.84 235.376 41.34 233.416 39.42C231.456 37.5 229.916 35.24 228.796 32.64C227.676 30 227.116 27.12 227.116 24ZM228.316 24.06C228.316 26.86 228.836 29.5 229.876 31.98C230.916 34.42 232.356 36.58 234.196 38.46C236.036 40.3 238.176 41.74 240.616 42.78C243.056 43.82 245.656 44.34 248.416 44.34C251.256 44.34 253.916 43.82 256.396 42.78C258.876 41.74 261.056 40.3 262.936 38.46C264.816 36.58 266.296 34.42 267.376 31.98C268.456 29.5 268.996 26.84 268.996 24C268.996 21.2 268.456 18.58 267.376 16.14C266.296 13.66 264.816 11.48 262.936 9.6C261.096 7.72 258.936 6.24 256.456 5.16C254.016 4.08 251.396 3.54 248.596 3.54C245.716 3.54 243.036 4.1 240.556 5.22C238.116 6.3 235.976 7.8 234.136 9.72C232.296 11.64 230.856 13.84 229.816 16.32C228.816 18.76 228.316 21.34 228.316 24.06ZM307.41 5.88C306.29 5.4 304.83 4.92 303.03 4.44C301.23 3.92 299.39 3.66 297.51 3.66C294.43 3.66 291.95 4.46 290.07 6.06C288.23 7.62 287.31 9.56 287.31 11.88C287.31 13.64 287.81 15.1 288.81 16.26C289.85 17.38 291.17 18.34 292.77 19.14C294.41 19.9 296.17 20.64 298.05 21.36C299.49 21.88 300.91 22.46 302.31 23.1C303.71 23.74 304.99 24.52 306.15 25.44C307.31 26.32 308.23 27.44 308.91 28.8C309.59 30.12 309.93 31.74 309.93 33.66C309.93 36.1 309.37 38.2 308.25 39.96C307.13 41.72 305.61 43.08 303.69 44.04C301.77 45 299.61 45.48 297.21 45.48C294.93 45.48 292.91 45.2 291.15 44.64C289.39 44.04 287.93 43.4 286.77 42.72C285.61 42.04 284.77 41.54 284.25 41.22L284.85 40.14C285.69 40.74 286.75 41.38 288.03 42.06C289.31 42.7 290.71 43.26 292.23 43.74C293.79 44.18 295.37 44.4 296.97 44.4C298.93 44.4 300.81 44.02 302.61 43.26C304.41 42.46 305.87 41.28 306.99 39.72C308.15 38.12 308.73 36.12 308.73 33.72C308.73 31.36 308.17 29.48 307.05 28.08C305.93 26.64 304.49 25.5 302.73 24.66C301.01 23.78 299.19 22.98 297.27 22.26C295.87 21.78 294.51 21.26 293.19 20.7C291.87 20.1 290.67 19.42 289.59 18.66C288.55 17.9 287.71 16.98 287.07 15.9C286.43 14.82 286.11 13.54 286.11 12.06C286.11 10.18 286.61 8.54 287.61 7.14C288.61 5.74 289.95 4.64 291.63 3.84C293.35 3.04 295.27 2.64 297.39 2.64C298.91 2.64 300.67 2.86 302.67 3.3C304.71 3.74 306.45 4.3 307.89 4.98L307.41 5.88Z" fill="#5D5C61"/>
<line x1="0.5" y1="22.5" x2="19.5" y2="22.5" stroke="#B3292C" stroke-linecap="round"/>
<line x1="0.5" y1="28.5" x2="19.5" y2="28.5" stroke="#B3292C" stroke-linecap="round"/>
</svg>
