<svg width="287" height="61" viewBox="0 0 287 61" fill="none" xmlns="http://www.w3.org/2000/svg">
<path opacity="0.2" d="M39 23.98C39 20.94 39.58 18.06 40.74 15.34C41.9 12.62 43.5 10.22 45.54 8.14C47.62 6.02 50.02 4.36 52.74 3.16C55.46 1.96 58.38 1.36 61.5 1.36C64.58 1.36 67.48 1.96 70.2 3.16C72.92 4.36 75.32 6.02 77.4 8.14C79.52 10.22 81.16 12.62 82.32 15.34C83.52 18.06 84.12 20.94 84.12 23.98C84.12 27.1 83.52 30.02 82.32 32.74C81.16 35.46 79.52 37.86 77.4 39.94C75.32 41.98 72.92 43.58 70.2 44.74C67.48 45.9 64.58 46.48 61.5 46.48C58.38 46.48 55.46 45.9 52.74 44.74C50.02 43.58 47.62 41.98 45.54 39.94C43.5 37.86 41.9 35.46 40.74 32.74C39.58 30.02 39 27.1 39 23.98ZM48 23.98C48 25.94 48.34 27.78 49.02 29.5C49.74 31.18 50.72 32.68 51.96 34C53.24 35.28 54.7 36.28 56.34 37C58.02 37.72 59.84 38.08 61.8 38.08C63.68 38.08 65.42 37.72 67.02 37C68.66 36.28 70.08 35.28 71.28 34C72.48 32.68 73.42 31.18 74.1 29.5C74.78 27.78 75.12 25.94 75.12 23.98C75.12 21.98 74.76 20.12 74.04 18.4C73.36 16.68 72.4 15.18 71.16 13.9C69.96 12.58 68.54 11.56 66.9 10.84C65.26 10.12 63.48 9.76 61.56 9.76C59.64 9.76 57.86 10.12 56.22 10.84C54.58 11.56 53.14 12.58 51.9 13.9C50.66 15.18 49.7 16.68 49.02 18.4C48.34 20.12 48 21.98 48 23.98ZM137.734 47.8L104.254 17.56L106.834 19L107.014 46H98.1938V0.0999973H98.5538L131.314 30.22L129.394 29.38L129.214 1.84H137.974V47.8H137.734ZM152.286 28.6H163.566V35.92H152.286V28.6ZM173.506 46L193.426 0.0999973H193.906L213.826 46H203.746L191.026 13.72L197.326 9.4L182.086 46H173.506ZM187.126 30.04H200.386L203.446 37.36H184.426L187.126 30.04ZM225.663 1.84H234.363V46H225.663V1.84ZM264.541 1.84C267.301 1.84 269.761 2.2 271.921 2.92C274.081 3.6 275.881 4.6 277.321 5.92C278.801 7.2 279.921 8.76 280.681 10.6C281.441 12.4 281.821 14.44 281.821 16.72C281.821 18.52 281.541 20.32 280.981 22.12C280.461 23.92 279.581 25.56 278.341 27.04C277.141 28.52 275.541 29.72 273.541 30.64C271.541 31.52 269.061 31.96 266.101 31.96H259.861V46H251.161V1.84H264.541ZM266.041 23.56C267.361 23.56 268.461 23.34 269.341 22.9C270.221 22.46 270.901 21.9 271.381 21.22C271.901 20.54 272.261 19.84 272.461 19.12C272.701 18.36 272.821 17.66 272.821 17.02C272.821 16.54 272.741 15.94 272.581 15.22C272.461 14.46 272.181 13.7 271.741 12.94C271.301 12.18 270.621 11.54 269.701 11.02C268.821 10.5 267.621 10.24 266.101 10.24H259.861V23.56H266.041ZM274.201 28.96L285.121 46H274.981L263.821 29.2L274.201 28.96Z" fill="#5D5C61"/>
<path d="M40.44 25C40.44 22.04 41 19.26 42.12 16.66C43.24 14.02 44.78 11.72 46.74 9.76C48.7 7.76 50.98 6.2 53.58 5.08C56.18 3.96 58.96 3.4 61.92 3.4C64.88 3.4 67.66 3.96 70.26 5.08C72.86 6.2 75.14 7.76 77.1 9.76C79.1 11.72 80.66 14.02 81.78 16.66C82.94 19.26 83.52 22.04 83.52 25C83.52 27.96 82.94 30.74 81.78 33.34C80.66 35.94 79.1 38.22 77.1 40.18C75.14 42.14 72.86 43.68 70.26 44.8C67.66 45.92 64.88 46.48 61.92 46.48C58.96 46.48 56.18 45.96 53.58 44.92C50.98 43.84 48.7 42.34 46.74 40.42C44.78 38.5 43.24 36.24 42.12 33.64C41 31 40.44 28.12 40.44 25ZM41.64 25.06C41.64 27.86 42.16 30.5 43.2 32.98C44.24 35.42 45.68 37.58 47.52 39.46C49.36 41.3 51.5 42.74 53.94 43.78C56.38 44.82 58.98 45.34 61.74 45.34C64.58 45.34 67.24 44.82 69.72 43.78C72.2 42.74 74.38 41.3 76.26 39.46C78.14 37.58 79.62 35.42 80.7 32.98C81.78 30.5 82.32 27.84 82.32 25C82.32 22.2 81.78 19.58 80.7 17.14C79.62 14.66 78.14 12.48 76.26 10.6C74.42 8.72 72.26 7.24 69.78 6.16C67.34 5.08 64.72 4.54 61.92 4.54C59.04 4.54 56.36 5.1 53.88 6.22C51.44 7.3 49.3 8.8 47.46 10.72C45.62 12.64 44.18 14.84 43.14 17.32C42.14 19.76 41.64 22.34 41.64 25.06ZM135.494 46.78L101.894 6.04L102.194 5.44L102.254 46H101.054V3.22H101.114L135.014 44.38L134.414 44.32V3.88H135.554V46.78H135.494ZM151.903 33.88H162.943V35.02H151.903V33.88ZM176.491 46L193.951 1.96H194.071L211.531 46H210.211L193.651 3.94L194.431 3.76L177.691 46H176.491ZM183.751 29.14H204.331L204.451 30.22H183.631L183.751 29.14ZM228.39 3.88H229.59V46H228.39V3.88ZM258.499 3.88C259.699 3.88 260.999 4.08 262.399 4.48C263.839 4.88 265.179 5.52 266.419 6.4C267.699 7.28 268.739 8.44 269.539 9.88C270.339 11.28 270.739 13.02 270.739 15.1C270.739 16.62 270.499 18.1 270.019 19.54C269.539 20.94 268.779 22.2 267.739 23.32C266.739 24.44 265.419 25.34 263.779 26.02C262.139 26.66 260.119 26.98 257.719 26.98H251.059V46H249.859V3.88H258.499ZM257.539 25.84C259.939 25.84 261.899 25.52 263.419 24.88C264.979 24.24 266.199 23.4 267.079 22.36C267.959 21.32 268.579 20.18 268.939 18.94C269.339 17.66 269.539 16.4 269.539 15.16C269.539 13.68 269.239 12.32 268.639 11.08C268.079 9.8 267.299 8.72 266.299 7.84C265.299 6.92 264.139 6.22 262.819 5.74C261.499 5.26 260.079 5.02 258.559 5.02H251.059V25.84H257.539ZM263.059 25.9L275.119 46H273.739L261.679 25.9H263.059Z" fill="#5D5C61"/>
<path d="M45.44 25C45.44 22.04 46 19.26 47.12 16.66C48.24 14.02 49.78 11.72 51.74 9.76C53.7 7.76 55.98 6.2 58.58 5.08C61.18 3.96 63.96 3.4 66.92 3.4C69.88 3.4 72.66 3.96 75.26 5.08C77.86 6.2 80.14 7.76 82.1 9.76C84.1 11.72 85.66 14.02 86.78 16.66C87.94 19.26 88.52 22.04 88.52 25C88.52 27.96 87.94 30.74 86.78 33.34C85.66 35.94 84.1 38.22 82.1 40.18C80.14 42.14 77.86 43.68 75.26 44.8C72.66 45.92 69.88 46.48 66.92 46.48C63.96 46.48 61.18 45.96 58.58 44.92C55.98 43.84 53.7 42.34 51.74 40.42C49.78 38.5 48.24 36.24 47.12 33.64C46 31 45.44 28.12 45.44 25ZM46.64 25.06C46.64 27.86 47.16 30.5 48.2 32.98C49.24 35.42 50.68 37.58 52.52 39.46C54.36 41.3 56.5 42.74 58.94 43.78C61.38 44.82 63.98 45.34 66.74 45.34C69.58 45.34 72.24 44.82 74.72 43.78C77.2 42.74 79.38 41.3 81.26 39.46C83.14 37.58 84.62 35.42 85.7 32.98C86.78 30.5 87.32 27.84 87.32 25C87.32 22.2 86.78 19.58 85.7 17.14C84.62 14.66 83.14 12.48 81.26 10.6C79.42 8.72 77.26 7.24 74.78 6.16C72.34 5.08 69.72 4.54 66.92 4.54C64.04 4.54 61.36 5.1 58.88 6.22C56.44 7.3 54.3 8.8 52.46 10.72C50.62 12.64 49.18 14.84 48.14 17.32C47.14 19.76 46.64 22.34 46.64 25.06ZM140.494 46.78L106.894 6.04L107.194 5.44L107.254 46H106.054V3.22H106.114L140.014 44.38L139.414 44.32V3.88H140.554V46.78H140.494ZM156.903 33.88H167.943V35.02H156.903V33.88ZM181.491 46L198.951 1.96H199.071L216.531 46H215.211L198.651 3.94L199.431 3.76L182.691 46H181.491ZM188.751 29.14H209.331L209.451 30.22H188.631L188.751 29.14ZM233.39 3.88H234.59V46H233.39V3.88ZM263.499 3.88C264.699 3.88 265.999 4.08 267.399 4.48C268.839 4.88 270.179 5.52 271.419 6.4C272.699 7.28 273.739 8.44 274.539 9.88C275.339 11.28 275.739 13.02 275.739 15.1C275.739 16.62 275.499 18.1 275.019 19.54C274.539 20.94 273.779 22.2 272.739 23.32C271.739 24.44 270.419 25.34 268.779 26.02C267.139 26.66 265.119 26.98 262.719 26.98H256.059V46H254.859V3.88H263.499ZM262.539 25.84C264.939 25.84 266.899 25.52 268.419 24.88C269.979 24.24 271.199 23.4 272.079 22.36C272.959 21.32 273.579 20.18 273.939 18.94C274.339 17.66 274.539 16.4 274.539 15.16C274.539 13.68 274.239 12.32 273.639 11.08C273.079 9.8 272.299 8.72 271.299 7.84C270.299 6.92 269.139 6.22 267.819 5.74C266.499 5.26 265.079 5.02 263.559 5.02H256.059V25.84H262.539ZM268.059 25.9L280.119 46H278.739L266.679 25.9H268.059Z" fill="#5D5C61"/>
<line x1="0.5" y1="23.5" x2="19.5" y2="23.5" stroke="#B3292C" stroke-linecap="round"/>
<line x1="0.5" y1="29.5" x2="19.5" y2="29.5" stroke="#B3292C" stroke-linecap="round"/>
</svg>
