<svg width="247" height="60" viewBox="0 0 247 60" fill="none" xmlns="http://www.w3.org/2000/svg">
<path opacity="0.2" d="M55.08 0.839996C58.72 0.839996 61.8 1.46 64.32 2.7C66.84 3.9 68.76 5.62 70.08 7.86C71.4 10.06 72.06 12.68 72.06 15.72C72.06 17.52 71.78 19.34 71.22 21.18C70.7 22.98 69.84 24.62 68.64 26.1C67.48 27.58 65.9 28.78 63.9 29.7C61.94 30.58 59.52 31.02 56.64 31.02H50.4V45H41.7V0.839996H55.08ZM56.58 22.56C57.9 22.56 59 22.34 59.88 21.9C60.76 21.42 61.44 20.84 61.92 20.16C62.44 19.44 62.8 18.7 63 17.94C63.24 17.18 63.36 16.52 63.36 15.96C63.36 15.52 63.28 14.94 63.12 14.22C63 13.46 62.72 12.7 62.28 11.94C61.84 11.18 61.16 10.54 60.24 10.02C59.36 9.5 58.16 9.24 56.64 9.24H50.4V22.56H56.58ZM98.6245 0.839996C101.385 0.839996 103.845 1.2 106.005 1.92C108.165 2.6 109.965 3.6 111.405 4.92C112.885 6.2 114.005 7.76 114.765 9.6C115.525 11.4 115.905 13.44 115.905 15.72C115.905 17.52 115.625 19.32 115.065 21.12C114.545 22.92 113.665 24.56 112.425 26.04C111.225 27.52 109.625 28.72 107.625 29.64C105.625 30.52 103.145 30.96 100.185 30.96H93.9445V45H85.2445V0.839996H98.6245ZM100.125 22.56C101.445 22.56 102.545 22.34 103.425 21.9C104.305 21.46 104.985 20.9 105.465 20.22C105.985 19.54 106.345 18.84 106.545 18.12C106.785 17.36 106.905 16.66 106.905 16.02C106.905 15.54 106.825 14.94 106.665 14.22C106.545 13.46 106.265 12.7 105.825 11.94C105.385 11.18 104.705 10.54 103.785 10.02C102.905 9.5 101.705 9.24 100.185 9.24H93.9445V22.56H100.125ZM108.285 27.96L119.205 45H109.065L97.9045 28.2L108.285 27.96ZM131.777 0.839996H161.897V9.24H140.477V18.66H159.437V27.06H140.477V36.6H162.737V45H131.777V0.839996ZM200.718 11.52C199.038 10.6 197.318 9.84 195.558 9.24C193.838 8.64 192.218 8.34 190.698 8.34C188.818 8.34 187.338 8.72 186.258 9.48C185.178 10.24 184.638 11.38 184.638 12.9C184.638 13.94 185.038 14.88 185.838 15.72C186.678 16.52 187.738 17.24 189.018 17.88C190.338 18.52 191.698 19.1 193.098 19.62C194.378 20.1 195.638 20.68 196.878 21.36C198.158 22 199.298 22.82 200.298 23.82C201.298 24.78 202.098 26 202.698 27.48C203.298 28.92 203.598 30.7 203.598 32.82C203.598 35.06 203.018 37.14 201.858 39.06C200.698 40.98 198.998 42.54 196.758 43.74C194.518 44.9 191.758 45.48 188.478 45.48C186.798 45.48 185.078 45.32 183.318 45C181.598 44.64 179.898 44.12 178.218 43.44C176.538 42.72 174.918 41.82 173.358 40.74L177.198 33.96C178.238 34.72 179.358 35.4 180.558 36C181.798 36.56 183.038 37 184.278 37.32C185.518 37.64 186.658 37.8 187.698 37.8C188.738 37.8 189.778 37.66 190.818 37.38C191.898 37.06 192.778 36.54 193.458 35.82C194.178 35.1 194.538 34.1 194.538 32.82C194.538 31.94 194.238 31.14 193.638 30.42C193.078 29.7 192.298 29.04 191.298 28.44C190.338 27.84 189.278 27.32 188.118 26.88C186.758 26.36 185.358 25.76 183.918 25.08C182.478 24.4 181.118 23.58 179.838 22.62C178.598 21.62 177.578 20.4 176.778 18.96C176.018 17.48 175.638 15.68 175.638 13.56C175.638 11 176.198 8.78 177.318 6.9C178.478 5.02 180.098 3.54 182.178 2.46C184.258 1.34 186.658 0.719998 189.378 0.599999C192.938 0.599999 195.818 1.02 198.018 1.86C200.258 2.7 202.258 3.7 204.018 4.86L200.718 11.52ZM241.099 11.52C239.419 10.6 237.699 9.84 235.939 9.24C234.219 8.64 232.599 8.34 231.079 8.34C229.199 8.34 227.719 8.72 226.639 9.48C225.559 10.24 225.019 11.38 225.019 12.9C225.019 13.94 225.419 14.88 226.219 15.72C227.059 16.52 228.119 17.24 229.399 17.88C230.719 18.52 232.079 19.1 233.479 19.62C234.759 20.1 236.019 20.68 237.259 21.36C238.539 22 239.679 22.82 240.679 23.82C241.679 24.78 242.479 26 243.079 27.48C243.679 28.92 243.979 30.7 243.979 32.82C243.979 35.06 243.399 37.14 242.239 39.06C241.079 40.98 239.379 42.54 237.139 43.74C234.899 44.9 232.139 45.48 228.859 45.48C227.179 45.48 225.459 45.32 223.699 45C221.979 44.64 220.279 44.12 218.599 43.44C216.919 42.72 215.299 41.82 213.739 40.74L217.579 33.96C218.619 34.72 219.739 35.4 220.939 36C222.179 36.56 223.419 37 224.659 37.32C225.899 37.64 227.039 37.8 228.079 37.8C229.119 37.8 230.159 37.66 231.199 37.38C232.279 37.06 233.159 36.54 233.839 35.82C234.559 35.1 234.919 34.1 234.919 32.82C234.919 31.94 234.619 31.14 234.019 30.42C233.459 29.7 232.679 29.04 231.679 28.44C230.719 27.84 229.659 27.32 228.499 26.88C227.139 26.36 225.739 25.76 224.299 25.08C222.859 24.4 221.499 23.58 220.219 22.62C218.979 21.62 217.959 20.4 217.159 18.96C216.399 17.48 216.019 15.68 216.019 13.56C216.019 11 216.579 8.78 217.699 6.9C218.859 5.02 220.479 3.54 222.559 2.46C224.639 1.34 227.039 0.719998 229.759 0.599999C233.319 0.599999 236.199 1.02 238.399 1.86C240.639 2.7 242.639 3.7 244.399 4.86L241.099 11.52Z" fill="#5D5C61"/>
<path d="M51.9 2.88C54.22 2.88 56.28 3.28 58.08 4.08C59.92 4.88 61.36 6.12 62.4 7.8C63.44 9.44 63.96 11.54 63.96 14.1C63.96 15.62 63.7 17.1 63.18 18.54C62.7 19.94 61.94 21.2 60.9 22.32C59.86 23.44 58.52 24.34 56.88 25.02C55.24 25.66 53.28 25.98 51 25.98H44.34V45H43.14V2.88H51.9ZM51 24.84C53.32 24.84 55.24 24.48 56.76 23.76C58.32 23.04 59.52 22.12 60.36 21C61.24 19.88 61.86 18.7 62.22 17.46C62.62 16.22 62.82 15.06 62.82 13.98C62.82 12.38 62.54 10.96 61.98 9.72C61.46 8.48 60.72 7.44 59.76 6.6C58.8 5.76 57.64 5.12 56.28 4.68C54.92 4.24 53.44 4.02 51.84 4.02H44.34V24.84H51ZM89.5964 2.88C90.7964 2.88 92.0964 3.08 93.4964 3.48C94.9364 3.88 96.2764 4.52 97.5164 5.4C98.7964 6.28 99.8364 7.44 100.636 8.88C101.436 10.28 101.836 12.02 101.836 14.1C101.836 15.62 101.596 17.1 101.116 18.54C100.636 19.94 99.8764 21.2 98.8364 22.32C97.8364 23.44 96.5164 24.34 94.8764 25.02C93.2364 25.66 91.2164 25.98 88.8164 25.98H82.1564V45H80.9564V2.88H89.5964ZM88.6364 24.84C91.0364 24.84 92.9964 24.52 94.5164 23.88C96.0764 23.24 97.2964 22.4 98.1764 21.36C99.0564 20.32 99.6764 19.18 100.036 17.94C100.436 16.66 100.636 15.4 100.636 14.16C100.636 12.68 100.336 11.32 99.7364 10.08C99.1764 8.8 98.3964 7.72 97.3964 6.84C96.3964 5.92 95.2364 5.22 93.9164 4.74C92.5964 4.26 91.1764 4.02 89.6564 4.02H82.1564V24.84H88.6364ZM94.1564 24.9L106.216 45H104.836L92.7764 24.9H94.1564ZM123.988 2.88H149.128V4.02H125.188V23.16H146.788V24.3H125.188V43.86H149.968V45H123.988V2.88ZM187.519 5.88C186.399 5.4 184.939 4.92 183.139 4.44C181.339 3.92 179.499 3.66 177.619 3.66C174.539 3.66 172.059 4.46 170.179 6.06C168.339 7.62 167.419 9.56 167.419 11.88C167.419 13.64 167.919 15.1 168.919 16.26C169.959 17.38 171.279 18.34 172.879 19.14C174.519 19.9 176.279 20.64 178.159 21.36C179.599 21.88 181.019 22.46 182.419 23.1C183.819 23.74 185.099 24.52 186.259 25.44C187.419 26.32 188.339 27.44 189.019 28.8C189.699 30.12 190.039 31.74 190.039 33.66C190.039 36.1 189.479 38.2 188.359 39.96C187.239 41.72 185.719 43.08 183.799 44.04C181.879 45 179.719 45.48 177.319 45.48C175.039 45.48 173.019 45.2 171.259 44.64C169.499 44.04 168.039 43.4 166.879 42.72C165.719 42.04 164.879 41.54 164.359 41.22L164.959 40.14C165.799 40.74 166.859 41.38 168.139 42.06C169.419 42.7 170.819 43.26 172.339 43.74C173.899 44.18 175.479 44.4 177.079 44.4C179.039 44.4 180.919 44.02 182.719 43.26C184.519 42.46 185.979 41.28 187.099 39.72C188.259 38.12 188.839 36.12 188.839 33.72C188.839 31.36 188.279 29.48 187.159 28.08C186.039 26.64 184.599 25.5 182.839 24.66C181.119 23.78 179.299 22.98 177.379 22.26C175.979 21.78 174.619 21.26 173.299 20.7C171.979 20.1 170.779 19.42 169.699 18.66C168.659 17.9 167.819 16.98 167.179 15.9C166.539 14.82 166.219 13.54 166.219 12.06C166.219 10.18 166.719 8.54 167.719 7.14C168.719 5.74 170.059 4.64 171.739 3.84C173.459 3.04 175.379 2.64 177.499 2.64C179.019 2.64 180.779 2.86 182.779 3.3C184.819 3.74 186.559 4.3 187.999 4.98L187.519 5.88ZM226.566 5.88C225.446 5.4 223.986 4.92 222.186 4.44C220.386 3.92 218.546 3.66 216.666 3.66C213.586 3.66 211.106 4.46 209.226 6.06C207.386 7.62 206.466 9.56 206.466 11.88C206.466 13.64 206.966 15.1 207.966 16.26C209.006 17.38 210.326 18.34 211.926 19.14C213.566 19.9 215.326 20.64 217.206 21.36C218.646 21.88 220.066 22.46 221.466 23.1C222.866 23.74 224.146 24.52 225.306 25.44C226.466 26.32 227.386 27.44 228.066 28.8C228.746 30.12 229.086 31.74 229.086 33.66C229.086 36.1 228.526 38.2 227.406 39.96C226.286 41.72 224.766 43.08 222.846 44.04C220.926 45 218.766 45.48 216.366 45.48C214.086 45.48 212.066 45.2 210.306 44.64C208.546 44.04 207.086 43.4 205.926 42.72C204.766 42.04 203.926 41.54 203.406 41.22L204.006 40.14C204.846 40.74 205.906 41.38 207.186 42.06C208.466 42.7 209.866 43.26 211.386 43.74C212.946 44.18 214.526 44.4 216.126 44.4C218.086 44.4 219.966 44.02 221.766 43.26C223.566 42.46 225.026 41.28 226.146 39.72C227.306 38.12 227.886 36.12 227.886 33.72C227.886 31.36 227.326 29.48 226.206 28.08C225.086 26.64 223.646 25.5 221.886 24.66C220.166 23.78 218.346 22.98 216.426 22.26C215.026 21.78 213.666 21.26 212.346 20.7C211.026 20.1 209.826 19.42 208.746 18.66C207.706 17.9 206.866 16.98 206.226 15.9C205.586 14.82 205.266 13.54 205.266 12.06C205.266 10.18 205.766 8.54 206.766 7.14C207.766 5.74 209.106 4.64 210.786 3.84C212.506 3.04 214.426 2.64 216.546 2.64C218.066 2.64 219.826 2.86 221.826 3.3C223.866 3.74 225.606 4.3 227.046 4.98L226.566 5.88Z" fill="#5D5C61"/>
<path d="M56.9 2.88C59.22 2.88 61.28 3.28 63.08 4.08C64.92 4.88 66.36 6.12 67.4 7.8C68.44 9.44 68.96 11.54 68.96 14.1C68.96 15.62 68.7 17.1 68.18 18.54C67.7 19.94 66.94 21.2 65.9 22.32C64.86 23.44 63.52 24.34 61.88 25.02C60.24 25.66 58.28 25.98 56 25.98H49.34V45H48.14V2.88H56.9ZM56 24.84C58.32 24.84 60.24 24.48 61.76 23.76C63.32 23.04 64.52 22.12 65.36 21C66.24 19.88 66.86 18.7 67.22 17.46C67.62 16.22 67.82 15.06 67.82 13.98C67.82 12.38 67.54 10.96 66.98 9.72C66.46 8.48 65.72 7.44 64.76 6.6C63.8 5.76 62.64 5.12 61.28 4.68C59.92 4.24 58.44 4.02 56.84 4.02H49.34V24.84H56ZM94.5964 2.88C95.7964 2.88 97.0964 3.08 98.4964 3.48C99.9364 3.88 101.276 4.52 102.516 5.4C103.796 6.28 104.836 7.44 105.636 8.88C106.436 10.28 106.836 12.02 106.836 14.1C106.836 15.62 106.596 17.1 106.116 18.54C105.636 19.94 104.876 21.2 103.836 22.32C102.836 23.44 101.516 24.34 99.8764 25.02C98.2364 25.66 96.2164 25.98 93.8164 25.98H87.1564V45H85.9564V2.88H94.5964ZM93.6364 24.84C96.0364 24.84 97.9964 24.52 99.5164 23.88C101.076 23.24 102.296 22.4 103.176 21.36C104.056 20.32 104.676 19.18 105.036 17.94C105.436 16.66 105.636 15.4 105.636 14.16C105.636 12.68 105.336 11.32 104.736 10.08C104.176 8.8 103.396 7.72 102.396 6.84C101.396 5.92 100.236 5.22 98.9164 4.74C97.5964 4.26 96.1764 4.02 94.6564 4.02H87.1564V24.84H93.6364ZM99.1564 24.9L111.216 45H109.836L97.7764 24.9H99.1564ZM128.988 2.88H154.128V4.02H130.188V23.16H151.788V24.3H130.188V43.86H154.968V45H128.988V2.88ZM192.519 5.88C191.399 5.4 189.939 4.92 188.139 4.44C186.339 3.92 184.499 3.66 182.619 3.66C179.539 3.66 177.059 4.46 175.179 6.06C173.339 7.62 172.419 9.56 172.419 11.88C172.419 13.64 172.919 15.1 173.919 16.26C174.959 17.38 176.279 18.34 177.879 19.14C179.519 19.9 181.279 20.64 183.159 21.36C184.599 21.88 186.019 22.46 187.419 23.1C188.819 23.74 190.099 24.52 191.259 25.44C192.419 26.32 193.339 27.44 194.019 28.8C194.699 30.12 195.039 31.74 195.039 33.66C195.039 36.1 194.479 38.2 193.359 39.96C192.239 41.72 190.719 43.08 188.799 44.04C186.879 45 184.719 45.48 182.319 45.48C180.039 45.48 178.019 45.2 176.259 44.64C174.499 44.04 173.039 43.4 171.879 42.72C170.719 42.04 169.879 41.54 169.359 41.22L169.959 40.14C170.799 40.74 171.859 41.38 173.139 42.06C174.419 42.7 175.819 43.26 177.339 43.74C178.899 44.18 180.479 44.4 182.079 44.4C184.039 44.4 185.919 44.02 187.719 43.26C189.519 42.46 190.979 41.28 192.099 39.72C193.259 38.12 193.839 36.12 193.839 33.72C193.839 31.36 193.279 29.48 192.159 28.08C191.039 26.64 189.599 25.5 187.839 24.66C186.119 23.78 184.299 22.98 182.379 22.26C180.979 21.78 179.619 21.26 178.299 20.7C176.979 20.1 175.779 19.42 174.699 18.66C173.659 17.9 172.819 16.98 172.179 15.9C171.539 14.82 171.219 13.54 171.219 12.06C171.219 10.18 171.719 8.54 172.719 7.14C173.719 5.74 175.059 4.64 176.739 3.84C178.459 3.04 180.379 2.64 182.499 2.64C184.019 2.64 185.779 2.86 187.779 3.3C189.819 3.74 191.559 4.3 192.999 4.98L192.519 5.88ZM231.566 5.88C230.446 5.4 228.986 4.92 227.186 4.44C225.386 3.92 223.546 3.66 221.666 3.66C218.586 3.66 216.106 4.46 214.226 6.06C212.386 7.62 211.466 9.56 211.466 11.88C211.466 13.64 211.966 15.1 212.966 16.26C214.006 17.38 215.326 18.34 216.926 19.14C218.566 19.9 220.326 20.64 222.206 21.36C223.646 21.88 225.066 22.46 226.466 23.1C227.866 23.74 229.146 24.52 230.306 25.44C231.466 26.32 232.386 27.44 233.066 28.8C233.746 30.12 234.086 31.74 234.086 33.66C234.086 36.1 233.526 38.2 232.406 39.96C231.286 41.72 229.766 43.08 227.846 44.04C225.926 45 223.766 45.48 221.366 45.48C219.086 45.48 217.066 45.2 215.306 44.64C213.546 44.04 212.086 43.4 210.926 42.72C209.766 42.04 208.926 41.54 208.406 41.22L209.006 40.14C209.846 40.74 210.906 41.38 212.186 42.06C213.466 42.7 214.866 43.26 216.386 43.74C217.946 44.18 219.526 44.4 221.126 44.4C223.086 44.4 224.966 44.02 226.766 43.26C228.566 42.46 230.026 41.28 231.146 39.72C232.306 38.12 232.886 36.12 232.886 33.72C232.886 31.36 232.326 29.48 231.206 28.08C230.086 26.64 228.646 25.5 226.886 24.66C225.166 23.78 223.346 22.98 221.426 22.26C220.026 21.78 218.666 21.26 217.346 20.7C216.026 20.1 214.826 19.42 213.746 18.66C212.706 17.9 211.866 16.98 211.226 15.9C210.586 14.82 210.266 13.54 210.266 12.06C210.266 10.18 210.766 8.54 211.766 7.14C212.766 5.74 214.106 4.64 215.786 3.84C217.506 3.04 219.426 2.64 221.546 2.64C223.066 2.64 224.826 2.86 226.826 3.3C228.866 3.74 230.606 4.3 232.046 4.98L231.566 5.88Z" fill="#5D5C61"/>
<line x1="0.5" y1="22.5" x2="19.5" y2="22.5" stroke="#B3292C" stroke-linecap="round"/>
<line x1="0.5" y1="28.5" x2="19.5" y2="28.5" stroke="#B3292C" stroke-linecap="round"/>
</svg>
