<svg width="406" height="61" viewBox="0 0 406 61" fill="none" xmlns="http://www.w3.org/2000/svg">
<path opacity="0.2" d="M38.7 1.84H68.46V10.24H57.72V46H49.02V10.24H38.7V1.84ZM82.2563 1.84H112.376V10.24H90.9563V19.66H109.916V28.06H90.9563V37.6H113.216V46H82.2563V1.84ZM122.637 46L142.557 0.0999973H143.037L162.957 46H152.877L140.157 13.72L146.457 9.4L131.217 46H122.637ZM136.257 30.04H149.517L152.577 37.36H133.557L136.257 30.04ZM204.868 42.34C204.388 42.74 203.488 43.28 202.168 43.96C200.888 44.64 199.308 45.24 197.428 45.76C195.548 46.28 193.468 46.52 191.188 46.48C187.708 46.4 184.588 45.78 181.828 44.62C179.108 43.42 176.788 41.8 174.868 39.76C172.988 37.72 171.548 35.38 170.548 32.74C169.548 30.1 169.048 27.28 169.048 24.28C169.048 20.92 169.548 17.84 170.548 15.04C171.588 12.24 173.048 9.82 174.928 7.78C176.848 5.74 179.128 4.16 181.768 3.04C184.408 1.92 187.328 1.36 190.528 1.36C193.488 1.36 196.108 1.76 198.388 2.56C200.668 3.36 202.528 4.22 203.968 5.14L200.548 13.36C199.548 12.6 198.208 11.82 196.528 11.02C194.888 10.18 192.988 9.76 190.828 9.76C189.148 9.76 187.528 10.12 185.968 10.84C184.448 11.52 183.088 12.5 181.888 13.78C180.728 15.06 179.808 16.56 179.128 18.28C178.448 19.96 178.108 21.8 178.108 23.8C178.108 25.92 178.408 27.86 179.008 29.62C179.648 31.38 180.548 32.9 181.708 34.18C182.868 35.42 184.248 36.38 185.848 37.06C187.488 37.74 189.328 38.08 191.368 38.08C193.728 38.08 195.748 37.7 197.428 36.94C199.108 36.18 200.388 35.38 201.268 34.54L204.868 42.34ZM256.124 1.84V46H247.424V28.06H227.684V46H218.984V1.84H227.684V19.66H247.424V1.84H256.124ZM270.199 23.98C270.199 20.94 270.779 18.06 271.939 15.34C273.099 12.62 274.699 10.22 276.739 8.14C278.819 6.02 281.219 4.36 283.939 3.16C286.659 1.96 289.579 1.36 292.699 1.36C295.779 1.36 298.679 1.96 301.399 3.16C304.119 4.36 306.519 6.02 308.599 8.14C310.719 10.22 312.359 12.62 313.519 15.34C314.719 18.06 315.319 20.94 315.319 23.98C315.319 27.1 314.719 30.02 313.519 32.74C312.359 35.46 310.719 37.86 308.599 39.94C306.519 41.98 304.119 43.58 301.399 44.74C298.679 45.9 295.779 46.48 292.699 46.48C289.579 46.48 286.659 45.9 283.939 44.74C281.219 43.58 278.819 41.98 276.739 39.94C274.699 37.86 273.099 35.46 271.939 32.74C270.779 30.02 270.199 27.1 270.199 23.98ZM279.199 23.98C279.199 25.94 279.539 27.78 280.219 29.5C280.939 31.18 281.919 32.68 283.159 34C284.439 35.28 285.899 36.28 287.539 37C289.219 37.72 291.039 38.08 292.999 38.08C294.879 38.08 296.619 37.72 298.219 37C299.859 36.28 301.279 35.28 302.479 34C303.679 32.68 304.619 31.18 305.299 29.5C305.979 27.78 306.319 25.94 306.319 23.98C306.319 21.98 305.959 20.12 305.239 18.4C304.559 16.68 303.599 15.18 302.359 13.9C301.159 12.58 299.739 11.56 298.099 10.84C296.459 10.12 294.679 9.76 292.759 9.76C290.839 9.76 289.059 10.12 287.419 10.84C285.779 11.56 284.339 12.58 283.099 13.9C281.859 15.18 280.899 16.68 280.219 18.4C279.539 20.12 279.199 21.98 279.199 23.98ZM342.773 1.84C345.533 1.84 347.993 2.2 350.153 2.92C352.313 3.6 354.113 4.6 355.553 5.92C357.033 7.2 358.153 8.76 358.913 10.6C359.673 12.4 360.053 14.44 360.053 16.72C360.053 18.52 359.773 20.32 359.213 22.12C358.693 23.92 357.813 25.56 356.573 27.04C355.373 28.52 353.773 29.72 351.773 30.64C349.773 31.52 347.293 31.96 344.333 31.96H338.093V46H329.393V1.84H342.773ZM344.273 23.56C345.593 23.56 346.693 23.34 347.573 22.9C348.453 22.46 349.133 21.9 349.613 21.22C350.133 20.54 350.493 19.84 350.693 19.12C350.933 18.36 351.053 17.66 351.053 17.02C351.053 16.54 350.973 15.94 350.813 15.22C350.693 14.46 350.413 13.7 349.973 12.94C349.533 12.18 348.853 11.54 347.933 11.02C347.053 10.5 345.853 10.24 344.333 10.24H338.093V23.56H344.273ZM352.433 28.96L363.353 46H353.213L342.053 29.2L352.433 28.96ZM399.506 12.52C397.826 11.6 396.106 10.84 394.346 10.24C392.626 9.64 391.006 9.34 389.486 9.34C387.606 9.34 386.126 9.72 385.046 10.48C383.966 11.24 383.426 12.38 383.426 13.9C383.426 14.94 383.826 15.88 384.626 16.72C385.466 17.52 386.526 18.24 387.806 18.88C389.126 19.52 390.486 20.1 391.886 20.62C393.166 21.1 394.426 21.68 395.666 22.36C396.946 23 398.086 23.82 399.086 24.82C400.086 25.78 400.886 27 401.486 28.48C402.086 29.92 402.386 31.7 402.386 33.82C402.386 36.06 401.806 38.14 400.646 40.06C399.486 41.98 397.786 43.54 395.546 44.74C393.306 45.9 390.546 46.48 387.266 46.48C385.586 46.48 383.866 46.32 382.106 46C380.386 45.64 378.686 45.12 377.006 44.44C375.326 43.72 373.706 42.82 372.146 41.74L375.986 34.96C377.026 35.72 378.146 36.4 379.346 37C380.586 37.56 381.826 38 383.066 38.32C384.306 38.64 385.446 38.8 386.486 38.8C387.526 38.8 388.566 38.66 389.606 38.38C390.686 38.06 391.566 37.54 392.246 36.82C392.966 36.1 393.326 35.1 393.326 33.82C393.326 32.94 393.026 32.14 392.426 31.42C391.866 30.7 391.086 30.04 390.086 29.44C389.126 28.84 388.066 28.32 386.906 27.88C385.546 27.36 384.146 26.76 382.706 26.08C381.266 25.4 379.906 24.58 378.626 23.62C377.386 22.62 376.366 21.4 375.566 19.96C374.806 18.48 374.426 16.68 374.426 14.56C374.426 12 374.986 9.78 376.106 7.9C377.266 6.02 378.886 4.54 380.966 3.46C383.046 2.34 385.446 1.72 388.166 1.6C391.726 1.6 394.606 2.02 396.806 2.86C399.046 3.7 401.046 4.7 402.806 5.86L399.506 12.52Z" fill="#5D5C61"/>
<path d="M39.54 3.88H66.9V5.02H53.82V46H52.62V5.02H39.54V3.88ZM83.6517 3.88H108.792V5.02H84.8517V24.16H106.452V25.3H84.8517V44.86H109.632V46H83.6517V3.88ZM124.143 46L141.603 1.96H141.723L159.183 46H157.863L141.303 3.94L142.083 3.76L125.343 46H124.143ZM131.403 29.14H151.983L152.103 30.22H131.283L131.403 29.14ZM204.573 43.42C203.533 44.02 202.413 44.56 201.213 45.04C200.053 45.48 198.813 45.82 197.493 46.06C196.173 46.34 194.793 46.48 193.353 46.48C190.153 46.48 187.233 45.92 184.593 44.8C181.993 43.68 179.753 42.14 177.873 40.18C175.993 38.22 174.553 35.96 173.553 33.4C172.553 30.8 172.053 28.06 172.053 25.18C172.053 22.14 172.593 19.3 173.673 16.66C174.793 14.02 176.333 11.72 178.293 9.76C180.253 7.76 182.533 6.2 185.133 5.08C187.733 3.96 190.513 3.4 193.473 3.4C195.513 3.4 197.453 3.68 199.293 4.24C201.173 4.76 202.933 5.5 204.573 6.46L203.973 7.48C202.453 6.56 200.793 5.84 198.993 5.32C197.233 4.8 195.393 4.54 193.473 4.54C190.713 4.54 188.093 5.08 185.613 6.16C183.173 7.2 181.033 8.68 179.193 10.6C177.353 12.48 175.893 14.68 174.813 17.2C173.773 19.68 173.253 22.36 173.253 25.24C173.253 27.92 173.713 30.48 174.633 32.92C175.593 35.36 176.953 37.52 178.713 39.4C180.473 41.24 182.573 42.7 185.013 43.78C187.493 44.82 190.273 45.34 193.353 45.34C195.313 45.34 197.173 45.08 198.933 44.56C200.693 44 202.333 43.28 203.853 42.4L204.573 43.42ZM252.059 3.88V46H250.859V25.36H223.379V46H222.179V3.88H223.379V24.22H250.859V3.88H252.059ZM269.6 25C269.6 22.04 270.16 19.26 271.28 16.66C272.4 14.02 273.94 11.72 275.9 9.76C277.86 7.76 280.14 6.2 282.74 5.08C285.34 3.96 288.12 3.4 291.08 3.4C294.04 3.4 296.82 3.96 299.42 5.08C302.02 6.2 304.3 7.76 306.26 9.76C308.26 11.72 309.82 14.02 310.94 16.66C312.1 19.26 312.68 22.04 312.68 25C312.68 27.96 312.1 30.74 310.94 33.34C309.82 35.94 308.26 38.22 306.26 40.18C304.3 42.14 302.02 43.68 299.42 44.8C296.82 45.92 294.04 46.48 291.08 46.48C288.12 46.48 285.34 45.96 282.74 44.92C280.14 43.84 277.86 42.34 275.9 40.42C273.94 38.5 272.4 36.24 271.28 33.64C270.16 31 269.6 28.12 269.6 25ZM270.8 25.06C270.8 27.86 271.32 30.5 272.36 32.98C273.4 35.42 274.84 37.58 276.68 39.46C278.52 41.3 280.66 42.74 283.1 43.78C285.54 44.82 288.14 45.34 290.9 45.34C293.74 45.34 296.4 44.82 298.88 43.78C301.36 42.74 303.54 41.3 305.42 39.46C307.3 37.58 308.78 35.42 309.86 32.98C310.94 30.5 311.48 27.84 311.48 25C311.48 22.2 310.94 19.58 309.86 17.14C308.78 14.66 307.3 12.48 305.42 10.6C303.58 8.72 301.42 7.24 298.94 6.16C296.5 5.08 293.88 4.54 291.08 4.54C288.2 4.54 285.52 5.1 283.04 6.22C280.6 7.3 278.46 8.8 276.62 10.72C274.78 12.64 273.34 14.84 272.3 17.32C271.3 19.76 270.8 22.34 270.8 25.06ZM338.854 3.88C340.054 3.88 341.354 4.08 342.754 4.48C344.194 4.88 345.534 5.52 346.774 6.4C348.054 7.28 349.094 8.44 349.894 9.88C350.694 11.28 351.094 13.02 351.094 15.1C351.094 16.62 350.854 18.1 350.374 19.54C349.894 20.94 349.134 22.2 348.094 23.32C347.094 24.44 345.774 25.34 344.134 26.02C342.494 26.66 340.474 26.98 338.074 26.98H331.414V46H330.214V3.88H338.854ZM337.894 25.84C340.294 25.84 342.254 25.52 343.774 24.88C345.334 24.24 346.554 23.4 347.434 22.36C348.314 21.32 348.934 20.18 349.294 18.94C349.694 17.66 349.894 16.4 349.894 15.16C349.894 13.68 349.594 12.32 348.994 11.08C348.434 9.8 347.654 8.72 346.654 7.84C345.654 6.92 344.494 6.22 343.174 5.74C341.854 5.26 340.434 5.02 338.914 5.02H331.414V25.84H337.894ZM343.414 25.9L355.474 46H354.094L342.034 25.9H343.414ZM392.925 6.88C391.805 6.4 390.345 5.92 388.545 5.44C386.745 4.92 384.905 4.66 383.025 4.66C379.945 4.66 377.465 5.46 375.585 7.06C373.745 8.62 372.825 10.56 372.825 12.88C372.825 14.64 373.325 16.1 374.325 17.26C375.365 18.38 376.685 19.34 378.285 20.14C379.925 20.9 381.685 21.64 383.565 22.36C385.005 22.88 386.425 23.46 387.825 24.1C389.225 24.74 390.505 25.52 391.665 26.44C392.825 27.32 393.745 28.44 394.425 29.8C395.105 31.12 395.445 32.74 395.445 34.66C395.445 37.1 394.885 39.2 393.765 40.96C392.645 42.72 391.125 44.08 389.205 45.04C387.285 46 385.125 46.48 382.725 46.48C380.445 46.48 378.425 46.2 376.665 45.64C374.905 45.04 373.445 44.4 372.285 43.72C371.125 43.04 370.285 42.54 369.765 42.22L370.365 41.14C371.205 41.74 372.265 42.38 373.545 43.06C374.825 43.7 376.225 44.26 377.745 44.74C379.305 45.18 380.885 45.4 382.485 45.4C384.445 45.4 386.325 45.02 388.125 44.26C389.925 43.46 391.385 42.28 392.505 40.72C393.665 39.12 394.245 37.12 394.245 34.72C394.245 32.36 393.685 30.48 392.565 29.08C391.445 27.64 390.005 26.5 388.245 25.66C386.525 24.78 384.705 23.98 382.785 23.26C381.385 22.78 380.025 22.26 378.705 21.7C377.385 21.1 376.185 20.42 375.105 19.66C374.065 18.9 373.225 17.98 372.585 16.9C371.945 15.82 371.625 14.54 371.625 13.06C371.625 11.18 372.125 9.54 373.125 8.14C374.125 6.74 375.465 5.64 377.145 4.84C378.865 4.04 380.785 3.64 382.905 3.64C384.425 3.64 386.185 3.86 388.185 4.3C390.225 4.74 391.965 5.3 393.405 5.98L392.925 6.88Z" fill="#5D5C61"/>
<path d="M44.54 3.88H71.9V5.02H58.82V46H57.62V5.02H44.54V3.88ZM88.6517 3.88H113.792V5.02H89.8517V24.16H111.452V25.3H89.8517V44.86H114.632V46H88.6517V3.88ZM129.143 46L146.603 1.96H146.723L164.183 46H162.863L146.303 3.94L147.083 3.76L130.343 46H129.143ZM136.403 29.14H156.983L157.103 30.22H136.283L136.403 29.14ZM209.573 43.42C208.533 44.02 207.413 44.56 206.213 45.04C205.053 45.48 203.813 45.82 202.493 46.06C201.173 46.34 199.793 46.48 198.353 46.48C195.153 46.48 192.233 45.92 189.593 44.8C186.993 43.68 184.753 42.14 182.873 40.18C180.993 38.22 179.553 35.96 178.553 33.4C177.553 30.8 177.053 28.06 177.053 25.18C177.053 22.14 177.593 19.3 178.673 16.66C179.793 14.02 181.333 11.72 183.293 9.76C185.253 7.76 187.533 6.2 190.133 5.08C192.733 3.96 195.513 3.4 198.473 3.4C200.513 3.4 202.453 3.68 204.293 4.24C206.173 4.76 207.933 5.5 209.573 6.46L208.973 7.48C207.453 6.56 205.793 5.84 203.993 5.32C202.233 4.8 200.393 4.54 198.473 4.54C195.713 4.54 193.093 5.08 190.613 6.16C188.173 7.2 186.033 8.68 184.193 10.6C182.353 12.48 180.893 14.68 179.813 17.2C178.773 19.68 178.253 22.36 178.253 25.24C178.253 27.92 178.713 30.48 179.633 32.92C180.593 35.36 181.953 37.52 183.713 39.4C185.473 41.24 187.573 42.7 190.013 43.78C192.493 44.82 195.273 45.34 198.353 45.34C200.313 45.34 202.173 45.08 203.933 44.56C205.693 44 207.333 43.28 208.853 42.4L209.573 43.42ZM257.059 3.88V46H255.859V25.36H228.379V46H227.179V3.88H228.379V24.22H255.859V3.88H257.059ZM274.6 25C274.6 22.04 275.16 19.26 276.28 16.66C277.4 14.02 278.94 11.72 280.9 9.76C282.86 7.76 285.14 6.2 287.74 5.08C290.34 3.96 293.12 3.4 296.08 3.4C299.04 3.4 301.82 3.96 304.42 5.08C307.02 6.2 309.3 7.76 311.26 9.76C313.26 11.72 314.82 14.02 315.94 16.66C317.1 19.26 317.68 22.04 317.68 25C317.68 27.96 317.1 30.74 315.94 33.34C314.82 35.94 313.26 38.22 311.26 40.18C309.3 42.14 307.02 43.68 304.42 44.8C301.82 45.92 299.04 46.48 296.08 46.48C293.12 46.48 290.34 45.96 287.74 44.92C285.14 43.84 282.86 42.34 280.9 40.42C278.94 38.5 277.4 36.24 276.28 33.64C275.16 31 274.6 28.12 274.6 25ZM275.8 25.06C275.8 27.86 276.32 30.5 277.36 32.98C278.4 35.42 279.84 37.58 281.68 39.46C283.52 41.3 285.66 42.74 288.1 43.78C290.54 44.82 293.14 45.34 295.9 45.34C298.74 45.34 301.4 44.82 303.88 43.78C306.36 42.74 308.54 41.3 310.42 39.46C312.3 37.58 313.78 35.42 314.86 32.98C315.94 30.5 316.48 27.84 316.48 25C316.48 22.2 315.94 19.58 314.86 17.14C313.78 14.66 312.3 12.48 310.42 10.6C308.58 8.72 306.42 7.24 303.94 6.16C301.5 5.08 298.88 4.54 296.08 4.54C293.2 4.54 290.52 5.1 288.04 6.22C285.6 7.3 283.46 8.8 281.62 10.72C279.78 12.64 278.34 14.84 277.3 17.32C276.3 19.76 275.8 22.34 275.8 25.06ZM343.854 3.88C345.054 3.88 346.354 4.08 347.754 4.48C349.194 4.88 350.534 5.52 351.774 6.4C353.054 7.28 354.094 8.44 354.894 9.88C355.694 11.28 356.094 13.02 356.094 15.1C356.094 16.62 355.854 18.1 355.374 19.54C354.894 20.94 354.134 22.2 353.094 23.32C352.094 24.44 350.774 25.34 349.134 26.02C347.494 26.66 345.474 26.98 343.074 26.98H336.414V46H335.214V3.88H343.854ZM342.894 25.84C345.294 25.84 347.254 25.52 348.774 24.88C350.334 24.24 351.554 23.4 352.434 22.36C353.314 21.32 353.934 20.18 354.294 18.94C354.694 17.66 354.894 16.4 354.894 15.16C354.894 13.68 354.594 12.32 353.994 11.08C353.434 9.8 352.654 8.72 351.654 7.84C350.654 6.92 349.494 6.22 348.174 5.74C346.854 5.26 345.434 5.02 343.914 5.02H336.414V25.84H342.894ZM348.414 25.9L360.474 46H359.094L347.034 25.9H348.414ZM397.925 6.88C396.805 6.4 395.345 5.92 393.545 5.44C391.745 4.92 389.905 4.66 388.025 4.66C384.945 4.66 382.465 5.46 380.585 7.06C378.745 8.62 377.825 10.56 377.825 12.88C377.825 14.64 378.325 16.1 379.325 17.26C380.365 18.38 381.685 19.34 383.285 20.14C384.925 20.9 386.685 21.64 388.565 22.36C390.005 22.88 391.425 23.46 392.825 24.1C394.225 24.74 395.505 25.52 396.665 26.44C397.825 27.32 398.745 28.44 399.425 29.8C400.105 31.12 400.445 32.74 400.445 34.66C400.445 37.1 399.885 39.2 398.765 40.96C397.645 42.72 396.125 44.08 394.205 45.04C392.285 46 390.125 46.48 387.725 46.48C385.445 46.48 383.425 46.2 381.665 45.64C379.905 45.04 378.445 44.4 377.285 43.72C376.125 43.04 375.285 42.54 374.765 42.22L375.365 41.14C376.205 41.74 377.265 42.38 378.545 43.06C379.825 43.7 381.225 44.26 382.745 44.74C384.305 45.18 385.885 45.4 387.485 45.4C389.445 45.4 391.325 45.02 393.125 44.26C394.925 43.46 396.385 42.28 397.505 40.72C398.665 39.12 399.245 37.12 399.245 34.72C399.245 32.36 398.685 30.48 397.565 29.08C396.445 27.64 395.005 26.5 393.245 25.66C391.525 24.78 389.705 23.98 387.785 23.26C386.385 22.78 385.025 22.26 383.705 21.7C382.385 21.1 381.185 20.42 380.105 19.66C379.065 18.9 378.225 17.98 377.585 16.9C376.945 15.82 376.625 14.54 376.625 13.06C376.625 11.18 377.125 9.54 378.125 8.14C379.125 6.74 380.465 5.64 382.145 4.84C383.865 4.04 385.785 3.64 387.905 3.64C389.425 3.64 391.185 3.86 393.185 4.3C395.225 4.74 396.965 5.3 398.405 5.98L397.925 6.88Z" fill="#5D5C61"/>
<line x1="0.5" y1="23.5" x2="19.5" y2="23.5" stroke="#B3292C" stroke-linecap="round"/>
<line x1="0.5" y1="29.5" x2="19.5" y2="29.5" stroke="#B3292C" stroke-linecap="round"/>
</svg>
