<svg width="270" height="61" viewBox="0 0 270 61" fill="none" xmlns="http://www.w3.org/2000/svg">
<path opacity="0.2" d="M36.72 46L56.64 0.0999973H57.12L77.04 46H66.96L54.24 13.72L60.54 9.4L45.3 46H36.72ZM50.34 30.04H63.6L66.66 37.36H47.64L50.34 30.04ZM101.837 1.84C106.437 1.84 110.097 2.78 112.817 4.66C115.537 6.5 116.897 9.26 116.897 12.94C116.897 15.66 116.217 17.94 114.857 19.78C113.537 21.58 111.717 22.94 109.397 23.86C107.117 24.74 104.497 25.18 101.537 25.18L100.157 20.5C103.797 20.5 107.017 21 109.817 22C112.657 23 114.897 24.44 116.537 26.32C118.177 28.16 118.997 30.38 118.997 32.98C118.997 35.38 118.557 37.42 117.677 39.1C116.837 40.74 115.677 42.08 114.197 43.12C112.757 44.12 111.117 44.86 109.277 45.34C107.437 45.78 105.537 46 103.577 46H88.8773V1.84H101.837ZM102.857 19.9C104.577 19.9 105.837 19.38 106.637 18.34C107.477 17.3 107.897 16.12 107.897 14.8C107.897 13.28 107.377 12.14 106.337 11.38C105.337 10.62 103.977 10.24 102.257 10.24H97.5773V19.9H102.857ZM103.157 37.9C104.437 37.9 105.597 37.74 106.637 37.42C107.677 37.06 108.497 36.52 109.097 35.8C109.697 35.04 109.997 34.1 109.997 32.98C109.997 31.7 109.637 30.74 108.917 30.1C108.197 29.42 107.257 28.96 106.097 28.72C104.977 28.44 103.797 28.3 102.557 28.3H97.5773V37.9H103.157ZM130.425 23.98C130.425 20.94 131.005 18.06 132.165 15.34C133.325 12.62 134.925 10.22 136.965 8.14C139.045 6.02 141.445 4.36 144.165 3.16C146.885 1.96 149.805 1.36 152.925 1.36C156.005 1.36 158.905 1.96 161.625 3.16C164.345 4.36 166.745 6.02 168.825 8.14C170.945 10.22 172.585 12.62 173.745 15.34C174.945 18.06 175.545 20.94 175.545 23.98C175.545 27.1 174.945 30.02 173.745 32.74C172.585 35.46 170.945 37.86 168.825 39.94C166.745 41.98 164.345 43.58 161.625 44.74C158.905 45.9 156.005 46.48 152.925 46.48C149.805 46.48 146.885 45.9 144.165 44.74C141.445 43.58 139.045 41.98 136.965 39.94C134.925 37.86 133.325 35.46 132.165 32.74C131.005 30.02 130.425 27.1 130.425 23.98ZM139.425 23.98C139.425 25.94 139.765 27.78 140.445 29.5C141.165 31.18 142.145 32.68 143.385 34C144.665 35.28 146.125 36.28 147.765 37C149.445 37.72 151.265 38.08 153.225 38.08C155.105 38.08 156.845 37.72 158.445 37C160.085 36.28 161.505 35.28 162.705 34C163.905 32.68 164.845 31.18 165.525 29.5C166.205 27.78 166.545 25.94 166.545 23.98C166.545 21.98 166.185 20.12 165.465 18.4C164.785 16.68 163.825 15.18 162.585 13.9C161.385 12.58 159.965 11.56 158.325 10.84C156.685 10.12 154.905 9.76 152.985 9.76C151.065 9.76 149.285 10.12 147.645 10.84C146.005 11.56 144.565 12.58 143.325 13.9C142.085 15.18 141.125 16.68 140.445 18.4C139.765 20.12 139.425 21.98 139.425 23.98ZM197.419 29.68C197.419 31.08 197.839 32.42 198.679 33.7C199.519 34.98 200.619 36.02 201.979 36.82C203.379 37.62 204.899 38.02 206.539 38.02C208.339 38.02 209.939 37.62 211.339 36.82C212.739 36.02 213.839 34.98 214.639 33.7C215.479 32.42 215.899 31.08 215.899 29.68V1.84H224.479V29.86C224.479 33.1 223.679 35.98 222.079 38.5C220.479 40.98 218.319 42.94 215.599 44.38C212.879 45.78 209.859 46.48 206.539 46.48C203.259 46.48 200.259 45.78 197.539 44.38C194.859 42.94 192.719 40.98 191.119 38.5C189.519 35.98 188.719 33.1 188.719 29.86V1.84H197.419V29.68ZM237.37 1.84H267.13V10.24H256.39V46H247.69V10.24H237.37V1.84Z" fill="#5D5C61"/>
<path d="M39.78 46L57.24 1.96H57.36L74.82 46H73.5L56.94 3.94L57.72 3.76L40.98 46H39.78ZM47.04 29.14H67.62L67.74 30.22H46.92L47.04 29.14ZM100.019 3.88C103.979 3.88 107.019 4.72 109.139 6.4C111.259 8.04 112.319 10.78 112.319 14.62C112.319 16.22 112.039 17.76 111.479 19.24C110.959 20.72 110.119 21.98 108.959 23.02C107.839 24.06 106.339 24.74 104.459 25.06V24.64C106.219 24.88 107.859 25.46 109.379 26.38C110.899 27.3 112.139 28.5 113.099 29.98C114.059 31.46 114.539 33.18 114.539 35.14C114.539 36.94 114.179 38.52 113.459 39.88C112.739 41.2 111.779 42.32 110.579 43.24C109.379 44.16 107.999 44.86 106.439 45.34C104.919 45.78 103.339 46 101.699 46H91.6791V3.88H100.019ZM101.519 24.34C104.919 24.34 107.359 23.44 108.839 21.64C110.359 19.8 111.119 17.48 111.119 14.68C111.119 11.2 110.119 8.72 108.119 7.24C106.119 5.76 103.439 5.02 100.079 5.02H92.8791V24.34H101.519ZM101.579 44.92C103.699 44.92 105.639 44.56 107.399 43.84C109.199 43.12 110.639 42.06 111.719 40.66C112.799 39.22 113.339 37.44 113.339 35.32C113.339 33.04 112.739 31.18 111.539 29.74C110.339 28.26 108.839 27.18 107.039 26.5C105.239 25.82 103.419 25.48 101.579 25.48H92.8791V44.92H101.579ZM129.374 25C129.374 22.04 129.934 19.26 131.054 16.66C132.174 14.02 133.714 11.72 135.674 9.76C137.634 7.76 139.914 6.2 142.514 5.08C145.114 3.96 147.894 3.4 150.854 3.4C153.814 3.4 156.594 3.96 159.194 5.08C161.794 6.2 164.074 7.76 166.034 9.76C168.034 11.72 169.594 14.02 170.714 16.66C171.874 19.26 172.454 22.04 172.454 25C172.454 27.96 171.874 30.74 170.714 33.34C169.594 35.94 168.034 38.22 166.034 40.18C164.074 42.14 161.794 43.68 159.194 44.8C156.594 45.92 153.814 46.48 150.854 46.48C147.894 46.48 145.114 45.96 142.514 44.92C139.914 43.84 137.634 42.34 135.674 40.42C133.714 38.5 132.174 36.24 131.054 33.64C129.934 31 129.374 28.12 129.374 25ZM130.574 25.06C130.574 27.86 131.094 30.5 132.134 32.98C133.174 35.42 134.614 37.58 136.454 39.46C138.294 41.3 140.434 42.74 142.874 43.78C145.314 44.82 147.914 45.34 150.674 45.34C153.514 45.34 156.174 44.82 158.654 43.78C161.134 42.74 163.314 41.3 165.194 39.46C167.074 37.58 168.554 35.42 169.634 32.98C170.714 30.5 171.254 27.84 171.254 25C171.254 22.2 170.714 19.58 169.634 17.14C168.554 14.66 167.074 12.48 165.194 10.6C163.354 8.72 161.194 7.24 158.714 6.16C156.274 5.08 153.654 4.54 150.854 4.54C147.974 4.54 145.294 5.1 142.814 6.22C140.374 7.3 138.234 8.8 136.394 10.72C134.554 12.64 133.114 14.84 132.074 17.32C131.074 19.76 130.574 22.34 130.574 25.06ZM191.128 32.2C191.128 35 191.668 37.38 192.748 39.34C193.828 41.3 195.308 42.8 197.188 43.84C199.068 44.84 201.208 45.34 203.608 45.34C206.008 45.34 208.148 44.84 210.028 43.84C211.948 42.8 213.448 41.3 214.528 39.34C215.608 37.38 216.148 35 216.148 32.2V3.88H217.348V32.32C217.348 35.4 216.728 38 215.488 40.12C214.288 42.2 212.648 43.78 210.568 44.86C208.528 45.94 206.208 46.48 203.608 46.48C201.008 46.48 198.668 45.94 196.588 44.86C194.548 43.78 192.928 42.2 191.728 40.12C190.528 38 189.928 35.4 189.928 32.32V3.88H191.128V32.2ZM233.989 3.88H261.349V5.02H248.269V46H247.069V5.02H233.989V3.88Z" fill="#5D5C61"/>
<path d="M44.78 46L62.24 1.96H62.36L79.82 46H78.5L61.94 3.94L62.72 3.76L45.98 46H44.78ZM52.04 29.14H72.62L72.74 30.22H51.92L52.04 29.14ZM105.019 3.88C108.979 3.88 112.019 4.72 114.139 6.4C116.259 8.04 117.319 10.78 117.319 14.62C117.319 16.22 117.039 17.76 116.479 19.24C115.959 20.72 115.119 21.98 113.959 23.02C112.839 24.06 111.339 24.74 109.459 25.06V24.64C111.219 24.88 112.859 25.46 114.379 26.38C115.899 27.3 117.139 28.5 118.099 29.98C119.059 31.46 119.539 33.18 119.539 35.14C119.539 36.94 119.179 38.52 118.459 39.88C117.739 41.2 116.779 42.32 115.579 43.24C114.379 44.16 112.999 44.86 111.439 45.34C109.919 45.78 108.339 46 106.699 46H96.6791V3.88H105.019ZM106.519 24.34C109.919 24.34 112.359 23.44 113.839 21.64C115.359 19.8 116.119 17.48 116.119 14.68C116.119 11.2 115.119 8.72 113.119 7.24C111.119 5.76 108.439 5.02 105.079 5.02H97.8791V24.34H106.519ZM106.579 44.92C108.699 44.92 110.639 44.56 112.399 43.84C114.199 43.12 115.639 42.06 116.719 40.66C117.799 39.22 118.339 37.44 118.339 35.32C118.339 33.04 117.739 31.18 116.539 29.74C115.339 28.26 113.839 27.18 112.039 26.5C110.239 25.82 108.419 25.48 106.579 25.48H97.8791V44.92H106.579ZM134.374 25C134.374 22.04 134.934 19.26 136.054 16.66C137.174 14.02 138.714 11.72 140.674 9.76C142.634 7.76 144.914 6.2 147.514 5.08C150.114 3.96 152.894 3.4 155.854 3.4C158.814 3.4 161.594 3.96 164.194 5.08C166.794 6.2 169.074 7.76 171.034 9.76C173.034 11.72 174.594 14.02 175.714 16.66C176.874 19.26 177.454 22.04 177.454 25C177.454 27.96 176.874 30.74 175.714 33.34C174.594 35.94 173.034 38.22 171.034 40.18C169.074 42.14 166.794 43.68 164.194 44.8C161.594 45.92 158.814 46.48 155.854 46.48C152.894 46.48 150.114 45.96 147.514 44.92C144.914 43.84 142.634 42.34 140.674 40.42C138.714 38.5 137.174 36.24 136.054 33.64C134.934 31 134.374 28.12 134.374 25ZM135.574 25.06C135.574 27.86 136.094 30.5 137.134 32.98C138.174 35.42 139.614 37.58 141.454 39.46C143.294 41.3 145.434 42.74 147.874 43.78C150.314 44.82 152.914 45.34 155.674 45.34C158.514 45.34 161.174 44.82 163.654 43.78C166.134 42.74 168.314 41.3 170.194 39.46C172.074 37.58 173.554 35.42 174.634 32.98C175.714 30.5 176.254 27.84 176.254 25C176.254 22.2 175.714 19.58 174.634 17.14C173.554 14.66 172.074 12.48 170.194 10.6C168.354 8.72 166.194 7.24 163.714 6.16C161.274 5.08 158.654 4.54 155.854 4.54C152.974 4.54 150.294 5.1 147.814 6.22C145.374 7.3 143.234 8.8 141.394 10.72C139.554 12.64 138.114 14.84 137.074 17.32C136.074 19.76 135.574 22.34 135.574 25.06ZM196.128 32.2C196.128 35 196.668 37.38 197.748 39.34C198.828 41.3 200.308 42.8 202.188 43.84C204.068 44.84 206.208 45.34 208.608 45.34C211.008 45.34 213.148 44.84 215.028 43.84C216.948 42.8 218.448 41.3 219.528 39.34C220.608 37.38 221.148 35 221.148 32.2V3.88H222.348V32.32C222.348 35.4 221.728 38 220.488 40.12C219.288 42.2 217.648 43.78 215.568 44.86C213.528 45.94 211.208 46.48 208.608 46.48C206.008 46.48 203.668 45.94 201.588 44.86C199.548 43.78 197.928 42.2 196.728 40.12C195.528 38 194.928 35.4 194.928 32.32V3.88H196.128V32.2ZM238.989 3.88H266.349V5.02H253.269V46H252.069V5.02H238.989V3.88Z" fill="#5D5C61"/>
<line x1="0.5" y1="23.5" x2="19.5" y2="23.5" stroke="#B3292C" stroke-linecap="round"/>
<line x1="0.5" y1="29.5" x2="19.5" y2="29.5" stroke="#B3292C" stroke-linecap="round"/>
</svg>
