<svg width="321" height="80" viewBox="0 0 321 80" fill="none" xmlns="http://www.w3.org/2000/svg">
<path opacity="0.37" d="M71.44 1.12024C76.2933 1.12024 80.4 1.94691 83.76 3.60024C87.12 5.20024 89.68 7.49358 91.44 10.4802C93.2 13.4136 94.08 16.9069 94.08 20.9602C94.08 23.3602 93.7067 25.7869 92.96 28.2402C92.2667 30.6402 91.12 32.8269 89.52 34.8002C87.9733 36.7736 85.8667 38.3736 83.2 39.6002C80.5867 40.7736 77.36 41.3602 73.52 41.3602H65.2V60.0002H53.6V1.12024H71.44ZM73.44 30.0802C75.2 30.0802 76.6667 29.7869 77.84 29.2002C79.0133 28.5602 79.92 27.7869 80.56 26.8802C81.2533 25.9202 81.7333 24.9336 82 23.9202C82.32 22.9069 82.48 22.0269 82.48 21.2802C82.48 20.6936 82.3733 19.9202 82.16 18.9602C82 17.9469 81.6267 16.9336 81.04 15.9202C80.4533 14.9069 79.5467 14.0536 78.32 13.3602C77.1467 12.6669 75.5467 12.3202 73.52 12.3202H65.2V30.0802H73.44ZM127.899 1.12024C131.579 1.12024 134.859 1.60024 137.739 2.56024C140.619 3.46691 143.019 4.80024 144.939 6.56024C146.913 8.26691 148.406 10.3469 149.419 12.8002C150.433 15.2002 150.939 17.9202 150.939 20.9602C150.939 23.3602 150.566 25.7602 149.819 28.1602C149.126 30.5602 147.953 32.7469 146.299 34.7202C144.699 36.6936 142.566 38.2936 139.899 39.5202C137.233 40.6936 133.926 41.2802 129.979 41.2802H121.659V60.0002H110.059V1.12024H127.899ZM129.899 30.0802C131.659 30.0802 133.126 29.7869 134.299 29.2002C135.473 28.6136 136.379 27.8669 137.019 26.9602C137.713 26.0536 138.193 25.1202 138.459 24.1602C138.779 23.1469 138.939 22.2136 138.939 21.3602C138.939 20.7202 138.833 19.9202 138.619 18.9602C138.459 17.9469 138.086 16.9336 137.499 15.9202C136.913 14.9069 136.006 14.0536 134.779 13.3602C133.606 12.6669 132.006 12.3202 129.979 12.3202H121.659V30.0802H129.899ZM140.779 37.2802L155.339 60.0002H141.819L126.939 37.6002L140.779 37.2802ZM170.503 1.12024H210.663V12.3202H182.103V24.8802H207.383V36.0802H182.103V48.8002H211.783V60.0002H170.503V1.12024ZM260.824 15.3602C258.584 14.1336 256.291 13.1202 253.944 12.3202C251.651 11.5202 249.491 11.1202 247.464 11.1202C244.958 11.1202 242.984 11.6269 241.544 12.6402C240.104 13.6536 239.384 15.1736 239.384 17.2002C239.384 18.5869 239.918 19.8402 240.984 20.9602C242.104 22.0269 243.518 22.9869 245.224 23.8402C246.984 24.6936 248.798 25.4669 250.664 26.1602C252.371 26.8002 254.051 27.5736 255.704 28.4802C257.411 29.3336 258.931 30.4269 260.264 31.7602C261.598 33.0402 262.664 34.6669 263.464 36.6402C264.264 38.5602 264.664 40.9336 264.664 43.7602C264.664 46.7469 263.891 49.5202 262.344 52.0802C260.798 54.6402 258.531 56.7202 255.544 58.3202C252.558 59.8669 248.878 60.6402 244.504 60.6402C242.264 60.6402 239.971 60.4269 237.624 60.0002C235.331 59.5202 233.064 58.8269 230.824 57.9202C228.584 56.9602 226.424 55.7602 224.344 54.3202L229.464 45.2802C230.851 46.2936 232.344 47.2002 233.944 48.0002C235.598 48.7469 237.251 49.3336 238.904 49.7602C240.558 50.1869 242.078 50.4002 243.464 50.4002C244.851 50.4002 246.238 50.2136 247.624 49.8402C249.064 49.4136 250.238 48.7202 251.144 47.7602C252.104 46.8002 252.584 45.4669 252.584 43.7602C252.584 42.5869 252.184 41.5202 251.384 40.5602C250.638 39.6002 249.598 38.7202 248.264 37.9202C246.984 37.1202 245.571 36.4269 244.024 35.8402C242.211 35.1469 240.344 34.3469 238.424 33.4402C236.504 32.5336 234.691 31.4402 232.984 30.1602C231.331 28.8269 229.971 27.2002 228.904 25.2802C227.891 23.3069 227.384 20.9069 227.384 18.0802C227.384 14.6669 228.131 11.7069 229.624 9.20024C231.171 6.69357 233.331 4.72024 236.104 3.28024C238.878 1.78691 242.078 0.960241 245.704 0.800243C250.451 0.800243 254.291 1.36024 257.224 2.48024C260.211 3.60024 262.878 4.93358 265.224 6.48024L260.824 15.3602ZM313.065 15.3602C310.825 14.1336 308.532 13.1202 306.185 12.3202C303.892 11.5202 301.732 11.1202 299.705 11.1202C297.198 11.1202 295.225 11.6269 293.785 12.6402C292.345 13.6536 291.625 15.1736 291.625 17.2002C291.625 18.5869 292.158 19.8402 293.225 20.9602C294.345 22.0269 295.758 22.9869 297.465 23.8402C299.225 24.6936 301.038 25.4669 302.905 26.1602C304.612 26.8002 306.292 27.5736 307.945 28.4802C309.652 29.3336 311.172 30.4269 312.505 31.7602C313.838 33.0402 314.905 34.6669 315.705 36.6402C316.505 38.5602 316.905 40.9336 316.905 43.7602C316.905 46.7469 316.132 49.5202 314.585 52.0802C313.038 54.6402 310.772 56.7202 307.785 58.3202C304.798 59.8669 301.118 60.6402 296.745 60.6402C294.505 60.6402 292.212 60.4269 289.865 60.0002C287.572 59.5202 285.305 58.8269 283.065 57.9202C280.825 56.9602 278.665 55.7602 276.585 54.3202L281.705 45.2802C283.092 46.2936 284.585 47.2002 286.185 48.0002C287.838 48.7469 289.492 49.3336 291.145 49.7602C292.798 50.1869 294.318 50.4002 295.705 50.4002C297.092 50.4002 298.478 50.2136 299.865 49.8402C301.305 49.4136 302.478 48.7202 303.385 47.7602C304.345 46.8002 304.825 45.4669 304.825 43.7602C304.825 42.5869 304.425 41.5202 303.625 40.5602C302.878 39.6002 301.838 38.7202 300.505 37.9202C299.225 37.1202 297.812 36.4269 296.265 35.8402C294.452 35.1469 292.585 34.3469 290.665 33.4402C288.745 32.5336 286.932 31.4402 285.225 30.1602C283.572 28.8269 282.212 27.2002 281.145 25.2802C280.132 23.3069 279.625 20.9069 279.625 18.0802C279.625 14.6669 280.372 11.7069 281.865 9.20024C283.412 6.69357 285.572 4.72024 288.345 3.28024C291.118 1.78691 294.318 0.960241 297.945 0.800243C302.692 0.800243 306.532 1.36024 309.465 2.48024C312.452 3.60024 315.118 4.93358 317.465 6.48024L313.065 15.3602Z" fill="#EAE9ED"/>
<path d="M67.2 3.84024C70.2933 3.84024 73.04 4.37358 75.44 5.44024C77.8933 6.50691 79.8133 8.16024 81.2 10.4002C82.5867 12.5869 83.28 15.3869 83.28 18.8002C83.28 20.8269 82.9333 22.8002 82.24 24.7202C81.6 26.5869 80.5867 28.2669 79.2 29.7602C77.8133 31.2536 76.0267 32.4536 73.84 33.3602C71.6533 34.2136 69.04 34.6402 66 34.6402H57.12V60.0002H55.52V3.84024H67.2ZM66 33.1202C69.0933 33.1202 71.6533 32.6402 73.68 31.6802C75.76 30.7202 77.36 29.4936 78.48 28.0002C79.6533 26.5069 80.48 24.9336 80.96 23.2802C81.4933 21.6269 81.76 20.0802 81.76 18.6402C81.76 16.5069 81.3867 14.6136 80.64 12.9602C79.9467 11.3069 78.96 9.92024 77.68 8.80024C76.4 7.68024 74.8533 6.82691 73.04 6.24024C71.2267 5.65357 69.2533 5.36024 67.12 5.36024H57.12V33.1202H66ZM117.462 3.84024C119.062 3.84024 120.795 4.10691 122.662 4.64024C124.582 5.17357 126.369 6.02691 128.022 7.20024C129.729 8.37358 131.115 9.92024 132.182 11.8402C133.249 13.7069 133.782 16.0269 133.782 18.8002C133.782 20.8269 133.462 22.8002 132.822 24.7202C132.182 26.5869 131.169 28.2669 129.782 29.7602C128.449 31.2536 126.689 32.4536 124.502 33.3602C122.315 34.2136 119.622 34.6402 116.422 34.6402H107.542V60.0002H105.942V3.84024H117.462ZM116.182 33.1202C119.382 33.1202 121.995 32.6936 124.022 31.8402C126.102 30.9869 127.729 29.8669 128.902 28.4802C130.075 27.0936 130.902 25.5736 131.382 23.9202C131.915 22.2136 132.182 20.5336 132.182 18.8802C132.182 16.9069 131.782 15.0936 130.982 13.4402C130.235 11.7336 129.195 10.2936 127.862 9.12024C126.529 7.89357 124.982 6.96024 123.222 6.32024C121.462 5.68024 119.569 5.36024 117.542 5.36024H107.542V33.1202H116.182ZM123.542 33.2002L139.622 60.0002H137.782L121.702 33.2002H123.542ZM163.317 3.84024H196.837V5.36024H164.917V30.8802H193.717V32.4002H164.917V58.4802H197.957V60.0002H163.317V3.84024ZM248.026 7.84024C246.532 7.20024 244.586 6.56024 242.186 5.92024C239.786 5.22691 237.332 4.88024 234.826 4.88024C230.719 4.88024 227.412 5.94691 224.906 8.08024C222.452 10.1602 221.226 12.7469 221.226 15.8402C221.226 18.1869 221.892 20.1336 223.226 21.6802C224.612 23.1736 226.372 24.4536 228.506 25.5202C230.692 26.5336 233.039 27.5202 235.546 28.4802C237.466 29.1736 239.359 29.9469 241.226 30.8002C243.092 31.6536 244.799 32.6936 246.346 33.9202C247.892 35.0936 249.119 36.5869 250.026 38.4002C250.932 40.1602 251.386 42.3202 251.386 44.8802C251.386 48.1336 250.639 50.9336 249.146 53.2802C247.652 55.6269 245.626 57.4402 243.066 58.7202C240.506 60.0002 237.626 60.6402 234.426 60.6402C231.386 60.6402 228.692 60.2669 226.346 59.5202C223.999 58.7202 222.052 57.8669 220.506 56.9602C218.959 56.0536 217.839 55.3869 217.146 54.9602L217.946 53.5202C219.066 54.3202 220.479 55.1736 222.186 56.0802C223.892 56.9336 225.759 57.6802 227.786 58.3202C229.866 58.9069 231.972 59.2002 234.106 59.2002C236.719 59.2002 239.226 58.6936 241.626 57.6802C244.026 56.6136 245.972 55.0402 247.466 52.9602C249.012 50.8269 249.786 48.1602 249.786 44.9602C249.786 41.8136 249.039 39.3069 247.546 37.4402C246.052 35.5202 244.132 34.0002 241.786 32.8802C239.492 31.7069 237.066 30.6402 234.506 29.6802C232.639 29.0402 230.826 28.3469 229.066 27.6002C227.306 26.8002 225.706 25.8936 224.266 24.8802C222.879 23.8669 221.759 22.6402 220.906 21.2002C220.052 19.7602 219.626 18.0536 219.626 16.0802C219.626 13.5736 220.292 11.3869 221.626 9.52024C222.959 7.65358 224.746 6.18691 226.986 5.12024C229.279 4.05357 231.839 3.52024 234.666 3.52024C236.692 3.52024 239.039 3.81357 241.706 4.40024C244.426 4.98691 246.746 5.73358 248.666 6.64024L248.026 7.84024ZM300.088 7.84024C298.595 7.20024 296.648 6.56024 294.248 5.92024C291.848 5.22691 289.395 4.88024 286.888 4.88024C282.781 4.88024 279.475 5.94691 276.968 8.08024C274.515 10.1602 273.288 12.7469 273.288 15.8402C273.288 18.1869 273.955 20.1336 275.288 21.6802C276.675 23.1736 278.435 24.4536 280.568 25.5202C282.755 26.5336 285.101 27.5202 287.608 28.4802C289.528 29.1736 291.421 29.9469 293.288 30.8002C295.155 31.6536 296.861 32.6936 298.408 33.9202C299.955 35.0936 301.181 36.5869 302.088 38.4002C302.995 40.1602 303.448 42.3202 303.448 44.8802C303.448 48.1336 302.701 50.9336 301.208 53.2802C299.715 55.6269 297.688 57.4402 295.128 58.7202C292.568 60.0002 289.688 60.6402 286.488 60.6402C283.448 60.6402 280.755 60.2669 278.408 59.5202C276.061 58.7202 274.115 57.8669 272.568 56.9602C271.021 56.0536 269.901 55.3869 269.208 54.9602L270.008 53.5202C271.128 54.3202 272.541 55.1736 274.248 56.0802C275.955 56.9336 277.821 57.6802 279.848 58.3202C281.928 58.9069 284.035 59.2002 286.168 59.2002C288.781 59.2002 291.288 58.6936 293.688 57.6802C296.088 56.6136 298.035 55.0402 299.528 52.9602C301.075 50.8269 301.848 48.1602 301.848 44.9602C301.848 41.8136 301.101 39.3069 299.608 37.4402C298.115 35.5202 296.195 34.0002 293.848 32.8802C291.555 31.7069 289.128 30.6402 286.568 29.6802C284.701 29.0402 282.888 28.3469 281.128 27.6002C279.368 26.8002 277.768 25.8936 276.328 24.8802C274.941 23.8669 273.821 22.6402 272.968 21.2002C272.115 19.7602 271.688 18.0536 271.688 16.0802C271.688 13.5736 272.355 11.3869 273.688 9.52024C275.021 7.65358 276.808 6.18691 279.048 5.12024C281.341 4.05357 283.901 3.52024 286.728 3.52024C288.755 3.52024 291.101 3.81357 293.768 4.40024C296.488 4.98691 298.808 5.73358 300.728 6.64024L300.088 7.84024Z" fill="#EAE9ED"/>
<path d="M72.2 3.84024C75.2933 3.84024 78.04 4.37358 80.44 5.44024C82.8933 6.50691 84.8133 8.16024 86.2 10.4002C87.5867 12.5869 88.28 15.3869 88.28 18.8002C88.28 20.8269 87.9333 22.8002 87.24 24.7202C86.6 26.5869 85.5867 28.2669 84.2 29.7602C82.8133 31.2536 81.0267 32.4536 78.84 33.3602C76.6533 34.2136 74.04 34.6402 71 34.6402H62.12V60.0002H60.52V3.84024H72.2ZM71 33.1202C74.0933 33.1202 76.6533 32.6402 78.68 31.6802C80.76 30.7202 82.36 29.4936 83.48 28.0002C84.6533 26.5069 85.48 24.9336 85.96 23.2802C86.4933 21.6269 86.76 20.0802 86.76 18.6402C86.76 16.5069 86.3867 14.6136 85.64 12.9602C84.9467 11.3069 83.96 9.92024 82.68 8.80024C81.4 7.68024 79.8533 6.82691 78.04 6.24024C76.2267 5.65357 74.2533 5.36024 72.12 5.36024H62.12V33.1202H71ZM122.462 3.84024C124.062 3.84024 125.795 4.10691 127.662 4.64024C129.582 5.17357 131.369 6.02691 133.022 7.20024C134.729 8.37358 136.115 9.92024 137.182 11.8402C138.249 13.7069 138.782 16.0269 138.782 18.8002C138.782 20.8269 138.462 22.8002 137.822 24.7202C137.182 26.5869 136.169 28.2669 134.782 29.7602C133.449 31.2536 131.689 32.4536 129.502 33.3602C127.315 34.2136 124.622 34.6402 121.422 34.6402H112.542V60.0002H110.942V3.84024H122.462ZM121.182 33.1202C124.382 33.1202 126.995 32.6936 129.022 31.8402C131.102 30.9869 132.729 29.8669 133.902 28.4802C135.075 27.0936 135.902 25.5736 136.382 23.9202C136.915 22.2136 137.182 20.5336 137.182 18.8802C137.182 16.9069 136.782 15.0936 135.982 13.4402C135.235 11.7336 134.195 10.2936 132.862 9.12024C131.529 7.89357 129.982 6.96024 128.222 6.32024C126.462 5.68024 124.569 5.36024 122.542 5.36024H112.542V33.1202H121.182ZM128.542 33.2002L144.622 60.0002H142.782L126.702 33.2002H128.542ZM168.317 3.84024H201.837V5.36024H169.917V30.8802H198.717V32.4002H169.917V58.4802H202.957V60.0002H168.317V3.84024ZM253.026 7.84024C251.532 7.20024 249.586 6.56024 247.186 5.92024C244.786 5.22691 242.332 4.88024 239.826 4.88024C235.719 4.88024 232.412 5.94691 229.906 8.08024C227.452 10.1602 226.226 12.7469 226.226 15.8402C226.226 18.1869 226.892 20.1336 228.226 21.6802C229.612 23.1736 231.372 24.4536 233.506 25.5202C235.692 26.5336 238.039 27.5202 240.546 28.4802C242.466 29.1736 244.359 29.9469 246.226 30.8002C248.092 31.6536 249.799 32.6936 251.346 33.9202C252.892 35.0936 254.119 36.5869 255.026 38.4002C255.932 40.1602 256.386 42.3202 256.386 44.8802C256.386 48.1336 255.639 50.9336 254.146 53.2802C252.652 55.6269 250.626 57.4402 248.066 58.7202C245.506 60.0002 242.626 60.6402 239.426 60.6402C236.386 60.6402 233.692 60.2669 231.346 59.5202C228.999 58.7202 227.052 57.8669 225.506 56.9602C223.959 56.0536 222.839 55.3869 222.146 54.9602L222.946 53.5202C224.066 54.3202 225.479 55.1736 227.186 56.0802C228.892 56.9336 230.759 57.6802 232.786 58.3202C234.866 58.9069 236.972 59.2002 239.106 59.2002C241.719 59.2002 244.226 58.6936 246.626 57.6802C249.026 56.6136 250.972 55.0402 252.466 52.9602C254.012 50.8269 254.786 48.1602 254.786 44.9602C254.786 41.8136 254.039 39.3069 252.546 37.4402C251.052 35.5202 249.132 34.0002 246.786 32.8802C244.492 31.7069 242.066 30.6402 239.506 29.6802C237.639 29.0402 235.826 28.3469 234.066 27.6002C232.306 26.8002 230.706 25.8936 229.266 24.8802C227.879 23.8669 226.759 22.6402 225.906 21.2002C225.052 19.7602 224.626 18.0536 224.626 16.0802C224.626 13.5736 225.292 11.3869 226.626 9.52024C227.959 7.65358 229.746 6.18691 231.986 5.12024C234.279 4.05357 236.839 3.52024 239.666 3.52024C241.692 3.52024 244.039 3.81357 246.706 4.40024C249.426 4.98691 251.746 5.73358 253.666 6.64024L253.026 7.84024ZM305.088 7.84024C303.595 7.20024 301.648 6.56024 299.248 5.92024C296.848 5.22691 294.395 4.88024 291.888 4.88024C287.781 4.88024 284.475 5.94691 281.968 8.08024C279.515 10.1602 278.288 12.7469 278.288 15.8402C278.288 18.1869 278.955 20.1336 280.288 21.6802C281.675 23.1736 283.435 24.4536 285.568 25.5202C287.755 26.5336 290.101 27.5202 292.608 28.4802C294.528 29.1736 296.421 29.9469 298.288 30.8002C300.155 31.6536 301.861 32.6936 303.408 33.9202C304.955 35.0936 306.181 36.5869 307.088 38.4002C307.995 40.1602 308.448 42.3202 308.448 44.8802C308.448 48.1336 307.701 50.9336 306.208 53.2802C304.715 55.6269 302.688 57.4402 300.128 58.7202C297.568 60.0002 294.688 60.6402 291.488 60.6402C288.448 60.6402 285.755 60.2669 283.408 59.5202C281.061 58.7202 279.115 57.8669 277.568 56.9602C276.021 56.0536 274.901 55.3869 274.208 54.9602L275.008 53.5202C276.128 54.3202 277.541 55.1736 279.248 56.0802C280.955 56.9336 282.821 57.6802 284.848 58.3202C286.928 58.9069 289.035 59.2002 291.168 59.2002C293.781 59.2002 296.288 58.6936 298.688 57.6802C301.088 56.6136 303.035 55.0402 304.528 52.9602C306.075 50.8269 306.848 48.1602 306.848 44.9602C306.848 41.8136 306.101 39.3069 304.608 37.4402C303.115 35.5202 301.195 34.0002 298.848 32.8802C296.555 31.7069 294.128 30.6402 291.568 29.6802C289.701 29.0402 287.888 28.3469 286.128 27.6002C284.368 26.8002 282.768 25.8936 281.328 24.8802C279.941 23.8669 278.821 22.6402 277.968 21.2002C277.115 19.7602 276.688 18.0536 276.688 16.0802C276.688 13.5736 277.355 11.3869 278.688 9.52024C280.021 7.65358 281.808 6.18691 284.048 5.12024C286.341 4.05357 288.901 3.52024 291.728 3.52024C293.755 3.52024 296.101 3.81357 298.768 4.40024C301.488 4.98691 303.808 5.73358 305.728 6.64024L305.088 7.84024Z" fill="#EAE9ED"/>
<line x1="0.5" y1="32.5002" x2="19.5" y2="32.5002" stroke="#B3292C" stroke-linecap="round"/>
<line x1="0.5" y1="38.5002" x2="19.5" y2="38.5002" stroke="#B3292C" stroke-linecap="round"/>
</svg>
