<svg width="436" height="60" viewBox="0 0 436 60" fill="none" xmlns="http://www.w3.org/2000/svg">
<path opacity="0.2" d="M65.08 0.839996C68.72 0.839996 71.8 1.46 74.32 2.7C76.84 3.9 78.76 5.62 80.08 7.86C81.4 10.06 82.06 12.68 82.06 15.72C82.06 17.52 81.78 19.34 81.22 21.18C80.7 22.98 79.84 24.62 78.64 26.1C77.48 27.58 75.9 28.78 73.9 29.7C71.94 30.58 69.52 31.02 66.64 31.02H60.4V45H51.7V0.839996H65.08ZM66.58 22.56C67.9 22.56 69 22.34 69.88 21.9C70.76 21.42 71.44 20.84 71.92 20.16C72.44 19.44 72.8 18.7 73 17.94C73.24 17.18 73.36 16.52 73.36 15.96C73.36 15.52 73.28 14.94 73.12 14.22C73 13.46 72.72 12.7 72.28 11.94C71.84 11.18 71.16 10.54 70.24 10.02C69.36 9.5 68.16 9.24 66.64 9.24H60.4V22.56H66.58ZM90.4445 22.98C90.4445 19.94 91.0245 17.06 92.1845 14.34C93.3445 11.62 94.9445 9.22 96.9845 7.14C99.0645 5.02 101.465 3.36 104.185 2.16C106.905 0.959998 109.825 0.359999 112.945 0.359999C116.025 0.359999 118.925 0.959998 121.645 2.16C124.365 3.36 126.765 5.02 128.845 7.14C130.965 9.22 132.605 11.62 133.765 14.34C134.965 17.06 135.565 19.94 135.565 22.98C135.565 26.1 134.965 29.02 133.765 31.74C132.605 34.46 130.965 36.86 128.845 38.94C126.765 40.98 124.365 42.58 121.645 43.74C118.925 44.9 116.025 45.48 112.945 45.48C109.825 45.48 106.905 44.9 104.185 43.74C101.465 42.58 99.0645 40.98 96.9845 38.94C94.9445 36.86 93.3445 34.46 92.1845 31.74C91.0245 29.02 90.4445 26.1 90.4445 22.98ZM99.4445 22.98C99.4445 24.94 99.7845 26.78 100.465 28.5C101.185 30.18 102.165 31.68 103.405 33C104.685 34.28 106.145 35.28 107.785 36C109.465 36.72 111.285 37.08 113.245 37.08C115.125 37.08 116.865 36.72 118.465 36C120.105 35.28 121.525 34.28 122.725 33C123.925 31.68 124.865 30.18 125.545 28.5C126.225 26.78 126.565 24.94 126.565 22.98C126.565 20.98 126.205 19.12 125.485 17.4C124.805 15.68 123.845 14.18 122.605 12.9C121.405 11.58 119.985 10.56 118.345 9.84C116.705 9.12 114.925 8.76 113.005 8.76C111.085 8.76 109.305 9.12 107.665 9.84C106.025 10.56 104.585 11.58 103.345 12.9C102.105 14.18 101.145 15.68 100.465 17.4C99.7845 19.12 99.4445 20.98 99.4445 22.98ZM160.918 0.839996C163.678 0.839996 166.138 1.2 168.298 1.92C170.458 2.6 172.258 3.6 173.698 4.92C175.178 6.2 176.298 7.76 177.058 9.6C177.818 11.4 178.198 13.44 178.198 15.72C178.198 17.52 177.918 19.32 177.358 21.12C176.838 22.92 175.958 24.56 174.718 26.04C173.518 27.52 171.918 28.72 169.918 29.64C167.918 30.52 165.438 30.96 162.478 30.96H156.238V45H147.538V0.839996H160.918ZM162.418 22.56C163.738 22.56 164.838 22.34 165.718 21.9C166.598 21.46 167.278 20.9 167.758 20.22C168.278 19.54 168.638 18.84 168.838 18.12C169.078 17.36 169.198 16.66 169.198 16.02C169.198 15.54 169.118 14.94 168.958 14.22C168.838 13.46 168.558 12.7 168.118 11.94C167.678 11.18 166.998 10.54 166.078 10.02C165.198 9.5 163.998 9.24 162.478 9.24H156.238V22.56H162.418ZM170.578 27.96L181.498 45H171.358L160.198 28.2L170.578 27.96ZM188.092 0.839996H217.852V9.24H207.112V45H198.412V9.24H188.092V0.839996ZM229.548 0.839996H257.148V9.24H238.248V19.26H254.628V27.66H238.248V45H229.548V0.839996ZM266.125 22.98C266.125 19.94 266.705 17.06 267.865 14.34C269.025 11.62 270.625 9.22 272.665 7.14C274.745 5.02 277.145 3.36 279.865 2.16C282.585 0.959998 285.505 0.359999 288.625 0.359999C291.705 0.359999 294.605 0.959998 297.325 2.16C300.045 3.36 302.445 5.02 304.525 7.14C306.645 9.22 308.285 11.62 309.445 14.34C310.645 17.06 311.245 19.94 311.245 22.98C311.245 26.1 310.645 29.02 309.445 31.74C308.285 34.46 306.645 36.86 304.525 38.94C302.445 40.98 300.045 42.58 297.325 43.74C294.605 44.9 291.705 45.48 288.625 45.48C285.505 45.48 282.585 44.9 279.865 43.74C277.145 42.58 274.745 40.98 272.665 38.94C270.625 36.86 269.025 34.46 267.865 31.74C266.705 29.02 266.125 26.1 266.125 22.98ZM275.125 22.98C275.125 24.94 275.465 26.78 276.145 28.5C276.865 30.18 277.845 31.68 279.085 33C280.365 34.28 281.825 35.28 283.465 36C285.145 36.72 286.965 37.08 288.925 37.08C290.805 37.08 292.545 36.72 294.145 36C295.785 35.28 297.205 34.28 298.405 33C299.605 31.68 300.545 30.18 301.225 28.5C301.905 26.78 302.245 24.94 302.245 22.98C302.245 20.98 301.885 19.12 301.165 17.4C300.485 15.68 299.525 14.18 298.285 12.9C297.085 11.58 295.665 10.56 294.025 9.84C292.385 9.12 290.605 8.76 288.685 8.76C286.765 8.76 284.985 9.12 283.345 9.84C281.705 10.56 280.265 11.58 279.025 12.9C277.785 14.18 276.825 15.68 276.145 17.4C275.465 19.12 275.125 20.98 275.125 22.98ZM323.219 0.839996H331.919V36.6H352.679V45H323.219V0.839996ZM364.956 0.839996H373.656V45H364.956V0.839996ZM385.654 22.98C385.654 19.94 386.234 17.06 387.394 14.34C388.554 11.62 390.154 9.22 392.194 7.14C394.274 5.02 396.674 3.36 399.394 2.16C402.114 0.959998 405.034 0.359999 408.154 0.359999C411.234 0.359999 414.134 0.959998 416.854 2.16C419.574 3.36 421.974 5.02 424.054 7.14C426.174 9.22 427.814 11.62 428.974 14.34C430.174 17.06 430.774 19.94 430.774 22.98C430.774 26.1 430.174 29.02 428.974 31.74C427.814 34.46 426.174 36.86 424.054 38.94C421.974 40.98 419.574 42.58 416.854 43.74C414.134 44.9 411.234 45.48 408.154 45.48C405.034 45.48 402.114 44.9 399.394 43.74C396.674 42.58 394.274 40.98 392.194 38.94C390.154 36.86 388.554 34.46 387.394 31.74C386.234 29.02 385.654 26.1 385.654 22.98ZM394.654 22.98C394.654 24.94 394.994 26.78 395.674 28.5C396.394 30.18 397.374 31.68 398.614 33C399.894 34.28 401.354 35.28 402.994 36C404.674 36.72 406.494 37.08 408.454 37.08C410.334 37.08 412.074 36.72 413.674 36C415.314 35.28 416.734 34.28 417.934 33C419.134 31.68 420.074 30.18 420.754 28.5C421.434 26.78 421.774 24.94 421.774 22.98C421.774 20.98 421.414 19.12 420.694 17.4C420.014 15.68 419.054 14.18 417.814 12.9C416.614 11.58 415.194 10.56 413.554 9.84C411.914 9.12 410.134 8.76 408.214 8.76C406.294 8.76 404.514 9.12 402.874 9.84C401.234 10.56 399.794 11.58 398.554 12.9C397.314 14.18 396.354 15.68 395.674 17.4C394.994 19.12 394.654 20.98 394.654 22.98Z" fill="#5D5C61"/>
<path d="M61.9 2.88C64.22 2.88 66.28 3.28 68.08 4.08C69.92 4.88 71.36 6.12 72.4 7.8C73.44 9.44 73.96 11.54 73.96 14.1C73.96 15.62 73.7 17.1 73.18 18.54C72.7 19.94 71.94 21.2 70.9 22.32C69.86 23.44 68.52 24.34 66.88 25.02C65.24 25.66 63.28 25.98 61 25.98H54.34V45H53.14V2.88H61.9ZM61 24.84C63.32 24.84 65.24 24.48 66.76 23.76C68.32 23.04 69.52 22.12 70.36 21C71.24 19.88 71.86 18.7 72.22 17.46C72.62 16.22 72.82 15.06 72.82 13.98C72.82 12.38 72.54 10.96 71.98 9.72C71.46 8.48 70.72 7.44 69.76 6.6C68.8 5.76 67.64 5.12 66.28 4.68C64.92 4.24 63.44 4.02 61.84 4.02H54.34V24.84H61ZM88.2564 24C88.2564 21.04 88.8164 18.26 89.9364 15.66C91.0564 13.02 92.5964 10.72 94.5564 8.76C96.5164 6.76 98.7964 5.2 101.396 4.08C103.996 2.96 106.776 2.4 109.736 2.4C112.696 2.4 115.476 2.96 118.076 4.08C120.676 5.2 122.956 6.76 124.916 8.76C126.916 10.72 128.476 13.02 129.596 15.66C130.756 18.26 131.336 21.04 131.336 24C131.336 26.96 130.756 29.74 129.596 32.34C128.476 34.94 126.916 37.22 124.916 39.18C122.956 41.14 120.676 42.68 118.076 43.8C115.476 44.92 112.696 45.48 109.736 45.48C106.776 45.48 103.996 44.96 101.396 43.92C98.7964 42.84 96.5164 41.34 94.5564 39.42C92.5964 37.5 91.0564 35.24 89.9364 32.64C88.8164 30 88.2564 27.12 88.2564 24ZM89.4564 24.06C89.4564 26.86 89.9764 29.5 91.0164 31.98C92.0564 34.42 93.4964 36.58 95.3364 38.46C97.1764 40.3 99.3164 41.74 101.756 42.78C104.196 43.82 106.796 44.34 109.556 44.34C112.396 44.34 115.056 43.82 117.536 42.78C120.016 41.74 122.196 40.3 124.076 38.46C125.956 36.58 127.436 34.42 128.516 31.98C129.596 29.5 130.136 26.84 130.136 24C130.136 21.2 129.596 18.58 128.516 16.14C127.436 13.66 125.956 11.48 124.076 9.6C122.236 7.72 120.076 6.24 117.596 5.16C115.156 4.08 112.536 3.54 109.736 3.54C106.856 3.54 104.176 4.1 101.696 5.22C99.2564 6.3 97.1164 7.8 95.2764 9.72C93.4364 11.64 91.9964 13.84 90.9564 16.32C89.9564 18.76 89.4564 21.34 89.4564 24.06ZM157.51 2.88C158.71 2.88 160.01 3.08 161.41 3.48C162.85 3.88 164.19 4.52 165.43 5.4C166.71 6.28 167.75 7.44 168.55 8.88C169.35 10.28 169.75 12.02 169.75 14.1C169.75 15.62 169.51 17.1 169.03 18.54C168.55 19.94 167.79 21.2 166.75 22.32C165.75 23.44 164.43 24.34 162.79 25.02C161.15 25.66 159.13 25.98 156.73 25.98H150.07V45H148.87V2.88H157.51ZM156.55 24.84C158.95 24.84 160.91 24.52 162.43 23.88C163.99 23.24 165.21 22.4 166.09 21.36C166.97 20.32 167.59 19.18 167.95 17.94C168.35 16.66 168.55 15.4 168.55 14.16C168.55 12.68 168.25 11.32 167.65 10.08C167.09 8.8 166.31 7.72 165.31 6.84C164.31 5.92 163.15 5.22 161.83 4.74C160.51 4.26 159.09 4.02 157.57 4.02H150.07V24.84H156.55ZM162.07 24.9L174.13 45H172.75L160.69 24.9H162.07ZM182.794 2.88H210.154V4.02H197.074V45H195.874V4.02H182.794V2.88ZM226.906 2.88H249.646V4.02H228.106V23.82H247.306V24.96H228.106V45H226.906V2.88ZM262.198 24C262.198 21.04 262.758 18.26 263.878 15.66C264.998 13.02 266.538 10.72 268.498 8.76C270.458 6.76 272.738 5.2 275.338 4.08C277.938 2.96 280.718 2.4 283.678 2.4C286.638 2.4 289.418 2.96 292.018 4.08C294.618 5.2 296.898 6.76 298.858 8.76C300.858 10.72 302.418 13.02 303.538 15.66C304.698 18.26 305.278 21.04 305.278 24C305.278 26.96 304.698 29.74 303.538 32.34C302.418 34.94 300.858 37.22 298.858 39.18C296.898 41.14 294.618 42.68 292.018 43.8C289.418 44.92 286.638 45.48 283.678 45.48C280.718 45.48 277.938 44.96 275.338 43.92C272.738 42.84 270.458 41.34 268.498 39.42C266.538 37.5 264.998 35.24 263.878 32.64C262.758 30 262.198 27.12 262.198 24ZM263.398 24.06C263.398 26.86 263.918 29.5 264.958 31.98C265.998 34.42 267.438 36.58 269.278 38.46C271.118 40.3 273.258 41.74 275.698 42.78C278.138 43.82 280.738 44.34 283.498 44.34C286.338 44.34 288.998 43.82 291.478 42.78C293.958 41.74 296.138 40.3 298.018 38.46C299.898 36.58 301.378 34.42 302.458 31.98C303.538 29.5 304.078 26.84 304.078 24C304.078 21.2 303.538 18.58 302.458 16.14C301.378 13.66 299.898 11.48 298.018 9.6C296.178 7.72 294.018 6.24 291.538 5.16C289.098 4.08 286.478 3.54 283.678 3.54C280.798 3.54 278.118 4.1 275.638 5.22C273.198 6.3 271.058 7.8 269.218 9.72C267.378 11.64 265.938 13.84 264.898 16.32C263.898 18.76 263.398 21.34 263.398 24.06ZM322.812 2.88H324.012V43.86H348.132V45H322.812V2.88ZM364.261 2.88H365.461V45H364.261V2.88ZM383.03 24C383.03 21.04 383.59 18.26 384.71 15.66C385.83 13.02 387.37 10.72 389.33 8.76C391.29 6.76 393.57 5.2 396.17 4.08C398.77 2.96 401.55 2.4 404.51 2.4C407.47 2.4 410.25 2.96 412.85 4.08C415.45 5.2 417.73 6.76 419.69 8.76C421.69 10.72 423.25 13.02 424.37 15.66C425.53 18.26 426.11 21.04 426.11 24C426.11 26.96 425.53 29.74 424.37 32.34C423.25 34.94 421.69 37.22 419.69 39.18C417.73 41.14 415.45 42.68 412.85 43.8C410.25 44.92 407.47 45.48 404.51 45.48C401.55 45.48 398.77 44.96 396.17 43.92C393.57 42.84 391.29 41.34 389.33 39.42C387.37 37.5 385.83 35.24 384.71 32.64C383.59 30 383.03 27.12 383.03 24ZM384.23 24.06C384.23 26.86 384.75 29.5 385.79 31.98C386.83 34.42 388.27 36.58 390.11 38.46C391.95 40.3 394.09 41.74 396.53 42.78C398.97 43.82 401.57 44.34 404.33 44.34C407.17 44.34 409.83 43.82 412.31 42.78C414.79 41.74 416.97 40.3 418.85 38.46C420.73 36.58 422.21 34.42 423.29 31.98C424.37 29.5 424.91 26.84 424.91 24C424.91 21.2 424.37 18.58 423.29 16.14C422.21 13.66 420.73 11.48 418.85 9.6C417.01 7.72 414.85 6.24 412.37 5.16C409.93 4.08 407.31 3.54 404.51 3.54C401.63 3.54 398.95 4.1 396.47 5.22C394.03 6.3 391.89 7.8 390.05 9.72C388.21 11.64 386.77 13.84 385.73 16.32C384.73 18.76 384.23 21.34 384.23 24.06Z" fill="#5D5C61"/>
<path d="M66.9 2.88C69.22 2.88 71.28 3.28 73.08 4.08C74.92 4.88 76.36 6.12 77.4 7.8C78.44 9.44 78.96 11.54 78.96 14.1C78.96 15.62 78.7 17.1 78.18 18.54C77.7 19.94 76.94 21.2 75.9 22.32C74.86 23.44 73.52 24.34 71.88 25.02C70.24 25.66 68.28 25.98 66 25.98H59.34V45H58.14V2.88H66.9ZM66 24.84C68.32 24.84 70.24 24.48 71.76 23.76C73.32 23.04 74.52 22.12 75.36 21C76.24 19.88 76.86 18.7 77.22 17.46C77.62 16.22 77.82 15.06 77.82 13.98C77.82 12.38 77.54 10.96 76.98 9.72C76.46 8.48 75.72 7.44 74.76 6.6C73.8 5.76 72.64 5.12 71.28 4.68C69.92 4.24 68.44 4.02 66.84 4.02H59.34V24.84H66ZM93.2564 24C93.2564 21.04 93.8164 18.26 94.9364 15.66C96.0564 13.02 97.5964 10.72 99.5564 8.76C101.516 6.76 103.796 5.2 106.396 4.08C108.996 2.96 111.776 2.4 114.736 2.4C117.696 2.4 120.476 2.96 123.076 4.08C125.676 5.2 127.956 6.76 129.916 8.76C131.916 10.72 133.476 13.02 134.596 15.66C135.756 18.26 136.336 21.04 136.336 24C136.336 26.96 135.756 29.74 134.596 32.34C133.476 34.94 131.916 37.22 129.916 39.18C127.956 41.14 125.676 42.68 123.076 43.8C120.476 44.92 117.696 45.48 114.736 45.48C111.776 45.48 108.996 44.96 106.396 43.92C103.796 42.84 101.516 41.34 99.5564 39.42C97.5964 37.5 96.0564 35.24 94.9364 32.64C93.8164 30 93.2564 27.12 93.2564 24ZM94.4564 24.06C94.4564 26.86 94.9764 29.5 96.0164 31.98C97.0564 34.42 98.4964 36.58 100.336 38.46C102.176 40.3 104.316 41.74 106.756 42.78C109.196 43.82 111.796 44.34 114.556 44.34C117.396 44.34 120.056 43.82 122.536 42.78C125.016 41.74 127.196 40.3 129.076 38.46C130.956 36.58 132.436 34.42 133.516 31.98C134.596 29.5 135.136 26.84 135.136 24C135.136 21.2 134.596 18.58 133.516 16.14C132.436 13.66 130.956 11.48 129.076 9.6C127.236 7.72 125.076 6.24 122.596 5.16C120.156 4.08 117.536 3.54 114.736 3.54C111.856 3.54 109.176 4.1 106.696 5.22C104.256 6.3 102.116 7.8 100.276 9.72C98.4364 11.64 96.9964 13.84 95.9564 16.32C94.9564 18.76 94.4564 21.34 94.4564 24.06ZM162.51 2.88C163.71 2.88 165.01 3.08 166.41 3.48C167.85 3.88 169.19 4.52 170.43 5.4C171.71 6.28 172.75 7.44 173.55 8.88C174.35 10.28 174.75 12.02 174.75 14.1C174.75 15.62 174.51 17.1 174.03 18.54C173.55 19.94 172.79 21.2 171.75 22.32C170.75 23.44 169.43 24.34 167.79 25.02C166.15 25.66 164.13 25.98 161.73 25.98H155.07V45H153.87V2.88H162.51ZM161.55 24.84C163.95 24.84 165.91 24.52 167.43 23.88C168.99 23.24 170.21 22.4 171.09 21.36C171.97 20.32 172.59 19.18 172.95 17.94C173.35 16.66 173.55 15.4 173.55 14.16C173.55 12.68 173.25 11.32 172.65 10.08C172.09 8.8 171.31 7.72 170.31 6.84C169.31 5.92 168.15 5.22 166.83 4.74C165.51 4.26 164.09 4.02 162.57 4.02H155.07V24.84H161.55ZM167.07 24.9L179.13 45H177.75L165.69 24.9H167.07ZM187.794 2.88H215.154V4.02H202.074V45H200.874V4.02H187.794V2.88ZM231.906 2.88H254.646V4.02H233.106V23.82H252.306V24.96H233.106V45H231.906V2.88ZM267.198 24C267.198 21.04 267.758 18.26 268.878 15.66C269.998 13.02 271.538 10.72 273.498 8.76C275.458 6.76 277.738 5.2 280.338 4.08C282.938 2.96 285.718 2.4 288.678 2.4C291.638 2.4 294.418 2.96 297.018 4.08C299.618 5.2 301.898 6.76 303.858 8.76C305.858 10.72 307.418 13.02 308.538 15.66C309.698 18.26 310.278 21.04 310.278 24C310.278 26.96 309.698 29.74 308.538 32.34C307.418 34.94 305.858 37.22 303.858 39.18C301.898 41.14 299.618 42.68 297.018 43.8C294.418 44.92 291.638 45.48 288.678 45.48C285.718 45.48 282.938 44.96 280.338 43.92C277.738 42.84 275.458 41.34 273.498 39.42C271.538 37.5 269.998 35.24 268.878 32.64C267.758 30 267.198 27.12 267.198 24ZM268.398 24.06C268.398 26.86 268.918 29.5 269.958 31.98C270.998 34.42 272.438 36.58 274.278 38.46C276.118 40.3 278.258 41.74 280.698 42.78C283.138 43.82 285.738 44.34 288.498 44.34C291.338 44.34 293.998 43.82 296.478 42.78C298.958 41.74 301.138 40.3 303.018 38.46C304.898 36.58 306.378 34.42 307.458 31.98C308.538 29.5 309.078 26.84 309.078 24C309.078 21.2 308.538 18.58 307.458 16.14C306.378 13.66 304.898 11.48 303.018 9.6C301.178 7.72 299.018 6.24 296.538 5.16C294.098 4.08 291.478 3.54 288.678 3.54C285.798 3.54 283.118 4.1 280.638 5.22C278.198 6.3 276.058 7.8 274.218 9.72C272.378 11.64 270.938 13.84 269.898 16.32C268.898 18.76 268.398 21.34 268.398 24.06ZM327.812 2.88H329.012V43.86H353.132V45H327.812V2.88ZM369.261 2.88H370.461V45H369.261V2.88ZM388.03 24C388.03 21.04 388.59 18.26 389.71 15.66C390.83 13.02 392.37 10.72 394.33 8.76C396.29 6.76 398.57 5.2 401.17 4.08C403.77 2.96 406.55 2.4 409.51 2.4C412.47 2.4 415.25 2.96 417.85 4.08C420.45 5.2 422.73 6.76 424.69 8.76C426.69 10.72 428.25 13.02 429.37 15.66C430.53 18.26 431.11 21.04 431.11 24C431.11 26.96 430.53 29.74 429.37 32.34C428.25 34.94 426.69 37.22 424.69 39.18C422.73 41.14 420.45 42.68 417.85 43.8C415.25 44.92 412.47 45.48 409.51 45.48C406.55 45.48 403.77 44.96 401.17 43.92C398.57 42.84 396.29 41.34 394.33 39.42C392.37 37.5 390.83 35.24 389.71 32.64C388.59 30 388.03 27.12 388.03 24ZM389.23 24.06C389.23 26.86 389.75 29.5 390.79 31.98C391.83 34.42 393.27 36.58 395.11 38.46C396.95 40.3 399.09 41.74 401.53 42.78C403.97 43.82 406.57 44.34 409.33 44.34C412.17 44.34 414.83 43.82 417.31 42.78C419.79 41.74 421.97 40.3 423.85 38.46C425.73 36.58 427.21 34.42 428.29 31.98C429.37 29.5 429.91 26.84 429.91 24C429.91 21.2 429.37 18.58 428.29 16.14C427.21 13.66 425.73 11.48 423.85 9.6C422.01 7.72 419.85 6.24 417.37 5.16C414.93 4.08 412.31 3.54 409.51 3.54C406.63 3.54 403.95 4.1 401.47 5.22C399.03 6.3 396.89 7.8 395.05 9.72C393.21 11.64 391.77 13.84 390.73 16.32C389.73 18.76 389.23 21.34 389.23 24.06Z" fill="#5D5C61"/>
<line x1="0.5" y1="22.5" x2="19.5" y2="22.5" stroke="#B3292C" stroke-linecap="round"/>
<line x1="0.5" y1="28.5" x2="19.5" y2="28.5" stroke="#B3292C" stroke-linecap="round"/>
</svg>
