<svg width="377" height="82" viewBox="0 0 377 82" fill="none" xmlns="http://www.w3.org/2000/svg">
<path opacity="0.37" d="M50 32.64C50 28.5867 50.7733 24.7467 52.32 21.12C53.8667 17.4933 56 14.2933 58.72 11.52C61.4933 8.69333 64.6933 6.48 68.32 4.88C71.9467 3.28 75.84 2.48 80 2.48C84.1067 2.48 87.9733 3.28 91.6 4.88C95.2267 6.48 98.4267 8.69333 101.2 11.52C104.027 14.2933 106.213 17.4933 107.76 21.12C109.36 24.7467 110.16 28.5867 110.16 32.64C110.16 36.8 109.36 40.6933 107.76 44.32C106.213 47.9467 104.027 51.1467 101.2 53.92C98.4267 56.64 95.2267 58.7733 91.6 60.32C87.9733 61.8667 84.1067 62.64 80 62.64C75.84 62.64 71.9467 61.8667 68.32 60.32C64.6933 58.7733 61.4933 56.64 58.72 53.92C56 51.1467 53.8667 47.9467 52.32 44.32C50.7733 40.6933 50 36.8 50 32.64ZM62 32.64C62 35.2533 62.4533 37.7067 63.36 40C64.32 42.24 65.6267 44.24 67.28 46C68.9867 47.7067 70.9333 49.04 73.12 50C75.36 50.96 77.7867 51.44 80.4 51.44C82.9067 51.44 85.2267 50.96 87.36 50C89.5467 49.04 91.44 47.7067 93.04 46C94.64 44.24 95.8933 42.24 96.8 40C97.7067 37.7067 98.16 35.2533 98.16 32.64C98.16 29.9733 97.68 27.4933 96.72 25.2C95.8133 22.9067 94.5333 20.9067 92.88 19.2C91.28 17.44 89.3867 16.08 87.2 15.12C85.0133 14.16 82.64 13.68 80.08 13.68C77.52 13.68 75.1467 14.16 72.96 15.12C70.7733 16.08 68.8533 17.44 67.2 19.2C65.5467 20.9067 64.2667 22.9067 63.36 25.2C62.4533 27.4933 62 29.9733 62 32.64ZM180.845 64.4L136.205 24.08L139.645 26L139.885 62H128.125V0.799996H128.605L172.285 40.96L169.725 39.84L169.485 3.12H181.165V64.4H180.845ZM199.448 38.8H214.488V48.56H199.448V38.8ZM226.941 62L253.501 0.799996H254.141L280.701 62H267.261L250.301 18.96L258.701 13.2L238.381 62H226.941ZM245.101 40.72H262.781L266.861 50.48H241.501L245.101 40.72ZM295.684 3.12H307.284V62H295.684V3.12ZM346.721 3.12C350.401 3.12 353.681 3.6 356.561 4.56C359.441 5.46666 361.841 6.8 363.761 8.56C365.735 10.2667 367.228 12.3467 368.241 14.8C369.255 17.2 369.761 19.92 369.761 22.96C369.761 25.36 369.388 27.76 368.641 30.16C367.948 32.56 366.775 34.7467 365.121 36.72C363.521 38.6933 361.388 40.2933 358.721 41.52C356.055 42.6933 352.748 43.28 348.801 43.28H340.481V62H328.881V3.12H346.721ZM348.721 32.08C350.481 32.08 351.948 31.7867 353.121 31.2C354.295 30.6133 355.201 29.8667 355.841 28.96C356.535 28.0533 357.015 27.12 357.281 26.16C357.601 25.1467 357.761 24.2133 357.761 23.36C357.761 22.72 357.655 21.92 357.441 20.96C357.281 19.9467 356.908 18.9333 356.321 17.92C355.735 16.9067 354.828 16.0533 353.601 15.36C352.428 14.6667 350.828 14.32 348.801 14.32H340.481V32.08H348.721ZM359.601 39.28L374.161 62H360.641L345.761 39.6L359.601 39.28Z" fill="#EAE9ED"/>
<path d="M51.92 34C51.92 30.0533 52.6667 26.3467 54.16 22.88C55.6533 19.36 57.7067 16.2933 60.32 13.68C62.9333 11.0133 65.9733 8.93333 69.44 7.44C72.9067 5.94666 76.6133 5.2 80.56 5.2C84.5067 5.2 88.2133 5.94666 91.68 7.44C95.1467 8.93333 98.1867 11.0133 100.8 13.68C103.467 16.2933 105.547 19.36 107.04 22.88C108.587 26.3467 109.36 30.0533 109.36 34C109.36 37.9467 108.587 41.6533 107.04 45.12C105.547 48.5867 103.467 51.6267 100.8 54.24C98.1867 56.8533 95.1467 58.9067 91.68 60.4C88.2133 61.8933 84.5067 62.64 80.56 62.64C76.6133 62.64 72.9067 61.9467 69.44 60.56C65.9733 59.12 62.9333 57.12 60.32 54.56C57.7067 52 55.6533 48.9867 54.16 45.52C52.6667 42 51.92 38.16 51.92 34ZM53.52 34.08C53.52 37.8133 54.2133 41.3333 55.6 44.64C56.9867 47.8933 58.9067 50.7733 61.36 53.28C63.8133 55.7333 66.6667 57.6533 69.92 59.04C73.1733 60.4267 76.64 61.12 80.32 61.12C84.1067 61.12 87.6533 60.4267 90.96 59.04C94.2667 57.6533 97.1733 55.7333 99.68 53.28C102.187 50.7733 104.16 47.8933 105.6 44.64C107.04 41.3333 107.76 37.7867 107.76 34C107.76 30.2667 107.04 26.7733 105.6 23.52C104.16 20.2133 102.187 17.3067 99.68 14.8C97.2267 12.2933 94.3467 10.32 91.04 8.88C87.7867 7.44 84.2933 6.72 80.56 6.72C76.72 6.72 73.1467 7.46666 69.84 8.96C66.5867 10.4 63.7333 12.4 61.28 14.96C58.8267 17.52 56.9067 20.4533 55.52 23.76C54.1867 27.0133 53.52 30.4533 53.52 34.08ZM178.659 63.04L133.859 8.72L134.259 7.92L134.339 62H132.739V4.96H132.819L178.019 59.84L177.219 59.76V5.84H178.739V63.04H178.659ZM200.537 45.84H215.257V47.36H200.537V45.84ZM233.321 62L256.601 3.28H256.761L280.041 62H278.281L256.201 5.92L257.241 5.68L234.921 62H233.321ZM243.001 39.52H270.441L270.601 40.96H242.841L243.001 39.52ZM302.52 5.84H304.12V62H302.52V5.84ZM342.665 5.84C344.265 5.84 345.998 6.10666 347.865 6.64C349.785 7.17333 351.572 8.02666 353.225 9.2C354.932 10.3733 356.318 11.92 357.385 13.84C358.452 15.7067 358.985 18.0267 358.985 20.8C358.985 22.8267 358.665 24.8 358.025 26.72C357.385 28.5867 356.372 30.2667 354.985 31.76C353.652 33.2533 351.892 34.4533 349.705 35.36C347.518 36.2133 344.825 36.64 341.625 36.64H332.745V62H331.145V5.84H342.665ZM341.385 35.12C344.585 35.12 347.198 34.6933 349.225 33.84C351.305 32.9867 352.932 31.8667 354.105 30.48C355.278 29.0933 356.105 27.5733 356.585 25.92C357.118 24.2133 357.385 22.5333 357.385 20.88C357.385 18.9067 356.985 17.0933 356.185 15.44C355.438 13.7333 354.398 12.2933 353.065 11.12C351.732 9.89333 350.185 8.96 348.425 8.32C346.665 7.68 344.772 7.36 342.745 7.36H332.745V35.12H341.385ZM348.745 35.2L364.825 62H362.985L346.905 35.2H348.745Z" fill="#EAE9ED"/>
<path d="M56.92 34C56.92 30.0533 57.6667 26.3467 59.16 22.88C60.6533 19.36 62.7067 16.2933 65.32 13.68C67.9333 11.0133 70.9733 8.93333 74.44 7.44C77.9067 5.94666 81.6133 5.2 85.56 5.2C89.5067 5.2 93.2133 5.94666 96.68 7.44C100.147 8.93333 103.187 11.0133 105.8 13.68C108.467 16.2933 110.547 19.36 112.04 22.88C113.587 26.3467 114.36 30.0533 114.36 34C114.36 37.9467 113.587 41.6533 112.04 45.12C110.547 48.5867 108.467 51.6267 105.8 54.24C103.187 56.8533 100.147 58.9067 96.68 60.4C93.2133 61.8933 89.5067 62.64 85.56 62.64C81.6133 62.64 77.9067 61.9467 74.44 60.56C70.9733 59.12 67.9333 57.12 65.32 54.56C62.7067 52 60.6533 48.9867 59.16 45.52C57.6667 42 56.92 38.16 56.92 34ZM58.52 34.08C58.52 37.8133 59.2133 41.3333 60.6 44.64C61.9867 47.8933 63.9067 50.7733 66.36 53.28C68.8133 55.7333 71.6667 57.6533 74.92 59.04C78.1733 60.4267 81.64 61.12 85.32 61.12C89.1067 61.12 92.6533 60.4267 95.96 59.04C99.2667 57.6533 102.173 55.7333 104.68 53.28C107.187 50.7733 109.16 47.8933 110.6 44.64C112.04 41.3333 112.76 37.7867 112.76 34C112.76 30.2667 112.04 26.7733 110.6 23.52C109.16 20.2133 107.187 17.3067 104.68 14.8C102.227 12.2933 99.3467 10.32 96.04 8.88C92.7867 7.44 89.2933 6.72 85.56 6.72C81.72 6.72 78.1467 7.46666 74.84 8.96C71.5867 10.4 68.7333 12.4 66.28 14.96C63.8267 17.52 61.9067 20.4533 60.52 23.76C59.1867 27.0133 58.52 30.4533 58.52 34.08ZM183.659 63.04L138.859 8.72L139.259 7.92L139.339 62H137.739V4.96H137.819L183.019 59.84L182.219 59.76V5.84H183.739V63.04H183.659ZM205.537 45.84H220.257V47.36H205.537V45.84ZM238.321 62L261.601 3.28H261.761L285.041 62H283.281L261.201 5.92L262.241 5.68L239.921 62H238.321ZM248.001 39.52H275.441L275.601 40.96H247.841L248.001 39.52ZM307.52 5.84H309.12V62H307.52V5.84ZM347.665 5.84C349.265 5.84 350.998 6.10666 352.865 6.64C354.785 7.17333 356.572 8.02666 358.225 9.2C359.932 10.3733 361.318 11.92 362.385 13.84C363.452 15.7067 363.985 18.0267 363.985 20.8C363.985 22.8267 363.665 24.8 363.025 26.72C362.385 28.5867 361.372 30.2667 359.985 31.76C358.652 33.2533 356.892 34.4533 354.705 35.36C352.518 36.2133 349.825 36.64 346.625 36.64H337.745V62H336.145V5.84H347.665ZM346.385 35.12C349.585 35.12 352.198 34.6933 354.225 33.84C356.305 32.9867 357.932 31.8667 359.105 30.48C360.278 29.0933 361.105 27.5733 361.585 25.92C362.118 24.2133 362.385 22.5333 362.385 20.88C362.385 18.9067 361.985 17.0933 361.185 15.44C360.438 13.7333 359.398 12.2933 358.065 11.12C356.732 9.89333 355.185 8.96 353.425 8.32C351.665 7.68 349.772 7.36 347.745 7.36H337.745V35.12H346.385ZM353.745 35.2L369.825 62H367.985L351.905 35.2H353.745Z" fill="#EAE9ED"/>
<line x1="0.5" y1="34.5" x2="19.5" y2="34.5" stroke="#B3292C" stroke-linecap="round"/>
<line x1="0.5" y1="40.5" x2="19.5" y2="40.5" stroke="#B3292C" stroke-linecap="round"/>
</svg>
