<svg width="602" height="424" viewBox="0 0 602 424" fill="none" xmlns="http://www.w3.org/2000/svg">
<path d="M17.9 82.4C19.1 76.4 20.4 69.6 21.5 62.5L28 62.1C27.9 69.9 27.2 79.1 24.2 88.2L17.9 82.4ZM42.8 61.1V51L39.1 51.2V45.4H28V51.8L23 52.1C23.9 45.4 24.6 38.6 25.1 32.4L13.7 31.9C13.4 38.3 12.7 45.6 11.9 52.7L4 53L5.1 63.6L10.4 63.2C9.1 71.6 7.6 79.4 6.1 85.5C10.2 89.5 15.1 94.1 19.6 98.8C16.1 105.1 11 111.2 3.8 116.5C6.4 118.4 10.2 122.3 12 124.9C19 119.6 24.2 113.7 28 107.5C30.8 110.5 33.4 113.4 35.1 115.9L42.8 106.9C40.4 104 37.1 100.5 33.3 96.8C38.1 84.4 39 71.7 39.1 61.3L42.8 61.1ZM51.5 71.8C50.1 82.6 47.4 93.6 43.3 100.7C45.8 101.8 50.7 104.3 52.6 105.8C57 98 60.4 85.7 62.1 73.7L51.5 71.8ZM84.3 56.7C83.5 60.7 82.5 64.5 81.5 67.3L91.2 70.2C93.8 64.4 96.3 55.5 97.7 47.3L89.5 45.6L87.5 46H62.1C63.4 41.9 64.5 37.8 65.4 33.5L54.3 31.3C51.8 44.3 47.1 57.3 40.6 65.4C43.4 66.7 48.3 69.8 50.4 71.5C53.2 67.5 56 62.4 58.4 56.7H65.3V111.5C65.3 112.9 64.9 113.3 63.4 113.4C62 113.4 57.4 113.4 52.9 113.2C54.6 116.2 56.4 121.2 57 124.3C63.6 124.4 68.6 124 72 122.2C75.6 120.3 76.7 117.3 76.7 111.7V56.7H84.3ZM79.6 74.2C82.9 84.4 86.4 97.9 87.3 106.5L98 103.3C96.7 94.5 93.3 81.4 89.5 71.3L79.6 74.2ZM145.6 112.6C135.8 112.6 134.4 111.4 134.4 104V73.4L149.7 68.5V102.2H161.6V64.8L180 58.9C179.6 70.7 178.8 83.5 177.6 91.7L187.4 94.5C189.7 82.3 191.2 63.8 191.8 49.8L192.2 48L183.3 45.2L180.1 47.4L161.6 53.1V31.4H149.7V56.9L134.4 61.7V38.3H122.7V65.4L105.6 70.7L108.7 81.5L122.7 77.1V103.9C122.7 119.3 127.9 123.3 145.5 123.3H176.7C192.9 123.3 196.9 117.9 198.9 101.3C195.7 100.6 190.7 98.7 187.8 96.9C186.4 109.9 184.9 112.6 175.9 112.6H145.6ZM249.9 72.5V88.5H230.9V72.5H249.9ZM261.7 99.9V61.2H219.3V107.5H230.9V99.9H261.7ZM300.2 38H210.1V50H276.2V109.4C276.2 111.5 275.3 112.2 273 112.2C270.6 112.2 261.9 112.3 254.8 111.9C256.6 115.1 259 121 259.7 124.5C269.9 124.5 277.3 124.3 282.3 122.3C287 120.3 288.7 116.8 288.7 109.6V50H300.2V38ZM368.8 67.1C365.8 60.2 359.5 50.4 353 43.1L342.2 48.5C348.2 55.9 354.6 66.4 357.1 73.3L368.8 67.1ZM350.5 84.8C345.5 86.8 340.4 88.9 335.4 91L333.6 36.9L321.2 37.4L323.2 95.8C318.2 97.8 313.7 99.4 309.9 100.7L313.9 113.4C325.2 108.7 340 102.4 353.2 96.5L350.5 84.8ZM404.8 114.7C400.2 107.7 390.9 97.6 382.6 89C389.1 75.4 392.7 58.7 394.8 38.2L381.7 37C378 78.1 367.7 102.3 336 114.3C338.9 116.8 343.8 122.2 345.5 124.8C358.7 118.9 368.6 110.9 375.9 100.5C383.3 108.9 390.8 118.1 394.6 124.6L404.8 114.7ZM481.6 48.1H435.8V43.1H481.6V48.1ZM481.6 61H435.8V55.9H481.6V61ZM493.7 34.7H424.3V69.4H493.7V34.7ZM466.1 102.1H496.9V91.8H466.1V84.3H503.2V73.8H415V84.3H454V109.7C447.6 107.7 442.7 104 439.6 97.2C440.4 94.3 441.2 91.3 441.9 88.1L430 86.3C427.7 99.7 421.6 110.3 411.4 116.6C414.1 118.3 418.7 122.7 420.4 124.9C426.2 120.9 430.8 115.6 434.4 109C442.8 120.6 455.2 123.1 473.5 123.1H502C502.6 119.7 504.4 114.5 506 111.8C498.9 112.1 479.7 112.1 474.1 112.1C471.4 112.1 468.7 112 466.1 111.8V102.1Z" fill="white"/>
<path d="M40.88 289.78V305.74H27.44V289.78H40.88ZM27.44 340.32V323.8H40.88V340.32H27.44ZM59.64 358.8V271.44H8.68V370.42H27.44V358.8H59.64ZM86.94 335.28C87.36 330.24 87.5 325.48 87.5 321H112.7V335.28H86.94ZM112.7 288.52V302.8H87.5V288.52H112.7ZM132.86 269.76H67.48V320.86C67.48 342 65.52 368.04 41.86 384.84C46.2 387.5 54.18 394.5 57.26 398.42C72.94 387.22 80.78 370.42 84.42 353.48H112.7V374.76C112.7 377.14 111.86 377.98 109.34 377.98C106.96 377.98 98.56 378.12 91.84 377.7C94.78 382.74 98 391.7 98.84 397.3C110.46 397.3 118.72 396.74 124.88 393.52C130.9 390.3 132.86 384.98 132.86 375.04V269.76ZM182.14 354.46C183.82 352.5 185.5 350.54 187.18 348.44H214.2V354.46H182.14ZM194.88 302.66H251.3V307.28H194.88V302.66ZM194.88 284.04H251.3V288.52H194.88V284.04ZM235.34 376.3V370H271.04V354.46H235.34V348.44H277.62V331.78H235.34V324.78H214.2V331.78H198.1C199.22 329.82 200.2 328 201.04 326.04L188.86 322.54H272.44V268.78H174.86V322.54H180.04C175 332.62 166.74 342.56 158.06 349C162.82 351.8 171.08 357.96 175 361.6C176.54 360.2 178.08 358.8 179.62 357.12V370H214.2V376.3H161.84V393.66H286.72V376.3H235.34ZM315.56 358.1C315 369.44 313.74 381.9 310.8 389.88C314.44 390.86 321.3 393.1 324.66 394.92C327.32 386.38 329.28 373.08 329.98 360.48L315.56 358.1ZM330.96 360.34C332.22 369.58 333.62 381.62 333.76 389.74L347.62 385.96C347.06 377.98 345.66 366.22 343.98 356.98L330.96 360.34ZM406.42 358.94C404.6 358.94 404.32 357.68 404.32 354.88V349.42H420.98V334.44H406L411.6 332.48C411.04 330.38 409.64 327.16 408.52 324.36H420.84V309.38H416.22C417.76 304.48 419.44 298.6 421.26 292.86L407.82 289.64C407.12 295.38 405.44 303.5 404.04 309.38H394.8L401.66 307C401.1 302.24 399.14 294.82 396.76 289.36L385.56 293C387.52 298.04 389.2 304.48 389.76 309.38H384.58V324.36H403.2L393.96 327.16C394.8 329.4 395.78 332.06 396.48 334.44H384.72V349.42H388.36V354.74C388.36 367.2 391.02 372.38 404.46 372.38H412.58C415.52 372.38 419.02 372.24 421.12 371.4C420.56 367.62 420.28 362.02 420 357.96C418.04 358.66 414.26 358.94 412.16 358.94H406.42ZM441.42 269.9H364.7V341.3C362.74 335 359.8 327.3 357.42 321L344.68 325.9C345.52 328.28 346.36 330.94 347.2 333.6L336.98 335C347.2 322.4 357 307.42 364.14 292.86L349.72 283.34C346.92 290.06 343.56 296.92 340.06 303.22L332.92 303.64C339.22 293.98 345.38 282.36 349.72 271.44L333.76 264.72C329.56 279.28 321.58 294.54 318.92 298.46C316.4 302.52 314.02 305.04 311.36 305.88C313.32 310.36 315.98 318.34 316.82 321.7C318.78 320.72 321.72 319.88 330.68 318.76C327.46 323.66 324.8 327.3 323.26 329.12C318.92 334.44 316.12 337.66 312.48 338.64C314.3 343.12 317.1 351.38 317.8 354.74C320.88 353.06 325.92 351.66 351.4 347.32C351.82 349.28 352.24 351.1 352.52 352.64L364.7 347.46V374.9C363.02 368.18 360.5 359.64 357.84 352.5L345.66 356.84C348.32 365.24 351.4 376.3 352.52 383.58L364.7 378.82V397.44H382.62V287.4H423.36V378.12C423.36 379.94 422.8 380.5 420.98 380.64C419.3 380.64 414.12 380.64 409.92 380.36C412.16 384.84 414.26 392.54 414.82 397.3C423.92 397.3 430.36 396.88 435.26 394.08C440.16 391.14 441.42 386.66 441.42 378.26V269.9ZM498.68 331.64C501.06 329.12 503.58 326.6 505.96 323.8C506.66 325.9 507.36 328.14 507.92 330.38L498.68 331.64ZM530.04 346.9C528.78 339.2 525 326.88 521.36 317.36L508.9 320.58C515.76 312.6 522.2 304.06 527.66 295.52L510.3 283.76C507.08 289.92 503.16 295.94 499.24 301.68L491.54 302.1C498.96 293 506.24 282.08 511.56 271.72L492.38 263.6C486.92 277.88 477.54 292.44 474.32 296.22C471.1 300.14 468.58 302.52 465.36 303.36C467.6 308.54 470.82 317.78 471.8 321.7C473.9 320.72 477.12 319.74 486.22 318.76C482.86 322.54 480.06 325.48 478.38 327.02C473.2 332.06 469.98 334.86 465.64 335.84C468.02 341.16 471.24 350.82 472.22 354.74C476 352.78 482.02 351.1 511.84 346.34C512.26 348.3 512.54 350.26 512.82 351.94L530.04 346.9ZM474.18 357.82C472.64 368.88 469.42 381.62 465.64 389.46C470.4 390.72 478.94 393.24 483.14 395.48C486.5 387.08 490.28 373.64 492.1 361.46L474.18 357.82ZM492.66 360.9C494.48 370.14 496.3 382.32 496.58 390.3L513.66 385.4C512.96 377.42 511 365.66 508.9 356.56L492.66 360.9ZM509.6 356C511.84 361.74 514.64 369.58 515.62 374.48L531.58 368.18C530.18 363.28 527.38 356 524.86 350.4L509.6 356ZM572.04 372.1V293.98H595.98V274.1H527.24V293.98H550.76V372.1H522.76V391.98H598.5V372.1H572.04Z" fill="white"/>
<path d="M29.77 198.33H37.96V200.29H29.77V198.33ZM29.77 191.19H37.96V193.08H29.77V191.19ZM54.97 193.08H47.41V191.19H54.97V193.08ZM54.97 200.29H47.41V198.33H54.97V200.29ZM64.56 205.89V185.59H20.67V205.89H30.33C25.78 207.85 20.18 209.95 15.91 211.28C17.73 213.17 20.04 216.18 21.3 218.14C27.04 216.18 35.3 213.1 41.46 210.51L36.42 205.89H47.9L45.1 210.51C51.75 212.89 59.1 216.04 63.51 218.07L68.13 211.07C64.7 209.67 59.52 207.71 54.34 205.89H64.56ZM47.48 171.94V173.83H36.84V171.94H47.48ZM27.18 164.73V166.55H19.48V171.94H27.18V177.75H57.7V171.94H66.17V166.55H57.7V164.73H47.48V166.55H36.84V164.73H27.18ZM19.06 184.4H67.92V178.94H19.06V184.4ZM45.38 155.7C44.82 153.95 44.19 152.06 43.63 150.52L32.99 152.62C33.27 153.53 33.62 154.65 33.9 155.7H8.42V177.68C8.42 188.11 8 202.6 2.26 212.4C4.64 213.31 8.98 215.83 10.8 217.37C17.1 206.66 18.08 189.37 18.08 177.68V164.17H68.41V155.7H45.38ZM127.07 197.98V205.19H100.12V197.98H127.07ZM89.62 217.65H100.12V214.57H127.07V217.37H138.06V188.67H89.62V217.65ZM109.5 168.93V175.3H90.67C92.21 173.48 93.75 171.31 95.29 168.93H109.5ZM120.35 175.3V168.93H140.23V159.69H120.35V151.15H109.5V159.69H100.26C101.17 157.66 101.94 155.63 102.64 153.6L92.42 151.08C90.11 158.5 85.77 166.13 80.73 170.61C82.9 171.66 86.68 173.69 89.06 175.3H81.99V184.75H144.08V175.3H120.35ZM195.67 205.54V194.06H214.78V184.26H195.67V173.9H218.35V163.96H196.51L200.36 161.16C197.21 157.87 190.98 153.53 186.5 150.8L178.03 156.75C181.04 158.78 184.54 161.44 187.41 163.96H161.3V173.9H184.4V184.26H165.29V194.06H184.4V205.54H158.43V215.55H221.78V205.54H195.67ZM268.54 165.36V151.29H257.69V165.36H236.97V175.79H257.27C256.01 187.55 251.25 201.34 234.66 209.74C237.18 211.56 241.03 215.55 242.71 218.07C262.03 207.57 267.07 190.35 268.19 175.79H285.62C284.64 194.62 283.31 203.44 281.28 205.47C280.3 206.38 279.46 206.66 278.06 206.66C276.1 206.66 272.18 206.66 267.91 206.31C269.87 209.25 271.34 213.87 271.48 216.88C275.68 217.02 280.02 217.02 282.75 216.53C286.04 216.04 288.28 215.13 290.59 212.12C293.74 208.27 295.07 197.56 296.4 170.05C296.54 168.72 296.61 165.36 296.61 165.36H268.54ZM345.82 189.3C347.15 187.41 348.34 185.45 349.39 183.28H360.17C361.08 185.38 362.2 187.41 363.39 189.3H358.91V185.45H349.74V189.3H345.82ZM366.96 197.07V193.99C368.57 195.81 370.25 197.35 372.14 198.54C373.54 196.3 376.34 193.01 378.37 191.4C375.08 189.51 372.07 186.57 369.83 183.28H376.41V175.3H352.68C352.89 174.6 353.1 173.97 353.31 173.27H373.33V165.78H355.2L355.48 164.1H374.73V156.33H356.74C356.88 154.86 357.09 153.39 357.23 151.92L348.13 151.15C347.99 152.9 347.85 154.65 347.64 156.33H334.97V164.1H346.45L346.1 165.78H336.44V173.27H344C343.79 173.97 343.51 174.67 343.23 175.3H332.59V183.28H338.96C337.35 185.52 335.53 187.55 333.36 189.3L332.17 180.55L327.27 181.81V173.27H332.87V163.96H327.27V151.22H317.96V163.96H311.38V173.27H317.96V184.05C315.09 184.68 312.43 185.31 310.19 185.73L311.52 195.6L317.96 193.85V207.22C317.96 208.13 317.68 208.34 316.84 208.34C316 208.41 313.69 208.41 311.45 208.27C312.64 211 313.76 215.2 313.97 217.72C318.59 217.72 321.81 217.37 324.19 215.76C326.57 214.22 327.27 211.63 327.27 207.22V191.33L332.73 189.86C331.61 190.7 330.49 191.47 329.23 192.24C331.26 193.78 334.83 197.35 336.02 199.03C337.98 197.7 339.8 196.16 341.41 194.55V197.07H349.74V199.59H335.74V207.5H349.74V217.58H358.91V207.5H373.61V199.59H358.91V197.07H366.96ZM399.79 201.62V189.58H408.96V201.62H399.79ZM408.96 180.83H399.79V171.38H408.96V180.83ZM433.6 161.86C434.58 159.13 435.49 156.4 436.26 153.67L426.46 151.36C424.64 158.64 421.63 166.2 418.13 171.87V162.56H407.77C408.89 159.62 410.08 156.12 411.27 152.69L400.14 151.15C399.93 154.58 399.3 158.99 398.6 162.56H390.62V215.48H399.79V210.51H418.13V177.19C420.23 178.59 422.61 180.41 423.87 181.53C425.9 178.66 427.93 175.09 429.82 171.1H443.12C442.56 194.2 441.72 204.49 439.69 206.66C438.78 207.64 438.01 207.92 436.61 207.92C434.72 207.92 430.52 207.92 426.04 207.5C427.86 210.3 429.26 214.64 429.4 217.37C433.6 217.51 437.94 217.58 440.74 217.09C443.82 216.53 445.99 215.69 448.16 212.61C451.1 208.76 451.8 197.42 452.64 166.27C452.71 165.08 452.71 161.86 452.71 161.86H433.6ZM440.67 194.27C438.57 190.14 434.02 183.49 430.87 178.73L422.89 183.21C426.04 188.39 430.24 195.25 432.06 199.52L440.67 194.27Z" fill="white"/>
</svg>
