<svg width="441" height="235" viewBox="0 0 441 235" fill="none" xmlns="http://www.w3.org/2000/svg">
<path d="M20.09 32.32V68.93C20.09 78.66 22.75 81.46 32.2 81.46C34.23 81.46 42.49 81.46 44.59 81.46C53.27 81.46 55.72 77.4 56.84 64.66C54.39 64.17 50.61 62.56 48.65 61.09C48.09 71.1 47.46 73.06 43.89 73.06C41.93 73.06 34.93 73.06 33.25 73.06C29.61 73.06 29.05 72.57 29.05 69V32.32H20.09ZM20.93 22.59C26.46 26.37 33.67 31.9 37.66 35.33L43.19 28.4C39.2 25.32 32.06 20.07 26.39 16.5L20.93 22.59ZM8.89 35.54C7.63 43.8 5.04 52.69 1.47 58.78L9.66 61.79C13.16 55.77 15.4 45.83 16.94 37.57L8.89 35.54ZM50.12 43.8C54.32 50.45 58.66 59.48 60.27 65.36L68.39 61.23C66.5 55.35 62.16 46.81 57.75 40.23L50.12 43.8ZM53.48 20.63C44.1 40.37 25.41 61.37 1.68 72.22C3.43 73.9 5.88 76.98 7.14 78.94C32.2 66.62 50.68 45.62 61.95 24.06L53.48 20.63ZM93.31 44.64C95.06 49.47 96.81 55.7 97.37 59.55L104.51 57.38C103.88 53.67 101.92 47.58 100.03 42.89L93.31 44.64ZM86.73 63.89C87.64 68.51 88.62 74.6 88.76 78.59L95.83 76.63C95.55 72.64 94.57 66.69 93.52 62.14L86.73 63.89ZM77.91 62.7C77.07 68.23 75.46 74.6 73.57 78.66C75.53 79.15 79.1 80.27 80.78 81.18C82.53 76.91 84.42 70.26 85.4 64.24L77.91 62.7ZM76.16 44.36C76.16 42.89 81.06 40.37 81.06 40.37V40.23C86.1 34.84 91.7 27.14 95.62 19.65L87.71 16.29C84.63 23.57 79.59 31.13 77.91 33.02C76.3 35.05 74.97 36.31 73.5 36.66C74.41 38.83 75.74 42.68 76.16 44.36ZM76.16 44.36C77.56 43.73 79.87 43.17 91.07 42.12C91.07 40.44 91.42 37.57 91.91 35.47L79.38 36.38L75.95 38.62L76.16 44.36ZM76.44 60.6C76.44 59.13 81.69 56.61 81.69 56.61V56.4C89.25 49.82 97.16 40.65 103.04 31.41L95.83 26.65C90.58 36.17 82.53 45.83 79.8 48.28C77.28 50.8 75.67 52.34 73.71 52.76C74.69 54.93 76.02 58.99 76.44 60.6ZM76.44 60.6C78.26 59.69 81.2 58.92 99.12 56.05C99.05 54.44 99.19 51.36 99.54 49.26L79.59 51.99L75.95 54.44L76.44 60.6ZM94.99 61.72C96.18 64.8 97.65 68.93 98.21 71.52L104.86 68.93C104.16 66.34 102.69 62.42 101.36 59.41L94.99 61.72ZM103.81 21.61V29.87H138.04V21.61H103.81ZM101.36 70.89V79.15H139.23V70.89H101.36ZM116.41 26.09V75.79H125.16V26.09H116.41ZM163.87 22.1V35.05H171.5V28.89H200.34V35.05H208.39V22.1H163.87ZM181.65 37.43V64.87H189.63V37.43H181.65ZM188.23 72.22C193.2 74.95 199.85 79.22 203.07 81.88L209.86 76.91C206.22 74.18 199.43 70.26 194.6 67.81L188.23 72.22ZM175.49 68.72C171.85 71.52 165.48 74.11 159.6 75.72C161.49 77.12 164.57 80.13 165.97 81.81C171.78 79.57 178.99 75.72 183.54 71.87L175.49 68.72ZM173.6 58.92H197.96V62.63H173.6V58.92ZM173.6 49.4H197.96V53.11H173.6V49.4ZM166.18 43.24V68.79H205.73V43.24H166.18ZM169.26 33.16V39.81H202.51V33.16H169.26ZM179.13 17.27C180.18 19.72 181.3 23.01 181.79 25.11L190.68 23.36C190.05 21.33 188.86 18.18 187.67 15.94L179.13 17.27ZM148.61 23.64C152.18 25.6 157.22 28.54 159.6 30.43L164.5 23.71C161.84 21.89 156.8 19.16 153.23 17.55L148.61 23.64ZM144.48 42.61C148.05 44.36 153.16 47.23 155.61 49.05L160.23 42.12C157.57 40.37 152.39 37.85 148.89 36.31L144.48 42.61ZM146.3 75.58L153.72 80.62C157.01 73.9 160.44 65.92 163.31 58.57L156.73 53.53C153.51 61.58 149.31 70.19 146.3 75.58ZM217.56 67.04V71.8H280.63V67.04H217.56ZM226.38 60.04V64.8H272.44V60.04H226.38ZM257.39 73.13C262.78 75.58 269.15 79.78 272.37 82.86L278.18 79.22C274.75 76.28 268.45 72.22 263.06 69.91L257.39 73.13ZM223.58 82.23C223.58 81.11 228.62 79.43 228.62 79.43V79.36C234.15 77.26 240.66 73.69 246.26 69.77L238.07 67.67C233.73 71.24 227.92 74.25 225.96 75.09C224.14 75.93 222.67 76.49 221.2 76.63C222.04 78.24 223.16 80.97 223.58 82.23ZM223.58 82.23C226.94 81.32 231.63 81.25 271.32 79.78C270.83 78.66 270.27 76.42 270.06 74.95L228.41 76L223.51 78.03L223.58 82.23ZM221.9 30.36V34.49H246.05V30.36H221.9ZM250.53 33.37V39.25H270.97V33.37H250.53ZM221.41 47.79V51.92H246.68V47.79H221.41ZM218.68 36.45V40.72H249.27V36.45H218.68ZM233.45 16.5V28.4H241.57V16.5H233.45ZM230.44 28.61V39.39H237.44V28.61H230.44ZM230.44 44.29V56.4H237.44V44.29H230.44ZM256.55 16.5V28.4H264.81V16.5H256.55ZM218.33 54.72L218.61 59.48C226.73 59.06 238 58.36 249.06 57.59V53.32C237.72 53.95 226.03 54.44 218.33 54.72ZM226.1 38.69C225.61 41.91 223.72 43.31 217.14 44.08C218.19 44.92 219.45 46.74 219.87 47.93C227.92 46.46 230.51 43.73 231.21 38.69H226.1ZM267.54 33.37V50.24C267.54 54.37 267.96 55.7 268.94 56.75C269.99 57.8 271.6 58.29 273.07 58.29C273.84 58.29 275.1 58.29 276.01 58.29C277.06 58.29 278.39 58.08 279.16 57.52C280.07 57.03 280.77 56.26 281.12 55.14C281.61 54.09 281.82 51.22 281.96 48.77C280.42 48.21 278.46 47.3 277.34 46.32C277.27 48.49 277.2 50.31 277.06 51.08C276.99 51.85 276.85 52.27 276.64 52.41C276.43 52.55 276.15 52.62 275.8 52.62C275.59 52.62 275.24 52.62 274.96 52.62C274.68 52.62 274.47 52.55 274.33 52.27C274.19 52.06 274.19 51.36 274.19 50.1V33.37H267.54ZM248.92 44.57C254.45 46.88 261.17 50.8 264.46 53.74L268.31 48.63C264.88 45.69 258.02 42.05 252.56 39.95L248.92 44.57ZM257.67 29.1V35.75C257.67 41.42 256.41 49.26 247.03 55.28C248.64 56.4 250.81 58.36 251.86 59.69C262.43 52.9 263.9 43.31 263.9 35.96V29.1H257.67ZM235.62 38.76V41.28C235.62 44.85 236.39 46.6 240.31 46.6C241.29 46.6 243.46 46.6 244.3 46.6C245.56 46.6 247.03 46.53 247.8 46.25C247.59 44.99 247.59 43.73 247.45 42.47C246.68 42.75 245 42.82 244.23 42.82C243.53 42.82 242.2 42.82 241.71 42.82C240.73 42.82 240.66 42.4 240.66 41.35V38.76H235.62ZM218.12 20.42V26.23H248.36V20.42H218.12ZM250.46 20.42V26.23H280.49V20.42H250.46ZM288.75 62.77V69.49H352.24V62.77H288.75ZM302.4 50.8V56.75H333.06V50.8H302.4ZM317.17 60.81V74.18C317.17 75.09 316.89 75.3 315.77 75.3C314.65 75.3 310.45 75.3 307.09 75.16C308.14 77.19 309.33 80.06 309.75 82.23C315 82.23 318.85 82.23 321.72 81.18C324.66 80.06 325.43 78.24 325.43 74.46V60.81H317.17ZM330.96 50.8V52.2C328.16 54.86 322.14 58.71 317.17 60.81C318.22 61.79 320.11 63.82 320.95 65.08C327.39 62.42 334.25 58.5 339.5 54.72L334.74 50.38L332.99 50.8H330.96ZM289.94 41.77V56.19H297.92V47.86H343.07V56.19H351.4V41.77H289.94ZM339.71 18.88C339.43 27.28 338.66 37.92 337.75 44.78H345.8C346.57 38.13 347.27 27.49 347.69 18.88H339.71ZM330.05 18.88V24.13H343V18.88H330.05ZM308.14 16.92C304.36 18.18 298.13 20.07 293.93 20.77L296.87 25.39C301.14 24.69 307.23 23.43 311.64 21.75L308.14 16.92ZM297.99 26.51V31.69H311.08V26.51H297.99ZM298.2 34.14V39.32H311.29V34.14H298.2ZM330.47 26.51V31.69H342.3V26.51H330.47ZM330.12 34.14V39.32H341.88V34.14H330.12ZM323.19 16.99C320.6 20.42 315.91 23.57 311.08 25.67C312.41 26.51 314.51 28.4 315.49 29.38C320.25 26.93 325.5 22.87 328.65 18.53L323.19 16.99ZM312.55 20.7C316.89 22.94 322.28 26.37 324.8 28.82L328.86 25.25C326.06 22.8 320.67 19.51 316.4 17.48L312.55 20.7ZM323.26 28.82C320.53 32.46 315.49 35.82 310.52 37.99C311.71 38.9 313.81 41.07 314.72 42.12C319.83 39.46 325.36 35.12 328.72 30.43L323.26 28.82ZM312.2 32.67C316.82 35.12 322.49 38.9 325.15 41.56L329.28 37.92C326.41 35.26 320.6 31.69 316.12 29.45L312.2 32.67ZM293.93 20.77L295.33 44.43H303.17L301.91 22.8L293.93 20.77ZM389.55 37.71V44.92H418.46V37.71H389.55ZM384.23 50.17V57.66H424.34V50.17H384.23ZM384.02 24.76V38.62H391.79V31.97H416.01V38.62H423.99V24.76H384.02ZM392.91 53.81C392.28 64.8 390.88 71.66 378.07 75.51C379.82 77.12 381.99 80.27 382.83 82.3C397.74 77.12 400.19 67.74 400.96 53.81H392.91ZM405.37 53.6V72.01C405.37 79.01 406.7 81.32 412.93 81.32C414.12 81.32 416.57 81.32 417.83 81.32C422.8 81.32 424.76 78.66 425.39 69C423.29 68.44 420 67.25 418.46 65.92C418.32 73.13 418.04 74.25 416.92 74.25C416.43 74.25 414.82 74.25 414.4 74.25C413.42 74.25 413.28 73.97 413.28 71.94V53.6H405.37ZM397.46 18.11C399.07 21.12 400.75 25.32 401.31 28.05L409.64 25.32C408.87 22.73 407.12 18.81 405.44 15.8L397.46 18.11ZM361.76 19.3V82.09H369.11V26.79H377.86V19.3H361.76ZM375.9 19.3V21.68C374.92 26.02 372.75 35.19 370.72 41.35C374.71 46.25 375.62 50.87 375.62 54.23C375.62 56.26 375.2 57.8 374.36 58.43C373.87 58.78 373.17 58.92 372.47 58.99C371.63 59.06 370.65 58.99 369.46 58.92C370.58 60.95 371.28 64.1 371.28 66.13C372.89 66.13 374.57 66.13 375.83 65.92C377.37 65.71 378.7 65.22 379.82 64.38C382.06 62.7 382.97 59.69 382.97 55.14C382.97 51.01 382.13 46.04 377.86 40.51C379.89 35.05 382.13 28.05 383.95 22.1L378.49 19.02L377.3 19.3H375.9ZM12.74 152V158.51H58.38V152H12.74ZM14.56 140.73V147.66H61.53V140.73H14.56ZM4.13 163.27V170.48H66.08V163.27H4.13ZM30.87 136.46V168.31H39.62V136.46H30.87ZM19.11 125.05H50.19V128.76H19.11V125.05ZM19.11 115.39H50.19V119.1H19.11V115.39ZM10.92 109.02V135.2H58.94V109.02H10.92ZM14.49 134.5C11.97 140.17 7.35 145.84 2.52 149.48C4.48 150.67 7.91 153.19 9.52 154.73C14.35 150.46 19.6 143.67 22.75 136.88L14.49 134.5ZM73.01 141.78L74.83 149.83C80.92 148.08 88.55 145.91 95.62 143.74L94.57 136.18C86.73 138.35 78.54 140.52 73.01 141.78ZM74.13 119.87V127.57H95.13V119.87H74.13ZM81.2 106.64V163.48C81.2 164.39 80.92 164.6 80.15 164.6C79.31 164.67 76.93 164.67 74.55 164.53C75.53 166.77 76.51 170.27 76.65 172.37C81.06 172.37 84.07 172.09 86.17 170.76C88.27 169.5 88.97 167.33 88.97 163.48V106.64H81.2ZM94.5 148.5V155.15H138.67V148.5H94.5ZM103.74 137.44V144.16H134.68V137.44H103.74ZM103.53 133.52C102.06 137.93 99.19 142.27 95.62 145C97.37 146.05 100.45 148.36 101.78 149.62C105.56 146.26 109.06 140.8 111.02 135.27L103.53 133.52ZM113.68 140.52V167.4H121.59V140.52H113.68ZM128.59 156.83V172.3H136.36V156.83H128.59ZM98.14 156.97V170.48H132.72V163.97H105.63V156.97H98.14ZM111.51 106.71C108.5 110.7 103.11 114.69 95.06 117.42C96.67 118.61 98.84 121.34 99.75 123.09C108.78 119.17 114.87 114.34 119.21 108.25L111.51 106.71ZM112.77 111.26L109.2 117.14H132.79V111.26H112.77ZM130.97 111.26V112.38C125.44 123.79 110.67 130.02 95.2 132.26C96.53 133.8 98.07 136.39 98.77 138.21C116.06 134.99 131.74 128.34 138.95 113.64L133.91 110.91L132.51 111.26H130.97ZM106.33 117.84C109.69 121.13 113.89 125.82 115.78 128.76L121.1 125.47C119 122.53 114.73 118.12 111.37 114.97L106.33 117.84ZM97.09 124.35L97.51 129.25L110.11 127.57L109.76 122.95L97.09 124.35ZM149.17 144.02V148.92H178.5V144.02H149.17ZM145.81 164.39V170.55H209.86V164.39H145.81ZM183.89 122.39C182.07 128.06 178.71 133.8 174.72 137.37C176.47 138.7 179.34 141.71 180.53 143.25C185.08 138.7 189.21 131.56 191.66 124.35L183.89 122.39ZM149.17 123.79V148.08H156.66V128.48H177.38V123.79H149.17ZM153.16 130.72V134.78H169.33V137.51H153.16V141.5H176.26V130.72H153.16ZM162.05 125.33V132.82H168.7V125.33H162.05ZM162.05 139.12V146.75H168.7V139.12H162.05ZM186.48 127.85L182.98 134.85H209.58V127.85H186.48ZM153.65 151.16V166.63H161.63V157.11H167.3V166.63H175.14V157.11H180.88V166.63H188.65V157.11H194.46V166.63H202.93V151.16H153.65ZM184.17 140.45V147.38H207.34V140.45H184.17ZM155.05 110.35V116.65H176.89V110.35H155.05ZM184.1 110.35V116.65H210.14V110.35H184.1ZM155.33 105.94C153.02 111.12 149.03 116.37 144.76 119.73C146.37 121.06 149.17 124 150.29 125.47C154.98 121.34 159.81 114.69 162.68 108.18L155.33 105.94ZM184.31 105.94C182.49 111.47 179.2 117.07 175.21 120.57C177.03 121.69 180.11 124.14 181.51 125.47C185.64 121.27 189.7 114.55 191.94 107.83L184.31 105.94ZM160.09 118.47C162.05 120.57 164.5 123.44 165.48 125.33L171.15 120.92C170.03 119.1 167.44 116.37 165.41 114.48L160.09 118.47ZM190.4 118.4C192.5 120.64 195.23 123.86 196.35 125.89L202.51 121.62C201.25 119.66 198.38 116.72 196.21 114.55L190.4 118.4Z" fill="white"/>
<path d="M12.144 215.4V217.992H20.112V215.4H12.144ZM12.36 226.488V229.032H20.28V226.488H12.36ZM10.992 219.936V230.208H13.8V222.48H18.936V230.184H21.864V219.936H10.992ZM17.184 208.464L14.976 209.352C16.56 212.544 19.176 215.904 21.648 217.824C22.128 217.08 23.112 216.024 23.784 215.496C21.312 213.936 18.6 211.08 17.184 208.464ZM15.36 207.576C14.112 210.816 11.616 214.056 8.568 216C9.168 216.48 10.128 217.488 10.536 218.088C13.824 215.76 16.416 212.328 17.976 208.368L15.36 207.576ZM6.72 217.488C7.32 219.168 7.896 221.328 8.112 222.672L10.368 221.88C10.104 220.584 9.456 218.448 8.832 216.816L6.72 217.488ZM4.56 223.8C4.824 225.504 5.112 227.76 5.136 229.248L7.416 228.768C7.32 227.28 7.032 225.096 6.72 223.392L4.56 223.8ZM1.632 223.464C1.488 225.504 1.2 227.736 0.624 229.176C1.248 229.368 2.424 229.728 2.976 230.04C3.48 228.504 3.888 226.104 4.056 223.848L1.632 223.464ZM1.416 217.152C1.416 216.672 3 215.832 3 215.832V215.76C4.608 213.864 6.336 211.128 7.512 208.512L4.92 207.432C4.032 210 2.448 212.664 1.92 213.36C1.44 214.08 1.008 214.536 0.552 214.68C0.84 215.352 1.272 216.624 1.416 217.152ZM1.416 217.152C1.896 216.936 2.688 216.744 6.408 216.384C6.432 215.832 6.528 214.824 6.696 214.128L2.496 214.44L1.32 215.184L1.416 217.152ZM1.584 222.72C1.584 222.216 3.24 221.376 3.24 221.376V221.304C5.616 219 8.064 215.784 9.84 212.616L7.416 211.08C5.904 214.344 3.408 217.704 2.616 218.544C1.824 219.432 1.296 219.96 0.672 220.128C1.008 220.848 1.44 222.168 1.584 222.72ZM1.584 222.72C2.184 222.432 3.12 222.192 8.76 221.4C8.736 220.872 8.808 219.84 8.928 219.168L2.664 219.912L1.464 220.704L1.584 222.72ZM7.2 223.32C7.68 224.76 8.208 226.704 8.424 227.928L10.56 227.184C10.296 225.96 9.744 224.088 9.216 222.648L7.2 223.32ZM29.88 215.976V218.64H42.936V215.976H29.88ZM29.88 221.112V223.776H42.936V221.112H29.88ZM29.88 226.272V228.936H42.936V226.272H29.88ZM27.912 210.744V230.136H30.84V213.504H42.288V230.088H45.36V210.744H27.912ZM34.728 207.6C34.56 208.848 34.152 210.528 33.768 211.728L36.408 212.208C36.936 211.152 37.632 209.568 38.208 207.96L34.728 207.6ZM53.928 216.72V219.552H67.536V216.72H53.928ZM52.152 208.992V211.944H66.168V220.92H69.24V208.992H52.152ZM52.44 216.72V225.384C52.44 228.84 53.904 229.704 58.416 229.704C59.448 229.704 65.136 229.704 66.216 229.704C70.56 229.704 71.616 228.48 72.12 223.872C71.28 223.704 69.984 223.2 69.216 222.744C68.904 226.248 68.568 226.848 66.144 226.848C64.728 226.848 59.664 226.848 58.464 226.848C55.872 226.848 55.44 226.632 55.44 225.336V216.72H52.44ZM74.352 217.08V220.224H96.576V217.08H74.352ZM106.056 208.848V230.136H108.672V211.344H117.744V229.944H120.48V208.848H106.056ZM109.296 214.296V216.384H117.192V214.296H109.296ZM107.4 226.224V228.744H119.064V226.224H107.4ZM112.056 211.848V219.552H114.288V211.848H112.056ZM111.984 220.464H114.432V222.96H111.984V220.464ZM109.92 218.472V224.952H116.616V218.472H109.92ZM103.08 207.696C102 211.128 100.152 214.584 98.136 216.792C98.592 217.536 99.312 219.216 99.528 219.912C102.024 217.08 104.328 212.64 105.72 208.488L103.08 207.696ZM101.112 214.272V230.184H103.848V211.584L103.824 211.56L101.112 214.272ZM123.384 212.112V214.752H129.624V212.112H123.384ZM125.52 207.624V230.16H127.968V207.624H125.52ZM125.52 213.912C125.064 216.792 123.984 220.392 122.76 222.312C123.12 223.056 123.648 224.328 123.888 225.144C125.232 222.768 126.336 218.232 126.816 214.536L125.52 213.912ZM127.872 215.664L126.888 216.696C127.416 217.68 128.568 220.08 128.976 221.304L130.248 219.36C129.888 218.76 128.328 216.24 127.872 215.664ZM130.152 220.008V222.216H145.152V220.008H130.152ZM132.192 224.184C133.224 225.048 134.616 226.296 135.288 227.064L137.016 225.36C136.296 224.616 134.856 223.464 133.848 222.672L132.192 224.184ZM140.232 218.976C140.952 219.528 141.864 220.32 142.344 220.824L143.832 219.432C143.352 218.952 142.392 218.232 141.696 217.728L140.232 218.976ZM141.864 222.048C140.52 224.856 137.832 227.064 134.352 228.264C134.856 228.72 135.552 229.608 135.84 230.088C139.536 228.696 142.56 226.272 144.24 222.936L141.864 222.048ZM135.888 207.816C136.296 220.8 137.784 229.704 143.184 230.136C144.24 230.208 145.224 229.392 145.848 226.344C145.392 226.104 144.456 225.408 144.024 224.856C143.832 226.56 143.568 227.424 143.112 227.376C139.968 226.992 138.48 218.856 138.264 207.816H135.888ZM133.824 215.352C134.184 216.504 134.52 218.016 134.64 218.928L136.416 218.376C136.272 217.512 135.888 216.048 135.48 214.92L133.824 215.352ZM130.464 214.488C130.464 214.08 131.568 213.432 131.568 213.432V213.384C132.504 212.184 133.632 210.216 134.328 208.368L132.24 207.816C131.808 209.52 130.92 211.248 130.656 211.704C130.392 212.16 130.08 212.472 129.792 212.544C130.032 213.072 130.344 214.056 130.464 214.488ZM130.464 214.488C130.776 214.32 131.4 214.176 133.776 213.912C133.896 213.504 134.184 212.736 134.472 212.208L131.328 212.448L130.416 213.024L130.464 214.488ZM130.704 218.88C130.704 218.496 131.736 217.824 131.736 217.824V217.8C133.224 216.24 134.856 213.864 136.08 211.512L134.04 210.816C133.2 213 131.712 215.232 131.256 215.808C130.824 216.408 130.44 216.816 130.056 216.912C130.272 217.44 130.608 218.472 130.704 218.88ZM130.704 218.88C131.064 218.664 131.736 218.496 135.264 218.016C135.12 217.608 134.928 216.864 134.856 216.36L131.448 216.744L130.632 217.32L130.704 218.88ZM142.704 215.088C143.112 216.216 143.568 217.776 143.736 218.688L145.464 218.112C145.248 217.224 144.792 215.736 144.336 214.632L142.704 215.088ZM139.344 214.128C139.344 213.72 140.424 213.072 140.424 213.072V213.024C141.312 211.896 142.368 210.048 143.016 208.296L140.952 207.744C140.568 209.328 139.728 210.96 139.488 211.392C139.248 211.824 138.96 212.136 138.672 212.184C138.912 212.736 139.224 213.696 139.344 214.128ZM139.344 214.128C139.656 213.96 140.256 213.816 142.608 213.576C142.728 213.168 143.016 212.376 143.28 211.872L140.184 212.088L139.32 212.664L139.344 214.128ZM139.608 218.52C139.608 218.136 140.664 217.464 140.664 217.464V217.44C142.128 215.88 143.76 213.48 144.912 211.128L142.848 210.432C142.032 212.616 140.592 214.872 140.136 215.448C139.704 216.048 139.344 216.432 138.96 216.552C139.176 217.08 139.512 218.112 139.608 218.52ZM139.608 218.52C139.992 218.328 140.64 218.16 144.144 217.608C144 217.2 143.808 216.504 143.712 216L140.352 216.408L139.536 216.984L139.608 218.52ZM131.592 220.776V221.664C131.592 223.68 131.112 226.44 128.28 228.504C128.808 228.816 129.816 229.68 130.2 230.16C133.224 227.784 134.016 224.304 134.016 221.736V220.776H131.592ZM152.904 216.336H164.688V219.36H152.904V216.336ZM150.504 214.56V221.112H167.256V214.56H150.504ZM154.632 211.848V213.72H163.104V211.848H154.632ZM157.584 215.16V220.224H159.912V215.16H157.584ZM153.744 216.864C154.152 217.68 154.488 218.808 154.584 219.528L156.696 218.904C156.552 218.184 156.168 217.128 155.736 216.312L153.744 216.864ZM161.688 216.216C161.496 217.008 161.064 218.184 160.704 218.976L162.672 219.504C163.056 218.832 163.56 217.824 164.064 216.792L161.688 216.216ZM151.824 221.904V230.16H154.656V223.776H163.08V230.064H166.032V221.904H151.824ZM153.456 224.736V226.632H164.304V224.736H153.456ZM153.456 227.616V229.488H164.304V227.616H153.456ZM158.376 207.408C156.192 210.192 151.92 212.208 147.48 213.288C147.96 213.792 148.704 214.944 148.992 215.52C153.672 214.104 158.256 211.728 160.92 208.344L158.376 207.408ZM160.272 208.512L158.136 209.376C160.608 212.064 164.712 214.272 168.744 215.304C169.152 214.656 169.968 213.624 170.568 213.12C166.56 212.304 162.408 210.576 160.272 208.512ZM181.32 224.16C184.296 223.272 186.072 221.064 186.072 218.352C186.072 216.336 185.16 215.04 183.48 215.04C182.184 215.04 181.104 215.856 181.104 217.2C181.104 218.568 182.208 219.36 183.408 219.36C183.936 219.36 184.44 219.192 184.824 218.832L183.504 216.672L183.672 219.024C183.672 220.416 182.568 221.592 180.552 222.216L181.32 224.16ZM198.744 210.936V213.816H217.104V210.936H198.744ZM196.896 217.224V220.128H218.832V217.224H196.896ZM206.28 207.6V218.736H209.352V207.6H206.28ZM210.024 222C212.04 224.448 214.296 227.856 215.232 230.064L218.064 228.6C216.984 226.416 214.776 223.224 212.688 220.824L210.024 222ZM199.176 229.56C199.176 229.032 200.88 228.12 200.88 228.12V228.048C203.16 225.936 205.776 222.768 207.744 219.48L204.504 218.544C203.136 221.496 200.784 224.52 200.04 225.264C199.32 226.08 198.816 226.56 198.192 226.728C198.552 227.52 199.008 228.984 199.176 229.56ZM199.176 229.56C200.424 229.08 202.128 229.008 214.944 228C214.776 227.376 214.488 226.176 214.368 225.336L200.976 226.152L199.104 227.184L199.176 229.56ZM230.88 209.976V212.328H238.272V214.608H230.88V216.96H241.08V209.976H230.88ZM233.904 207.576C233.736 208.584 233.304 209.928 232.944 210.912L235.656 211.416C236.136 210.576 236.76 209.328 237.336 208.008L233.904 207.576ZM229.488 209.976V225.672H232.272V209.976H229.488ZM231.144 218.424V220.776H239.208V223.344H231.144V225.696H241.992V218.424H231.144ZM221.928 208.968C223.032 210.168 224.424 211.848 225.096 212.856L227.28 211.272C226.56 210.312 225.216 208.8 224.064 207.648L221.928 208.968ZM221.328 213.216V215.52H226.416V213.216H221.328ZM226.2 223.656L224.28 224.424C226.056 229.032 229.032 229.776 234.6 229.776C237.408 229.776 240.48 229.704 242.976 229.56C243.12 228.768 243.504 227.472 243.888 226.896C241.176 227.136 237.216 227.304 234.648 227.304C230.304 227.28 227.496 226.896 226.2 223.656ZM225.648 219.048V219.48C225.072 223.728 223.368 226.68 220.776 228.264C221.352 228.648 222.264 229.632 222.648 230.184C225.408 228.336 227.376 224.808 228.168 219.504L226.8 219L226.344 219.048H225.648ZM221.784 221.664C222 221.448 222.696 221.28 223.272 221.28H226.416L226.44 219.048H222.816L221.784 219.6V221.664ZM221.784 221.664C221.784 221.016 223.728 220.08 223.728 220.08C225.144 218.52 227.28 215.568 228.456 213.912L226.704 213.096L225.96 213.408V213.48C225.096 214.8 222.864 217.848 222.144 218.544C221.688 219.024 221.256 219.192 220.872 219.312C221.112 219.84 221.64 221.064 221.784 221.664ZM248.856 208.728V210.6H261.696V214.224H248.736V216.096H264.528V208.728H248.856ZM259.704 218.736H263.736V220.368H259.704V218.736ZM257.016 216.888V222.216H266.568V216.888H257.016ZM245.952 211.512V213.312H263.064V211.512H245.952ZM262.992 211.296V213.48H267.744V211.296H262.992ZM246.624 216.888V218.88H255.792V216.888H246.624ZM245.808 223.272V225.6H267.792V223.272H245.808ZM260.184 221.928V227.472C260.184 227.808 260.088 227.88 259.704 227.904C259.344 227.904 257.928 227.928 256.752 227.856C257.112 228.504 257.496 229.464 257.664 230.184C259.488 230.184 260.808 230.16 261.768 229.824C262.752 229.464 263.04 228.864 263.04 227.568V221.928H260.184ZM249.768 217.584V220.944H252.456V217.584H249.768ZM246.24 220.584L246.408 222.768C249.024 222.6 252.648 222.408 256.152 222.168V220.152C252.552 220.32 248.76 220.512 246.24 220.584ZM249.888 226.416C251.088 227.232 252.528 228.456 253.152 229.32L255.216 227.544C254.496 226.68 253.008 225.528 251.832 224.808L249.888 226.416ZM276.816 209.952V212.424H292.296V209.952H276.816ZM284.472 212.544C283.848 214.824 282.792 217.128 281.544 218.64C282.048 219 282.912 219.792 283.296 220.176C284.64 218.424 285.912 215.712 286.68 213.096L284.472 212.544ZM285.432 215.088H284.832L283.2 217.008V229.872H285.432V217.248H292.08V215.088H285.432ZM284.424 218.976V220.896H291.696V218.976H284.424ZM284.424 222.648V224.568H291.6V222.648H284.424ZM284.304 226.56V228.72H292.272V226.56H284.304ZM287.376 216.288V227.376H289.608V216.288H287.376ZM281.256 220.296C280.584 224.016 278.736 226.776 275.64 228.336C276.12 228.696 276.84 229.56 277.152 230.064C280.488 228.192 282.408 225.024 283.248 220.68L281.256 220.296ZM276.936 224.856C276.936 224.4 278.424 223.704 278.424 223.704V223.656C279.936 221.616 281.472 218.736 282.552 216.12L280.56 214.968C279.672 217.728 278.088 220.656 277.56 221.376C277.08 222.168 276.672 222.672 276.216 222.792C276.48 223.368 276.816 224.4 276.936 224.856ZM276.936 224.856C277.368 224.544 278.088 224.232 281.688 223.248C281.592 222.72 281.544 221.736 281.592 221.064L277.656 221.976L276.72 222.768L276.936 224.856ZM276.768 219.12C276.768 218.688 277.92 217.992 277.92 217.992V217.944C278.832 216.672 279.864 214.824 280.44 213.144L278.256 212.136C277.896 213.84 277.128 215.616 276.864 216.072C276.6 216.576 276.312 216.888 276 216.984C276.264 217.56 276.648 218.664 276.768 219.12ZM276.768 219.12C277.224 218.904 277.968 218.736 281.256 218.4C281.232 217.848 281.376 216.84 281.496 216.168L277.848 216.432L276.696 217.176L276.768 219.12ZM282.264 208.56C282.792 209.4 283.32 210.528 283.512 211.272L285.696 210.384C285.456 209.664 284.904 208.584 284.328 207.792L282.264 208.56ZM287.016 213.36C287.544 214.248 288.072 215.472 288.264 216.264L290.28 215.496C290.064 214.728 289.488 213.552 288.936 212.712L287.016 213.36ZM269.904 219.912L270.576 222.672C272.424 222.024 274.632 221.232 276.672 220.488L276.192 217.92C273.888 218.688 271.512 219.48 269.904 219.912ZM270.216 212.184V214.824H276.456V212.184H270.216ZM272.4 207.624V227.064C272.4 227.376 272.304 227.448 272.016 227.448C271.752 227.472 270.936 227.472 270.096 227.448C270.408 228.168 270.72 229.272 270.816 229.944C272.28 229.944 273.288 229.872 273.96 229.44C274.656 229.008 274.872 228.312 274.872 227.064V207.624H272.4ZM304.848 220.008V222.48H311.496V214.8H304.848V217.272H308.832V220.008H304.848ZM303.528 214.8V226.104C303.528 229.2 304.512 230.016 307.824 230.016C308.544 230.016 312.216 230.016 313.008 230.016C315.888 230.016 316.752 228.96 317.112 225.432C316.32 225.288 315.192 224.832 314.544 224.4C314.352 226.968 314.112 227.496 312.768 227.496C311.952 227.496 308.784 227.496 308.064 227.496C306.552 227.496 306.312 227.28 306.312 226.104V214.8H303.528ZM305.184 207.528C304.44 210.456 303.024 213.288 301.152 215.04C301.8 215.448 302.928 216.36 303.384 216.864C305.304 214.8 306.984 211.536 307.944 208.152L305.184 207.528ZM313.608 210.504V211.056C313.464 218.448 313.296 220.92 312.912 221.472C312.72 221.784 312.552 221.856 312.24 221.856C311.88 221.856 311.28 221.856 310.584 221.784C310.944 222.528 311.232 223.656 311.28 224.448C312.264 224.448 313.176 224.472 313.776 224.328C314.424 224.208 314.88 223.968 315.36 223.272C315.984 222.384 316.152 219.456 316.32 211.68C316.32 211.344 316.344 210.504 316.344 210.504H313.608ZM305.352 210.504V213.096H314.688V210.504H305.352ZM294.24 219.888L294.84 222.696C297.048 222.096 299.832 221.328 302.448 220.56L302.112 218.016C299.256 218.736 296.256 219.48 294.24 219.888ZM294.72 212.184V214.824H302.136V212.184H294.72ZM297.552 207.648V226.92C297.552 227.256 297.432 227.376 297.12 227.376C296.808 227.376 295.824 227.376 294.888 227.328C295.248 228.12 295.608 229.368 295.704 230.136C297.336 230.136 298.488 230.04 299.28 229.56C300.072 229.104 300.312 228.336 300.312 226.92V207.648H297.552ZM325.968 207.624V212.184H328.824V207.624H325.968ZM331.584 207.624V212.184H334.464V207.624H331.584ZM333.96 214.512H336.552V216.12H333.96V214.512ZM329.016 214.512H331.56V216.12H329.016V214.512ZM324.12 214.512H326.616V216.12H324.12V214.512ZM321.576 212.688V217.968H339.24V212.688H321.576ZM319.632 218.808V223.08H322.344V220.992H338.016V223.08H340.848V218.808H319.632ZM327.816 220.776C326.76 221.832 324.816 222.744 322.008 223.344C322.56 223.752 323.352 224.712 323.664 225.36C326.856 224.376 329.016 223.176 330.6 221.352L327.816 220.776ZM334.584 221.952V222.312C332.424 225.624 326.448 227.184 320.304 227.64C320.76 228.264 321.264 229.392 321.48 230.088C328.176 229.344 334.56 227.496 337.488 222.888L335.664 221.808L335.16 221.952H334.584ZM324.888 224.568C326.112 225.264 327.576 226.44 328.32 227.28L330.432 225.96C329.688 225.192 328.224 224.112 326.952 223.44L324.888 224.568ZM327.864 221.952L325.944 223.872H335.304V221.952H327.864ZM319.464 208.896V211.32H327.768V208.896H319.464ZM332.592 208.896V211.296H340.944V208.896H332.592ZM348.984 223.056V226.368C348.984 228.888 349.8 229.68 353.088 229.68C353.736 229.68 356.736 229.68 357.432 229.68C360.096 229.68 360.888 228.816 361.224 225.384C360.456 225.216 359.256 224.808 358.632 224.352C358.512 226.776 358.344 227.112 357.216 227.112C356.424 227.112 353.976 227.112 353.376 227.112C352.056 227.112 351.816 227.04 351.816 226.32V223.056H348.984ZM352.44 222.744C353.52 223.776 354.96 225.24 355.632 226.128L357.72 224.352C356.976 223.488 355.488 222.12 354.408 221.16L352.44 222.744ZM360.552 223.416C361.512 225 362.832 227.136 363.408 228.408L366.096 227.04C365.448 225.792 364.056 223.728 363.072 222.24L360.552 223.416ZM345.528 222.576C345.12 224.28 344.328 226.248 343.44 227.544L346.056 228.84C346.92 227.448 347.64 225.288 348.096 223.56L345.528 222.576ZM343.848 211.056V213.48H353.952V211.056H343.848ZM347.832 207.648V222.096H350.568V207.648H347.832ZM347.736 212.664C346.824 215.016 345.072 217.536 343.272 218.856C343.848 219.312 344.688 220.248 345.12 220.872C346.968 219.192 348.72 216.192 349.704 213.288L347.736 212.664ZM350.4 214.272L348.912 215.688C349.92 216.48 351.936 218.328 352.872 219.312L354.384 217.008C353.736 216.528 351.216 214.728 350.4 214.272ZM357.504 214.608H361.944V216.024H357.504V214.608ZM357.504 218.112H361.944V219.552H357.504V218.112ZM357.504 211.104H361.944V212.472H357.504V211.104ZM354.888 208.824V221.808H364.704V208.824H354.888ZM370.632 211.512V214.032H375.384V225.144H370.632V227.688H378V211.512H370.632ZM368.952 211.512V229.464H371.568V211.512H368.952ZM370.512 217.92V220.416H376.656V217.92H370.512ZM372.36 207.6C372.24 208.92 371.904 210.768 371.568 212.016L373.872 212.52C374.352 211.392 374.952 209.688 375.504 208.056L372.36 207.6ZM381.168 211.344V213.96H388.176V211.344H381.168ZM387.192 211.344V211.896C386.928 221.904 386.616 226.032 385.848 226.848C385.536 227.184 385.272 227.28 384.792 227.28C384.192 227.28 382.752 227.256 381.192 227.136C381.72 227.904 382.104 229.128 382.152 229.92C383.544 229.992 385.008 230.016 385.92 229.872C386.904 229.728 387.576 229.464 388.248 228.528C389.232 227.256 389.52 223.44 389.832 212.64C389.856 212.28 389.856 211.344 389.856 211.344H387.192ZM381.24 207.624C380.472 210.816 379.104 214.08 377.496 216.096C378.168 216.48 379.344 217.296 379.872 217.776C381.504 215.472 383.064 211.824 384 208.272L381.24 207.624ZM380.064 218.256C381.216 220.032 382.728 222.384 383.376 223.848L385.824 222.36C385.08 220.944 383.496 218.64 382.32 216.984L380.064 218.256ZM397.08 215.976V218.64H410.136V215.976H397.08ZM397.08 221.112V223.776H410.136V221.112H397.08ZM397.08 226.272V228.936H410.136V226.272H397.08ZM395.112 210.744V230.136H398.04V213.504H409.488V230.088H412.56V210.744H395.112ZM401.928 207.6C401.76 208.848 401.352 210.528 400.968 211.728L403.608 212.208C404.136 211.152 404.832 209.568 405.408 207.96L401.928 207.6ZM421.128 216.72V219.552H434.736V216.72H421.128ZM419.352 208.992V211.944H433.368V220.92H436.44V208.992H419.352ZM419.64 216.72V225.384C419.64 228.84 421.104 229.704 425.616 229.704C426.648 229.704 432.336 229.704 433.416 229.704C437.76 229.704 438.816 228.48 439.32 223.872C438.48 223.704 437.184 223.2 436.416 222.744C436.104 226.248 435.768 226.848 433.344 226.848C431.928 226.848 426.864 226.848 425.664 226.848C423.072 226.848 422.64 226.632 422.64 225.336V216.72H419.64Z" fill="white"/>
</svg>
