<svg width="441" height="145" viewBox="0 0 441 145" fill="none" xmlns="http://www.w3.org/2000/svg">
<path d="M20.09 32.32V68.93C20.09 78.66 22.75 81.46 32.2 81.46C34.23 81.46 42.49 81.46 44.59 81.46C53.27 81.46 55.72 77.4 56.84 64.66C54.39 64.17 50.61 62.56 48.65 61.09C48.09 71.1 47.46 73.06 43.89 73.06C41.93 73.06 34.93 73.06 33.25 73.06C29.61 73.06 29.05 72.57 29.05 69V32.32H20.09ZM20.93 22.59C26.46 26.37 33.67 31.9 37.66 35.33L43.19 28.4C39.2 25.32 32.06 20.07 26.39 16.5L20.93 22.59ZM8.89 35.54C7.63 43.8 5.04 52.69 1.47 58.78L9.66 61.79C13.16 55.77 15.4 45.83 16.94 37.57L8.89 35.54ZM50.12 43.8C54.32 50.45 58.66 59.48 60.27 65.36L68.39 61.23C66.5 55.35 62.16 46.81 57.75 40.23L50.12 43.8ZM53.48 20.63C44.1 40.37 25.41 61.37 1.68 72.22C3.43 73.9 5.88 76.98 7.14 78.94C32.2 66.62 50.68 45.62 61.95 24.06L53.48 20.63ZM93.31 44.64C95.06 49.47 96.81 55.7 97.37 59.55L104.51 57.38C103.88 53.67 101.92 47.58 100.03 42.89L93.31 44.64ZM86.73 63.89C87.64 68.51 88.62 74.6 88.76 78.59L95.83 76.63C95.55 72.64 94.57 66.69 93.52 62.14L86.73 63.89ZM77.91 62.7C77.07 68.23 75.46 74.6 73.57 78.66C75.53 79.15 79.1 80.27 80.78 81.18C82.53 76.91 84.42 70.26 85.4 64.24L77.91 62.7ZM76.16 44.36C76.16 42.89 81.06 40.37 81.06 40.37V40.23C86.1 34.84 91.7 27.14 95.62 19.65L87.71 16.29C84.63 23.57 79.59 31.13 77.91 33.02C76.3 35.05 74.97 36.31 73.5 36.66C74.41 38.83 75.74 42.68 76.16 44.36ZM76.16 44.36C77.56 43.73 79.87 43.17 91.07 42.12C91.07 40.44 91.42 37.57 91.91 35.47L79.38 36.38L75.95 38.62L76.16 44.36ZM76.44 60.6C76.44 59.13 81.69 56.61 81.69 56.61V56.4C89.25 49.82 97.16 40.65 103.04 31.41L95.83 26.65C90.58 36.17 82.53 45.83 79.8 48.28C77.28 50.8 75.67 52.34 73.71 52.76C74.69 54.93 76.02 58.99 76.44 60.6ZM76.44 60.6C78.26 59.69 81.2 58.92 99.12 56.05C99.05 54.44 99.19 51.36 99.54 49.26L79.59 51.99L75.95 54.44L76.44 60.6ZM94.99 61.72C96.18 64.8 97.65 68.93 98.21 71.52L104.86 68.93C104.16 66.34 102.69 62.42 101.36 59.41L94.99 61.72ZM103.81 21.61V29.87H138.04V21.61H103.81ZM101.36 70.89V79.15H139.23V70.89H101.36ZM116.41 26.09V75.79H125.16V26.09H116.41ZM163.87 22.1V35.05H171.5V28.89H200.34V35.05H208.39V22.1H163.87ZM181.65 37.43V64.87H189.63V37.43H181.65ZM188.23 72.22C193.2 74.95 199.85 79.22 203.07 81.88L209.86 76.91C206.22 74.18 199.43 70.26 194.6 67.81L188.23 72.22ZM175.49 68.72C171.85 71.52 165.48 74.11 159.6 75.72C161.49 77.12 164.57 80.13 165.97 81.81C171.78 79.57 178.99 75.72 183.54 71.87L175.49 68.72ZM173.6 58.92H197.96V62.63H173.6V58.92ZM173.6 49.4H197.96V53.11H173.6V49.4ZM166.18 43.24V68.79H205.73V43.24H166.18ZM169.26 33.16V39.81H202.51V33.16H169.26ZM179.13 17.27C180.18 19.72 181.3 23.01 181.79 25.11L190.68 23.36C190.05 21.33 188.86 18.18 187.67 15.94L179.13 17.27ZM148.61 23.64C152.18 25.6 157.22 28.54 159.6 30.43L164.5 23.71C161.84 21.89 156.8 19.16 153.23 17.55L148.61 23.64ZM144.48 42.61C148.05 44.36 153.16 47.23 155.61 49.05L160.23 42.12C157.57 40.37 152.39 37.85 148.89 36.31L144.48 42.61ZM146.3 75.58L153.72 80.62C157.01 73.9 160.44 65.92 163.31 58.57L156.73 53.53C153.51 61.58 149.31 70.19 146.3 75.58ZM217.56 67.04V71.8H280.63V67.04H217.56ZM226.38 60.04V64.8H272.44V60.04H226.38ZM257.39 73.13C262.78 75.58 269.15 79.78 272.37 82.86L278.18 79.22C274.75 76.28 268.45 72.22 263.06 69.91L257.39 73.13ZM223.58 82.23C223.58 81.11 228.62 79.43 228.62 79.43V79.36C234.15 77.26 240.66 73.69 246.26 69.77L238.07 67.67C233.73 71.24 227.92 74.25 225.96 75.09C224.14 75.93 222.67 76.49 221.2 76.63C222.04 78.24 223.16 80.97 223.58 82.23ZM223.58 82.23C226.94 81.32 231.63 81.25 271.32 79.78C270.83 78.66 270.27 76.42 270.06 74.95L228.41 76L223.51 78.03L223.58 82.23ZM221.9 30.36V34.49H246.05V30.36H221.9ZM250.53 33.37V39.25H270.97V33.37H250.53ZM221.41 47.79V51.92H246.68V47.79H221.41ZM218.68 36.45V40.72H249.27V36.45H218.68ZM233.45 16.5V28.4H241.57V16.5H233.45ZM230.44 28.61V39.39H237.44V28.61H230.44ZM230.44 44.29V56.4H237.44V44.29H230.44ZM256.55 16.5V28.4H264.81V16.5H256.55ZM218.33 54.72L218.61 59.48C226.73 59.06 238 58.36 249.06 57.59V53.32C237.72 53.95 226.03 54.44 218.33 54.72ZM226.1 38.69C225.61 41.91 223.72 43.31 217.14 44.08C218.19 44.92 219.45 46.74 219.87 47.93C227.92 46.46 230.51 43.73 231.21 38.69H226.1ZM267.54 33.37V50.24C267.54 54.37 267.96 55.7 268.94 56.75C269.99 57.8 271.6 58.29 273.07 58.29C273.84 58.29 275.1 58.29 276.01 58.29C277.06 58.29 278.39 58.08 279.16 57.52C280.07 57.03 280.77 56.26 281.12 55.14C281.61 54.09 281.82 51.22 281.96 48.77C280.42 48.21 278.46 47.3 277.34 46.32C277.27 48.49 277.2 50.31 277.06 51.08C276.99 51.85 276.85 52.27 276.64 52.41C276.43 52.55 276.15 52.62 275.8 52.62C275.59 52.62 275.24 52.62 274.96 52.62C274.68 52.62 274.47 52.55 274.33 52.27C274.19 52.06 274.19 51.36 274.19 50.1V33.37H267.54ZM248.92 44.57C254.45 46.88 261.17 50.8 264.46 53.74L268.31 48.63C264.88 45.69 258.02 42.05 252.56 39.95L248.92 44.57ZM257.67 29.1V35.75C257.67 41.42 256.41 49.26 247.03 55.28C248.64 56.4 250.81 58.36 251.86 59.69C262.43 52.9 263.9 43.31 263.9 35.96V29.1H257.67ZM235.62 38.76V41.28C235.62 44.85 236.39 46.6 240.31 46.6C241.29 46.6 243.46 46.6 244.3 46.6C245.56 46.6 247.03 46.53 247.8 46.25C247.59 44.99 247.59 43.73 247.45 42.47C246.68 42.75 245 42.82 244.23 42.82C243.53 42.82 242.2 42.82 241.71 42.82C240.73 42.82 240.66 42.4 240.66 41.35V38.76H235.62ZM218.12 20.42V26.23H248.36V20.42H218.12ZM250.46 20.42V26.23H280.49V20.42H250.46ZM288.75 62.77V69.49H352.24V62.77H288.75ZM302.4 50.8V56.75H333.06V50.8H302.4ZM317.17 60.81V74.18C317.17 75.09 316.89 75.3 315.77 75.3C314.65 75.3 310.45 75.3 307.09 75.16C308.14 77.19 309.33 80.06 309.75 82.23C315 82.23 318.85 82.23 321.72 81.18C324.66 80.06 325.43 78.24 325.43 74.46V60.81H317.17ZM330.96 50.8V52.2C328.16 54.86 322.14 58.71 317.17 60.81C318.22 61.79 320.11 63.82 320.95 65.08C327.39 62.42 334.25 58.5 339.5 54.72L334.74 50.38L332.99 50.8H330.96ZM289.94 41.77V56.19H297.92V47.86H343.07V56.19H351.4V41.77H289.94ZM339.71 18.88C339.43 27.28 338.66 37.92 337.75 44.78H345.8C346.57 38.13 347.27 27.49 347.69 18.88H339.71ZM330.05 18.88V24.13H343V18.88H330.05ZM308.14 16.92C304.36 18.18 298.13 20.07 293.93 20.77L296.87 25.39C301.14 24.69 307.23 23.43 311.64 21.75L308.14 16.92ZM297.99 26.51V31.69H311.08V26.51H297.99ZM298.2 34.14V39.32H311.29V34.14H298.2ZM330.47 26.51V31.69H342.3V26.51H330.47ZM330.12 34.14V39.32H341.88V34.14H330.12ZM323.19 16.99C320.6 20.42 315.91 23.57 311.08 25.67C312.41 26.51 314.51 28.4 315.49 29.38C320.25 26.93 325.5 22.87 328.65 18.53L323.19 16.99ZM312.55 20.7C316.89 22.94 322.28 26.37 324.8 28.82L328.86 25.25C326.06 22.8 320.67 19.51 316.4 17.48L312.55 20.7ZM323.26 28.82C320.53 32.46 315.49 35.82 310.52 37.99C311.71 38.9 313.81 41.07 314.72 42.12C319.83 39.46 325.36 35.12 328.72 30.43L323.26 28.82ZM312.2 32.67C316.82 35.12 322.49 38.9 325.15 41.56L329.28 37.92C326.41 35.26 320.6 31.69 316.12 29.45L312.2 32.67ZM293.93 20.77L295.33 44.43H303.17L301.91 22.8L293.93 20.77ZM389.55 37.71V44.92H418.46V37.71H389.55ZM384.23 50.17V57.66H424.34V50.17H384.23ZM384.02 24.76V38.62H391.79V31.97H416.01V38.62H423.99V24.76H384.02ZM392.91 53.81C392.28 64.8 390.88 71.66 378.07 75.51C379.82 77.12 381.99 80.27 382.83 82.3C397.74 77.12 400.19 67.74 400.96 53.81H392.91ZM405.37 53.6V72.01C405.37 79.01 406.7 81.32 412.93 81.32C414.12 81.32 416.57 81.32 417.83 81.32C422.8 81.32 424.76 78.66 425.39 69C423.29 68.44 420 67.25 418.46 65.92C418.32 73.13 418.04 74.25 416.92 74.25C416.43 74.25 414.82 74.25 414.4 74.25C413.42 74.25 413.28 73.97 413.28 71.94V53.6H405.37ZM397.46 18.11C399.07 21.12 400.75 25.32 401.31 28.05L409.64 25.32C408.87 22.73 407.12 18.81 405.44 15.8L397.46 18.11ZM361.76 19.3V82.09H369.11V26.79H377.86V19.3H361.76ZM375.9 19.3V21.68C374.92 26.02 372.75 35.19 370.72 41.35C374.71 46.25 375.62 50.87 375.62 54.23C375.62 56.26 375.2 57.8 374.36 58.43C373.87 58.78 373.17 58.92 372.47 58.99C371.63 59.06 370.65 58.99 369.46 58.92C370.58 60.95 371.28 64.1 371.28 66.13C372.89 66.13 374.57 66.13 375.83 65.92C377.37 65.71 378.7 65.22 379.82 64.38C382.06 62.7 382.97 59.69 382.97 55.14C382.97 51.01 382.13 46.04 377.86 40.51C379.89 35.05 382.13 28.05 383.95 22.1L378.49 19.02L377.3 19.3H375.9Z" fill="white"/>
<path d="M12.144 125.4V127.992H20.112V125.4H12.144ZM12.36 136.488V139.032H20.28V136.488H12.36ZM10.992 129.936V140.208H13.8V132.48H18.936V140.184H21.864V129.936H10.992ZM17.184 118.464L14.976 119.352C16.56 122.544 19.176 125.904 21.648 127.824C22.128 127.08 23.112 126.024 23.784 125.496C21.312 123.936 18.6 121.08 17.184 118.464ZM15.36 117.576C14.112 120.816 11.616 124.056 8.568 126C9.168 126.48 10.128 127.488 10.536 128.088C13.824 125.76 16.416 122.328 17.976 118.368L15.36 117.576ZM6.72 127.488C7.32 129.168 7.896 131.328 8.112 132.672L10.368 131.88C10.104 130.584 9.456 128.448 8.832 126.816L6.72 127.488ZM4.56 133.8C4.824 135.504 5.112 137.76 5.136 139.248L7.416 138.768C7.32 137.28 7.032 135.096 6.72 133.392L4.56 133.8ZM1.632 133.464C1.488 135.504 1.2 137.736 0.624 139.176C1.248 139.368 2.424 139.728 2.976 140.04C3.48 138.504 3.888 136.104 4.056 133.848L1.632 133.464ZM1.416 127.152C1.416 126.672 3 125.832 3 125.832V125.76C4.608 123.864 6.336 121.128 7.512 118.512L4.92 117.432C4.032 120 2.448 122.664 1.92 123.36C1.44 124.08 1.008 124.536 0.552 124.68C0.84 125.352 1.272 126.624 1.416 127.152ZM1.416 127.152C1.896 126.936 2.688 126.744 6.408 126.384C6.432 125.832 6.528 124.824 6.696 124.128L2.496 124.44L1.32 125.184L1.416 127.152ZM1.584 132.72C1.584 132.216 3.24 131.376 3.24 131.376V131.304C5.616 129 8.064 125.784 9.84 122.616L7.416 121.08C5.904 124.344 3.408 127.704 2.616 128.544C1.824 129.432 1.296 129.96 0.672 130.128C1.008 130.848 1.44 132.168 1.584 132.72ZM1.584 132.72C2.184 132.432 3.12 132.192 8.76 131.4C8.736 130.872 8.808 129.84 8.928 129.168L2.664 129.912L1.464 130.704L1.584 132.72ZM7.2 133.32C7.68 134.76 8.208 136.704 8.424 137.928L10.56 137.184C10.296 135.96 9.744 134.088 9.216 132.648L7.2 133.32ZM29.88 125.976V128.64H42.936V125.976H29.88ZM29.88 131.112V133.776H42.936V131.112H29.88ZM29.88 136.272V138.936H42.936V136.272H29.88ZM27.912 120.744V140.136H30.84V123.504H42.288V140.088H45.36V120.744H27.912ZM34.728 117.6C34.56 118.848 34.152 120.528 33.768 121.728L36.408 122.208C36.936 121.152 37.632 119.568 38.208 117.96L34.728 117.6ZM53.928 126.72V129.552H67.536V126.72H53.928ZM52.152 118.992V121.944H66.168V130.92H69.24V118.992H52.152ZM52.44 126.72V135.384C52.44 138.84 53.904 139.704 58.416 139.704C59.448 139.704 65.136 139.704 66.216 139.704C70.56 139.704 71.616 138.48 72.12 133.872C71.28 133.704 69.984 133.2 69.216 132.744C68.904 136.248 68.568 136.848 66.144 136.848C64.728 136.848 59.664 136.848 58.464 136.848C55.872 136.848 55.44 136.632 55.44 135.336V126.72H52.44ZM74.352 127.08V130.224H96.576V127.08H74.352ZM106.056 118.848V140.136H108.672V121.344H117.744V139.944H120.48V118.848H106.056ZM109.296 124.296V126.384H117.192V124.296H109.296ZM107.4 136.224V138.744H119.064V136.224H107.4ZM112.056 121.848V129.552H114.288V121.848H112.056ZM111.984 130.464H114.432V132.96H111.984V130.464ZM109.92 128.472V134.952H116.616V128.472H109.92ZM103.08 117.696C102 121.128 100.152 124.584 98.136 126.792C98.592 127.536 99.312 129.216 99.528 129.912C102.024 127.08 104.328 122.64 105.72 118.488L103.08 117.696ZM101.112 124.272V140.184H103.848V121.584L103.824 121.56L101.112 124.272ZM123.384 122.112V124.752H129.624V122.112H123.384ZM125.52 117.624V140.16H127.968V117.624H125.52ZM125.52 123.912C125.064 126.792 123.984 130.392 122.76 132.312C123.12 133.056 123.648 134.328 123.888 135.144C125.232 132.768 126.336 128.232 126.816 124.536L125.52 123.912ZM127.872 125.664L126.888 126.696C127.416 127.68 128.568 130.08 128.976 131.304L130.248 129.36C129.888 128.76 128.328 126.24 127.872 125.664ZM130.152 130.008V132.216H145.152V130.008H130.152ZM132.192 134.184C133.224 135.048 134.616 136.296 135.288 137.064L137.016 135.36C136.296 134.616 134.856 133.464 133.848 132.672L132.192 134.184ZM140.232 128.976C140.952 129.528 141.864 130.32 142.344 130.824L143.832 129.432C143.352 128.952 142.392 128.232 141.696 127.728L140.232 128.976ZM141.864 132.048C140.52 134.856 137.832 137.064 134.352 138.264C134.856 138.72 135.552 139.608 135.84 140.088C139.536 138.696 142.56 136.272 144.24 132.936L141.864 132.048ZM135.888 117.816C136.296 130.8 137.784 139.704 143.184 140.136C144.24 140.208 145.224 139.392 145.848 136.344C145.392 136.104 144.456 135.408 144.024 134.856C143.832 136.56 143.568 137.424 143.112 137.376C139.968 136.992 138.48 128.856 138.264 117.816H135.888ZM133.824 125.352C134.184 126.504 134.52 128.016 134.64 128.928L136.416 128.376C136.272 127.512 135.888 126.048 135.48 124.92L133.824 125.352ZM130.464 124.488C130.464 124.08 131.568 123.432 131.568 123.432V123.384C132.504 122.184 133.632 120.216 134.328 118.368L132.24 117.816C131.808 119.52 130.92 121.248 130.656 121.704C130.392 122.16 130.08 122.472 129.792 122.544C130.032 123.072 130.344 124.056 130.464 124.488ZM130.464 124.488C130.776 124.32 131.4 124.176 133.776 123.912C133.896 123.504 134.184 122.736 134.472 122.208L131.328 122.448L130.416 123.024L130.464 124.488ZM130.704 128.88C130.704 128.496 131.736 127.824 131.736 127.824V127.8C133.224 126.24 134.856 123.864 136.08 121.512L134.04 120.816C133.2 123 131.712 125.232 131.256 125.808C130.824 126.408 130.44 126.816 130.056 126.912C130.272 127.44 130.608 128.472 130.704 128.88ZM130.704 128.88C131.064 128.664 131.736 128.496 135.264 128.016C135.12 127.608 134.928 126.864 134.856 126.36L131.448 126.744L130.632 127.32L130.704 128.88ZM142.704 125.088C143.112 126.216 143.568 127.776 143.736 128.688L145.464 128.112C145.248 127.224 144.792 125.736 144.336 124.632L142.704 125.088ZM139.344 124.128C139.344 123.72 140.424 123.072 140.424 123.072V123.024C141.312 121.896 142.368 120.048 143.016 118.296L140.952 117.744C140.568 119.328 139.728 120.96 139.488 121.392C139.248 121.824 138.96 122.136 138.672 122.184C138.912 122.736 139.224 123.696 139.344 124.128ZM139.344 124.128C139.656 123.96 140.256 123.816 142.608 123.576C142.728 123.168 143.016 122.376 143.28 121.872L140.184 122.088L139.32 122.664L139.344 124.128ZM139.608 128.52C139.608 128.136 140.664 127.464 140.664 127.464V127.44C142.128 125.88 143.76 123.48 144.912 121.128L142.848 120.432C142.032 122.616 140.592 124.872 140.136 125.448C139.704 126.048 139.344 126.432 138.96 126.552C139.176 127.08 139.512 128.112 139.608 128.52ZM139.608 128.52C139.992 128.328 140.64 128.16 144.144 127.608C144 127.2 143.808 126.504 143.712 126L140.352 126.408L139.536 126.984L139.608 128.52ZM131.592 130.776V131.664C131.592 133.68 131.112 136.44 128.28 138.504C128.808 138.816 129.816 139.68 130.2 140.16C133.224 137.784 134.016 134.304 134.016 131.736V130.776H131.592ZM152.904 126.336H164.688V129.36H152.904V126.336ZM150.504 124.56V131.112H167.256V124.56H150.504ZM154.632 121.848V123.72H163.104V121.848H154.632ZM157.584 125.16V130.224H159.912V125.16H157.584ZM153.744 126.864C154.152 127.68 154.488 128.808 154.584 129.528L156.696 128.904C156.552 128.184 156.168 127.128 155.736 126.312L153.744 126.864ZM161.688 126.216C161.496 127.008 161.064 128.184 160.704 128.976L162.672 129.504C163.056 128.832 163.56 127.824 164.064 126.792L161.688 126.216ZM151.824 131.904V140.16H154.656V133.776H163.08V140.064H166.032V131.904H151.824ZM153.456 134.736V136.632H164.304V134.736H153.456ZM153.456 137.616V139.488H164.304V137.616H153.456ZM158.376 117.408C156.192 120.192 151.92 122.208 147.48 123.288C147.96 123.792 148.704 124.944 148.992 125.52C153.672 124.104 158.256 121.728 160.92 118.344L158.376 117.408ZM160.272 118.512L158.136 119.376C160.608 122.064 164.712 124.272 168.744 125.304C169.152 124.656 169.968 123.624 170.568 123.12C166.56 122.304 162.408 120.576 160.272 118.512ZM181.32 134.16C184.296 133.272 186.072 131.064 186.072 128.352C186.072 126.336 185.16 125.04 183.48 125.04C182.184 125.04 181.104 125.856 181.104 127.2C181.104 128.568 182.208 129.36 183.408 129.36C183.936 129.36 184.44 129.192 184.824 128.832L183.504 126.672L183.672 129.024C183.672 130.416 182.568 131.592 180.552 132.216L181.32 134.16ZM198.744 120.936V123.816H217.104V120.936H198.744ZM196.896 127.224V130.128H218.832V127.224H196.896ZM206.28 117.6V128.736H209.352V117.6H206.28ZM210.024 132C212.04 134.448 214.296 137.856 215.232 140.064L218.064 138.6C216.984 136.416 214.776 133.224 212.688 130.824L210.024 132ZM199.176 139.56C199.176 139.032 200.88 138.12 200.88 138.12V138.048C203.16 135.936 205.776 132.768 207.744 129.48L204.504 128.544C203.136 131.496 200.784 134.52 200.04 135.264C199.32 136.08 198.816 136.56 198.192 136.728C198.552 137.52 199.008 138.984 199.176 139.56ZM199.176 139.56C200.424 139.08 202.128 139.008 214.944 138C214.776 137.376 214.488 136.176 214.368 135.336L200.976 136.152L199.104 137.184L199.176 139.56ZM230.88 119.976V122.328H238.272V124.608H230.88V126.96H241.08V119.976H230.88ZM233.904 117.576C233.736 118.584 233.304 119.928 232.944 120.912L235.656 121.416C236.136 120.576 236.76 119.328 237.336 118.008L233.904 117.576ZM229.488 119.976V135.672H232.272V119.976H229.488ZM231.144 128.424V130.776H239.208V133.344H231.144V135.696H241.992V128.424H231.144ZM221.928 118.968C223.032 120.168 224.424 121.848 225.096 122.856L227.28 121.272C226.56 120.312 225.216 118.8 224.064 117.648L221.928 118.968ZM221.328 123.216V125.52H226.416V123.216H221.328ZM226.2 133.656L224.28 134.424C226.056 139.032 229.032 139.776 234.6 139.776C237.408 139.776 240.48 139.704 242.976 139.56C243.12 138.768 243.504 137.472 243.888 136.896C241.176 137.136 237.216 137.304 234.648 137.304C230.304 137.28 227.496 136.896 226.2 133.656ZM225.648 129.048V129.48C225.072 133.728 223.368 136.68 220.776 138.264C221.352 138.648 222.264 139.632 222.648 140.184C225.408 138.336 227.376 134.808 228.168 129.504L226.8 129L226.344 129.048H225.648ZM221.784 131.664C222 131.448 222.696 131.28 223.272 131.28H226.416L226.44 129.048H222.816L221.784 129.6V131.664ZM221.784 131.664C221.784 131.016 223.728 130.08 223.728 130.08C225.144 128.52 227.28 125.568 228.456 123.912L226.704 123.096L225.96 123.408V123.48C225.096 124.8 222.864 127.848 222.144 128.544C221.688 129.024 221.256 129.192 220.872 129.312C221.112 129.84 221.64 131.064 221.784 131.664ZM248.856 118.728V120.6H261.696V124.224H248.736V126.096H264.528V118.728H248.856ZM259.704 128.736H263.736V130.368H259.704V128.736ZM257.016 126.888V132.216H266.568V126.888H257.016ZM245.952 121.512V123.312H263.064V121.512H245.952ZM262.992 121.296V123.48H267.744V121.296H262.992ZM246.624 126.888V128.88H255.792V126.888H246.624ZM245.808 133.272V135.6H267.792V133.272H245.808ZM260.184 131.928V137.472C260.184 137.808 260.088 137.88 259.704 137.904C259.344 137.904 257.928 137.928 256.752 137.856C257.112 138.504 257.496 139.464 257.664 140.184C259.488 140.184 260.808 140.16 261.768 139.824C262.752 139.464 263.04 138.864 263.04 137.568V131.928H260.184ZM249.768 127.584V130.944H252.456V127.584H249.768ZM246.24 130.584L246.408 132.768C249.024 132.6 252.648 132.408 256.152 132.168V130.152C252.552 130.32 248.76 130.512 246.24 130.584ZM249.888 136.416C251.088 137.232 252.528 138.456 253.152 139.32L255.216 137.544C254.496 136.68 253.008 135.528 251.832 134.808L249.888 136.416ZM276.816 119.952V122.424H292.296V119.952H276.816ZM284.472 122.544C283.848 124.824 282.792 127.128 281.544 128.64C282.048 129 282.912 129.792 283.296 130.176C284.64 128.424 285.912 125.712 286.68 123.096L284.472 122.544ZM285.432 125.088H284.832L283.2 127.008V139.872H285.432V127.248H292.08V125.088H285.432ZM284.424 128.976V130.896H291.696V128.976H284.424ZM284.424 132.648V134.568H291.6V132.648H284.424ZM284.304 136.56V138.72H292.272V136.56H284.304ZM287.376 126.288V137.376H289.608V126.288H287.376ZM281.256 130.296C280.584 134.016 278.736 136.776 275.64 138.336C276.12 138.696 276.84 139.56 277.152 140.064C280.488 138.192 282.408 135.024 283.248 130.68L281.256 130.296ZM276.936 134.856C276.936 134.4 278.424 133.704 278.424 133.704V133.656C279.936 131.616 281.472 128.736 282.552 126.12L280.56 124.968C279.672 127.728 278.088 130.656 277.56 131.376C277.08 132.168 276.672 132.672 276.216 132.792C276.48 133.368 276.816 134.4 276.936 134.856ZM276.936 134.856C277.368 134.544 278.088 134.232 281.688 133.248C281.592 132.72 281.544 131.736 281.592 131.064L277.656 131.976L276.72 132.768L276.936 134.856ZM276.768 129.12C276.768 128.688 277.92 127.992 277.92 127.992V127.944C278.832 126.672 279.864 124.824 280.44 123.144L278.256 122.136C277.896 123.84 277.128 125.616 276.864 126.072C276.6 126.576 276.312 126.888 276 126.984C276.264 127.56 276.648 128.664 276.768 129.12ZM276.768 129.12C277.224 128.904 277.968 128.736 281.256 128.4C281.232 127.848 281.376 126.84 281.496 126.168L277.848 126.432L276.696 127.176L276.768 129.12ZM282.264 118.56C282.792 119.4 283.32 120.528 283.512 121.272L285.696 120.384C285.456 119.664 284.904 118.584 284.328 117.792L282.264 118.56ZM287.016 123.36C287.544 124.248 288.072 125.472 288.264 126.264L290.28 125.496C290.064 124.728 289.488 123.552 288.936 122.712L287.016 123.36ZM269.904 129.912L270.576 132.672C272.424 132.024 274.632 131.232 276.672 130.488L276.192 127.92C273.888 128.688 271.512 129.48 269.904 129.912ZM270.216 122.184V124.824H276.456V122.184H270.216ZM272.4 117.624V137.064C272.4 137.376 272.304 137.448 272.016 137.448C271.752 137.472 270.936 137.472 270.096 137.448C270.408 138.168 270.72 139.272 270.816 139.944C272.28 139.944 273.288 139.872 273.96 139.44C274.656 139.008 274.872 138.312 274.872 137.064V117.624H272.4ZM304.848 130.008V132.48H311.496V124.8H304.848V127.272H308.832V130.008H304.848ZM303.528 124.8V136.104C303.528 139.2 304.512 140.016 307.824 140.016C308.544 140.016 312.216 140.016 313.008 140.016C315.888 140.016 316.752 138.96 317.112 135.432C316.32 135.288 315.192 134.832 314.544 134.4C314.352 136.968 314.112 137.496 312.768 137.496C311.952 137.496 308.784 137.496 308.064 137.496C306.552 137.496 306.312 137.28 306.312 136.104V124.8H303.528ZM305.184 117.528C304.44 120.456 303.024 123.288 301.152 125.04C301.8 125.448 302.928 126.36 303.384 126.864C305.304 124.8 306.984 121.536 307.944 118.152L305.184 117.528ZM313.608 120.504V121.056C313.464 128.448 313.296 130.92 312.912 131.472C312.72 131.784 312.552 131.856 312.24 131.856C311.88 131.856 311.28 131.856 310.584 131.784C310.944 132.528 311.232 133.656 311.28 134.448C312.264 134.448 313.176 134.472 313.776 134.328C314.424 134.208 314.88 133.968 315.36 133.272C315.984 132.384 316.152 129.456 316.32 121.68C316.32 121.344 316.344 120.504 316.344 120.504H313.608ZM305.352 120.504V123.096H314.688V120.504H305.352ZM294.24 129.888L294.84 132.696C297.048 132.096 299.832 131.328 302.448 130.56L302.112 128.016C299.256 128.736 296.256 129.48 294.24 129.888ZM294.72 122.184V124.824H302.136V122.184H294.72ZM297.552 117.648V136.92C297.552 137.256 297.432 137.376 297.12 137.376C296.808 137.376 295.824 137.376 294.888 137.328C295.248 138.12 295.608 139.368 295.704 140.136C297.336 140.136 298.488 140.04 299.28 139.56C300.072 139.104 300.312 138.336 300.312 136.92V117.648H297.552ZM325.968 117.624V122.184H328.824V117.624H325.968ZM331.584 117.624V122.184H334.464V117.624H331.584ZM333.96 124.512H336.552V126.12H333.96V124.512ZM329.016 124.512H331.56V126.12H329.016V124.512ZM324.12 124.512H326.616V126.12H324.12V124.512ZM321.576 122.688V127.968H339.24V122.688H321.576ZM319.632 128.808V133.08H322.344V130.992H338.016V133.08H340.848V128.808H319.632ZM327.816 130.776C326.76 131.832 324.816 132.744 322.008 133.344C322.56 133.752 323.352 134.712 323.664 135.36C326.856 134.376 329.016 133.176 330.6 131.352L327.816 130.776ZM334.584 131.952V132.312C332.424 135.624 326.448 137.184 320.304 137.64C320.76 138.264 321.264 139.392 321.48 140.088C328.176 139.344 334.56 137.496 337.488 132.888L335.664 131.808L335.16 131.952H334.584ZM324.888 134.568C326.112 135.264 327.576 136.44 328.32 137.28L330.432 135.96C329.688 135.192 328.224 134.112 326.952 133.44L324.888 134.568ZM327.864 131.952L325.944 133.872H335.304V131.952H327.864ZM319.464 118.896V121.32H327.768V118.896H319.464ZM332.592 118.896V121.296H340.944V118.896H332.592ZM348.984 133.056V136.368C348.984 138.888 349.8 139.68 353.088 139.68C353.736 139.68 356.736 139.68 357.432 139.68C360.096 139.68 360.888 138.816 361.224 135.384C360.456 135.216 359.256 134.808 358.632 134.352C358.512 136.776 358.344 137.112 357.216 137.112C356.424 137.112 353.976 137.112 353.376 137.112C352.056 137.112 351.816 137.04 351.816 136.32V133.056H348.984ZM352.44 132.744C353.52 133.776 354.96 135.24 355.632 136.128L357.72 134.352C356.976 133.488 355.488 132.12 354.408 131.16L352.44 132.744ZM360.552 133.416C361.512 135 362.832 137.136 363.408 138.408L366.096 137.04C365.448 135.792 364.056 133.728 363.072 132.24L360.552 133.416ZM345.528 132.576C345.12 134.28 344.328 136.248 343.44 137.544L346.056 138.84C346.92 137.448 347.64 135.288 348.096 133.56L345.528 132.576ZM343.848 121.056V123.48H353.952V121.056H343.848ZM347.832 117.648V132.096H350.568V117.648H347.832ZM347.736 122.664C346.824 125.016 345.072 127.536 343.272 128.856C343.848 129.312 344.688 130.248 345.12 130.872C346.968 129.192 348.72 126.192 349.704 123.288L347.736 122.664ZM350.4 124.272L348.912 125.688C349.92 126.48 351.936 128.328 352.872 129.312L354.384 127.008C353.736 126.528 351.216 124.728 350.4 124.272ZM357.504 124.608H361.944V126.024H357.504V124.608ZM357.504 128.112H361.944V129.552H357.504V128.112ZM357.504 121.104H361.944V122.472H357.504V121.104ZM354.888 118.824V131.808H364.704V118.824H354.888ZM370.632 121.512V124.032H375.384V135.144H370.632V137.688H378V121.512H370.632ZM368.952 121.512V139.464H371.568V121.512H368.952ZM370.512 127.92V130.416H376.656V127.92H370.512ZM372.36 117.6C372.24 118.92 371.904 120.768 371.568 122.016L373.872 122.52C374.352 121.392 374.952 119.688 375.504 118.056L372.36 117.6ZM381.168 121.344V123.96H388.176V121.344H381.168ZM387.192 121.344V121.896C386.928 131.904 386.616 136.032 385.848 136.848C385.536 137.184 385.272 137.28 384.792 137.28C384.192 137.28 382.752 137.256 381.192 137.136C381.72 137.904 382.104 139.128 382.152 139.92C383.544 139.992 385.008 140.016 385.92 139.872C386.904 139.728 387.576 139.464 388.248 138.528C389.232 137.256 389.52 133.44 389.832 122.64C389.856 122.28 389.856 121.344 389.856 121.344H387.192ZM381.24 117.624C380.472 120.816 379.104 124.08 377.496 126.096C378.168 126.48 379.344 127.296 379.872 127.776C381.504 125.472 383.064 121.824 384 118.272L381.24 117.624ZM380.064 128.256C381.216 130.032 382.728 132.384 383.376 133.848L385.824 132.36C385.08 130.944 383.496 128.64 382.32 126.984L380.064 128.256ZM397.08 125.976V128.64H410.136V125.976H397.08ZM397.08 131.112V133.776H410.136V131.112H397.08ZM397.08 136.272V138.936H410.136V136.272H397.08ZM395.112 120.744V140.136H398.04V123.504H409.488V140.088H412.56V120.744H395.112ZM401.928 117.6C401.76 118.848 401.352 120.528 400.968 121.728L403.608 122.208C404.136 121.152 404.832 119.568 405.408 117.96L401.928 117.6ZM421.128 126.72V129.552H434.736V126.72H421.128ZM419.352 118.992V121.944H433.368V130.92H436.44V118.992H419.352ZM419.64 126.72V135.384C419.64 138.84 421.104 139.704 425.616 139.704C426.648 139.704 432.336 139.704 433.416 139.704C437.76 139.704 438.816 138.48 439.32 133.872C438.48 133.704 437.184 133.2 436.416 132.744C436.104 136.248 435.768 136.848 433.344 136.848C431.928 136.848 426.864 136.848 425.664 136.848C423.072 136.848 422.64 136.632 422.64 135.336V126.72H419.64Z" fill="white"/>
</svg>
