<svg width="416" height="156" viewBox="0 0 416 156" fill="none" xmlns="http://www.w3.org/2000/svg">
<path d="M20.09 37.32V73.93C20.09 83.66 22.75 86.46 32.2 86.46C34.23 86.46 42.49 86.46 44.59 86.46C53.27 86.46 55.72 82.4 56.84 69.66C54.39 69.17 50.61 67.56 48.65 66.09C48.09 76.1 47.46 78.06 43.89 78.06C41.93 78.06 34.93 78.06 33.25 78.06C29.61 78.06 29.05 77.57 29.05 74V37.32H20.09ZM20.93 27.59C26.46 31.37 33.67 36.9 37.66 40.33L43.19 33.4C39.2 30.32 32.06 25.07 26.39 21.5L20.93 27.59ZM8.89 40.54C7.63 48.8 5.04 57.69 1.47 63.78L9.66 66.79C13.16 60.77 15.4 50.83 16.94 42.57L8.89 40.54ZM50.12 48.8C54.32 55.45 58.66 64.48 60.27 70.36L68.39 66.23C66.5 60.35 62.16 51.81 57.75 45.23L50.12 48.8ZM53.48 25.63C44.1 45.37 25.41 66.37 1.68 77.22C3.43 78.9 5.88 81.98 7.14 83.94C32.2 71.62 50.68 50.62 61.95 29.06L53.48 25.63ZM93.31 49.64C95.06 54.47 96.81 60.7 97.37 64.55L104.51 62.38C103.88 58.67 101.92 52.58 100.03 47.89L93.31 49.64ZM86.73 68.89C87.64 73.51 88.62 79.6 88.76 83.59L95.83 81.63C95.55 77.64 94.57 71.69 93.52 67.14L86.73 68.89ZM77.91 67.7C77.07 73.23 75.46 79.6 73.57 83.66C75.53 84.15 79.1 85.27 80.78 86.18C82.53 81.91 84.42 75.26 85.4 69.24L77.91 67.7ZM76.16 49.36C76.16 47.89 81.06 45.37 81.06 45.37V45.23C86.1 39.84 91.7 32.14 95.62 24.65L87.71 21.29C84.63 28.57 79.59 36.13 77.91 38.02C76.3 40.05 74.97 41.31 73.5 41.66C74.41 43.83 75.74 47.68 76.16 49.36ZM76.16 49.36C77.56 48.73 79.87 48.17 91.07 47.12C91.07 45.44 91.42 42.57 91.91 40.47L79.38 41.38L75.95 43.62L76.16 49.36ZM76.44 65.6C76.44 64.13 81.69 61.61 81.69 61.61V61.4C89.25 54.82 97.16 45.65 103.04 36.41L95.83 31.65C90.58 41.17 82.53 50.83 79.8 53.28C77.28 55.8 75.67 57.34 73.71 57.76C74.69 59.93 76.02 63.99 76.44 65.6ZM76.44 65.6C78.26 64.69 81.2 63.92 99.12 61.05C99.05 59.44 99.19 56.36 99.54 54.26L79.59 56.99L75.95 59.44L76.44 65.6ZM94.99 66.72C96.18 69.8 97.65 73.93 98.21 76.52L104.86 73.93C104.16 71.34 102.69 67.42 101.36 64.41L94.99 66.72ZM103.81 26.61V34.87H138.04V26.61H103.81ZM101.36 75.89V84.15H139.23V75.89H101.36ZM116.41 31.09V80.79H125.16V31.09H116.41ZM155.54 67V73.51H201.18V67H155.54ZM157.36 55.73V62.66H204.33V55.73H157.36ZM146.93 78.27V85.48H208.88V78.27H146.93ZM173.67 51.46V83.31H182.42V51.46H173.67ZM161.91 40.05H192.99V43.76H161.91V40.05ZM161.91 30.39H192.99V34.1H161.91V30.39ZM153.72 24.02V50.2H201.74V24.02H153.72ZM157.29 49.5C154.77 55.17 150.15 60.84 145.32 64.48C147.28 65.67 150.71 68.19 152.32 69.73C157.15 65.46 162.4 58.67 165.55 51.88L157.29 49.5ZM217.35 67.77V74.49H280.84V67.77H217.35ZM231 55.8V61.75H261.66V55.8H231ZM245.77 65.81V79.18C245.77 80.09 245.49 80.3 244.37 80.3C243.25 80.3 239.05 80.3 235.69 80.16C236.74 82.19 237.93 85.06 238.35 87.23C243.6 87.23 247.45 87.23 250.32 86.18C253.26 85.06 254.03 83.24 254.03 79.46V65.81H245.77ZM259.56 55.8V57.2C256.76 59.86 250.74 63.71 245.77 65.81C246.82 66.79 248.71 68.82 249.55 70.08C255.99 67.42 262.85 63.5 268.1 59.72L263.34 55.38L261.59 55.8H259.56ZM218.54 46.77V61.19H226.52V52.86H271.67V61.19H280V46.77H218.54ZM268.31 23.88C268.03 32.28 267.26 42.92 266.35 49.78H274.4C275.17 43.13 275.87 32.49 276.29 23.88H268.31ZM258.65 23.88V29.13H271.6V23.88H258.65ZM236.74 21.92C232.96 23.18 226.73 25.07 222.53 25.77L225.47 30.39C229.74 29.69 235.83 28.43 240.24 26.75L236.74 21.92ZM226.59 31.51V36.69H239.68V31.51H226.59ZM226.8 39.14V44.32H239.89V39.14H226.8ZM259.07 31.51V36.69H270.9V31.51H259.07ZM258.72 39.14V44.32H270.48V39.14H258.72ZM251.79 21.99C249.2 25.42 244.51 28.57 239.68 30.67C241.01 31.51 243.11 33.4 244.09 34.38C248.85 31.93 254.1 27.87 257.25 23.53L251.79 21.99ZM241.15 25.7C245.49 27.94 250.88 31.37 253.4 33.82L257.46 30.25C254.66 27.8 249.27 24.51 245 22.48L241.15 25.7ZM251.86 33.82C249.13 37.46 244.09 40.82 239.12 42.99C240.31 43.9 242.41 46.07 243.32 47.12C248.43 44.46 253.96 40.12 257.32 35.43L251.86 33.82ZM240.8 37.67C245.42 40.12 251.09 43.9 253.75 46.56L257.88 42.92C255.01 40.26 249.2 36.69 244.72 34.45L240.8 37.67ZM222.53 25.77L223.93 49.43H231.77L230.51 27.8L222.53 25.77ZM318.15 42.71V49.92H347.06V42.71H318.15ZM312.83 55.17V62.66H352.94V55.17H312.83ZM312.62 29.76V43.62H320.39V36.97H344.61V43.62H352.59V29.76H312.62ZM321.51 58.81C320.88 69.8 319.48 76.66 306.67 80.51C308.42 82.12 310.59 85.27 311.43 87.3C326.34 82.12 328.79 72.74 329.56 58.81H321.51ZM333.97 58.6V77.01C333.97 84.01 335.3 86.32 341.53 86.32C342.72 86.32 345.17 86.32 346.43 86.32C351.4 86.32 353.36 83.66 353.99 74C351.89 73.44 348.6 72.25 347.06 70.92C346.92 78.13 346.64 79.25 345.52 79.25C345.03 79.25 343.42 79.25 343 79.25C342.02 79.25 341.88 78.97 341.88 76.94V58.6H333.97ZM326.06 23.11C327.67 26.12 329.35 30.32 329.91 33.05L338.24 30.32C337.47 27.73 335.72 23.81 334.04 20.8L326.06 23.11ZM290.36 24.3V87.09H297.71V31.79H306.46V24.3H290.36ZM304.5 24.3V26.68C303.52 31.02 301.35 40.19 299.32 46.35C303.31 51.25 304.22 55.87 304.22 59.23C304.22 61.26 303.8 62.8 302.96 63.43C302.47 63.78 301.77 63.92 301.07 63.99C300.23 64.06 299.25 63.99 298.06 63.92C299.18 65.95 299.88 69.1 299.88 71.13C301.49 71.13 303.17 71.13 304.43 70.92C305.97 70.71 307.3 70.22 308.42 69.38C310.66 67.7 311.57 64.69 311.57 60.14C311.57 56.01 310.73 51.04 306.46 45.51C308.49 40.05 310.73 33.05 312.55 27.1L307.09 24.02L305.9 24.3H304.5Z" fill="white"/>
<path d="M0.624 140.816L1.368 143.576C3.72 142.976 6.768 142.184 9.552 141.416L9.216 138.752C6.144 139.568 2.832 140.36 0.624 140.816ZM0.912 133.184V135.872H9.312V133.184H0.912ZM3.912 128.624V147.92C3.912 148.256 3.792 148.376 3.456 148.376C3.144 148.376 2.136 148.4 1.2 148.352C1.536 149.072 1.896 150.248 1.992 150.968C3.696 150.968 4.848 150.896 5.664 150.464C6.456 150.032 6.72 149.312 6.72 147.944V128.624H3.912ZM9.576 135.008L9.864 137.768L22.992 136.424L22.704 133.736L9.576 135.008ZM16.128 130.28C17.184 131.384 18.6 132.968 19.248 133.952L21.576 132.344C20.856 131.384 19.392 129.896 18.336 128.864L16.128 130.28ZM12.288 128.744C12.72 141.824 14.232 150.368 20.136 150.968C21.48 151.088 22.776 149.984 23.424 145.496C22.848 145.232 21.576 144.44 21 143.816C20.856 146.408 20.544 147.584 19.992 147.512C16.848 147.056 15.408 139.136 15.24 128.744H12.288ZM19.584 137.36C17.592 141.896 13.392 146.24 8.52 148.136C9.336 148.712 10.296 149.624 10.824 150.368C15.504 148.16 19.776 143.576 21.96 138.8L19.584 137.36ZM34.776 128.648V148.448H37.992V128.648H34.776ZM43.08 140.672V151.136H46.296V140.672H43.08ZM27.768 130.664V139.424H45.336V130.64H42.144V136.616H30.816V130.664H27.768ZM26.496 140.696V149.84H44.568V146.96H29.736V140.696H26.496ZM52.56 129.344V137.12H55.344V131.36H66.504V137.12H69.432V129.344H52.56ZM56.112 132.296V134H65.736V132.296H56.112ZM56.112 134.912V136.712H65.664V134.912H56.112ZM50.16 137.672V139.976H71.688V137.672H50.16ZM61.104 140.864V143.072H69V140.864H61.104ZM53.856 140.912V142.904H59.304V140.912H53.856ZM53.856 143.888V145.88H59.304V143.888H53.856ZM64.104 142.856L61.8 143.504C63.456 147.248 66.312 149.936 70.44 151.136C70.824 150.464 71.568 149.408 72.144 148.904C68.304 147.992 65.472 145.784 64.104 142.856ZM68.352 140.864V141.272C67.272 144.992 64.152 147.728 60.36 148.856C60.888 149.408 61.584 150.44 61.896 151.112C66.24 149.528 69.648 146.48 71.112 141.44L69.336 140.768L68.856 140.864H68.352ZM49.92 147.488L50.184 149.912C52.728 149.672 56.16 149.336 59.424 148.952L59.376 146.744C55.92 147.056 52.32 147.344 49.92 147.488ZM57.84 138.416V151.16H60.576V138.416H57.84ZM52.056 138.464V148.232H54.672V138.464H52.056ZM81.384 130.28V132.512H96.336V130.28H81.384ZM85.08 137.624V139.352H92.904V137.624H85.08ZM87.912 136.28V141.152H89.976V136.28H87.912ZM82.176 134.192V147.08H84.744V136.376H94.608V134.192H82.176ZM85.68 140.696V145.904H87.624V140.696H85.68ZM86.784 140.696V142.304H90.216V143.552H86.784V145.136H92.232V140.696H86.784ZM93.216 134.192V144.464C93.216 144.752 93.12 144.848 92.856 144.848C92.568 144.848 91.704 144.848 90.888 144.8C91.2 145.448 91.56 146.456 91.656 147.152C93.072 147.152 94.104 147.128 94.896 146.72C95.664 146.336 95.856 145.688 95.856 144.512V134.192H93.216ZM90.864 131.864C90.696 132.584 90.312 133.64 89.976 134.36L92.28 134.936C92.64 134.288 93.096 133.424 93.576 132.464L90.864 131.864ZM84.024 132.584C84.384 133.304 84.696 134.24 84.768 134.84L87.264 134.24C87.168 133.616 86.808 132.704 86.4 132.032L84.024 132.584ZM86.376 129.152C87.048 130.112 87.72 131.408 87.984 132.272L90.36 131.264C90.048 130.4 89.352 129.176 88.608 128.288L86.376 129.152ZM75.048 129.944C76.152 131.12 77.544 132.8 78.216 133.832L80.4 132.224C79.68 131.264 78.336 129.752 77.184 128.624L75.048 129.944ZM74.448 134.216V136.52H79.536V134.216H74.448ZM79.32 144.656L77.4 145.424C79.176 150.032 82.152 150.776 87.72 150.776C90.528 150.776 93.6 150.704 96.096 150.56C96.24 149.768 96.624 148.472 97.008 147.896C94.296 148.136 90.336 148.304 87.768 148.304C83.424 148.28 80.616 147.896 79.32 144.656ZM78.744 140.048V140.48C78.144 144.704 76.44 147.704 73.848 149.264C74.376 149.648 75.312 150.632 75.672 151.184C78.48 149.36 80.448 145.808 81.264 140.504L79.872 140L79.416 140.048H78.744ZM74.904 142.664C75.096 142.448 75.792 142.28 76.368 142.28H79.536L79.56 140.048H75.936L74.904 140.6V142.664ZM74.904 142.664C74.904 142.016 76.824 141.08 76.824 141.08C78.192 139.52 80.28 136.544 81.408 134.888L79.656 134.096L78.912 134.408V134.48C78.096 135.8 75.936 138.872 75.216 139.544C74.76 140.048 74.376 140.216 73.968 140.312C74.232 140.84 74.736 142.064 74.904 142.664ZM103.92 136.376V139.016H115.968V136.376H103.92ZM103.632 147.416V150.08H116.016V147.416H103.632ZM102.36 141.08V151.112H105.288V143.624H114.84V151.016H117.912V141.08H102.36ZM110.112 128.504C107.568 132.248 103.032 135.2 98.592 136.952C99.408 137.672 100.224 138.776 100.704 139.592C105.264 137.432 109.752 134.072 112.68 129.824L110.112 128.504ZM111.096 130.16L108.648 131.432C112.416 135.488 115.824 137.552 119.448 139.232C119.856 138.32 120.696 137.264 121.416 136.592C117.888 135.32 114.432 133.496 111.096 130.16ZM133.224 128.696C132.408 132.032 130.944 135.344 129.12 137.408C129.768 137.84 130.92 138.776 131.424 139.28C133.344 136.904 135.048 133.136 136.056 129.344L133.224 128.696ZM132.552 139.376C132 142.04 130.968 144.776 129.624 146.456C130.296 146.816 131.52 147.56 132.072 148.016C133.416 146.072 134.664 143 135.336 139.952L132.552 139.376ZM133.752 132.92L132.672 135.584H143.592V132.92H133.752ZM136.512 134.096V147.92C136.512 148.232 136.392 148.304 136.08 148.304C135.744 148.304 134.736 148.328 133.728 148.28C134.136 149.072 134.568 150.344 134.712 151.184C136.248 151.184 137.424 151.064 138.264 150.608C139.128 150.128 139.368 149.336 139.368 147.944V134.096H136.512ZM140.208 140C141.384 142.472 142.392 145.784 142.656 147.944L145.416 146.984C145.08 144.8 144.048 141.608 142.8 139.136L140.208 140ZM142.824 132.92V133.304C142.656 134.984 142.392 137.12 142.176 138.416L144.648 138.848C144.96 137.408 145.392 135.176 145.68 133.208L143.664 132.848L143.208 132.92H142.824ZM128.088 128.72C126.864 132.152 124.776 135.56 122.592 137.744C123.096 138.44 123.864 140.024 124.128 140.72C126.744 137.984 129.24 133.664 130.8 129.56L128.088 128.72ZM125.76 135.344V151.136H128.52V132.632L128.496 132.608L125.76 135.344ZM150.312 132.512V135.032H155.064V146.144H150.312V148.688H157.68V132.512H150.312ZM148.632 132.512V150.464H151.248V132.512H148.632ZM150.192 138.92V141.416H156.336V138.92H150.192ZM152.04 128.6C151.92 129.92 151.584 131.768 151.248 133.016L153.552 133.52C154.032 132.392 154.632 130.688 155.184 129.056L152.04 128.6ZM160.848 132.344V134.96H167.856V132.344H160.848ZM166.872 132.344V132.896C166.608 142.904 166.296 147.032 165.528 147.848C165.216 148.184 164.952 148.28 164.472 148.28C163.872 148.28 162.432 148.256 160.872 148.136C161.4 148.904 161.784 150.128 161.832 150.92C163.224 150.992 164.688 151.016 165.6 150.872C166.584 150.728 167.256 150.464 167.928 149.528C168.912 148.256 169.2 144.44 169.512 133.64C169.536 133.28 169.536 132.344 169.536 132.344H166.872ZM160.92 128.624C160.152 131.816 158.784 135.08 157.176 137.096C157.848 137.48 159.024 138.296 159.552 138.776C161.184 136.472 162.744 132.824 163.68 129.272L160.92 128.624ZM159.744 139.256C160.896 141.032 162.408 143.384 163.056 144.848L165.504 143.36C164.76 141.944 163.176 139.64 162 137.984L159.744 139.256ZM179.856 143.768V146.12H194.208V143.768H179.856ZM183.768 139.328H190.368V140.36H183.768V139.328ZM183.768 136.424H190.368V137.432H183.768V136.424ZM181.104 134.408V142.376H193.152V134.408H181.104ZM185.736 142.088C185.4 145.616 184.704 147.752 179.088 148.856C179.616 149.432 180.312 150.488 180.576 151.184C186.984 149.672 188.136 146.696 188.568 142.088H185.736ZM180.144 130.328V132.632H186.792V130.328H180.144ZM182.52 128.624V133.952H185.088V128.624H182.52ZM189.024 128.624V133.952H191.568V128.624H189.024ZM187.32 130.304V132.632H194.4V130.304H187.32ZM187.008 147.704C188.952 148.688 191.712 150.176 193.032 151.064L194.88 149.048C193.416 148.184 190.608 146.792 188.736 145.928L187.008 147.704ZM172.464 133.112V135.752H180.288V133.112H172.464ZM175.224 128.624V151.16H177.84V128.624H175.224ZM175.248 135.08C174.672 137.888 173.328 141.68 171.888 143.672C172.344 144.44 172.968 145.76 173.232 146.624C174.768 144.104 176.088 139.448 176.736 135.752L175.248 135.08ZM177.72 136.016L176.424 137.048C177.12 138.368 178.488 141.344 179.04 142.904L180.744 140.936C180.312 140.144 178.272 136.784 177.72 136.016ZM204.624 144.008V145.928H208.44V144.008H204.624ZM206.664 141.224V143.192H212.064V141.224H206.664ZM205.488 131.312V133.328H218.64V131.312H205.488ZM204.816 137.12V139.232H219.024V137.12H204.816ZM206.352 134.216V136.184H218.04V134.216H206.352ZM210.552 132.488V138.128H213.312V132.488H210.552ZM210.6 141.224V148.52C210.6 148.784 210.504 148.856 210.216 148.856C209.952 148.856 209.016 148.856 208.2 148.832C208.512 149.48 208.824 150.488 208.92 151.184C210.384 151.184 211.464 151.16 212.256 150.776C213.072 150.392 213.264 149.744 213.264 148.568V141.224H210.6ZM209.016 140C210.888 140.552 213.312 141.512 214.536 142.232L216.024 140.504C214.704 139.784 212.232 138.896 210.432 138.416L209.016 140ZM206.952 129.392C207.48 130.184 208.056 131.264 208.32 131.96L210.528 131.048C210.24 130.376 209.64 129.344 209.088 128.624L206.952 129.392ZM207.912 144.008V144.368C207.36 146.336 205.704 148.112 203.856 148.952C204.336 149.384 205.032 150.248 205.368 150.8C207.624 149.624 209.472 147.512 210.336 144.56L208.752 143.936L208.344 144.008H207.912ZM216.864 141.824C215.976 142.808 214.416 144.152 213.288 144.968L214.776 146.216C215.976 145.52 217.512 144.44 218.976 143.408L216.864 141.824ZM214.584 128.6C214.272 129.344 213.744 130.4 213.288 131.12L215.256 131.816C215.784 131.168 216.408 130.304 217.104 129.344L214.584 128.6ZM213.216 142.688L211.44 143.216C212.664 146.408 214.872 149.168 217.704 150.56C218.088 149.888 218.88 148.928 219.432 148.424C216.672 147.416 214.368 145.208 213.216 142.688ZM196.92 133.592V136.256H204.864V133.592H196.92ZM199.848 128.624V151.16H202.464V128.624H199.848ZM199.8 135.416C199.248 138.464 197.904 142.232 196.368 144.32C196.776 144.992 197.4 146.096 197.64 146.864C199.344 144.392 200.712 139.76 201.408 135.968L199.8 135.416ZM202.344 137.168L201.144 138.32C201.792 139.448 203.208 142.184 203.76 143.576L205.248 141.512C204.84 140.84 202.872 137.816 202.344 137.168ZM230.28 145.16C233.256 144.272 235.032 142.064 235.032 139.352C235.032 137.336 234.12 136.04 232.44 136.04C231.144 136.04 230.064 136.856 230.064 138.2C230.064 139.568 231.168 140.36 232.368 140.36C232.896 140.36 233.4 140.192 233.784 139.832L232.464 137.672L232.632 140.024C232.632 141.416 231.528 142.592 229.512 143.216L230.28 145.16ZM253.68 130.16V132.224H267.696V130.16H253.68ZM254.184 138.152V139.88H267.456V138.152H254.184ZM254.472 140.648V142.376H267.168V140.648H254.472ZM253.44 143.144V145.088H268.008V143.144H253.44ZM256.824 136.736V143.72H259.392V136.736H256.824ZM261.936 136.736V143.72H264.504V136.736H261.936ZM258.984 143.672C257.784 145.016 255.288 146 252.912 146.6C253.32 146.984 253.968 147.92 254.232 148.376C256.8 147.536 259.56 146.144 261.048 144.296L258.984 143.672ZM262.536 144.128L260.4 144.584C261.504 147.8 263.568 150.08 266.952 151.088C267.264 150.464 267.936 149.552 268.464 149.072C265.44 148.376 263.448 146.576 262.536 144.128ZM266.328 145.136C265.512 145.712 264.096 146.528 263.136 146.984L264.384 148.28C265.368 147.872 266.712 147.272 267.768 146.552L266.328 145.136ZM256.584 134.384H258.12V135.608H256.584V134.384ZM254.52 132.872V137.096H260.28V132.872H254.52ZM263.232 134.384H264.84V135.608H263.232V134.384ZM261.168 132.872V137.096H267.024V132.872H261.168ZM258.84 128.936C259.272 129.776 259.68 130.904 259.824 131.624L262.392 130.832C262.224 130.112 261.744 129.056 261.24 128.24L258.84 128.936ZM256.536 151.136C256.536 150.32 258.696 148.568 258.696 148.568V145.904L256.536 145.832V147.128C256.536 148.352 255.84 149.168 255.384 149.528C255.744 149.864 256.344 150.68 256.536 151.136ZM256.536 151.136C256.992 150.872 257.736 150.632 261.6 149.864C261.504 149.336 261.48 148.4 261.504 147.752L257.4 148.4L256.416 149.168L256.536 151.136ZM246.48 135.992V138.152H252.672V135.992H246.48ZM246.48 139.256V141.44H252.672V139.256H246.48ZM245.496 132.632V134.912H253.44V132.632H245.496ZM248.112 142.592V144.8H250.752V147.608H248.112V149.84H252.816V142.592H248.112ZM246.288 142.592V150.848H248.304V142.592H246.288ZM247.68 129.464C248.232 130.52 248.784 131.936 248.976 132.824L251.112 131.96C250.896 131.096 250.296 129.728 249.72 128.72L247.68 129.464ZM274.68 136.976V139.64H287.736V136.976H274.68ZM274.68 142.112V144.776H287.736V142.112H274.68ZM274.68 147.272V149.936H287.736V147.272H274.68ZM272.712 131.744V151.136H275.64V134.504H287.088V151.088H290.16V131.744H272.712ZM279.528 128.6C279.36 129.848 278.952 131.528 278.568 132.728L281.208 133.208C281.736 132.152 282.432 130.568 283.008 128.96L279.528 128.6ZM298.728 137.72V140.552H312.336V137.72H298.728ZM296.952 129.992V132.944H310.968V141.92H314.04V129.992H296.952ZM297.24 137.72V146.384C297.24 149.84 298.704 150.704 303.216 150.704C304.248 150.704 309.936 150.704 311.016 150.704C315.36 150.704 316.416 149.48 316.92 144.872C316.08 144.704 314.784 144.2 314.016 143.744C313.704 147.248 313.368 147.848 310.944 147.848C309.528 147.848 304.464 147.848 303.264 147.848C300.672 147.848 300.24 147.632 300.24 146.336V137.72H297.24ZM331.344 135.8V137.96H336.192V135.8H331.344ZM329.448 142.808V144.728H337.368V142.808H329.448ZM321.36 129.464V131.72H327.936V129.464H321.36ZM327.192 129.464V129.872C325.896 132.944 322.392 135.464 318.744 136.544C319.248 137.048 319.944 138.032 320.28 138.656C324.384 137.168 328.152 134.432 329.928 130.232L328.128 129.368L327.672 129.464H327.192ZM332.304 128.72L330 129.392C331.944 133.76 335.256 136.952 339.96 138.44C340.344 137.768 341.088 136.736 341.664 136.184C337.224 135.032 333.912 132.272 332.304 128.72ZM335.904 128.768C335.16 129.656 333.84 130.88 332.904 131.6L334.56 132.872C335.544 132.2 336.84 131.216 337.968 130.232L335.904 128.768ZM339 131.168C338.232 132.056 336.864 133.28 335.88 134L337.608 135.272C338.616 134.624 339.936 133.616 341.064 132.608L339 131.168ZM322.464 135.92V138.104H325.968V141.92H328.536V135.92H322.464ZM321.696 139.808C321.48 141.704 321.12 144.08 320.76 145.664H323.16C323.448 144.128 323.784 141.776 324.024 139.808H321.696ZM325.944 143.576V143.912C325.776 146.768 325.536 148.016 325.152 148.352C324.936 148.544 324.672 148.568 324.264 148.568C323.76 148.568 322.56 148.544 321.36 148.448C321.792 149.12 322.128 150.104 322.176 150.872C323.472 150.92 324.72 150.92 325.392 150.848C326.208 150.776 326.784 150.584 327.336 150.032C327.936 149.384 328.224 147.848 328.464 144.56C328.512 144.224 328.536 143.576 328.536 143.576H325.944ZM330.24 135.8V137.504C330.24 138.632 330 139.904 328.2 140.936C328.68 141.272 329.64 142.232 330 142.736C332.16 141.368 332.64 139.328 332.64 137.552V135.8H330.24ZM336.792 142.808V143.12C335.592 146.48 332.28 148.376 328.128 149.072C328.56 149.6 329.088 150.56 329.328 151.16C334.104 150.104 337.752 147.896 339.312 143.264L337.728 142.736L337.296 142.808H336.792ZM322.728 139.808L322.344 141.92H326.832V139.808H322.728ZM322.056 143.576L321.648 145.664H326.664V143.576H322.056ZM320.568 133.256C321.528 133.808 322.8 134.648 323.376 135.224L325.08 133.544C324.432 132.992 323.16 132.224 322.176 131.744L320.568 133.256ZM334.848 135.8V139.352C334.848 141.32 335.256 142.136 337.272 142.136C337.632 142.136 338.472 142.136 338.784 142.136C339.288 142.136 339.816 142.112 340.152 141.992C340.08 141.44 340.008 140.6 339.984 140.024C339.672 140.12 339.096 140.144 338.736 140.144C338.496 140.144 337.8 140.144 337.56 140.144C337.248 140.144 337.2 139.952 337.2 139.376V135.8H334.848ZM329.064 145.88C331.992 147.44 336.048 149.792 337.992 151.184L339.456 149.288C337.368 147.896 333.24 145.688 330.432 144.248L329.064 145.88ZM356.28 139.592V147.392C356.28 150.176 356.952 151.088 359.664 151.088C360.168 151.088 362.016 151.088 362.544 151.088C364.944 151.088 365.664 149.936 365.952 145.736C365.208 145.544 363.936 145.04 363.336 144.56C363.216 147.848 363.096 148.376 362.304 148.376C361.872 148.376 360.456 148.376 360.096 148.376C359.304 148.376 359.184 148.256 359.184 147.392V139.592H356.28ZM349.8 139.712C349.488 143.864 348.984 146.96 343.272 148.664C343.896 149.264 344.712 150.44 345.024 151.184C351.504 149.024 352.488 144.968 352.872 139.712H349.8ZM345.624 130.616C346.68 132.512 347.76 135.008 348.096 136.592L350.904 135.464C350.496 133.856 349.32 131.456 348.216 129.656L345.624 130.616ZM361.152 129.464C360.552 131.384 359.376 133.904 358.392 135.488L360.912 136.448C361.92 134.96 363.168 132.656 364.224 130.52L361.152 129.464ZM343.896 137.432V140.144H365.592V137.432H343.896ZM353.16 128.624V138.536H356.088V128.624H353.16ZM380.304 135.8V137.96H385.152V135.8H380.304ZM378.408 142.808V144.728H386.328V142.808H378.408ZM370.32 129.464V131.72H376.896V129.464H370.32ZM376.152 129.464V129.872C374.856 132.944 371.352 135.464 367.704 136.544C368.208 137.048 368.904 138.032 369.24 138.656C373.344 137.168 377.112 134.432 378.888 130.232L377.088 129.368L376.632 129.464H376.152ZM381.264 128.72L378.96 129.392C380.904 133.76 384.216 136.952 388.92 138.44C389.304 137.768 390.048 136.736 390.624 136.184C386.184 135.032 382.872 132.272 381.264 128.72ZM384.864 128.768C384.12 129.656 382.8 130.88 381.864 131.6L383.52 132.872C384.504 132.2 385.8 131.216 386.928 130.232L384.864 128.768ZM387.96 131.168C387.192 132.056 385.824 133.28 384.84 134L386.568 135.272C387.576 134.624 388.896 133.616 390.024 132.608L387.96 131.168ZM371.424 135.92V138.104H374.928V141.92H377.496V135.92H371.424ZM370.656 139.808C370.44 141.704 370.08 144.08 369.72 145.664H372.12C372.408 144.128 372.744 141.776 372.984 139.808H370.656ZM374.904 143.576V143.912C374.736 146.768 374.496 148.016 374.112 148.352C373.896 148.544 373.632 148.568 373.224 148.568C372.72 148.568 371.52 148.544 370.32 148.448C370.752 149.12 371.088 150.104 371.136 150.872C372.432 150.92 373.68 150.92 374.352 150.848C375.168 150.776 375.744 150.584 376.296 150.032C376.896 149.384 377.184 147.848 377.424 144.56C377.472 144.224 377.496 143.576 377.496 143.576H374.904ZM379.2 135.8V137.504C379.2 138.632 378.96 139.904 377.16 140.936C377.64 141.272 378.6 142.232 378.96 142.736C381.12 141.368 381.6 139.328 381.6 137.552V135.8H379.2ZM385.752 142.808V143.12C384.552 146.48 381.24 148.376 377.088 149.072C377.52 149.6 378.048 150.56 378.288 151.16C383.064 150.104 386.712 147.896 388.272 143.264L386.688 142.736L386.256 142.808H385.752ZM371.688 139.808L371.304 141.92H375.792V139.808H371.688ZM371.016 143.576L370.608 145.664H375.624V143.576H371.016ZM369.528 133.256C370.488 133.808 371.76 134.648 372.336 135.224L374.04 133.544C373.392 132.992 372.12 132.224 371.136 131.744L369.528 133.256ZM383.808 135.8V139.352C383.808 141.32 384.216 142.136 386.232 142.136C386.592 142.136 387.432 142.136 387.744 142.136C388.248 142.136 388.776 142.112 389.112 141.992C389.04 141.44 388.968 140.6 388.944 140.024C388.632 140.12 388.056 140.144 387.696 140.144C387.456 140.144 386.76 140.144 386.52 140.144C386.208 140.144 386.16 139.952 386.16 139.376V135.8H383.808ZM378.024 145.88C380.952 147.44 385.008 149.792 386.952 151.184L388.416 149.288C386.328 147.896 382.2 145.688 379.392 144.248L378.024 145.88ZM393.792 129.944V131.888H402.744V129.944H393.792ZM403.968 131.72V134.24H411.288V131.72H403.968ZM392.976 133.04V135.032H403.44V133.04H392.976ZM396.984 128.672V134.072H399.552V128.672H396.984ZM396.984 137.96V143.792H399.552V137.96H396.984ZM393.48 139.28V141.32H402.816V139.28H393.48ZM392.76 143.072L392.952 145.4C395.784 145.136 399.672 144.752 403.416 144.368L403.392 142.208C399.528 142.568 395.448 142.904 392.76 143.072ZM406.128 128.624C406.056 135.848 406.104 140.768 402.696 143.696C403.296 144.08 404.064 144.968 404.424 145.568C408.408 142.232 408.624 136.568 408.696 128.624H406.128ZM403.488 137.744C405.24 139.016 407.76 140.816 408.96 141.92L410.184 139.472C408.96 138.44 406.368 136.736 404.64 135.608L403.488 137.744ZM409.92 131.72V141.8C409.92 143.576 410.064 144.08 410.448 144.488C410.856 144.896 411.456 145.088 411.984 145.088C412.296 145.088 412.728 145.088 413.064 145.088C413.544 145.088 414.024 144.968 414.36 144.704C414.696 144.464 414.936 144.08 415.056 143.504C415.176 142.928 415.296 141.44 415.32 140.216C414.72 140.024 413.976 139.664 413.52 139.256C413.52 140.504 413.496 141.488 413.448 141.944C413.424 142.376 413.4 142.592 413.304 142.688C413.256 142.784 413.16 142.808 413.04 142.808C412.968 142.808 412.848 142.808 412.776 142.808C412.68 142.808 412.608 142.784 412.56 142.688C412.512 142.592 412.512 142.28 412.512 141.728V131.72H409.92ZM399.528 146.672C399.768 148.064 399.912 149.864 399.912 150.968L402.792 150.608C402.768 149.528 402.528 147.776 402.216 146.408L399.528 146.672ZM404.328 146.648C404.856 148.016 405.336 149.816 405.48 150.92L408.36 150.392C408.168 149.288 407.616 147.536 407.04 146.216L404.328 146.648ZM409.128 146.6C410.184 148.016 411.384 149.984 411.912 151.208L414.864 150.248C414.264 149 412.944 147.128 411.912 145.76L409.128 146.6ZM395.328 145.856C394.704 147.464 393.6 149.12 392.52 150.056L395.28 151.16C396.408 150.032 397.512 148.232 398.136 146.576L395.328 145.856ZM395.448 134.432C395.328 135.968 394.824 136.736 392.448 137.192C392.88 137.576 393.432 138.368 393.624 138.872C396.696 138.152 397.44 136.76 397.632 134.432H395.448ZM398.712 134.312V135.728C398.712 137.288 399.048 138.008 400.704 138.008C401.064 138.008 401.808 138.008 402.144 138.008C402.6 138.008 403.128 137.984 403.416 137.864C403.32 137.36 403.296 136.736 403.248 136.232C402.984 136.304 402.384 136.352 402.072 136.352C401.856 136.352 401.328 136.352 401.112 136.352C400.8 136.352 400.776 136.184 400.776 135.728V134.312H398.712Z" fill="white"/>
</svg>
